<?xml version="1.0" standalone="no"?>
 <!DOCTYPE svg PUBLIC "-//W3C//DTD SVG 1.1//EN" 
 "http://www.w3.org/Graphics/SVG/1.1/DTD/svg11.dtd"> 
<svg xmlns="http://www.w3.org/2000/svg" version="1.1" 
    width="29.7002cm" height="21.0007cm" viewBox="0 0 116930 82680 ">
<title>SVG Picture created as KaroDesk_V1_4layers-Eco1_User.svg date 2019/10/06 22:30:30 </title>
  <desc>Picture generated by PCBNEW </desc>
<g style="fill:#000000; fill-opacity:1;stroke:#000000; stroke-opacity:1;
stroke-linecap:round; stroke-linejoin:round; "
 transform="translate(0 0) scale(1 1)">
</g>
<g style="fill:#000000; fill-opacity:0.0; 
stroke:#000000; stroke-width:-0.000393701; stroke-opacity:1; 
stroke-linecap:round; stroke-linejoin:round;">
</g>
<g style="fill:#000000; fill-opacity:0.0; 
stroke:#000000; stroke-width:39.3701; stroke-opacity:1; 
stroke-linecap:round; stroke-linejoin:round;">
</g>
<g style="fill:#000000; fill-opacity:0.0; 
stroke:#000000; stroke-width:59.0551; stroke-opacity:1; 
stroke-linecap:round; stroke-linejoin:round;">
<rect x="69685.9" y="65357.2" width="42519.7" height="12598.4" rx="0" />
</g>
<g style="fill:#000000; fill-opacity:0.0; 
stroke:#000000; stroke-width:39.3701; stroke-opacity:1; 
stroke-linecap:round; stroke-linejoin:round;">
</g>
<g style="fill:#000000; fill-opacity:0.0; 
stroke:#000000; stroke-width:59.0551; stroke-opacity:1; 
stroke-linecap:round; stroke-linejoin:round;">
<rect x="3937.01" y="3937.01" width="109056" height="74806" rx="0" />
</g>
<g style="fill:#000000; fill-opacity:0.0; 
stroke:#000000; stroke-width:39.3701; stroke-opacity:1; 
stroke-linecap:round; stroke-linejoin:round;">
</g>
<g style="fill:#000000; fill-opacity:0.0; 
stroke:#000000; stroke-width:59.0551; stroke-opacity:1; 
stroke-linecap:round; stroke-linejoin:round;">
<rect x="4724.41" y="4724.41" width="107481" height="73231.2" rx="0" />
</g>
<g style="fill:#000000; fill-opacity:0.0; 
stroke:#000000; stroke-width:39.3701; stroke-opacity:1; 
stroke-linecap:round; stroke-linejoin:round;">
</g>
<g style="fill:#000000; fill-opacity:0.0; 
stroke:#000000; stroke-width:59.0551; stroke-opacity:1; 
stroke-linecap:round; stroke-linejoin:round;">
<path d="M23622 4724
L23622 3937
" />
</g>
<g style="fill:#000000; fill-opacity:0.0; 
stroke:#000000; stroke-width:39.3701; stroke-opacity:1; 
stroke-linecap:round; stroke-linejoin:round;">
</g>
<g style="fill:#000000; fill-opacity:0.0; 
stroke:#000000; stroke-width:59.0551; stroke-opacity:1; 
stroke-linecap:round; stroke-linejoin:round;">
<path d="M43307 4724
L43307 3937
" />
</g>
<g style="fill:#000000; fill-opacity:0.0; 
stroke:#000000; stroke-width:39.3701; stroke-opacity:1; 
stroke-linecap:round; stroke-linejoin:round;">
</g>
<g style="fill:#000000; fill-opacity:0.0; 
stroke:#000000; stroke-width:59.0551; stroke-opacity:1; 
stroke-linecap:round; stroke-linejoin:round;">
<path d="M62992 4724
L62992 3937
" />
</g>
<g style="fill:#000000; fill-opacity:0.0; 
stroke:#000000; stroke-width:39.3701; stroke-opacity:1; 
stroke-linecap:round; stroke-linejoin:round;">
</g>
<g style="fill:#000000; fill-opacity:0.0; 
stroke:#000000; stroke-width:59.0551; stroke-opacity:1; 
stroke-linecap:round; stroke-linejoin:round;">
<path d="M82677 4724
L82677 3937
" />
</g>
<g style="fill:#000000; fill-opacity:0.0; 
stroke:#000000; stroke-width:39.3701; stroke-opacity:1; 
stroke-linecap:round; stroke-linejoin:round;">
</g>
<g style="fill:#000000; fill-opacity:0.0; 
stroke:#000000; stroke-width:59.0551; stroke-opacity:1; 
stroke-linecap:round; stroke-linejoin:round;">
<path d="M102362 4724
L102362 3937
" />
</g>
<g style="fill:#000000; fill-opacity:0.0; 
stroke:#000000; stroke-width:39.3701; stroke-opacity:1; 
stroke-linecap:round; stroke-linejoin:round;">
</g>
<g style="fill:#000000; fill-opacity:0.0; 
stroke:#000000; stroke-width:59.0551; stroke-opacity:1; 
stroke-linecap:round; stroke-linejoin:round;">
<text x="13779.5" y="4586.61"
textLength="564.211" font-size="682.415" lengthAdjust="spacingAndGlyphs"
text-anchor="start" opacity="0">1</text>
<g class="stroked-text"><desc>1</desc>
<path d="M14199 4562
L13906 4562
" />
<path d="M14052 4562
L14052 4050
L14004 4123
L13955 4172
L13906 4196
" />
</g></g>
<g style="fill:#000000; fill-opacity:0.0; 
stroke:#000000; stroke-width:39.3701; stroke-opacity:1; 
stroke-linecap:round; stroke-linejoin:round;">
</g>
<g style="fill:#000000; fill-opacity:0.0; 
stroke:#000000; stroke-width:59.0551; stroke-opacity:1; 
stroke-linecap:round; stroke-linejoin:round;">
<text x="33464.6" y="4586.61"
textLength="546.494" font-size="682.415" lengthAdjust="spacingAndGlyphs"
text-anchor="start" opacity="0">2</text>
<g class="stroked-text"><desc>2</desc>
<path d="M33591 4099
L33615 4074
L33664 4050
L33786 4050
L33835 4074
L33859 4099
L33884 4147
L33884 4196
L33859 4269
L33567 4562
L33884 4562
" />
</g></g>
<g style="fill:#000000; fill-opacity:0.0; 
stroke:#000000; stroke-width:39.3701; stroke-opacity:1; 
stroke-linecap:round; stroke-linejoin:round;">
</g>
<g style="fill:#000000; fill-opacity:0.0; 
stroke:#000000; stroke-width:59.0551; stroke-opacity:1; 
stroke-linecap:round; stroke-linejoin:round;">
<text x="53149.6" y="4586.61"
textLength="546.494" font-size="682.415" lengthAdjust="spacingAndGlyphs"
text-anchor="start" opacity="0">3</text>
<g class="stroked-text"><desc>3</desc>
<path d="M53252 4050
L53569 4050
L53398 4245
L53471 4245
L53520 4269
L53544 4294
L53569 4342
L53569 4464
L53544 4513
L53520 4537
L53471 4562
L53325 4562
L53276 4537
L53252 4513
" />
</g></g>
<g style="fill:#000000; fill-opacity:0.0; 
stroke:#000000; stroke-width:39.3701; stroke-opacity:1; 
stroke-linecap:round; stroke-linejoin:round;">
</g>
<g style="fill:#000000; fill-opacity:0.0; 
stroke:#000000; stroke-width:59.0551; stroke-opacity:1; 
stroke-linecap:round; stroke-linejoin:round;">
<text x="72834.6" y="4586.61"
textLength="546.494" font-size="682.415" lengthAdjust="spacingAndGlyphs"
text-anchor="start" opacity="0">4</text>
<g class="stroked-text"><desc>4</desc>
<path d="M73205 4221
L73205 4562
" />
<path d="M73083 4026
L72961 4391
L73278 4391
" />
</g></g>
<g style="fill:#000000; fill-opacity:0.0; 
stroke:#000000; stroke-width:39.3701; stroke-opacity:1; 
stroke-linecap:round; stroke-linejoin:round;">
</g>
<g style="fill:#000000; fill-opacity:0.0; 
stroke:#000000; stroke-width:59.0551; stroke-opacity:1; 
stroke-linecap:round; stroke-linejoin:round;">
<text x="92519.7" y="4586.61"
textLength="546.494" font-size="682.415" lengthAdjust="spacingAndGlyphs"
text-anchor="start" opacity="0">5</text>
<g class="stroked-text"><desc>5</desc>
<path d="M92914 4050
L92671 4050
L92646 4294
L92671 4269
L92719 4245
L92841 4245
L92890 4269
L92914 4294
L92939 4342
L92939 4464
L92914 4513
L92890 4537
L92841 4562
L92719 4562
L92671 4537
L92646 4513
" />
</g></g>
<g style="fill:#000000; fill-opacity:0.0; 
stroke:#000000; stroke-width:39.3701; stroke-opacity:1; 
stroke-linecap:round; stroke-linejoin:round;">
</g>
<g style="fill:#000000; fill-opacity:0.0; 
stroke:#000000; stroke-width:59.0551; stroke-opacity:1; 
stroke-linecap:round; stroke-linejoin:round;">
<text x="112205" y="4586.61"
textLength="546.494" font-size="682.415" lengthAdjust="spacingAndGlyphs"
text-anchor="start" opacity="0">6</text>
<g class="stroked-text"><desc>6</desc>
<path d="M112575 4050
L112477 4050
L112429 4074
L112404 4099
L112356 4172
L112331 4269
L112331 4464
L112356 4513
L112380 4537
L112429 4562
L112526 4562
L112575 4537
L112599 4513
L112624 4464
L112624 4342
L112599 4294
L112575 4269
L112526 4245
L112429 4245
L112380 4269
L112356 4294
L112331 4342
" />
</g></g>
<g style="fill:#000000; fill-opacity:0.0; 
stroke:#000000; stroke-width:39.3701; stroke-opacity:1; 
stroke-linecap:round; stroke-linejoin:round;">
</g>
<g style="fill:#000000; fill-opacity:0.0; 
stroke:#000000; stroke-width:59.0551; stroke-opacity:1; 
stroke-linecap:round; stroke-linejoin:round;">
<path d="M23622 77955
L23622 78742
" />
</g>
<g style="fill:#000000; fill-opacity:0.0; 
stroke:#000000; stroke-width:39.3701; stroke-opacity:1; 
stroke-linecap:round; stroke-linejoin:round;">
</g>
<g style="fill:#000000; fill-opacity:0.0; 
stroke:#000000; stroke-width:59.0551; stroke-opacity:1; 
stroke-linecap:round; stroke-linejoin:round;">
<path d="M43307 77955
L43307 78742
" />
</g>
<g style="fill:#000000; fill-opacity:0.0; 
stroke:#000000; stroke-width:39.3701; stroke-opacity:1; 
stroke-linecap:round; stroke-linejoin:round;">
</g>
<g style="fill:#000000; fill-opacity:0.0; 
stroke:#000000; stroke-width:59.0551; stroke-opacity:1; 
stroke-linecap:round; stroke-linejoin:round;">
<path d="M62992 77955
L62992 78742
" />
</g>
<g style="fill:#000000; fill-opacity:0.0; 
stroke:#000000; stroke-width:39.3701; stroke-opacity:1; 
stroke-linecap:round; stroke-linejoin:round;">
</g>
<g style="fill:#000000; fill-opacity:0.0; 
stroke:#000000; stroke-width:59.0551; stroke-opacity:1; 
stroke-linecap:round; stroke-linejoin:round;">
<path d="M82677 77955
L82677 78742
" />
</g>
<g style="fill:#000000; fill-opacity:0.0; 
stroke:#000000; stroke-width:39.3701; stroke-opacity:1; 
stroke-linecap:round; stroke-linejoin:round;">
</g>
<g style="fill:#000000; fill-opacity:0.0; 
stroke:#000000; stroke-width:59.0551; stroke-opacity:1; 
stroke-linecap:round; stroke-linejoin:round;">
<path d="M102362 77955
L102362 78742
" />
</g>
<g style="fill:#000000; fill-opacity:0.0; 
stroke:#000000; stroke-width:39.3701; stroke-opacity:1; 
stroke-linecap:round; stroke-linejoin:round;">
</g>
<g style="fill:#000000; fill-opacity:0.0; 
stroke:#000000; stroke-width:59.0551; stroke-opacity:1; 
stroke-linecap:round; stroke-linejoin:round;">
<text x="13779.5" y="78605.2"
textLength="546.494" font-size="682.415" lengthAdjust="spacingAndGlyphs"
text-anchor="start" opacity="0">1</text>
<g class="stroked-text"><desc>1</desc>
<path d="M14199 78580
L13906 78580
" />
<path d="M14052 78580
L14052 78069
L14004 78142
L13955 78190
L13906 78215
" />
</g></g>
<g style="fill:#000000; fill-opacity:0.0; 
stroke:#000000; stroke-width:39.3701; stroke-opacity:1; 
stroke-linecap:round; stroke-linejoin:round;">
</g>
<g style="fill:#000000; fill-opacity:0.0; 
stroke:#000000; stroke-width:59.0551; stroke-opacity:1; 
stroke-linecap:round; stroke-linejoin:round;">
<text x="33464.6" y="78605.2"
textLength="546.494" font-size="682.415" lengthAdjust="spacingAndGlyphs"
text-anchor="start" opacity="0">2</text>
<g class="stroked-text"><desc>2</desc>
<path d="M33591 78117
L33615 78093
L33664 78069
L33786 78069
L33835 78093
L33859 78117
L33884 78166
L33884 78215
L33859 78288
L33567 78580
L33884 78580
" />
</g></g>
<g style="fill:#000000; fill-opacity:0.0; 
stroke:#000000; stroke-width:39.3701; stroke-opacity:1; 
stroke-linecap:round; stroke-linejoin:round;">
</g>
<g style="fill:#000000; fill-opacity:0.0; 
stroke:#000000; stroke-width:59.0551; stroke-opacity:1; 
stroke-linecap:round; stroke-linejoin:round;">
<text x="53149.6" y="78605.2"
textLength="546.494" font-size="682.415" lengthAdjust="spacingAndGlyphs"
text-anchor="start" opacity="0">3</text>
<g class="stroked-text"><desc>3</desc>
<path d="M53252 78069
L53569 78069
L53398 78263
L53471 78263
L53520 78288
L53544 78312
L53569 78361
L53569 78483
L53544 78532
L53520 78556
L53471 78580
L53325 78580
L53276 78556
L53252 78532
" />
</g></g>
<g style="fill:#000000; fill-opacity:0.0; 
stroke:#000000; stroke-width:39.3701; stroke-opacity:1; 
stroke-linecap:round; stroke-linejoin:round;">
</g>
<g style="fill:#000000; fill-opacity:0.0; 
stroke:#000000; stroke-width:59.0551; stroke-opacity:1; 
stroke-linecap:round; stroke-linejoin:round;">
<text x="72834.6" y="78605.2"
textLength="546.494" font-size="682.415" lengthAdjust="spacingAndGlyphs"
text-anchor="start" opacity="0">4</text>
<g class="stroked-text"><desc>4</desc>
<path d="M73205 78239
L73205 78580
" />
<path d="M73083 78044
L72961 78410
L73278 78410
" />
</g></g>
<g style="fill:#000000; fill-opacity:0.0; 
stroke:#000000; stroke-width:39.3701; stroke-opacity:1; 
stroke-linecap:round; stroke-linejoin:round;">
</g>
<g style="fill:#000000; fill-opacity:0.0; 
stroke:#000000; stroke-width:59.0551; stroke-opacity:1; 
stroke-linecap:round; stroke-linejoin:round;">
<text x="92519.7" y="78605.2"
textLength="546.494" font-size="682.415" lengthAdjust="spacingAndGlyphs"
text-anchor="start" opacity="0">5</text>
<g class="stroked-text"><desc>5</desc>
<path d="M92914 78069
L92671 78069
L92646 78312
L92671 78288
L92719 78263
L92841 78263
L92890 78288
L92914 78312
L92939 78361
L92939 78483
L92914 78532
L92890 78556
L92841 78580
L92719 78580
L92671 78556
L92646 78532
" />
</g></g>
<g style="fill:#000000; fill-opacity:0.0; 
stroke:#000000; stroke-width:39.3701; stroke-opacity:1; 
stroke-linecap:round; stroke-linejoin:round;">
</g>
<g style="fill:#000000; fill-opacity:0.0; 
stroke:#000000; stroke-width:59.0551; stroke-opacity:1; 
stroke-linecap:round; stroke-linejoin:round;">
<text x="112205" y="78605.2"
textLength="546.494" font-size="682.415" lengthAdjust="spacingAndGlyphs"
text-anchor="start" opacity="0">6</text>
<g class="stroked-text"><desc>6</desc>
<path d="M112575 78069
L112477 78069
L112429 78093
L112404 78117
L112356 78190
L112331 78288
L112331 78483
L112356 78532
L112380 78556
L112429 78580
L112526 78580
L112575 78556
L112599 78532
L112624 78483
L112624 78361
L112599 78312
L112575 78288
L112526 78263
L112429 78263
L112380 78288
L112356 78312
L112331 78361
" />
</g></g>
<g style="fill:#000000; fill-opacity:0.0; 
stroke:#000000; stroke-width:39.3701; stroke-opacity:1; 
stroke-linecap:round; stroke-linejoin:round;">
</g>
<g style="fill:#000000; fill-opacity:0.0; 
stroke:#000000; stroke-width:59.0551; stroke-opacity:1; 
stroke-linecap:round; stroke-linejoin:round;">
<path d="M3937 23622
L4724 23622
" />
</g>
<g style="fill:#000000; fill-opacity:0.0; 
stroke:#000000; stroke-width:39.3701; stroke-opacity:1; 
stroke-linecap:round; stroke-linejoin:round;">
</g>
<g style="fill:#000000; fill-opacity:0.0; 
stroke:#000000; stroke-width:59.0551; stroke-opacity:1; 
stroke-linecap:round; stroke-linejoin:round;">
<path d="M3937 43307
L4724 43307
" />
</g>
<g style="fill:#000000; fill-opacity:0.0; 
stroke:#000000; stroke-width:39.3701; stroke-opacity:1; 
stroke-linecap:round; stroke-linejoin:round;">
</g>
<g style="fill:#000000; fill-opacity:0.0; 
stroke:#000000; stroke-width:59.0551; stroke-opacity:1; 
stroke-linecap:round; stroke-linejoin:round;">
<path d="M3937 62992
L4724 62992
" />
</g>
<g style="fill:#000000; fill-opacity:0.0; 
stroke:#000000; stroke-width:39.3701; stroke-opacity:1; 
stroke-linecap:round; stroke-linejoin:round;">
</g>
<g style="fill:#000000; fill-opacity:0.0; 
stroke:#000000; stroke-width:59.0551; stroke-opacity:1; 
stroke-linecap:round; stroke-linejoin:round;">
<text x="4330.71" y="14035.4"
textLength="497.75" font-size="682.415" lengthAdjust="spacingAndGlyphs"
text-anchor="middle" opacity="0">A</text>
<g class="stroked-text"><desc>A</desc>
<path d="M4208 13864
L4452 13864
" />
<path d="M4160 14011
L4330 13499
L4501 14011
" />
</g></g>
<g style="fill:#000000; fill-opacity:0.0; 
stroke:#000000; stroke-width:39.3701; stroke-opacity:1; 
stroke-linecap:round; stroke-linejoin:round;">
</g>
<g style="fill:#000000; fill-opacity:0.0; 
stroke:#000000; stroke-width:59.0551; stroke-opacity:1; 
stroke-linecap:round; stroke-linejoin:round;">
<text x="4330.71" y="33720.5"
textLength="570.866" font-size="682.415" lengthAdjust="spacingAndGlyphs"
text-anchor="middle" opacity="0">B</text>
<g class="stroked-text"><desc>B</desc>
<path d="M4367 33428
L4440 33452
L4464 33476
L4489 33525
L4489 33598
L4464 33647
L4440 33671
L4391 33696
L4196 33696
L4196 33184
L4367 33184
L4416 33208
L4440 33233
L4464 33281
L4464 33330
L4440 33379
L4416 33403
L4367 33428
L4196 33428
" />
</g></g>
<g style="fill:#000000; fill-opacity:0.0; 
stroke:#000000; stroke-width:39.3701; stroke-opacity:1; 
stroke-linecap:round; stroke-linejoin:round;">
</g>
<g style="fill:#000000; fill-opacity:0.0; 
stroke:#000000; stroke-width:59.0551; stroke-opacity:1; 
stroke-linecap:round; stroke-linejoin:round;">
<text x="4330.71" y="53405.5"
textLength="570.866" font-size="682.415" lengthAdjust="spacingAndGlyphs"
text-anchor="middle" opacity="0">C</text>
<g class="stroked-text"><desc>C</desc>
<path d="M4489 53332
L4464 53356
L4391 53381
L4342 53381
L4269 53356
L4221 53308
L4196 53259
L4172 53161
L4172 53088
L4196 52991
L4221 52942
L4269 52893
L4342 52869
L4391 52869
L4464 52893
L4489 52918
" />
</g></g>
<g style="fill:#000000; fill-opacity:0.0; 
stroke:#000000; stroke-width:39.3701; stroke-opacity:1; 
stroke-linecap:round; stroke-linejoin:round;">
</g>
<g style="fill:#000000; fill-opacity:0.0; 
stroke:#000000; stroke-width:59.0551; stroke-opacity:1; 
stroke-linecap:round; stroke-linejoin:round;">
<text x="4330.71" y="73090.6"
textLength="570.866" font-size="682.415" lengthAdjust="spacingAndGlyphs"
text-anchor="middle" opacity="0">D</text>
<g class="stroked-text"><desc>D</desc>
<path d="M4196 73066
L4196 72554
L4318 72554
L4391 72578
L4440 72627
L4464 72676
L4489 72773
L4489 72846
L4464 72944
L4440 72993
L4391 73041
L4318 73066
L4196 73066
" />
</g></g>
<g style="fill:#000000; fill-opacity:0.0; 
stroke:#000000; stroke-width:39.3701; stroke-opacity:1; 
stroke-linecap:round; stroke-linejoin:round;">
</g>
<g style="fill:#000000; fill-opacity:0.0; 
stroke:#000000; stroke-width:59.0551; stroke-opacity:1; 
stroke-linecap:round; stroke-linejoin:round;">
<path d="M112992 23622
L112205 23622
" />
</g>
<g style="fill:#000000; fill-opacity:0.0; 
stroke:#000000; stroke-width:39.3701; stroke-opacity:1; 
stroke-linecap:round; stroke-linejoin:round;">
</g>
<g style="fill:#000000; fill-opacity:0.0; 
stroke:#000000; stroke-width:59.0551; stroke-opacity:1; 
stroke-linecap:round; stroke-linejoin:round;">
<path d="M112992 43307
L112205 43307
" />
</g>
<g style="fill:#000000; fill-opacity:0.0; 
stroke:#000000; stroke-width:39.3701; stroke-opacity:1; 
stroke-linecap:round; stroke-linejoin:round;">
</g>
<g style="fill:#000000; fill-opacity:0.0; 
stroke:#000000; stroke-width:59.0551; stroke-opacity:1; 
stroke-linecap:round; stroke-linejoin:round;">
<path d="M112992 62992
L112205 62992
" />
</g>
<g style="fill:#000000; fill-opacity:0.0; 
stroke:#000000; stroke-width:39.3701; stroke-opacity:1; 
stroke-linecap:round; stroke-linejoin:round;">
</g>
<g style="fill:#000000; fill-opacity:0.0; 
stroke:#000000; stroke-width:59.0551; stroke-opacity:1; 
stroke-linecap:round; stroke-linejoin:round;">
<text x="112599" y="14035.4"
textLength="497.75" font-size="682.415" lengthAdjust="spacingAndGlyphs"
text-anchor="middle" opacity="0">A</text>
<g class="stroked-text"><desc>A</desc>
<path d="M112477 13864
L112721 13864
" />
<path d="M112428 14011
L112599 13499
L112769 14011
" />
</g></g>
<g style="fill:#000000; fill-opacity:0.0; 
stroke:#000000; stroke-width:39.3701; stroke-opacity:1; 
stroke-linecap:round; stroke-linejoin:round;">
</g>
<g style="fill:#000000; fill-opacity:0.0; 
stroke:#000000; stroke-width:59.0551; stroke-opacity:1; 
stroke-linecap:round; stroke-linejoin:round;">
<text x="112599" y="33720.5"
textLength="570.866" font-size="682.415" lengthAdjust="spacingAndGlyphs"
text-anchor="middle" opacity="0">B</text>
<g class="stroked-text"><desc>B</desc>
<path d="M112635 33428
L112708 33452
L112733 33476
L112757 33525
L112757 33598
L112733 33647
L112708 33671
L112660 33696
L112465 33696
L112465 33184
L112635 33184
L112684 33208
L112708 33233
L112733 33281
L112733 33330
L112708 33379
L112684 33403
L112635 33428
L112465 33428
" />
</g></g>
<g style="fill:#000000; fill-opacity:0.0; 
stroke:#000000; stroke-width:39.3701; stroke-opacity:1; 
stroke-linecap:round; stroke-linejoin:round;">
</g>
<g style="fill:#000000; fill-opacity:0.0; 
stroke:#000000; stroke-width:59.0551; stroke-opacity:1; 
stroke-linecap:round; stroke-linejoin:round;">
<text x="112599" y="53405.5"
textLength="570.866" font-size="682.415" lengthAdjust="spacingAndGlyphs"
text-anchor="middle" opacity="0">C</text>
<g class="stroked-text"><desc>C</desc>
<path d="M112757 53332
L112733 53356
L112660 53381
L112611 53381
L112538 53356
L112489 53308
L112465 53259
L112440 53161
L112440 53088
L112465 52991
L112489 52942
L112538 52893
L112611 52869
L112660 52869
L112733 52893
L112757 52918
" />
</g></g>
<g style="fill:#000000; fill-opacity:0.0; 
stroke:#000000; stroke-width:39.3701; stroke-opacity:1; 
stroke-linecap:round; stroke-linejoin:round;">
</g>
<g style="fill:#000000; fill-opacity:0.0; 
stroke:#000000; stroke-width:59.0551; stroke-opacity:1; 
stroke-linecap:round; stroke-linejoin:round;">
<text x="112599" y="73090.6"
textLength="570.866" font-size="682.415" lengthAdjust="spacingAndGlyphs"
text-anchor="middle" opacity="0">D</text>
<g class="stroked-text"><desc>D</desc>
<path d="M112465 73066
L112465 72554
L112587 72554
L112660 72578
L112708 72627
L112733 72676
L112757 72773
L112757 72846
L112733 72944
L112708 72993
L112660 73041
L112587 73066
L112465 73066
" />
</g></g>
<g style="fill:#000000; fill-opacity:0.0; 
stroke:#000000; stroke-width:39.3701; stroke-opacity:1; 
stroke-linecap:round; stroke-linejoin:round;">
</g>
<g style="fill:#000000; fill-opacity:0.0; 
stroke:#000000; stroke-width:59.0551; stroke-opacity:1; 
stroke-linecap:round; stroke-linejoin:round;">
<text x="78741" y="76321.7"
textLength="2758.72" font-size="787.402" lengthAdjust="spacingAndGlyphs"
text-anchor="start" opacity="0">Date: </text>
<g class="stroked-text"><desc>Date: </desc>
<path d="M78911 76293
L78911 75703
L79051 75703
L79136 75731
L79192 75787
L79220 75843
L79248 75956
L79248 76040
L79220 76153
L79192 76209
L79136 76265
L79051 76293
L78911 76293
" />
<path d="M79754 76293
L79754 75984
L79726 75928
L79670 75899
L79557 75899
L79501 75928
" />
<path d="M79754 76265
L79698 76293
L79557 76293
L79501 76265
L79473 76209
L79473 76153
L79501 76096
L79557 76068
L79698 76068
L79754 76040
" />
<path d="M79951 75899
L80176 75899
" />
<path d="M80036 75703
L80036 76209
L80064 76265
L80120 76293
L80176 76293
" />
<path d="M80598 76265
L80542 76293
L80429 76293
L80373 76265
L80345 76209
L80345 75984
L80373 75928
L80429 75899
L80542 75899
L80598 75928
L80626 75984
L80626 76040
L80345 76096
" />
<path d="M80879 76237
L80907 76265
L80879 76293
L80851 76265
L80879 76237
L80879 76293
" />
<path d="M80879 75928
L80907 75956
L80879 75984
L80851 75956
L80879 75928
L80879 75984
" />
</g></g>
<g style="fill:#000000; fill-opacity:0.0; 
stroke:#000000; stroke-width:39.3701; stroke-opacity:1; 
stroke-linecap:round; stroke-linejoin:round;">
</g>
<g style="fill:#000000; fill-opacity:0.0; 
stroke:#000000; stroke-width:59.0551; stroke-opacity:1; 
stroke-linecap:round; stroke-linejoin:round;">
<path d="M69685 76577
L112205 76577
" />
</g>
<g style="fill:#000000; fill-opacity:0.0; 
stroke:#000000; stroke-width:39.3701; stroke-opacity:1; 
stroke-linecap:round; stroke-linejoin:round;">
</g>
<g style="fill:#000000; fill-opacity:0.0; 
stroke:#000000; stroke-width:59.0551; stroke-opacity:1; 
stroke-linecap:round; stroke-linejoin:round;">
<text x="70079.6" y="77424.1"
textLength="30064.7" font-size="787.402" lengthAdjust="spacingAndGlyphs"
text-anchor="start" opacity="0">KiCad E.D.A.  pcbnew 5.99.0-unknown-c3175b4~100~ubuntu16.04.1</text>
<g class="stroked-text"><desc>KiCad E.D.A.  pcbnew 5.99.0-unknown-c3175b4~100~ubuntu16.04.1</desc>
<path d="M70249 77395
L70249 76805
" />
<path d="M70587 77395
L70334 77058
" />
<path d="M70587 76805
L70249 77142
" />
<path d="M70840 77395
L70840 77002
" />
<path d="M70840 76805
L70812 76833
L70840 76861
L70868 76833
L70840 76805
L70840 76861
" />
<path d="M71458 77339
L71430 77367
L71346 77395
L71290 77395
L71205 77367
L71149 77311
L71121 77255
L71093 77142
L71093 77058
L71121 76946
L71149 76889
L71205 76833
L71290 76805
L71346 76805
L71430 76833
L71458 76861
" />
<path d="M71965 77395
L71965 77086
L71937 77030
L71880 77002
L71768 77002
L71712 77030
" />
<path d="M71965 77367
L71908 77395
L71768 77395
L71712 77367
L71683 77311
L71683 77255
L71712 77199
L71768 77171
L71908 77171
L71965 77142
" />
<path d="M72499 77395
L72499 76805
" />
<path d="M72499 77367
L72443 77395
L72330 77395
L72274 77367
L72246 77339
L72218 77283
L72218 77114
L72246 77058
L72274 77030
L72330 77002
L72443 77002
L72499 77030
" />
<path d="M73230 77086
L73427 77086
" />
<path d="M73511 77395
L73230 77395
L73230 76805
L73511 76805
" />
<path d="M73764 77339
L73793 77367
L73764 77395
L73736 77367
L73764 77339
L73764 77395
" />
<path d="M74046 77395
L74046 76805
L74186 76805
L74271 76833
L74327 76889
L74355 76946
L74383 77058
L74383 77142
L74355 77255
L74327 77311
L74271 77367
L74186 77395
L74046 77395
" />
<path d="M74636 77339
L74664 77367
L74636 77395
L74608 77367
L74636 77339
L74636 77395
" />
<path d="M74889 77227
L75171 77227
" />
<path d="M74833 77395
L75030 76805
L75227 77395
" />
<path d="M75424 77339
L75452 77367
L75424 77395
L75395 77367
L75424 77339
L75424 77395
" />
<path d="M76605 77002
L76605 77592
" />
<path d="M76605 77030
L76661 77002
L76773 77002
L76830 77030
L76858 77058
L76886 77114
L76886 77283
L76858 77339
L76830 77367
L76773 77395
L76661 77395
L76605 77367
" />
<path d="M77392 77367
L77336 77395
L77223 77395
L77167 77367
L77139 77339
L77111 77283
L77111 77114
L77139 77058
L77167 77030
L77223 77002
L77336 77002
L77392 77030
" />
<path d="M77645 77395
L77645 76805
" />
<path d="M77645 77030
L77701 77002
L77814 77002
L77870 77030
L77898 77058
L77926 77114
L77926 77283
L77898 77339
L77870 77367
L77814 77395
L77701 77395
L77645 77367
" />
<path d="M78180 77002
L78180 77395
" />
<path d="M78180 77058
L78208 77030
L78264 77002
L78348 77002
L78404 77030
L78433 77086
L78433 77395
" />
<path d="M78939 77367
L78883 77395
L78770 77395
L78714 77367
L78686 77311
L78686 77086
L78714 77030
L78770 77002
L78883 77002
L78939 77030
L78967 77086
L78967 77142
L78686 77199
" />
<path d="M79164 77002
L79276 77395
L79389 77114
L79501 77395
L79614 77002
" />
<path d="M80570 76805
L80289 76805
L80260 77086
L80289 77058
L80345 77030
L80485 77030
L80542 77058
L80570 77086
L80598 77142
L80598 77283
L80570 77339
L80542 77367
L80485 77395
L80345 77395
L80289 77367
L80260 77339
" />
<path d="M80851 77339
L80879 77367
L80851 77395
L80823 77367
L80851 77339
L80851 77395
" />
<path d="M81160 77395
L81273 77395
L81329 77367
L81357 77339
L81413 77255
L81442 77142
L81442 76917
L81413 76861
L81385 76833
L81329 76805
L81217 76805
L81160 76833
L81132 76861
L81104 76917
L81104 77058
L81132 77114
L81160 77142
L81217 77171
L81329 77171
L81385 77142
L81413 77114
L81442 77058
" />
<path d="M81723 77395
L81835 77395
L81892 77367
L81920 77339
L81976 77255
L82004 77142
L82004 76917
L81976 76861
L81948 76833
L81892 76805
L81779 76805
L81723 76833
L81695 76861
L81667 76917
L81667 77058
L81695 77114
L81723 77142
L81779 77171
L81892 77171
L81948 77142
L81976 77114
L82004 77058
" />
<path d="M82257 77339
L82285 77367
L82257 77395
L82229 77367
L82257 77339
L82257 77395
" />
<path d="M82651 76805
L82707 76805
L82763 76833
L82791 76861
L82820 76917
L82848 77030
L82848 77171
L82820 77283
L82791 77339
L82763 77367
L82707 77395
L82651 77395
L82595 77367
L82566 77339
L82538 77283
L82510 77171
L82510 77030
L82538 76917
L82566 76861
L82595 76833
L82651 76805
" />
<path d="M83101 77171
L83551 77171
" />
<path d="M84085 77002
L84085 77395
" />
<path d="M83832 77002
L83832 77311
L83860 77367
L83916 77395
L84001 77395
L84057 77367
L84085 77339
" />
<path d="M84366 77002
L84366 77395
" />
<path d="M84366 77058
L84394 77030
L84451 77002
L84535 77002
L84591 77030
L84619 77086
L84619 77395
" />
<path d="M84901 77395
L84901 76805
" />
<path d="M84957 77171
L85126 77395
" />
<path d="M85126 77002
L84901 77227
" />
<path d="M85379 77002
L85379 77395
" />
<path d="M85379 77058
L85407 77030
L85463 77002
L85547 77002
L85604 77030
L85632 77086
L85632 77395
" />
<path d="M85997 77395
L85941 77367
L85913 77339
L85885 77283
L85885 77114
L85913 77058
L85941 77030
L85997 77002
L86082 77002
L86138 77030
L86166 77058
L86194 77114
L86194 77283
L86166 77339
L86138 77367
L86082 77395
L85997 77395
" />
<path d="M86391 77002
L86503 77395
L86616 77114
L86728 77395
L86841 77002
" />
<path d="M87066 77002
L87066 77395
" />
<path d="M87066 77058
L87094 77030
L87150 77002
L87235 77002
L87291 77030
L87319 77086
L87319 77395
" />
<path d="M87600 77171
L88050 77171
" />
<path d="M88584 77367
L88528 77395
L88416 77395
L88359 77367
L88331 77339
L88303 77283
L88303 77114
L88331 77058
L88359 77030
L88416 77002
L88528 77002
L88584 77030
" />
<path d="M88781 76805
L89147 76805
L88950 77030
L89034 77030
L89091 77058
L89119 77086
L89147 77142
L89147 77283
L89119 77339
L89091 77367
L89034 77395
L88866 77395
L88809 77367
L88781 77339
" />
<path d="M89709 77395
L89372 77395
" />
<path d="M89541 77395
L89541 76805
L89484 76889
L89428 76946
L89372 76974
" />
<path d="M89906 76805
L90300 76805
L90047 77395
" />
<path d="M90806 76805
L90525 76805
L90497 77086
L90525 77058
L90581 77030
L90722 77030
L90778 77058
L90806 77086
L90834 77142
L90834 77283
L90806 77339
L90778 77367
L90722 77395
L90581 77395
L90525 77367
L90497 77339
" />
<path d="M91087 77395
L91087 76805
" />
<path d="M91087 77030
L91144 77002
L91256 77002
L91312 77030
L91340 77058
L91368 77114
L91368 77283
L91340 77339
L91312 77367
L91256 77395
L91144 77395
L91087 77367
" />
<path d="M91875 77002
L91875 77395
" />
<path d="M91734 76777
L91593 77199
L91959 77199
" />
<path d="M92043 76644
L92606 76644
" />
<path d="M92493 77395
L92156 77395
" />
<path d="M92325 77395
L92325 76805
L92268 76889
L92212 76946
L92156 76974
" />
<path d="M92606 76644
L93168 76644
" />
<path d="M92859 76805
L92915 76805
L92971 76833
L93000 76861
L93028 76917
L93056 77030
L93056 77171
L93028 77283
L93000 77339
L92971 77367
L92915 77395
L92859 77395
L92803 77367
L92775 77339
L92746 77283
L92718 77171
L92718 77030
L92746 76917
L92775 76861
L92803 76833
L92859 76805
" />
<path d="M93168 76644
L93731 76644
" />
<path d="M93421 76805
L93478 76805
L93534 76833
L93562 76861
L93590 76917
L93618 77030
L93618 77171
L93590 77283
L93562 77339
L93534 77367
L93478 77395
L93421 77395
L93365 77367
L93337 77339
L93309 77283
L93281 77171
L93281 77030
L93309 76917
L93337 76861
L93365 76833
L93421 76805
" />
<path d="M94124 77002
L94124 77395
" />
<path d="M93871 77002
L93871 77311
L93899 77367
L93956 77395
L94040 77395
L94096 77367
L94124 77339
" />
<path d="M94406 77395
L94406 76805
" />
<path d="M94406 77030
L94462 77002
L94574 77002
L94631 77030
L94659 77058
L94687 77114
L94687 77283
L94659 77339
L94631 77367
L94574 77395
L94462 77395
L94406 77367
" />
<path d="M95193 77002
L95193 77395
" />
<path d="M94940 77002
L94940 77311
L94968 77367
L95024 77395
L95109 77395
L95165 77367
L95193 77339
" />
<path d="M95474 77002
L95474 77395
" />
<path d="M95474 77058
L95502 77030
L95559 77002
L95643 77002
L95699 77030
L95727 77086
L95727 77395
" />
<path d="M95924 77002
L96149 77002
" />
<path d="M96009 76805
L96009 77311
L96037 77367
L96093 77395
L96149 77395
" />
<path d="M96599 77002
L96599 77395
" />
<path d="M96346 77002
L96346 77311
L96374 77367
L96430 77395
L96515 77395
L96571 77367
L96599 77339
" />
<path d="M97190 77395
L96852 77395
" />
<path d="M97021 77395
L97021 76805
L96965 76889
L96908 76946
L96852 76974
" />
<path d="M97696 76805
L97583 76805
L97527 76833
L97499 76861
L97443 76946
L97415 77058
L97415 77283
L97443 77339
L97471 77367
L97527 77395
L97640 77395
L97696 77367
L97724 77339
L97752 77283
L97752 77142
L97724 77086
L97696 77058
L97640 77030
L97527 77030
L97471 77058
L97443 77086
L97415 77142
" />
<path d="M98005 77339
L98033 77367
L98005 77395
L97977 77367
L98005 77339
L98005 77395
" />
<path d="M98399 76805
L98455 76805
L98511 76833
L98539 76861
L98568 76917
L98596 77030
L98596 77171
L98568 77283
L98539 77339
L98511 77367
L98455 77395
L98399 77395
L98343 77367
L98314 77339
L98286 77283
L98258 77171
L98258 77030
L98286 76917
L98314 76861
L98343 76833
L98399 76805
" />
<path d="M99102 77002
L99102 77395
" />
<path d="M98961 76777
L98821 77199
L99186 77199
" />
<path d="M99411 77339
L99439 77367
L99411 77395
L99383 77367
L99411 77339
L99411 77395
" />
<path d="M100002 77395
L99664 77395
" />
<path d="M99833 77395
L99833 76805
L99777 76889
L99721 76946
L99664 76974
" />
</g></g>
<g style="fill:#000000; fill-opacity:0.0; 
stroke:#000000; stroke-width:39.3701; stroke-opacity:1; 
stroke-linecap:round; stroke-linejoin:round;">
</g>
<g style="fill:#000000; fill-opacity:0.0; 
stroke:#000000; stroke-width:59.0551; stroke-opacity:1; 
stroke-linecap:round; stroke-linejoin:round;">
<path d="M69685 75396
L112205 75396
" />
</g>
<g style="fill:#000000; fill-opacity:0.0; 
stroke:#000000; stroke-width:39.3701; stroke-opacity:1; 
stroke-linecap:round; stroke-linejoin:round;">
</g>
<g style="fill:#000000; fill-opacity:0.0; 
stroke:#000000; stroke-width:118.11; stroke-opacity:1; 
stroke-linecap:round; stroke-linejoin:round;">
<text x="103544" y="76321.7"
textLength="2336.9" font-size="787.402" lengthAdjust="spacingAndGlyphs"
text-anchor="start" opacity="0">Rev: </text>
<g class="stroked-text"><desc>Rev: </desc>
<path d="M104099 76293
L103902 76012
" />
<path d="M103761 76293
L103761 75703
L103986 75703
L104042 75731
L104070 75759
L104099 75815
L104099 75899
L104070 75956
L104042 75984
L103986 76012
L103761 76012
" />
<path d="M104577 76265
L104520 76293
L104408 76293
L104352 76265
L104323 76209
L104323 75984
L104352 75928
L104408 75899
L104520 75899
L104577 75928
L104605 75984
L104605 76040
L104323 76096
" />
<path d="M104802 75899
L104942 76293
L105083 75899
" />
<path d="M105308 76237
L105336 76265
L105308 76293
L105280 76265
L105308 76237
L105308 76293
" />
<path d="M105308 75928
L105336 75956
L105308 75984
L105280 75956
L105308 75928
L105308 75984
" />
</g></g>
<g style="fill:#000000; fill-opacity:0.0; 
stroke:#000000; stroke-width:39.3701; stroke-opacity:1; 
stroke-linecap:round; stroke-linejoin:round;">
</g>
<g style="fill:#000000; fill-opacity:0.0; 
stroke:#000000; stroke-width:59.0551; stroke-opacity:1; 
stroke-linecap:round; stroke-linejoin:round;">
<text x="70079.6" y="76321.7"
textLength="3781.21" font-size="787.402" lengthAdjust="spacingAndGlyphs"
text-anchor="start" opacity="0">Size: A4</text>
<g class="stroked-text"><desc>Size: A4</desc>
<path d="M70221 76265
L70305 76293
L70446 76293
L70502 76265
L70530 76237
L70559 76181
L70559 76124
L70530 76068
L70502 76040
L70446 76012
L70334 75984
L70277 75956
L70249 75928
L70221 75871
L70221 75815
L70249 75759
L70277 75731
L70334 75703
L70474 75703
L70559 75731
" />
<path d="M70812 76293
L70812 75899
" />
<path d="M70812 75703
L70784 75731
L70812 75759
L70840 75731
L70812 75703
L70812 75759
" />
<path d="M71037 75899
L71346 75899
L71037 76293
L71346 76293
" />
<path d="M71796 76265
L71740 76293
L71627 76293
L71571 76265
L71543 76209
L71543 75984
L71571 75928
L71627 75899
L71740 75899
L71796 75928
L71824 75984
L71824 76040
L71543 76096
" />
<path d="M72077 76237
L72105 76265
L72077 76293
L72049 76265
L72077 76237
L72077 76293
" />
<path d="M72077 75928
L72105 75956
L72077 75984
L72049 75956
L72077 75928
L72077 75984
" />
<path d="M72780 76124
L73061 76124
" />
<path d="M72724 76293
L72921 75703
L73118 76293
" />
<path d="M73568 75899
L73568 76293
" />
<path d="M73427 75674
L73286 76096
L73652 76096
" />
</g></g>
<g style="fill:#000000; fill-opacity:0.0; 
stroke:#000000; stroke-width:39.3701; stroke-opacity:1; 
stroke-linecap:round; stroke-linejoin:round;">
</g>
<g style="fill:#000000; fill-opacity:0.0; 
stroke:#000000; stroke-width:59.0551; stroke-opacity:1; 
stroke-linecap:round; stroke-linejoin:round;">
<text x="103544" y="77424.1"
textLength="3349.27" font-size="787.402" lengthAdjust="spacingAndGlyphs"
text-anchor="start" opacity="0">Id: 1/1</text>
<g class="stroked-text"><desc>Id: 1/1</desc>
<path d="M103714 77395
L103714 76805
" />
<path d="M104248 77395
L104248 76805
" />
<path d="M104248 77367
L104192 77395
L104079 77395
L104023 77367
L103995 77339
L103967 77283
L103967 77114
L103995 77058
L104023 77030
L104079 77002
L104192 77002
L104248 77030
" />
<path d="M104529 77339
L104557 77367
L104529 77395
L104501 77367
L104529 77339
L104529 77395
" />
<path d="M104529 77030
L104557 77058
L104529 77086
L104501 77058
L104529 77030
L104529 77086
" />
<path d="M105570 77395
L105232 77395
" />
<path d="M105401 77395
L105401 76805
L105345 76889
L105289 76946
L105232 76974
" />
<path d="M106245 76777
L105739 77536
" />
<path d="M106751 77395
L106413 77395
" />
<path d="M106582 77395
L106582 76805
L106526 76889
L106470 76946
L106413 76974
" />
</g></g>
<g style="fill:#000000; fill-opacity:0.0; 
stroke:#000000; stroke-width:39.3701; stroke-opacity:1; 
stroke-linecap:round; stroke-linejoin:round;">
</g>
<g style="fill:#000000; fill-opacity:0.0; 
stroke:#000000; stroke-width:59.0551; stroke-opacity:1; 
stroke-linecap:round; stroke-linejoin:round;">
<path d="M69685 73821
L112205 73821
" />
</g>
<g style="fill:#000000; fill-opacity:0.0; 
stroke:#000000; stroke-width:39.3701; stroke-opacity:1; 
stroke-linecap:round; stroke-linejoin:round;">
</g>
<g style="fill:#000000; fill-opacity:0.0; 
stroke:#000000; stroke-width:157.48; stroke-opacity:1; 
stroke-linecap:round; stroke-linejoin:round;">
<text x="70079.6" y="74924.1"
textLength="3704.58" font-size="1049.87" lengthAdjust="spacingAndGlyphs"
text-anchor="start" opacity="0">Title: </text>
<g class="stroked-text"><desc>Title: </desc>
<path d="M70360 74099
L70810 74099
" />
<path d="M70486 74886
L70585 74099
" />
<path d="M70974 74886
L71039 74361
" />
<path d="M71072 74099
L71030 74136
L71063 74174
L71105 74136
L71072 74099
L71063 74174
" />
<path d="M71302 74361
L71602 74361
" />
<path d="M71447 74099
L71363 74774
L71391 74849
L71461 74886
L71536 74886
" />
<path d="M71911 74886
L71841 74849
L71813 74774
L71897 74099
" />
<path d="M72516 74849
L72436 74886
L72286 74886
L72216 74849
L72187 74774
L72225 74474
L72272 74399
L72352 74361
L72501 74361
L72572 74399
L72600 74474
L72591 74549
L72206 74624
" />
<path d="M72895 74811
L72928 74849
L72886 74886
L72853 74849
L72895 74811
L72886 74886
" />
<path d="M72947 74399
L72980 74436
L72937 74474
L72905 74436
L72947 74399
L72937 74474
" />
</g></g>
<g style="fill:#000000; fill-opacity:0.0; 
stroke:#000000; stroke-width:39.3701; stroke-opacity:1; 
stroke-linecap:round; stroke-linejoin:round;">
</g>
<g style="fill:#000000; fill-opacity:0.0; 
stroke:#000000; stroke-width:59.0551; stroke-opacity:1; 
stroke-linecap:round; stroke-linejoin:round;">
<text x="70079.6" y="73408.3"
textLength="16430.8" font-size="787.402" lengthAdjust="spacingAndGlyphs"
text-anchor="start" opacity="0">File: KaroDesk_V1_4layers.kicad_pcb</text>
<g class="stroked-text"><desc>File: KaroDesk_V1_4layers.kicad_pcb</desc>
<path d="M70446 73070
L70249 73070
" />
<path d="M70249 73380
L70249 72789
L70530 72789
" />
<path d="M70755 73380
L70755 72986
" />
<path d="M70755 72789
L70727 72817
L70755 72845
L70784 72817
L70755 72789
L70755 72845
" />
<path d="M71121 73380
L71065 73352
L71037 73295
L71037 72789
" />
<path d="M71571 73352
L71515 73380
L71402 73380
L71346 73352
L71318 73295
L71318 73070
L71346 73014
L71402 72986
L71515 72986
L71571 73014
L71599 73070
L71599 73127
L71318 73183
" />
<path d="M71852 73323
L71880 73352
L71852 73380
L71824 73352
L71852 73323
L71852 73380
" />
<path d="M71852 73014
L71880 73042
L71852 73070
L71824 73042
L71852 73014
L71852 73070
" />
<path d="M72583 73380
L72583 72789
" />
<path d="M72921 73380
L72668 73042
" />
<path d="M72921 72789
L72583 73127
" />
<path d="M73427 73380
L73427 73070
L73399 73014
L73343 72986
L73230 72986
L73174 73014
" />
<path d="M73427 73352
L73371 73380
L73230 73380
L73174 73352
L73146 73295
L73146 73239
L73174 73183
L73230 73155
L73371 73155
L73427 73127
" />
<path d="M73708 73380
L73708 72986
" />
<path d="M73708 73099
L73736 73042
L73764 73014
L73821 72986
L73877 72986
" />
<path d="M74158 73380
L74102 73352
L74074 73323
L74046 73267
L74046 73099
L74074 73042
L74102 73014
L74158 72986
L74242 72986
L74299 73014
L74327 73042
L74355 73099
L74355 73267
L74327 73323
L74299 73352
L74242 73380
L74158 73380
" />
<path d="M74608 73380
L74608 72789
L74749 72789
L74833 72817
L74889 72874
L74917 72930
L74946 73042
L74946 73127
L74917 73239
L74889 73295
L74833 73352
L74749 73380
L74608 73380
" />
<path d="M75424 73352
L75367 73380
L75255 73380
L75199 73352
L75171 73295
L75171 73070
L75199 73014
L75255 72986
L75367 72986
L75424 73014
L75452 73070
L75452 73127
L75171 73183
" />
<path d="M75677 73352
L75733 73380
L75845 73380
L75902 73352
L75930 73295
L75930 73267
L75902 73211
L75845 73183
L75761 73183
L75705 73155
L75677 73099
L75677 73070
L75705 73014
L75761 72986
L75845 72986
L75902 73014
" />
<path d="M76183 73380
L76183 72789
" />
<path d="M76239 73155
L76408 73380
" />
<path d="M76408 72986
L76183 73211
" />
<path d="M76520 73436
L76970 73436
" />
<path d="M77027 72789
L77223 73380
L77420 72789
" />
<path d="M77926 73380
L77589 73380
" />
<path d="M77758 73380
L77758 72789
L77701 72874
L77645 72930
L77589 72958
" />
<path d="M78039 73436
L78489 73436
" />
<path d="M78883 72986
L78883 73380
" />
<path d="M78742 72761
L78601 73183
L78967 73183
" />
<path d="M79276 73380
L79220 73352
L79192 73295
L79192 72789
" />
<path d="M79754 73380
L79754 73070
L79726 73014
L79670 72986
L79557 72986
L79501 73014
" />
<path d="M79754 73352
L79698 73380
L79557 73380
L79501 73352
L79473 73295
L79473 73239
L79501 73183
L79557 73155
L79698 73155
L79754 73127
" />
<path d="M79979 72986
L80120 73380
" />
<path d="M80260 72986
L80120 73380
L80064 73520
L80036 73548
L79979 73577
" />
<path d="M80710 73352
L80654 73380
L80542 73380
L80485 73352
L80457 73295
L80457 73070
L80485 73014
L80542 72986
L80654 72986
L80710 73014
L80739 73070
L80739 73127
L80457 73183
" />
<path d="M80992 73380
L80992 72986
" />
<path d="M80992 73099
L81020 73042
L81048 73014
L81104 72986
L81160 72986
" />
<path d="M81329 73352
L81385 73380
L81498 73380
L81554 73352
L81582 73295
L81582 73267
L81554 73211
L81498 73183
L81413 73183
L81357 73155
L81329 73099
L81329 73070
L81357 73014
L81413 72986
L81498 72986
L81554 73014
" />
<path d="M81835 73323
L81863 73352
L81835 73380
L81807 73352
L81835 73323
L81835 73380
" />
<path d="M82117 73380
L82117 72789
" />
<path d="M82173 73155
L82341 73380
" />
<path d="M82341 72986
L82117 73211
" />
<path d="M82595 73380
L82595 72986
" />
<path d="M82595 72789
L82566 72817
L82595 72845
L82623 72817
L82595 72789
L82595 72845
" />
<path d="M83129 73352
L83073 73380
L82960 73380
L82904 73352
L82876 73323
L82848 73267
L82848 73099
L82876 73042
L82904 73014
L82960 72986
L83073 72986
L83129 73014
" />
<path d="M83635 73380
L83635 73070
L83607 73014
L83551 72986
L83438 72986
L83382 73014
" />
<path d="M83635 73352
L83579 73380
L83438 73380
L83382 73352
L83354 73295
L83354 73239
L83382 73183
L83438 73155
L83579 73155
L83635 73127
" />
<path d="M84169 73380
L84169 72789
" />
<path d="M84169 73352
L84113 73380
L84001 73380
L83944 73352
L83916 73323
L83888 73267
L83888 73099
L83916 73042
L83944 73014
L84001 72986
L84113 72986
L84169 73014
" />
<path d="M84310 73436
L84760 73436
" />
<path d="M84901 72986
L84901 73577
" />
<path d="M84901 73014
L84957 72986
L85069 72986
L85126 73014
L85154 73042
L85182 73099
L85182 73267
L85154 73323
L85126 73352
L85069 73380
L84957 73380
L84901 73352
" />
<path d="M85688 73352
L85632 73380
L85519 73380
L85463 73352
L85435 73323
L85407 73267
L85407 73099
L85435 73042
L85463 73014
L85519 72986
L85632 72986
L85688 73014
" />
<path d="M85941 73380
L85941 72789
" />
<path d="M85941 73014
L85997 72986
L86110 72986
L86166 73014
L86194 73042
L86222 73099
L86222 73267
L86194 73323
L86166 73352
L86110 73380
L85997 73380
L85941 73352
" />
</g></g>
<g style="fill:#000000; fill-opacity:0.0; 
stroke:#000000; stroke-width:39.3701; stroke-opacity:1; 
stroke-linecap:round; stroke-linejoin:round;">
</g>
<g style="fill:#000000; fill-opacity:0.0; 
stroke:#000000; stroke-width:59.0551; stroke-opacity:1; 
stroke-linecap:round; stroke-linejoin:round;">
<path d="M69685 71459
L112205 71459
" />
</g>
<g style="fill:#000000; fill-opacity:0.0; 
stroke:#000000; stroke-width:39.3701; stroke-opacity:1; 
stroke-linecap:round; stroke-linejoin:round;">
</g>
<g style="fill:#000000; fill-opacity:0.0; 
stroke:#000000; stroke-width:59.0551; stroke-opacity:1; 
stroke-linecap:round; stroke-linejoin:round;">
<text x="70079.6" y="72345.4"
textLength="3236.78" font-size="787.402" lengthAdjust="spacingAndGlyphs"
text-anchor="start" opacity="0">Sheet: </text>
<g class="stroked-text"><desc>Sheet: </desc>
<path d="M70221 72289
L70305 72317
L70446 72317
L70502 72289
L70530 72260
L70559 72204
L70559 72148
L70530 72092
L70502 72064
L70446 72036
L70334 72007
L70277 71979
L70249 71951
L70221 71895
L70221 71839
L70249 71782
L70277 71754
L70334 71726
L70474 71726
L70559 71754
" />
<path d="M70812 72317
L70812 71726
" />
<path d="M71065 72317
L71065 72007
L71037 71951
L70980 71923
L70896 71923
L70840 71951
L70812 71979
" />
<path d="M71571 72289
L71515 72317
L71402 72317
L71346 72289
L71318 72232
L71318 72007
L71346 71951
L71402 71923
L71515 71923
L71571 71951
L71599 72007
L71599 72064
L71318 72120
" />
<path d="M72077 72289
L72021 72317
L71908 72317
L71852 72289
L71824 72232
L71824 72007
L71852 71951
L71908 71923
L72021 71923
L72077 71951
L72105 72007
L72105 72064
L71824 72120
" />
<path d="M72274 71923
L72499 71923
" />
<path d="M72358 71726
L72358 72232
L72386 72289
L72443 72317
L72499 72317
" />
<path d="M72696 72260
L72724 72289
L72696 72317
L72668 72289
L72696 72260
L72696 72317
" />
<path d="M72696 71951
L72724 71979
L72696 72007
L72668 71979
L72696 71951
L72696 72007
" />
</g></g>
<g style="fill:#000000; fill-opacity:0.0; 
stroke:#000000; stroke-width:39.3701; stroke-opacity:1; 
stroke-linecap:round; stroke-linejoin:round;">
</g>
<g style="fill:#000000; fill-opacity:0.0; 
stroke:#000000; stroke-width:118.11; stroke-opacity:1; 
stroke-linecap:round; stroke-linejoin:round;">
<text x="70079.6" y="71164.3"
textLength="59.0551" font-size="787.402" lengthAdjust="spacingAndGlyphs"
text-anchor="start" opacity="0"></text>
<g class="stroked-text"><desc></desc>
</g></g>
<g style="fill:#000000; fill-opacity:0.0; 
stroke:#000000; stroke-width:39.3701; stroke-opacity:1; 
stroke-linecap:round; stroke-linejoin:round;">
</g>
<g style="fill:#000000; fill-opacity:0.0; 
stroke:#000000; stroke-width:59.0551; stroke-opacity:1; 
stroke-linecap:round; stroke-linejoin:round;">
<text x="70079.6" y="69983.1"
textLength="118.11" font-size="787.402" lengthAdjust="spacingAndGlyphs"
text-anchor="start" opacity="0"></text>
<g class="stroked-text"><desc></desc>
</g></g>
<g style="fill:#000000; fill-opacity:0.0; 
stroke:#000000; stroke-width:39.3701; stroke-opacity:1; 
stroke-linecap:round; stroke-linejoin:round;">
</g>
<g style="fill:#000000; fill-opacity:0.0; 
stroke:#000000; stroke-width:59.0551; stroke-opacity:1; 
stroke-linecap:round; stroke-linejoin:round;">
<text x="70079.6" y="68802"
textLength="59.0551" font-size="787.402" lengthAdjust="spacingAndGlyphs"
text-anchor="start" opacity="0"></text>
<g class="stroked-text"><desc></desc>
</g></g>
<g style="fill:#000000; fill-opacity:0.0; 
stroke:#000000; stroke-width:39.3701; stroke-opacity:1; 
stroke-linecap:round; stroke-linejoin:round;">
</g>
<g style="fill:#000000; fill-opacity:0.0; 
stroke:#000000; stroke-width:59.0551; stroke-opacity:1; 
stroke-linecap:round; stroke-linejoin:round;">
<text x="70079.6" y="67620.9"
textLength="59.0551" font-size="787.402" lengthAdjust="spacingAndGlyphs"
text-anchor="start" opacity="0"></text>
<g class="stroked-text"><desc></desc>
</g></g>
<g style="fill:#000000; fill-opacity:0.0; 
stroke:#000000; stroke-width:39.3701; stroke-opacity:1; 
stroke-linecap:round; stroke-linejoin:round;">
</g>
<g style="fill:#000000; fill-opacity:0.0; 
stroke:#000000; stroke-width:59.0551; stroke-opacity:1; 
stroke-linecap:round; stroke-linejoin:round;">
<text x="70079.6" y="66439.8"
textLength="59.0551" font-size="787.402" lengthAdjust="spacingAndGlyphs"
text-anchor="start" opacity="0"></text>
<g class="stroked-text"><desc></desc>
</g></g>
<g style="fill:#000000; fill-opacity:0.0; 
stroke:#000000; stroke-width:39.3701; stroke-opacity:1; 
stroke-linecap:round; stroke-linejoin:round;">
</g>
<g style="fill:#000000; fill-opacity:0.0; 
stroke:#000000; stroke-width:59.0551; stroke-opacity:1; 
stroke-linecap:round; stroke-linejoin:round;">
<path d="M77559 75396
L77559 76577
" />
</g>
<g style="fill:#000000; fill-opacity:0.0; 
stroke:#000000; stroke-width:39.3701; stroke-opacity:1; 
stroke-linecap:round; stroke-linejoin:round;">
</g>
<g style="fill:#000000; fill-opacity:0.0; 
stroke:#000000; stroke-width:59.0551; stroke-opacity:1; 
stroke-linecap:round; stroke-linejoin:round;">
<path d="M102756 75396
L102756 77955
" />
</g>
<g style="fill:#008400; fill-opacity:0.0; 
stroke:#008400; stroke-width:59.0551; stroke-opacity:1; 
stroke-linecap:round; stroke-linejoin:round;">
<text x="75669.3" y="57090.6"
textLength="7295.65" font-size="524.934" lengthAdjust="spacingAndGlyphs"
text-anchor="middle" opacity="0">Single PCB design Hack</text>
<g class="stroked-text"><desc>Single PCB design Hack</desc>
<path d="M72125 57053
L72182 57071
L72275 57071
L72313 57053
L72332 57034
L72350 56996
L72350 56959
L72332 56921
L72313 56903
L72275 56884
L72200 56865
L72163 56846
L72144 56828
L72125 56790
L72125 56753
L72144 56715
L72163 56696
L72200 56678
L72294 56678
L72350 56696
" />
<path d="M72519 57071
L72519 56809
" />
<path d="M72519 56678
L72500 56696
L72519 56715
L72538 56696
L72519 56678
L72519 56715
" />
<path d="M72707 56809
L72707 57071
" />
<path d="M72707 56846
L72725 56828
L72763 56809
L72819 56809
L72857 56828
L72875 56865
L72875 57071
" />
<path d="M73232 56809
L73232 57128
L73213 57165
L73194 57184
L73157 57203
L73100 57203
L73063 57184
" />
<path d="M73232 57053
L73194 57071
L73119 57071
L73082 57053
L73063 57034
L73044 56996
L73044 56884
L73063 56846
L73082 56828
L73119 56809
L73194 56809
L73232 56828
" />
<path d="M73475 57071
L73438 57053
L73419 57015
L73419 56678
" />
<path d="M73775 57053
L73738 57071
L73663 57071
L73625 57053
L73607 57015
L73607 56865
L73625 56828
L73663 56809
L73738 56809
L73775 56828
L73794 56865
L73794 56903
L73607 56940
" />
<path d="M74263 57071
L74263 56678
L74413 56678
L74450 56696
L74469 56715
L74488 56753
L74488 56809
L74469 56846
L74450 56865
L74413 56884
L74263 56884
" />
<path d="M74881 57034
L74863 57053
L74806 57071
L74769 57071
L74713 57053
L74675 57015
L74656 56978
L74638 56903
L74638 56846
L74656 56771
L74675 56734
L74713 56696
L74769 56678
L74806 56678
L74863 56696
L74881 56715
" />
<path d="M75181 56865
L75238 56884
L75256 56903
L75275 56940
L75275 56996
L75256 57034
L75238 57053
L75200 57071
L75050 57071
L75050 56678
L75181 56678
L75219 56696
L75238 56715
L75256 56753
L75256 56790
L75238 56828
L75219 56846
L75181 56865
L75050 56865
" />
<path d="M75913 57071
L75913 56678
" />
<path d="M75913 57053
L75875 57071
L75800 57071
L75763 57053
L75744 57034
L75725 56996
L75725 56884
L75744 56846
L75763 56828
L75800 56809
L75875 56809
L75913 56828
" />
<path d="M76250 57053
L76212 57071
L76137 57071
L76100 57053
L76081 57015
L76081 56865
L76100 56828
L76137 56809
L76212 56809
L76250 56828
L76269 56865
L76269 56903
L76081 56940
" />
<path d="M76419 57053
L76456 57071
L76531 57071
L76569 57053
L76587 57015
L76587 56996
L76569 56959
L76531 56940
L76475 56940
L76437 56921
L76419 56884
L76419 56865
L76437 56828
L76475 56809
L76531 56809
L76569 56828
" />
<path d="M76756 57071
L76756 56809
" />
<path d="M76756 56678
L76737 56696
L76756 56715
L76775 56696
L76756 56678
L76756 56715
" />
<path d="M77112 56809
L77112 57128
L77094 57165
L77075 57184
L77037 57203
L76981 57203
L76944 57184
" />
<path d="M77112 57053
L77075 57071
L77000 57071
L76962 57053
L76944 57034
L76925 56996
L76925 56884
L76944 56846
L76962 56828
L77000 56809
L77075 56809
L77112 56828
" />
<path d="M77300 56809
L77300 57071
" />
<path d="M77300 56846
L77319 56828
L77356 56809
L77412 56809
L77450 56828
L77469 56865
L77469 57071
" />
<path d="M77956 57071
L77956 56678
" />
<path d="M77956 56865
L78181 56865
" />
<path d="M78181 57071
L78181 56678
" />
<path d="M78537 57071
L78537 56865
L78518 56828
L78481 56809
L78406 56809
L78368 56828
" />
<path d="M78537 57053
L78500 57071
L78406 57071
L78368 57053
L78350 57015
L78350 56978
L78368 56940
L78406 56921
L78500 56921
L78537 56903
" />
<path d="M78893 57053
L78856 57071
L78781 57071
L78743 57053
L78725 57034
L78706 56996
L78706 56884
L78725 56846
L78743 56828
L78781 56809
L78856 56809
L78893 56828
" />
<path d="M79062 57071
L79062 56678
" />
<path d="M79100 56921
L79212 57071
" />
<path d="M79212 56809
L79062 56959
" />
</g><path d="M74614 59358
L74614 55157
" />
<path d="M76594 59358
L74614 59358
" />
<path d="M76594 55133
L76594 59358
" />
<path d="M74625 55122
L76594 55133
" />
<text x="58271.7" y="23334.6"
textLength="3488.85" font-size="524.934" lengthAdjust="spacingAndGlyphs"
text-anchor="middle" opacity="0">92.100 mm</text>
<g class="stroked-text"><desc>92.100 mm</desc>
<path d="M56678 23315
L56753 23315
L56790 23297
L56809 23278
L56846 23222
L56865 23147
L56865 22997
L56846 22959
L56828 22940
L56790 22922
L56715 22922
L56678 22940
L56659 22959
L56640 22997
L56640 23090
L56659 23128
L56678 23147
L56715 23165
L56790 23165
L56828 23147
L56846 23128
L56865 23090
" />
<path d="M57015 22959
L57034 22940
L57071 22922
L57165 22922
L57203 22940
L57221 22959
L57240 22997
L57240 23034
L57221 23090
L56996 23315
L57240 23315
" />
<path d="M57409 23278
L57428 23297
L57409 23315
L57390 23297
L57409 23278
L57409 23315
" />
<path d="M57802 23315
L57577 23315
" />
<path d="M57690 23315
L57690 22922
L57652 22978
L57615 23015
L57577 23034
" />
<path d="M58046 22922
L58084 22922
L58121 22940
L58140 22959
L58159 22997
L58177 23072
L58177 23165
L58159 23240
L58140 23278
L58121 23297
L58084 23315
L58046 23315
L58009 23297
L57990 23278
L57971 23240
L57952 23165
L57952 23072
L57971 22997
L57990 22959
L58009 22940
L58046 22922
" />
<path d="M58421 22922
L58459 22922
L58496 22940
L58515 22959
L58534 22997
L58552 23072
L58552 23165
L58534 23240
L58515 23278
L58496 23297
L58459 23315
L58421 23315
L58384 23297
L58365 23278
L58346 23240
L58327 23165
L58327 23072
L58346 22997
L58365 22959
L58384 22940
L58421 22922
" />
<path d="M59021 23315
L59021 23053
" />
<path d="M59021 23090
L59040 23072
L59077 23053
L59134 23053
L59171 23072
L59190 23109
L59190 23315
" />
<path d="M59190 23109
L59209 23072
L59246 23053
L59302 23053
L59340 23072
L59359 23109
L59359 23315
" />
<path d="M59546 23315
L59546 23053
" />
<path d="M59546 23090
L59565 23072
L59602 23053
L59658 23053
L59696 23072
L59715 23109
L59715 23315
" />
<path d="M59715 23109
L59733 23072
L59771 23053
L59827 23053
L59865 23072
L59883 23109
L59883 23315
" />
</g><path d="M40141 23649
L76401 23649
" />
<path d="M40141 24480
L40141 23418
" />
<path d="M76401 24480
L76401 23418
" />
<path d="M76401 23649
L75958 23880
" />
<path d="M76401 23649
L75958 23418
" />
<path d="M40141 23649
L40585 23880
" />
<path d="M40141 23649
L40585 23418
" />
<g >
</g>
<g >
</g>
<g >
</g>
<g >
</g>
<g >
</g>
<g >
</g>
<g >
</g>
<g >
</g>
<g >
</g>
<g >
</g>
<g >
</g>
<g >
</g>
<g >
</g>
<g >
</g>
<g >
</g>
<g >
</g>
<g >
</g>
<g >
</g>
<g >
</g>
<g >
</g>
<g >
</g>
<g >
</g>
<g >
</g>
<g >
</g>
<g >
</g>
<g >
</g>
<g >
</g>
<g >
</g>
<g >
</g>
<g >
</g>
<g >
</g>
<g >
</g>
<g >
</g>
<g >
</g>
<g >
</g>
<g >
</g>
<g >
</g>
<g >
</g>
<g >
</g>
<g >
</g>
<g >
</g>
<g >
</g>
<g >
</g>
<g >
</g>
<g >
</g>
<g >
</g>
<g >
</g>
<g >
</g>
<g >
</g>
<g >
</g>
<g >
</g>
<g >
</g>
<g >
</g>
<g >
</g>
<g >
</g>
<g >
</g>
<g >
</g>
<g >
</g>
<g >
</g>
<g >
</g>
<g >
</g>
<g >
</g>
<g >
</g>
<g >
</g>
<g >
</g>
<g >
</g>
<g >
</g>
<g >
</g>
<g >
</g>
<g >
</g>
<g >
</g>
<g >
</g>
<g >
</g>
<g >
</g>
<g >
</g>
<g >
</g>
<g >
</g>
<g >
</g>
<g >
</g>
<g >
</g>
<g >
</g>
<g >
</g>
<g >
</g>
<g >
</g>
<g >
</g>
<g >
</g>
<g >
</g>
</g>
<g style="fill:#000000; fill-opacity:0.0; 
stroke:#000000; stroke-width:59.0551; stroke-opacity:1; 
stroke-linecap:round; stroke-linejoin:round;">
</g>
<g style="fill:#C2C200; fill-opacity:0.0; 
stroke:#C2C200; stroke-width:59.0551; stroke-opacity:1; 
stroke-linecap:round; stroke-linejoin:round;">
</g>
<g style="fill:#C2C200; fill-opacity:0.0; 
stroke:#C2C200; stroke-width:19.685; stroke-opacity:1; 
stroke-linecap:round; stroke-linejoin:round;">
<path d="M74826 59165
L40141 59165
" />
<path d="M74826 59165
L74826 55228
" />
<path d="M76401 55228
L76401 59165
" />
<path d="M76401 62314
L40141 62314
" />
<path d="M40141 59165
L40141 62314
" />
<path d="M76401 59165
L76401 62314
" />
<path d="M52673 54311
L45893 54311
" />
<path d="M52673 50322
L52673 54311
" />
<path d="M45893 50322
L45893 54311
" />
<path d="M52673 50322
L45893 50322
" />
<path d="M40141 24480
L40141 55228
" />
<path d="M40141 55228
L74826 55228
" />
<path d="M76401 24480
L76401 55228
" />
<path d="M40141 24480
L76401 24480
" />
<g >
</g>
<g >
</g>
<g >
</g>
<g >
</g>
<g >
</g>
<g >
</g>
<g >
</g>
<g >
</g>
<g >
</g>
<g >
</g>
<g >
</g>
<g >
</g>
<g >
</g>
<g >
</g>
<g >
</g>
<g >
</g>
<g >
</g>
<g >
</g>
<g >
</g>
<g >
</g>
<g >
</g>
<g >
</g>
<g >
</g>
<g >
</g>
<g >
</g>
<g >
</g>
<g >
</g>
<g >
</g>
<g >
</g>
<g >
</g>
<g >
</g>
<g >
</g>
<g >
</g>
<g >
</g>
<g >
</g>
<g >
</g>
<g >
</g>
<g >
</g>
<g >
</g>
<g >
</g>
<g >
</g>
<g >
</g>
<g >
</g>
<g >
</g>
<g >
</g>
<g >
</g>
<g >
</g>
<g >
</g>
<g >
</g>
<g >
</g>
<g >
</g>
<g >
</g>
<g >
</g>
<g >
</g>
<g >
</g>
<g >
</g>
<g >
</g>
<g >
</g>
<g >
</g>
<g >
</g>
<g >
</g>
<g >
</g>
<g >
</g>
<g >
</g>
<g >
</g>
<g >
</g>
<g >
</g>
<g >
</g>
<g >
</g>
<g >
</g>
<g >
</g>
<g >
</g>
<g >
</g>
<g >
</g>
<g >
</g>
<g >
</g>
<g >
</g>
<g >
</g>
<g >
</g>
<g >
</g>
<g >
</g>
<g >
</g>
<g >
</g>
<g >
</g>
<g >
</g>
<g >
</g>
<g >
</g>
</g> 
</svg>
