M48
; DRILL file {KiCad 5.99.0-unknown-6b9e44e59c~128~ubuntu18.04.1} date Wed Aug 18 13:21:26 2021
; FORMAT={-:-/ absolute / metric / decimal}
; #@! TF.CreationDate,2021-08-18T13:21:26+05:30
; #@! TF.GenerationSoftware,Kicad,Pcbnew,5.99.0-unknown-6b9e44e59c~128~ubuntu18.04.1
; #@! TF.FileFunction,MixedPlating,1,2
FMAT,2
METRIC
; #@! TA.AperFunction,Plated,PTH,ViaDrill
T1C0.300
; #@! TA.AperFunction,NonPlated,NPTH,ComponentDrill
T2C0.500
; #@! TA.AperFunction,NonPlated,NPTH,ComponentDrill
T3C0.700
; #@! TA.AperFunction,NonPlated,NPTH,ComponentDrill
T4C0.750
; #@! TA.AperFunction,NonPlated,NPTH,ComponentDrill
T5C1.000
; #@! TA.AperFunction,NonPlated,NPTH,ComponentDrill
T6C1.152
%
G90
G05
T1
X102.8Y-74.6
X102.8Y-75.86
X102.82Y-72.1
X102.82Y-73.35
X103.66Y-138.53
X103.79Y-112.245
X104.41Y-136.33
X104.68Y-88.46
X104.865Y-119.02
X105.31Y-132.08
X105.31Y-136.33
X105.49Y-90.39
X105.665Y-91.295
X106.065Y-99.92
X106.065Y-101.87
X106.065Y-103.82
X106.11Y-120.98
X106.21Y-136.33
X106.31Y-77.14
X106.31Y-79.73
X106.31Y-81.01
X106.31Y-82.28
X106.315Y-85.92
X106.64Y-90.57
X106.76Y-131.38
X106.96Y-133.88
X107.415Y-116.445
X107.415Y-118.22
X107.46Y-121.03
X107.465Y-86.72
X107.865Y-95.72
X107.865Y-100.24
X107.865Y-107.02
X107.91Y-133.83
X107.91Y-134.63
X107.965Y-97.98
X108.061Y-122.248
X108.061Y-123.048
X108.061Y-123.848
X108.061Y-129.48
X108.061Y-130.38
X108.065Y-102.5
X108.065Y-104.76
X108.24Y-117.345
X108.265Y-132.12
X108.41Y-113.11
X108.565Y-126.12
X109.09Y-110.795
X109.115Y-116.445
X109.115Y-118.22
X109.61Y-138.33
X109.665Y-95.72
X109.665Y-97.98
X109.665Y-100.24
X109.665Y-102.5
X109.665Y-104.76
X109.665Y-107.02
X110.465Y-110.82
X111.26Y-100.47
X111.365Y-135.63
X111.627Y-113.583
X111.64Y-92.9
X111.77Y-116.67
X111.84Y-117.41
X111.99Y-99.59
X112.265Y-126.42
X112.265Y-135.63
X112.71Y-105.11
X113.165Y-135.63
X113.19Y-77.364
X113.19Y-78.358
X113.19Y-79.351
X113.205Y-103.005
X114.165Y-77.364
X114.165Y-78.358
X114.165Y-79.351
X114.34Y-119.645
X114.39Y-90.895
X114.615Y-135.07
X115.11Y-100.82
X115.14Y-126.295
X115.14Y-77.364
X115.14Y-78.358
X115.14Y-79.351
X115.365Y-116.92
X116.525Y-128.18
X117.5Y-90.12
X118.21Y-95.23
X118.765Y-116.67
X119.265Y-107.32
X119.665Y-85.695
X119.89Y-84.57
X121.39Y-91.02
X121.865Y-99.52
X122.465Y-101.445
X122.465Y-103.104
X122.465Y-104.762
X122.465Y-106.421
X122.465Y-108.08
X122.6Y-120.98
X122.715Y-91.145
X123.301Y-78.375
X123.365Y-77.095
X123.42Y-74.625
X123.515Y-73.42
X123.56Y-92.97
X123.66Y-120.745
X123.66Y-124.61
X123.865Y-96.62
X124.34Y-125.31
X124.465Y-108.08
X124.8Y-73.28
X124.8Y-74.255
X124.8Y-75.23
X124.965Y-95.545
X125.04Y-121.07
X125.87Y-121.18
X126.015Y-73.145
X126.24Y-95.545
X126.465Y-105.695
X126.465Y-108.08
X127.615Y-115.745
X127.74Y-123.82
X128.16Y-108.657
X128.16Y-109.58
X128.56Y-101.88
X128.915Y-80.42
X130.21Y-108.657
X130.21Y-109.58
X131.91Y-101.48
X132.225Y-72.25
X133.265Y-117.845
X134.86Y-108.28
X134.865Y-136.132
X134.865Y-137.245
X134.92Y-110.55
X135.015Y-116.82
X135.815Y-136.132
X135.815Y-137.245
X136.11Y-105.23
X136.93Y-79.91
X136.93Y-80.922
X136.93Y-81.935
X137.31Y-88.31
X138.005Y-79.91
X138.005Y-80.922
X138.005Y-81.935
X141.765Y-135.32
X142.51Y-138.18
X143.51Y-137.243
X143.51Y-138.18
X144.69Y-73.145
X144.69Y-79.07
X144.69Y-84.995
X144.69Y-90.92
X144.69Y-96.845
X145.665Y-132.62
X145.72Y-131.59
X148.957Y-73.145
X148.957Y-79.07
X148.957Y-84.995
X148.957Y-90.92
X148.957Y-96.845
X152.165Y-128.97
X152.99Y-111.545
X153.045Y-73.145
X153.045Y-79.07
X153.045Y-84.995
X153.045Y-90.92
X153.045Y-96.845
X153.045Y-102.77
X155.415Y-139.709
X157.292Y-73.145
X157.292Y-79.07
X157.292Y-84.995
X157.292Y-90.92
X157.292Y-96.845
X157.292Y-102.77
X157.292Y-108.695
X161.46Y-73.145
X161.46Y-79.07
X161.46Y-84.995
X161.46Y-90.92
X161.46Y-96.845
X161.46Y-102.77
X161.46Y-108.695
X161.46Y-114.62
X165.627Y-73.145
X165.627Y-79.076
X165.627Y-85.006
X165.627Y-90.937
X165.627Y-96.867
X165.627Y-102.798
X165.627Y-108.728
X165.627Y-114.62
X165.627Y-120.589
X169.795Y-73.145
X169.795Y-79.076
X169.795Y-85.006
X169.795Y-90.937
X169.795Y-96.867
X169.795Y-102.798
X169.795Y-108.728
X169.795Y-114.659
X169.795Y-120.589
X169.795Y-126.52
X173.963Y-73.145
X173.963Y-79.076
X173.963Y-85.006
X173.963Y-90.937
X173.963Y-96.867
X173.963Y-102.798
X173.963Y-108.728
X173.963Y-114.659
X173.963Y-120.589
X173.963Y-126.52
X175.24Y-138.72
X178.13Y-73.145
X178.13Y-79.076
X178.13Y-85.006
X178.13Y-90.937
X178.13Y-96.867
X178.13Y-102.798
X178.13Y-108.728
X178.13Y-114.659
X178.13Y-120.589
X178.13Y-126.52
X181.925Y-138.94
X182.297Y-73.145
X182.297Y-79.076
X182.297Y-85.006
X182.297Y-90.937
X182.297Y-96.867
X182.297Y-102.798
X182.297Y-108.728
X182.297Y-114.659
X182.297Y-120.589
X182.297Y-126.52
X184.206Y-138.94
X186.465Y-73.145
X186.465Y-79.076
X186.465Y-85.006
X186.465Y-90.937
X186.465Y-96.867
X186.465Y-102.798
X186.465Y-108.728
X186.465Y-114.659
X186.465Y-120.589
X186.465Y-126.52
X186.487Y-138.94
X188.769Y-138.94
X190.165Y-71.47
X190.19Y-88.77
X190.39Y-127.095
X190.415Y-106.72
X191.05Y-138.94
X192.19Y-77.545
X192.19Y-79.826
X192.19Y-82.108
X192.19Y-84.389
X192.19Y-95.295
X192.19Y-97.576
X192.19Y-99.858
X192.19Y-102.139
X192.19Y-116.251
X192.19Y-118.532
X192.19Y-120.814
X192.19Y-123.095
T2
X105.591Y-124.22
X105.591Y-128.22
T3
X136.15Y-73.39
T4
X192.51Y-72.27
X192.51Y-74.57
X192.51Y-89.935
X192.51Y-92.235
X192.51Y-107.6
X192.51Y-109.9
X192.51Y-127.92
X192.51Y-130.22
T5
X105.96Y-97.8
X105.96Y-105.8
T6
X105.06Y-113.73
X191.96Y-64.33
X191.96Y-136.78
T0
M30
