G04 #@! TF.GenerationSoftware,KiCad,Pcbnew,5.99.0-unknown-6b9e44e59c~128~ubuntu18.04.1*
G04 #@! TF.CreationDate,2021-08-18T13:21:18+05:30*
G04 #@! TF.ProjectId,paperd_ink_rev3,70617065-7264-45f6-996e-6b5f72657633,rev?*
G04 #@! TF.SameCoordinates,Original*
G04 #@! TF.FileFunction,Legend,Top*
G04 #@! TF.FilePolarity,Positive*
%FSLAX46Y46*%
G04 Gerber Fmt 4.6, Leading zero omitted, Abs format (unit mm)*
G04 Created by KiCad (PCBNEW 5.99.0-unknown-6b9e44e59c~128~ubuntu18.04.1) date 2021-08-18 13:21:18*
%MOMM*%
%LPD*%
G01*
G04 APERTURE LIST*
%ADD10C,0.150000*%
%ADD11C,0.120000*%
%ADD12C,1.000000*%
%ADD13C,0.500000*%
%ADD14C,0.700000*%
%ADD15C,1.448000*%
%ADD16C,0.750000*%
G04 APERTURE END LIST*
D10*
X146112619Y-101132380D02*
X146112619Y-100132380D01*
X146350714Y-100132380D01*
X146493571Y-100180000D01*
X146588809Y-100275238D01*
X146636428Y-100370476D01*
X146684047Y-100560952D01*
X146684047Y-100703809D01*
X146636428Y-100894285D01*
X146588809Y-100989523D01*
X146493571Y-101084761D01*
X146350714Y-101132380D01*
X146112619Y-101132380D01*
X147112619Y-101132380D02*
X147112619Y-100132380D01*
X147541190Y-101084761D02*
X147684047Y-101132380D01*
X147922142Y-101132380D01*
X148017380Y-101084761D01*
X148065000Y-101037142D01*
X148112619Y-100941904D01*
X148112619Y-100846666D01*
X148065000Y-100751428D01*
X148017380Y-100703809D01*
X147922142Y-100656190D01*
X147731666Y-100608571D01*
X147636428Y-100560952D01*
X147588809Y-100513333D01*
X147541190Y-100418095D01*
X147541190Y-100322857D01*
X147588809Y-100227619D01*
X147636428Y-100180000D01*
X147731666Y-100132380D01*
X147969761Y-100132380D01*
X148112619Y-100180000D01*
X148541190Y-101132380D02*
X148541190Y-100132380D01*
X148922142Y-100132380D01*
X149017380Y-100180000D01*
X149065000Y-100227619D01*
X149112619Y-100322857D01*
X149112619Y-100465714D01*
X149065000Y-100560952D01*
X149017380Y-100608571D01*
X148922142Y-100656190D01*
X148541190Y-100656190D01*
X150065000Y-101132380D02*
X149493571Y-101132380D01*
X149779285Y-101132380D02*
X149779285Y-100132380D01*
X149684047Y-100275238D01*
X149588809Y-100370476D01*
X149493571Y-100418095D01*
D11*
X102565000Y-62680000D02*
X193565000Y-62680000D01*
X193565000Y-62680000D02*
X193565000Y-139680000D01*
X193565000Y-139680000D02*
X102565000Y-139680000D01*
X102565000Y-139680000D02*
X102565000Y-62680000D01*
%LPC*%
D12*
X105960000Y-97800000D03*
X105960000Y-105800000D03*
D13*
X105591000Y-128220000D03*
X105591000Y-124220000D03*
D14*
X136150000Y-73390000D03*
D15*
X105060000Y-113730000D03*
X191960000Y-64330000D03*
X191960000Y-136780000D03*
D16*
X192510000Y-107600000D03*
X192510000Y-109900000D03*
X192510000Y-127920000D03*
X192510000Y-130220000D03*
X192510000Y-72270000D03*
X192510000Y-74570000D03*
X192510000Y-92235000D03*
X192510000Y-89935000D03*
M02*
