G04 #@! TF.GenerationSoftware,KiCad,Pcbnew,5.99.0-unknown-6b9e44e59c~128~ubuntu18.04.1*
G04 #@! TF.CreationDate,2021-08-18T13:21:18+05:30*
G04 #@! TF.ProjectId,paperd_ink_rev3,70617065-7264-45f6-996e-6b5f72657633,rev?*
G04 #@! TF.SameCoordinates,Original*
G04 #@! TF.FileFunction,AssemblyDrawing,Top*
%FSLAX46Y46*%
G04 Gerber Fmt 4.6, Leading zero omitted, Abs format (unit mm)*
G04 Created by KiCad (PCBNEW 5.99.0-unknown-6b9e44e59c~128~ubuntu18.04.1) date 2021-08-18 13:21:18*
%MOMM*%
%LPD*%
G01*
G04 APERTURE LIST*
%ADD10C,0.150000*%
%ADD11C,0.120000*%
G04 APERTURE END LIST*
D10*
X144517380Y-101680000D02*
X144422142Y-101632380D01*
X144279285Y-101632380D01*
X144136428Y-101680000D01*
X144041190Y-101775238D01*
X143993571Y-101870476D01*
X143945952Y-102060952D01*
X143945952Y-102203809D01*
X143993571Y-102394285D01*
X144041190Y-102489523D01*
X144136428Y-102584761D01*
X144279285Y-102632380D01*
X144374523Y-102632380D01*
X144517380Y-102584761D01*
X144565000Y-102537142D01*
X144565000Y-102203809D01*
X144374523Y-102203809D01*
X144993571Y-102632380D02*
X144993571Y-101632380D01*
X145231666Y-101632380D01*
X145374523Y-101680000D01*
X145469761Y-101775238D01*
X145517380Y-101870476D01*
X145565000Y-102060952D01*
X145565000Y-102203809D01*
X145517380Y-102394285D01*
X145469761Y-102489523D01*
X145374523Y-102584761D01*
X145231666Y-102632380D01*
X144993571Y-102632380D01*
X145993571Y-102108571D02*
X146326904Y-102108571D01*
X146469761Y-102632380D02*
X145993571Y-102632380D01*
X145993571Y-101632380D01*
X146469761Y-101632380D01*
X146803095Y-101632380D02*
X147041190Y-102632380D01*
X147231666Y-101918095D01*
X147422142Y-102632380D01*
X147660238Y-101632380D01*
X148231666Y-101632380D02*
X148326904Y-101632380D01*
X148422142Y-101680000D01*
X148469761Y-101727619D01*
X148517380Y-101822857D01*
X148565000Y-102013333D01*
X148565000Y-102251428D01*
X148517380Y-102441904D01*
X148469761Y-102537142D01*
X148422142Y-102584761D01*
X148326904Y-102632380D01*
X148231666Y-102632380D01*
X148136428Y-102584761D01*
X148088809Y-102537142D01*
X148041190Y-102441904D01*
X147993571Y-102251428D01*
X147993571Y-102013333D01*
X148041190Y-101822857D01*
X148088809Y-101727619D01*
X148136428Y-101680000D01*
X148231666Y-101632380D01*
X149422142Y-101965714D02*
X149422142Y-102632380D01*
X149184047Y-101584761D02*
X148945952Y-102299047D01*
X149565000Y-102299047D01*
X149898333Y-101727619D02*
X149945952Y-101680000D01*
X150041190Y-101632380D01*
X150279285Y-101632380D01*
X150374523Y-101680000D01*
X150422142Y-101727619D01*
X150469761Y-101822857D01*
X150469761Y-101918095D01*
X150422142Y-102060952D01*
X149850714Y-102632380D01*
X150469761Y-102632380D01*
X150755476Y-101632380D02*
X151326904Y-101632380D01*
X151041190Y-102632380D02*
X151041190Y-101632380D01*
X151612619Y-101727619D02*
X151660238Y-101680000D01*
X151755476Y-101632380D01*
X151993571Y-101632380D01*
X152088809Y-101680000D01*
X152136428Y-101727619D01*
X152184047Y-101822857D01*
X152184047Y-101918095D01*
X152136428Y-102060952D01*
X151565000Y-102632380D01*
X152184047Y-102632380D01*
D11*
X102565000Y-62680000D02*
X193565000Y-62680000D01*
X193565000Y-62680000D02*
X193565000Y-139680000D01*
X193565000Y-139680000D02*
X102565000Y-139680000D01*
X102565000Y-139680000D02*
X102565000Y-62680000D01*
M02*
