G04 #@! TF.GenerationSoftware,KiCad,Pcbnew,5.99.0-unknown-c3175b4~100~ubuntu16.04.1*
G04 #@! TF.CreationDate,2020-01-01T10:39:55+05:30*
G04 #@! TF.ProjectId,paperd.ink_final_panel,70617065-7264-42e6-996e-6b5f66696e61,rev?*
G04 #@! TF.SameCoordinates,Original*
G04 #@! TF.FileFunction,Legend,Bot*
G04 #@! TF.FilePolarity,Positive*
%FSLAX46Y46*%
G04 Gerber Fmt 4.6, Leading zero omitted, Abs format (unit mm)*
G04 Created by KiCad (PCBNEW 5.99.0-unknown-c3175b4~100~ubuntu16.04.1) date 2020-01-01 10:39:55*
%MOMM*%
%LPD*%
G04 APERTURE LIST*
%ADD10C,0.300000*%
%ADD11C,0.152400*%
%ADD12C,0.100000*%
%ADD13C,0.120000*%
%ADD14C,0.150000*%
%ADD15C,0.254000*%
G04 APERTURE END LIST*
D10*
X140200000Y-69508571D02*
X140200000Y-68008571D01*
X139628571Y-68008571D01*
X139485714Y-68080000D01*
X139414285Y-68151428D01*
X139342857Y-68294285D01*
X139342857Y-68508571D01*
X139414285Y-68651428D01*
X139485714Y-68722857D01*
X139628571Y-68794285D01*
X140200000Y-68794285D01*
X138700000Y-69508571D02*
X138700000Y-68508571D01*
X138700000Y-68794285D02*
X138628571Y-68651428D01*
X138557142Y-68580000D01*
X138414285Y-68508571D01*
X138271428Y-68508571D01*
X137557142Y-69508571D02*
X137700000Y-69437142D01*
X137771428Y-69365714D01*
X137842857Y-69222857D01*
X137842857Y-68794285D01*
X137771428Y-68651428D01*
X137700000Y-68580000D01*
X137557142Y-68508571D01*
X137342857Y-68508571D01*
X137200000Y-68580000D01*
X137128571Y-68651428D01*
X137057142Y-68794285D01*
X137057142Y-69222857D01*
X137128571Y-69365714D01*
X137200000Y-69437142D01*
X137342857Y-69508571D01*
X137557142Y-69508571D01*
X136628571Y-68508571D02*
X136057142Y-68508571D01*
X136414285Y-68008571D02*
X136414285Y-69294285D01*
X136342857Y-69437142D01*
X136200000Y-69508571D01*
X136057142Y-69508571D01*
X135342857Y-69508571D02*
X135485714Y-69437142D01*
X135557142Y-69365714D01*
X135628571Y-69222857D01*
X135628571Y-68794285D01*
X135557142Y-68651428D01*
X135485714Y-68580000D01*
X135342857Y-68508571D01*
X135128571Y-68508571D01*
X134985714Y-68580000D01*
X134914285Y-68651428D01*
X134842857Y-68794285D01*
X134842857Y-69222857D01*
X134914285Y-69365714D01*
X134985714Y-69437142D01*
X135128571Y-69508571D01*
X135342857Y-69508571D01*
X134414285Y-68508571D02*
X133842857Y-68508571D01*
X134200000Y-68008571D02*
X134200000Y-69294285D01*
X134128571Y-69437142D01*
X133985714Y-69508571D01*
X133842857Y-69508571D01*
X133485714Y-68508571D02*
X133128571Y-69508571D01*
X132771428Y-68508571D02*
X133128571Y-69508571D01*
X133271428Y-69865714D01*
X133342857Y-69937142D01*
X133485714Y-70008571D01*
X132200000Y-68508571D02*
X132200000Y-70008571D01*
X132200000Y-68580000D02*
X132057142Y-68508571D01*
X131771428Y-68508571D01*
X131628571Y-68580000D01*
X131557142Y-68651428D01*
X131485714Y-68794285D01*
X131485714Y-69222857D01*
X131557142Y-69365714D01*
X131628571Y-69437142D01*
X131771428Y-69508571D01*
X132057142Y-69508571D01*
X132200000Y-69437142D01*
X130271428Y-69437142D02*
X130414285Y-69508571D01*
X130700000Y-69508571D01*
X130842857Y-69437142D01*
X130914285Y-69294285D01*
X130914285Y-68722857D01*
X130842857Y-68580000D01*
X130700000Y-68508571D01*
X130414285Y-68508571D01*
X130271428Y-68580000D01*
X130200000Y-68722857D01*
X130200000Y-68865714D01*
X130914285Y-69008571D01*
X127628571Y-69508571D02*
X128485714Y-69508571D01*
X128057142Y-69508571D02*
X128057142Y-68008571D01*
X128200000Y-68222857D01*
X128342857Y-68365714D01*
X128485714Y-68437142D01*
D11*
X173971428Y-94238990D02*
X173828571Y-94277695D01*
X173590476Y-94277695D01*
X173495238Y-94238990D01*
X173447619Y-94200285D01*
X173400000Y-94122876D01*
X173400000Y-94045466D01*
X173447619Y-93968057D01*
X173495238Y-93929352D01*
X173590476Y-93890647D01*
X173780952Y-93851942D01*
X173876190Y-93813238D01*
X173923809Y-93774533D01*
X173971428Y-93697123D01*
X173971428Y-93619714D01*
X173923809Y-93542304D01*
X173876190Y-93503600D01*
X173780952Y-93464895D01*
X173542857Y-93464895D01*
X173400000Y-93503600D01*
X173114285Y-93735828D02*
X172733333Y-93735828D01*
X172971428Y-93464895D02*
X172971428Y-94161580D01*
X172923809Y-94238990D01*
X172828571Y-94277695D01*
X172733333Y-94277695D01*
X171971428Y-93735828D02*
X171971428Y-94277695D01*
X172400000Y-93735828D02*
X172400000Y-94161580D01*
X172352380Y-94238990D01*
X172257142Y-94277695D01*
X172114285Y-94277695D01*
X172019047Y-94238990D01*
X171971428Y-94200285D01*
X171495238Y-94277695D02*
X171495238Y-93735828D01*
X171495238Y-93890647D02*
X171447619Y-93813238D01*
X171400000Y-93774533D01*
X171304761Y-93735828D01*
X171209523Y-93735828D01*
X170447619Y-93735828D02*
X170447619Y-94393809D01*
X170495238Y-94471219D01*
X170542857Y-94509923D01*
X170638095Y-94548628D01*
X170780952Y-94548628D01*
X170876190Y-94509923D01*
X170447619Y-94238990D02*
X170542857Y-94277695D01*
X170733333Y-94277695D01*
X170828571Y-94238990D01*
X170876190Y-94200285D01*
X170923809Y-94122876D01*
X170923809Y-93890647D01*
X170876190Y-93813238D01*
X170828571Y-93774533D01*
X170733333Y-93735828D01*
X170542857Y-93735828D01*
X170447619Y-93774533D01*
X169971428Y-94277695D02*
X169971428Y-93735828D01*
X169971428Y-93464895D02*
X170019047Y-93503600D01*
X169971428Y-93542304D01*
X169923809Y-93503600D01*
X169971428Y-93464895D01*
X169971428Y-93542304D01*
X169352380Y-94277695D02*
X169447619Y-94238990D01*
X169495238Y-94161580D01*
X169495238Y-93464895D01*
X168828571Y-94277695D02*
X168923809Y-94238990D01*
X168971428Y-94161580D01*
X168971428Y-93464895D01*
X167733333Y-94238990D02*
X167590476Y-94277695D01*
X167352380Y-94277695D01*
X167257142Y-94238990D01*
X167209523Y-94200285D01*
X167161904Y-94122876D01*
X167161904Y-94045466D01*
X167209523Y-93968057D01*
X167257142Y-93929352D01*
X167352380Y-93890647D01*
X167542857Y-93851942D01*
X167638095Y-93813238D01*
X167685714Y-93774533D01*
X167733333Y-93697123D01*
X167733333Y-93619714D01*
X167685714Y-93542304D01*
X167638095Y-93503600D01*
X167542857Y-93464895D01*
X167304761Y-93464895D01*
X167161904Y-93503600D01*
X166733333Y-94277695D02*
X166733333Y-93735828D01*
X166733333Y-93464895D02*
X166780952Y-93503600D01*
X166733333Y-93542304D01*
X166685714Y-93503600D01*
X166733333Y-93464895D01*
X166733333Y-93542304D01*
X166257142Y-94277695D02*
X166257142Y-93735828D01*
X166257142Y-93813238D02*
X166209523Y-93774533D01*
X166114285Y-93735828D01*
X165971428Y-93735828D01*
X165876190Y-93774533D01*
X165828571Y-93851942D01*
X165828571Y-94277695D01*
X165828571Y-93851942D02*
X165780952Y-93774533D01*
X165685714Y-93735828D01*
X165542857Y-93735828D01*
X165447619Y-93774533D01*
X165400000Y-93851942D01*
X165400000Y-94277695D01*
X164923809Y-93735828D02*
X164923809Y-94548628D01*
X164923809Y-93774533D02*
X164828571Y-93735828D01*
X164638095Y-93735828D01*
X164542857Y-93774533D01*
X164495238Y-93813238D01*
X164447619Y-93890647D01*
X164447619Y-94122876D01*
X164495238Y-94200285D01*
X164542857Y-94238990D01*
X164638095Y-94277695D01*
X164828571Y-94277695D01*
X164923809Y-94238990D01*
X164066666Y-94238990D02*
X163971428Y-94277695D01*
X163780952Y-94277695D01*
X163685714Y-94238990D01*
X163638095Y-94161580D01*
X163638095Y-94122876D01*
X163685714Y-94045466D01*
X163780952Y-94006761D01*
X163923809Y-94006761D01*
X164019047Y-93968057D01*
X164066666Y-93890647D01*
X164066666Y-93851942D01*
X164019047Y-93774533D01*
X163923809Y-93735828D01*
X163780952Y-93735828D01*
X163685714Y-93774533D01*
X163066666Y-94277695D02*
X163161904Y-94238990D01*
X163209523Y-94200285D01*
X163257142Y-94122876D01*
X163257142Y-93890647D01*
X163209523Y-93813238D01*
X163161904Y-93774533D01*
X163066666Y-93735828D01*
X162923809Y-93735828D01*
X162828571Y-93774533D01*
X162780952Y-93813238D01*
X162733333Y-93890647D01*
X162733333Y-94122876D01*
X162780952Y-94200285D01*
X162828571Y-94238990D01*
X162923809Y-94277695D01*
X163066666Y-94277695D01*
X162304761Y-93735828D02*
X162304761Y-94277695D01*
X162304761Y-93813238D02*
X162257142Y-93774533D01*
X162161904Y-93735828D01*
X162019047Y-93735828D01*
X161923809Y-93774533D01*
X161876190Y-93851942D01*
X161876190Y-94277695D01*
X184231428Y-83427470D02*
X184088571Y-83466175D01*
X183850476Y-83466175D01*
X183755238Y-83427470D01*
X183707619Y-83388765D01*
X183660000Y-83311356D01*
X183660000Y-83233946D01*
X183707619Y-83156537D01*
X183755238Y-83117832D01*
X183850476Y-83079127D01*
X184040952Y-83040422D01*
X184136190Y-83001718D01*
X184183809Y-82963013D01*
X184231428Y-82885603D01*
X184231428Y-82808194D01*
X184183809Y-82730784D01*
X184136190Y-82692080D01*
X184040952Y-82653375D01*
X183802857Y-82653375D01*
X183660000Y-82692080D01*
X183088571Y-83466175D02*
X183183809Y-83427470D01*
X183231428Y-83388765D01*
X183279047Y-83311356D01*
X183279047Y-83079127D01*
X183231428Y-83001718D01*
X183183809Y-82963013D01*
X183088571Y-82924308D01*
X182945714Y-82924308D01*
X182850476Y-82963013D01*
X182802857Y-83001718D01*
X182755238Y-83079127D01*
X182755238Y-83311356D01*
X182802857Y-83388765D01*
X182850476Y-83427470D01*
X182945714Y-83466175D01*
X183088571Y-83466175D01*
X181136190Y-83466175D02*
X181136190Y-82653375D01*
X181136190Y-83427470D02*
X181231428Y-83466175D01*
X181421904Y-83466175D01*
X181517142Y-83427470D01*
X181564761Y-83388765D01*
X181612380Y-83311356D01*
X181612380Y-83079127D01*
X181564761Y-83001718D01*
X181517142Y-82963013D01*
X181421904Y-82924308D01*
X181231428Y-82924308D01*
X181136190Y-82963013D01*
X180517142Y-83466175D02*
X180612380Y-83427470D01*
X180660000Y-83388765D01*
X180707619Y-83311356D01*
X180707619Y-83079127D01*
X180660000Y-83001718D01*
X180612380Y-82963013D01*
X180517142Y-82924308D01*
X180374285Y-82924308D01*
X180279047Y-82963013D01*
X180231428Y-83001718D01*
X180183809Y-83079127D01*
X180183809Y-83311356D01*
X180231428Y-83388765D01*
X180279047Y-83427470D01*
X180374285Y-83466175D01*
X180517142Y-83466175D01*
X179755238Y-82924308D02*
X179755238Y-83466175D01*
X179755238Y-83001718D02*
X179707619Y-82963013D01*
X179612380Y-82924308D01*
X179469523Y-82924308D01*
X179374285Y-82963013D01*
X179326666Y-83040422D01*
X179326666Y-83466175D01*
X178802857Y-82653375D02*
X178898095Y-82808194D01*
X178517142Y-82924308D02*
X178136190Y-82924308D01*
X178374285Y-82653375D02*
X178374285Y-83350060D01*
X178326666Y-83427470D01*
X178231428Y-83466175D01*
X178136190Y-83466175D01*
X177136190Y-82924308D02*
X176945714Y-83466175D01*
X176755238Y-83079127D01*
X176564761Y-83466175D01*
X176374285Y-82924308D01*
X175564761Y-83466175D02*
X175564761Y-83040422D01*
X175612380Y-82963013D01*
X175707619Y-82924308D01*
X175898095Y-82924308D01*
X175993333Y-82963013D01*
X175564761Y-83427470D02*
X175660000Y-83466175D01*
X175898095Y-83466175D01*
X175993333Y-83427470D01*
X176040952Y-83350060D01*
X176040952Y-83272651D01*
X175993333Y-83195241D01*
X175898095Y-83156537D01*
X175660000Y-83156537D01*
X175564761Y-83117832D01*
X175136190Y-83427470D02*
X175040952Y-83466175D01*
X174850476Y-83466175D01*
X174755238Y-83427470D01*
X174707619Y-83350060D01*
X174707619Y-83311356D01*
X174755238Y-83233946D01*
X174850476Y-83195241D01*
X174993333Y-83195241D01*
X175088571Y-83156537D01*
X175136190Y-83079127D01*
X175136190Y-83040422D01*
X175088571Y-82963013D01*
X174993333Y-82924308D01*
X174850476Y-82924308D01*
X174755238Y-82963013D01*
X174421904Y-82924308D02*
X174040952Y-82924308D01*
X174279047Y-82653375D02*
X174279047Y-83350060D01*
X174231428Y-83427470D01*
X174136190Y-83466175D01*
X174040952Y-83466175D01*
X173326666Y-83427470D02*
X173421904Y-83466175D01*
X173612380Y-83466175D01*
X173707619Y-83427470D01*
X173755238Y-83350060D01*
X173755238Y-83040422D01*
X173707619Y-82963013D01*
X173612380Y-82924308D01*
X173421904Y-82924308D01*
X173326666Y-82963013D01*
X173279047Y-83040422D01*
X173279047Y-83117832D01*
X173755238Y-83195241D01*
X172183809Y-82924308D02*
X171945714Y-83466175D01*
X171707619Y-82924308D02*
X171945714Y-83466175D01*
X172040952Y-83659699D01*
X172088571Y-83698403D01*
X172183809Y-83737108D01*
X171183809Y-83466175D02*
X171279047Y-83427470D01*
X171326666Y-83388765D01*
X171374285Y-83311356D01*
X171374285Y-83079127D01*
X171326666Y-83001718D01*
X171279047Y-82963013D01*
X171183809Y-82924308D01*
X171040952Y-82924308D01*
X170945714Y-82963013D01*
X170898095Y-83001718D01*
X170850476Y-83079127D01*
X170850476Y-83311356D01*
X170898095Y-83388765D01*
X170945714Y-83427470D01*
X171040952Y-83466175D01*
X171183809Y-83466175D01*
X169993333Y-82924308D02*
X169993333Y-83466175D01*
X170421904Y-82924308D02*
X170421904Y-83350060D01*
X170374285Y-83427470D01*
X170279047Y-83466175D01*
X170136190Y-83466175D01*
X170040952Y-83427470D01*
X169993333Y-83388765D01*
X169517142Y-83466175D02*
X169517142Y-82924308D01*
X169517142Y-83079127D02*
X169469523Y-83001718D01*
X169421904Y-82963013D01*
X169326666Y-82924308D01*
X169231428Y-82924308D01*
X168136190Y-83466175D02*
X168136190Y-82924308D01*
X168136190Y-83001718D02*
X168088571Y-82963013D01*
X167993333Y-82924308D01*
X167850476Y-82924308D01*
X167755238Y-82963013D01*
X167707619Y-83040422D01*
X167707619Y-83466175D01*
X167707619Y-83040422D02*
X167660000Y-82963013D01*
X167564761Y-82924308D01*
X167421904Y-82924308D01*
X167326666Y-82963013D01*
X167279047Y-83040422D01*
X167279047Y-83466175D01*
X166802857Y-83466175D02*
X166802857Y-82924308D01*
X166802857Y-82653375D02*
X166850476Y-82692080D01*
X166802857Y-82730784D01*
X166755238Y-82692080D01*
X166802857Y-82653375D01*
X166802857Y-82730784D01*
X166326666Y-82924308D02*
X166326666Y-83466175D01*
X166326666Y-83001718D02*
X166279047Y-82963013D01*
X166183809Y-82924308D01*
X166040952Y-82924308D01*
X165945714Y-82963013D01*
X165898095Y-83040422D01*
X165898095Y-83466175D01*
X164993333Y-83466175D02*
X164993333Y-82653375D01*
X164993333Y-83427470D02*
X165088571Y-83466175D01*
X165279047Y-83466175D01*
X165374285Y-83427470D01*
X165421904Y-83388765D01*
X165469523Y-83311356D01*
X165469523Y-83079127D01*
X165421904Y-83001718D01*
X165374285Y-82963013D01*
X165279047Y-82924308D01*
X165088571Y-82924308D01*
X164993333Y-82963013D01*
X163612380Y-83466175D02*
X163707619Y-83427470D01*
X163755238Y-83388765D01*
X163802857Y-83311356D01*
X163802857Y-83079127D01*
X163755238Y-83001718D01*
X163707619Y-82963013D01*
X163612380Y-82924308D01*
X163469523Y-82924308D01*
X163374285Y-82963013D01*
X163326666Y-83001718D01*
X163279047Y-83079127D01*
X163279047Y-83311356D01*
X163326666Y-83388765D01*
X163374285Y-83427470D01*
X163469523Y-83466175D01*
X163612380Y-83466175D01*
X162850476Y-82924308D02*
X162850476Y-83466175D01*
X162850476Y-83001718D02*
X162802857Y-82963013D01*
X162707619Y-82924308D01*
X162564761Y-82924308D01*
X162469523Y-82963013D01*
X162421904Y-83040422D01*
X162421904Y-83466175D01*
X161183809Y-82924308D02*
X161183809Y-83466175D01*
X161183809Y-83001718D02*
X161136190Y-82963013D01*
X161040952Y-82924308D01*
X160898095Y-82924308D01*
X160802857Y-82963013D01*
X160755238Y-83040422D01*
X160755238Y-83466175D01*
X159850476Y-82924308D02*
X159850476Y-83466175D01*
X160279047Y-82924308D02*
X160279047Y-83350060D01*
X160231428Y-83427470D01*
X160136190Y-83466175D01*
X159993333Y-83466175D01*
X159898095Y-83427470D01*
X159850476Y-83388765D01*
X159374285Y-83466175D02*
X159374285Y-82924308D01*
X159374285Y-83079127D02*
X159326666Y-83001718D01*
X159279047Y-82963013D01*
X159183809Y-82924308D01*
X159088571Y-82924308D01*
X158802857Y-83427470D02*
X158707619Y-83466175D01*
X158517142Y-83466175D01*
X158421904Y-83427470D01*
X158374285Y-83350060D01*
X158374285Y-83311356D01*
X158421904Y-83233946D01*
X158517142Y-83195241D01*
X158660000Y-83195241D01*
X158755238Y-83156537D01*
X158802857Y-83079127D01*
X158802857Y-83040422D01*
X158755238Y-82963013D01*
X158660000Y-82924308D01*
X158517142Y-82924308D01*
X158421904Y-82963013D01*
X157564761Y-83427470D02*
X157660000Y-83466175D01*
X157850476Y-83466175D01*
X157945714Y-83427470D01*
X157993333Y-83350060D01*
X157993333Y-83040422D01*
X157945714Y-82963013D01*
X157850476Y-82924308D01*
X157660000Y-82924308D01*
X157564761Y-82963013D01*
X157517142Y-83040422D01*
X157517142Y-83117832D01*
X157993333Y-83195241D01*
X157088571Y-83466175D02*
X157088571Y-82924308D01*
X157088571Y-83079127D02*
X157040952Y-83001718D01*
X156993333Y-82963013D01*
X156898095Y-82924308D01*
X156802857Y-82924308D01*
X156564761Y-82924308D02*
X156326666Y-83466175D01*
X156088571Y-82924308D02*
X156326666Y-83466175D01*
X156421904Y-83659699D01*
X156469523Y-83698403D01*
X156564761Y-83737108D01*
X154945714Y-83466175D02*
X154945714Y-82924308D01*
X154945714Y-83079127D02*
X154898095Y-83001718D01*
X154850476Y-82963013D01*
X154755238Y-82924308D01*
X154660000Y-82924308D01*
X154326666Y-83466175D02*
X154326666Y-82653375D01*
X153898095Y-83466175D02*
X153898095Y-83040422D01*
X153945714Y-82963013D01*
X154040952Y-82924308D01*
X154183809Y-82924308D01*
X154279047Y-82963013D01*
X154326666Y-83001718D01*
X153517142Y-82924308D02*
X153279047Y-83466175D01*
X153040952Y-82924308D02*
X153279047Y-83466175D01*
X153374285Y-83659699D01*
X153421904Y-83698403D01*
X153517142Y-83737108D01*
X152660000Y-83466175D02*
X152660000Y-82924308D01*
X152660000Y-83001718D02*
X152612380Y-82963013D01*
X152517142Y-82924308D01*
X152374285Y-82924308D01*
X152279047Y-82963013D01*
X152231428Y-83040422D01*
X152231428Y-83466175D01*
X152231428Y-83040422D02*
X152183809Y-82963013D01*
X152088571Y-82924308D01*
X151945714Y-82924308D01*
X151850476Y-82963013D01*
X151802857Y-83040422D01*
X151802857Y-83466175D01*
X150945714Y-83427470D02*
X151040952Y-83466175D01*
X151231428Y-83466175D01*
X151326666Y-83427470D01*
X151374285Y-83350060D01*
X151374285Y-83040422D01*
X151326666Y-82963013D01*
X151231428Y-82924308D01*
X151040952Y-82924308D01*
X150945714Y-82963013D01*
X150898095Y-83040422D01*
X150898095Y-83117832D01*
X151374285Y-83195241D01*
X150517142Y-83427470D02*
X150421904Y-83466175D01*
X150231428Y-83466175D01*
X150136190Y-83427470D01*
X150088571Y-83350060D01*
X150088571Y-83311356D01*
X150136190Y-83233946D01*
X150231428Y-83195241D01*
X150374285Y-83195241D01*
X150469523Y-83156537D01*
X150517142Y-83079127D01*
X150517142Y-83040422D01*
X150469523Y-82963013D01*
X150374285Y-82924308D01*
X150231428Y-82924308D01*
X150136190Y-82963013D01*
X179160000Y-83961983D02*
X178969523Y-83961983D01*
X178874285Y-84000688D01*
X178779047Y-84078097D01*
X178731428Y-84232916D01*
X178731428Y-84503849D01*
X178779047Y-84658668D01*
X178874285Y-84736078D01*
X178969523Y-84774783D01*
X179160000Y-84774783D01*
X179255238Y-84736078D01*
X179350476Y-84658668D01*
X179398095Y-84503849D01*
X179398095Y-84232916D01*
X179350476Y-84078097D01*
X179255238Y-84000688D01*
X179160000Y-83961983D01*
X178302857Y-84774783D02*
X178302857Y-84232916D01*
X178302857Y-84387735D02*
X178255238Y-84310326D01*
X178207619Y-84271621D01*
X178112380Y-84232916D01*
X178017142Y-84232916D01*
X177064761Y-84232916D02*
X176683809Y-84232916D01*
X176921904Y-84774783D02*
X176921904Y-84078097D01*
X176874285Y-84000688D01*
X176779047Y-83961983D01*
X176683809Y-83961983D01*
X175921904Y-84774783D02*
X175921904Y-84349030D01*
X175969523Y-84271621D01*
X176064761Y-84232916D01*
X176255238Y-84232916D01*
X176350476Y-84271621D01*
X175921904Y-84736078D02*
X176017142Y-84774783D01*
X176255238Y-84774783D01*
X176350476Y-84736078D01*
X176398095Y-84658668D01*
X176398095Y-84581259D01*
X176350476Y-84503849D01*
X176255238Y-84465145D01*
X176017142Y-84465145D01*
X175921904Y-84426440D01*
X175445714Y-84774783D02*
X175445714Y-84232916D01*
X175445714Y-83961983D02*
X175493333Y-84000688D01*
X175445714Y-84039392D01*
X175398095Y-84000688D01*
X175445714Y-83961983D01*
X175445714Y-84039392D01*
X174969523Y-84774783D02*
X174969523Y-84232916D01*
X174969523Y-84387735D02*
X174921904Y-84310326D01*
X174874285Y-84271621D01*
X174779047Y-84232916D01*
X174683809Y-84232916D01*
X174445714Y-84232916D02*
X174207619Y-84774783D01*
X173969523Y-84232916D02*
X174207619Y-84774783D01*
X174302857Y-84968307D01*
X174350476Y-85007011D01*
X174445714Y-85045716D01*
X172969523Y-84232916D02*
X172588571Y-84232916D01*
X172826666Y-83961983D02*
X172826666Y-84658668D01*
X172779047Y-84736078D01*
X172683809Y-84774783D01*
X172588571Y-84774783D01*
X171826666Y-84774783D02*
X171826666Y-84349030D01*
X171874285Y-84271621D01*
X171969523Y-84232916D01*
X172160000Y-84232916D01*
X172255238Y-84271621D01*
X171826666Y-84736078D02*
X171921904Y-84774783D01*
X172160000Y-84774783D01*
X172255238Y-84736078D01*
X172302857Y-84658668D01*
X172302857Y-84581259D01*
X172255238Y-84503849D01*
X172160000Y-84465145D01*
X171921904Y-84465145D01*
X171826666Y-84426440D01*
X171207619Y-84774783D02*
X171302857Y-84736078D01*
X171350476Y-84658668D01*
X171350476Y-83961983D01*
X170445714Y-84736078D02*
X170540952Y-84774783D01*
X170731428Y-84774783D01*
X170826666Y-84736078D01*
X170874285Y-84658668D01*
X170874285Y-84349030D01*
X170826666Y-84271621D01*
X170731428Y-84232916D01*
X170540952Y-84232916D01*
X170445714Y-84271621D01*
X170398095Y-84349030D01*
X170398095Y-84426440D01*
X170874285Y-84503849D01*
X170017142Y-84736078D02*
X169921904Y-84774783D01*
X169731428Y-84774783D01*
X169636190Y-84736078D01*
X169588571Y-84658668D01*
X169588571Y-84619964D01*
X169636190Y-84542554D01*
X169731428Y-84503849D01*
X169874285Y-84503849D01*
X169969523Y-84465145D01*
X170017142Y-84387735D01*
X170017142Y-84349030D01*
X169969523Y-84271621D01*
X169874285Y-84232916D01*
X169731428Y-84232916D01*
X169636190Y-84271621D01*
X168255238Y-84774783D02*
X168350476Y-84736078D01*
X168398095Y-84697373D01*
X168445714Y-84619964D01*
X168445714Y-84387735D01*
X168398095Y-84310326D01*
X168350476Y-84271621D01*
X168255238Y-84232916D01*
X168112380Y-84232916D01*
X168017142Y-84271621D01*
X167969523Y-84310326D01*
X167921904Y-84387735D01*
X167921904Y-84619964D01*
X167969523Y-84697373D01*
X168017142Y-84736078D01*
X168112380Y-84774783D01*
X168255238Y-84774783D01*
X167636190Y-84232916D02*
X167255238Y-84232916D01*
X167493333Y-84774783D02*
X167493333Y-84078097D01*
X167445714Y-84000688D01*
X167350476Y-83961983D01*
X167255238Y-83961983D01*
X166160000Y-84774783D02*
X166160000Y-83961983D01*
X166160000Y-84271621D02*
X166064761Y-84232916D01*
X165874285Y-84232916D01*
X165779047Y-84271621D01*
X165731428Y-84310326D01*
X165683809Y-84387735D01*
X165683809Y-84619964D01*
X165731428Y-84697373D01*
X165779047Y-84736078D01*
X165874285Y-84774783D01*
X166064761Y-84774783D01*
X166160000Y-84736078D01*
X165112380Y-84774783D02*
X165207619Y-84736078D01*
X165255238Y-84658668D01*
X165255238Y-83961983D01*
X164588571Y-84774783D02*
X164683809Y-84736078D01*
X164731428Y-84697373D01*
X164779047Y-84619964D01*
X164779047Y-84387735D01*
X164731428Y-84310326D01*
X164683809Y-84271621D01*
X164588571Y-84232916D01*
X164445714Y-84232916D01*
X164350476Y-84271621D01*
X164302857Y-84310326D01*
X164255238Y-84387735D01*
X164255238Y-84619964D01*
X164302857Y-84697373D01*
X164350476Y-84736078D01*
X164445714Y-84774783D01*
X164588571Y-84774783D01*
X163683809Y-84774783D02*
X163779047Y-84736078D01*
X163826666Y-84697373D01*
X163874285Y-84619964D01*
X163874285Y-84387735D01*
X163826666Y-84310326D01*
X163779047Y-84271621D01*
X163683809Y-84232916D01*
X163540952Y-84232916D01*
X163445714Y-84271621D01*
X163398095Y-84310326D01*
X163350476Y-84387735D01*
X163350476Y-84619964D01*
X163398095Y-84697373D01*
X163445714Y-84736078D01*
X163540952Y-84774783D01*
X163683809Y-84774783D01*
X162493333Y-84774783D02*
X162493333Y-83961983D01*
X162493333Y-84736078D02*
X162588571Y-84774783D01*
X162779047Y-84774783D01*
X162874285Y-84736078D01*
X162921904Y-84697373D01*
X162969523Y-84619964D01*
X162969523Y-84387735D01*
X162921904Y-84310326D01*
X162874285Y-84271621D01*
X162779047Y-84232916D01*
X162588571Y-84232916D01*
X162493333Y-84271621D01*
X160826666Y-84774783D02*
X160826666Y-84349030D01*
X160874285Y-84271621D01*
X160969523Y-84232916D01*
X161160000Y-84232916D01*
X161255238Y-84271621D01*
X160826666Y-84736078D02*
X160921904Y-84774783D01*
X161160000Y-84774783D01*
X161255238Y-84736078D01*
X161302857Y-84658668D01*
X161302857Y-84581259D01*
X161255238Y-84503849D01*
X161160000Y-84465145D01*
X160921904Y-84465145D01*
X160826666Y-84426440D01*
X160350476Y-84232916D02*
X160350476Y-84774783D01*
X160350476Y-84310326D02*
X160302857Y-84271621D01*
X160207619Y-84232916D01*
X160064761Y-84232916D01*
X159969523Y-84271621D01*
X159921904Y-84349030D01*
X159921904Y-84774783D01*
X159017142Y-84774783D02*
X159017142Y-83961983D01*
X159017142Y-84736078D02*
X159112380Y-84774783D01*
X159302857Y-84774783D01*
X159398095Y-84736078D01*
X159445714Y-84697373D01*
X159493333Y-84619964D01*
X159493333Y-84387735D01*
X159445714Y-84310326D01*
X159398095Y-84271621D01*
X159302857Y-84232916D01*
X159112380Y-84232916D01*
X159017142Y-84271621D01*
X157874285Y-84232916D02*
X157683809Y-84774783D01*
X157493333Y-84387735D01*
X157302857Y-84774783D01*
X157112380Y-84232916D01*
X156731428Y-84774783D02*
X156731428Y-84232916D01*
X156731428Y-83961983D02*
X156779047Y-84000688D01*
X156731428Y-84039392D01*
X156683809Y-84000688D01*
X156731428Y-83961983D01*
X156731428Y-84039392D01*
X156255238Y-84232916D02*
X156255238Y-84774783D01*
X156255238Y-84310326D02*
X156207619Y-84271621D01*
X156112380Y-84232916D01*
X155969523Y-84232916D01*
X155874285Y-84271621D01*
X155826666Y-84349030D01*
X155826666Y-84774783D01*
X154969523Y-84736078D02*
X155064761Y-84774783D01*
X155255238Y-84774783D01*
X155350476Y-84736078D01*
X155398095Y-84658668D01*
X155398095Y-84349030D01*
X155350476Y-84271621D01*
X155255238Y-84232916D01*
X155064761Y-84232916D01*
X154969523Y-84271621D01*
X154921904Y-84349030D01*
X154921904Y-84426440D01*
X155398095Y-84503849D01*
X181112380Y-86083391D02*
X181112380Y-85270591D01*
X180779047Y-85541524D02*
X180398095Y-85541524D01*
X180636190Y-85270591D02*
X180636190Y-85967276D01*
X180588571Y-86044686D01*
X180493333Y-86083391D01*
X180398095Y-86083391D01*
X180017142Y-85270591D02*
X180112380Y-85425410D01*
X179636190Y-86044686D02*
X179540952Y-86083391D01*
X179350476Y-86083391D01*
X179255238Y-86044686D01*
X179207619Y-85967276D01*
X179207619Y-85928572D01*
X179255238Y-85851162D01*
X179350476Y-85812457D01*
X179493333Y-85812457D01*
X179588571Y-85773753D01*
X179636190Y-85696343D01*
X179636190Y-85657638D01*
X179588571Y-85580229D01*
X179493333Y-85541524D01*
X179350476Y-85541524D01*
X179255238Y-85580229D01*
X178160000Y-85541524D02*
X177779047Y-85541524D01*
X178017142Y-85270591D02*
X178017142Y-85967276D01*
X177969523Y-86044686D01*
X177874285Y-86083391D01*
X177779047Y-86083391D01*
X177017142Y-85541524D02*
X177017142Y-86083391D01*
X177445714Y-85541524D02*
X177445714Y-85967276D01*
X177398095Y-86044686D01*
X177302857Y-86083391D01*
X177160000Y-86083391D01*
X177064761Y-86044686D01*
X177017142Y-86005981D01*
X176540952Y-86083391D02*
X176540952Y-85541524D01*
X176540952Y-85696343D02*
X176493333Y-85618934D01*
X176445714Y-85580229D01*
X176350476Y-85541524D01*
X176255238Y-85541524D01*
X176064761Y-85541524D02*
X175683809Y-85541524D01*
X175921904Y-85270591D02*
X175921904Y-85967276D01*
X175874285Y-86044686D01*
X175779047Y-86083391D01*
X175683809Y-86083391D01*
X175207619Y-86083391D02*
X175302857Y-86044686D01*
X175350476Y-85967276D01*
X175350476Y-85270591D01*
X174445714Y-86044686D02*
X174540952Y-86083391D01*
X174731428Y-86083391D01*
X174826666Y-86044686D01*
X174874285Y-85967276D01*
X174874285Y-85657638D01*
X174826666Y-85580229D01*
X174731428Y-85541524D01*
X174540952Y-85541524D01*
X174445714Y-85580229D01*
X174398095Y-85657638D01*
X174398095Y-85735048D01*
X174874285Y-85812457D01*
X174017142Y-86044686D02*
X173921904Y-86083391D01*
X173731428Y-86083391D01*
X173636190Y-86044686D01*
X173588571Y-85967276D01*
X173588571Y-85928572D01*
X173636190Y-85851162D01*
X173731428Y-85812457D01*
X173874285Y-85812457D01*
X173969523Y-85773753D01*
X174017142Y-85696343D01*
X174017142Y-85657638D01*
X173969523Y-85580229D01*
X173874285Y-85541524D01*
X173731428Y-85541524D01*
X173636190Y-85580229D01*
X171969523Y-86083391D02*
X171969523Y-85657638D01*
X172017142Y-85580229D01*
X172112380Y-85541524D01*
X172302857Y-85541524D01*
X172398095Y-85580229D01*
X171969523Y-86044686D02*
X172064761Y-86083391D01*
X172302857Y-86083391D01*
X172398095Y-86044686D01*
X172445714Y-85967276D01*
X172445714Y-85889867D01*
X172398095Y-85812457D01*
X172302857Y-85773753D01*
X172064761Y-85773753D01*
X171969523Y-85735048D01*
X171350476Y-86083391D02*
X171445714Y-86044686D01*
X171493333Y-85967276D01*
X171493333Y-85270591D01*
X170826666Y-86083391D02*
X170921904Y-86044686D01*
X170969523Y-85967276D01*
X170969523Y-85270591D01*
X169826666Y-85541524D02*
X169445714Y-85541524D01*
X169683809Y-85270591D02*
X169683809Y-85967276D01*
X169636190Y-86044686D01*
X169540952Y-86083391D01*
X169445714Y-86083391D01*
X169112380Y-86083391D02*
X169112380Y-85270591D01*
X168683809Y-86083391D02*
X168683809Y-85657638D01*
X168731428Y-85580229D01*
X168826666Y-85541524D01*
X168969523Y-85541524D01*
X169064761Y-85580229D01*
X169112380Y-85618934D01*
X167826666Y-86044686D02*
X167921904Y-86083391D01*
X168112380Y-86083391D01*
X168207619Y-86044686D01*
X168255238Y-85967276D01*
X168255238Y-85657638D01*
X168207619Y-85580229D01*
X168112380Y-85541524D01*
X167921904Y-85541524D01*
X167826666Y-85580229D01*
X167779047Y-85657638D01*
X167779047Y-85735048D01*
X168255238Y-85812457D01*
X166683809Y-85541524D02*
X166493333Y-86083391D01*
X166302857Y-85696343D01*
X166112380Y-86083391D01*
X165921904Y-85541524D01*
X165112380Y-86083391D02*
X165112380Y-85657638D01*
X165160000Y-85580229D01*
X165255238Y-85541524D01*
X165445714Y-85541524D01*
X165540952Y-85580229D01*
X165112380Y-86044686D02*
X165207619Y-86083391D01*
X165445714Y-86083391D01*
X165540952Y-86044686D01*
X165588571Y-85967276D01*
X165588571Y-85889867D01*
X165540952Y-85812457D01*
X165445714Y-85773753D01*
X165207619Y-85773753D01*
X165112380Y-85735048D01*
X164731428Y-85541524D02*
X164493333Y-86083391D01*
X164255238Y-85541524D02*
X164493333Y-86083391D01*
X164588571Y-86276915D01*
X164636190Y-86315619D01*
X164731428Y-86354324D01*
X162683809Y-86083391D02*
X162683809Y-85270591D01*
X162683809Y-86044686D02*
X162779047Y-86083391D01*
X162969523Y-86083391D01*
X163064761Y-86044686D01*
X163112380Y-86005981D01*
X163160000Y-85928572D01*
X163160000Y-85696343D01*
X163112380Y-85618934D01*
X163064761Y-85580229D01*
X162969523Y-85541524D01*
X162779047Y-85541524D01*
X162683809Y-85580229D01*
X162064761Y-86083391D02*
X162160000Y-86044686D01*
X162207619Y-86005981D01*
X162255238Y-85928572D01*
X162255238Y-85696343D01*
X162207619Y-85618934D01*
X162160000Y-85580229D01*
X162064761Y-85541524D01*
X161921904Y-85541524D01*
X161826666Y-85580229D01*
X161779047Y-85618934D01*
X161731428Y-85696343D01*
X161731428Y-85928572D01*
X161779047Y-86005981D01*
X161826666Y-86044686D01*
X161921904Y-86083391D01*
X162064761Y-86083391D01*
X161398095Y-85541524D02*
X161207619Y-86083391D01*
X161017142Y-85696343D01*
X160826666Y-86083391D01*
X160636190Y-85541524D01*
X160255238Y-85541524D02*
X160255238Y-86083391D01*
X160255238Y-85618934D02*
X160207619Y-85580229D01*
X160112380Y-85541524D01*
X159969523Y-85541524D01*
X159874285Y-85580229D01*
X159826666Y-85657638D01*
X159826666Y-86083391D01*
X158731428Y-85541524D02*
X158350476Y-85541524D01*
X158588571Y-85270591D02*
X158588571Y-85967276D01*
X158540952Y-86044686D01*
X158445714Y-86083391D01*
X158350476Y-86083391D01*
X158017142Y-86083391D02*
X158017142Y-85270591D01*
X157588571Y-86083391D02*
X157588571Y-85657638D01*
X157636190Y-85580229D01*
X157731428Y-85541524D01*
X157874285Y-85541524D01*
X157969523Y-85580229D01*
X158017142Y-85618934D01*
X156731428Y-86044686D02*
X156826666Y-86083391D01*
X157017142Y-86083391D01*
X157112380Y-86044686D01*
X157160000Y-85967276D01*
X157160000Y-85657638D01*
X157112380Y-85580229D01*
X157017142Y-85541524D01*
X156826666Y-85541524D01*
X156731428Y-85580229D01*
X156683809Y-85657638D01*
X156683809Y-85735048D01*
X157160000Y-85812457D01*
X155350476Y-86083391D02*
X155445714Y-86044686D01*
X155493333Y-85967276D01*
X155493333Y-85270591D01*
X154969523Y-86083391D02*
X154969523Y-85541524D01*
X154969523Y-85270591D02*
X155017142Y-85309296D01*
X154969523Y-85348000D01*
X154921904Y-85309296D01*
X154969523Y-85270591D01*
X154969523Y-85348000D01*
X154493333Y-85541524D02*
X154493333Y-86083391D01*
X154493333Y-85618934D02*
X154445714Y-85580229D01*
X154350476Y-85541524D01*
X154207619Y-85541524D01*
X154112380Y-85580229D01*
X154064761Y-85657638D01*
X154064761Y-86083391D01*
X153207619Y-86044686D02*
X153302857Y-86083391D01*
X153493333Y-86083391D01*
X153588571Y-86044686D01*
X153636190Y-85967276D01*
X153636190Y-85657638D01*
X153588571Y-85580229D01*
X153493333Y-85541524D01*
X153302857Y-85541524D01*
X153207619Y-85580229D01*
X153160000Y-85657638D01*
X153160000Y-85735048D01*
X153636190Y-85812457D01*
X181469523Y-87353294D02*
X181326666Y-87391999D01*
X181088571Y-87391999D01*
X180993333Y-87353294D01*
X180945714Y-87314589D01*
X180898095Y-87237180D01*
X180898095Y-87159770D01*
X180945714Y-87082361D01*
X180993333Y-87043656D01*
X181088571Y-87004951D01*
X181279047Y-86966246D01*
X181374285Y-86927542D01*
X181421904Y-86888837D01*
X181469523Y-86811427D01*
X181469523Y-86734018D01*
X181421904Y-86656608D01*
X181374285Y-86617904D01*
X181279047Y-86579199D01*
X181040952Y-86579199D01*
X180898095Y-86617904D01*
X180326666Y-87391999D02*
X180421904Y-87353294D01*
X180469523Y-87314589D01*
X180517142Y-87237180D01*
X180517142Y-87004951D01*
X180469523Y-86927542D01*
X180421904Y-86888837D01*
X180326666Y-86850132D01*
X180183809Y-86850132D01*
X180088571Y-86888837D01*
X180040952Y-86927542D01*
X179993333Y-87004951D01*
X179993333Y-87237180D01*
X180040952Y-87314589D01*
X180088571Y-87353294D01*
X180183809Y-87391999D01*
X180326666Y-87391999D01*
X178945714Y-86850132D02*
X178564761Y-86850132D01*
X178802857Y-86579199D02*
X178802857Y-87275884D01*
X178755238Y-87353294D01*
X178660000Y-87391999D01*
X178564761Y-87391999D01*
X178088571Y-87391999D02*
X178183809Y-87353294D01*
X178231428Y-87314589D01*
X178279047Y-87237180D01*
X178279047Y-87004951D01*
X178231428Y-86927542D01*
X178183809Y-86888837D01*
X178088571Y-86850132D01*
X177945714Y-86850132D01*
X177850476Y-86888837D01*
X177802857Y-86927542D01*
X177755238Y-87004951D01*
X177755238Y-87237180D01*
X177802857Y-87314589D01*
X177850476Y-87353294D01*
X177945714Y-87391999D01*
X178088571Y-87391999D01*
X176183809Y-87353294D02*
X176279047Y-87391999D01*
X176469523Y-87391999D01*
X176564761Y-87353294D01*
X176612380Y-87275884D01*
X176612380Y-86966246D01*
X176564761Y-86888837D01*
X176469523Y-86850132D01*
X176279047Y-86850132D01*
X176183809Y-86888837D01*
X176136190Y-86966246D01*
X176136190Y-87043656D01*
X176612380Y-87121065D01*
X175279047Y-87391999D02*
X175279047Y-86966246D01*
X175326666Y-86888837D01*
X175421904Y-86850132D01*
X175612380Y-86850132D01*
X175707619Y-86888837D01*
X175279047Y-87353294D02*
X175374285Y-87391999D01*
X175612380Y-87391999D01*
X175707619Y-87353294D01*
X175755238Y-87275884D01*
X175755238Y-87198475D01*
X175707619Y-87121065D01*
X175612380Y-87082361D01*
X175374285Y-87082361D01*
X175279047Y-87043656D01*
X174374285Y-87353294D02*
X174469523Y-87391999D01*
X174660000Y-87391999D01*
X174755238Y-87353294D01*
X174802857Y-87314589D01*
X174850476Y-87237180D01*
X174850476Y-87004951D01*
X174802857Y-86927542D01*
X174755238Y-86888837D01*
X174660000Y-86850132D01*
X174469523Y-86850132D01*
X174374285Y-86888837D01*
X173945714Y-87391999D02*
X173945714Y-86579199D01*
X173517142Y-87391999D02*
X173517142Y-86966246D01*
X173564761Y-86888837D01*
X173660000Y-86850132D01*
X173802857Y-86850132D01*
X173898095Y-86888837D01*
X173945714Y-86927542D01*
X172421904Y-86850132D02*
X172040952Y-86850132D01*
X172279047Y-86579199D02*
X172279047Y-87275884D01*
X172231428Y-87353294D01*
X172136190Y-87391999D01*
X172040952Y-87391999D01*
X171707619Y-87391999D02*
X171707619Y-86579199D01*
X171279047Y-87391999D02*
X171279047Y-86966246D01*
X171326666Y-86888837D01*
X171421904Y-86850132D01*
X171564761Y-86850132D01*
X171660000Y-86888837D01*
X171707619Y-86927542D01*
X170421904Y-87353294D02*
X170517142Y-87391999D01*
X170707619Y-87391999D01*
X170802857Y-87353294D01*
X170850476Y-87275884D01*
X170850476Y-86966246D01*
X170802857Y-86888837D01*
X170707619Y-86850132D01*
X170517142Y-86850132D01*
X170421904Y-86888837D01*
X170374285Y-86966246D01*
X170374285Y-87043656D01*
X170850476Y-87121065D01*
X169945714Y-87391999D02*
X169945714Y-86850132D01*
X169945714Y-86579199D02*
X169993333Y-86617904D01*
X169945714Y-86656608D01*
X169898095Y-86617904D01*
X169945714Y-86579199D01*
X169945714Y-86656608D01*
X169469523Y-87391999D02*
X169469523Y-86850132D01*
X169469523Y-87004951D02*
X169421904Y-86927542D01*
X169374285Y-86888837D01*
X169279047Y-86850132D01*
X169183809Y-86850132D01*
X167945714Y-87391999D02*
X168040952Y-87353294D01*
X168088571Y-87314589D01*
X168136190Y-87237180D01*
X168136190Y-87004951D01*
X168088571Y-86927542D01*
X168040952Y-86888837D01*
X167945714Y-86850132D01*
X167802857Y-86850132D01*
X167707619Y-86888837D01*
X167660000Y-86927542D01*
X167612380Y-87004951D01*
X167612380Y-87237180D01*
X167660000Y-87314589D01*
X167707619Y-87353294D01*
X167802857Y-87391999D01*
X167945714Y-87391999D01*
X167279047Y-86850132D02*
X167088571Y-87391999D01*
X166898095Y-87004951D01*
X166707619Y-87391999D01*
X166517142Y-86850132D01*
X166136190Y-86850132D02*
X166136190Y-87391999D01*
X166136190Y-86927542D02*
X166088571Y-86888837D01*
X165993333Y-86850132D01*
X165850476Y-86850132D01*
X165755238Y-86888837D01*
X165707619Y-86966246D01*
X165707619Y-87391999D01*
X164421904Y-86579199D02*
X164517142Y-86734018D01*
X164136190Y-86850132D02*
X163755238Y-86850132D01*
X163993333Y-86579199D02*
X163993333Y-87275884D01*
X163945714Y-87353294D01*
X163850476Y-87391999D01*
X163755238Y-87391999D01*
X163421904Y-87391999D02*
X163421904Y-86850132D01*
X163421904Y-86579199D02*
X163469523Y-86617904D01*
X163421904Y-86656608D01*
X163374285Y-86617904D01*
X163421904Y-86579199D01*
X163421904Y-86656608D01*
X162802857Y-87391999D02*
X162898095Y-87353294D01*
X162945714Y-87275884D01*
X162945714Y-86579199D01*
X161755238Y-86850132D02*
X161564761Y-87391999D01*
X161374285Y-87004951D01*
X161183809Y-87391999D01*
X160993333Y-86850132D01*
X160231428Y-87353294D02*
X160326666Y-87391999D01*
X160517142Y-87391999D01*
X160612380Y-87353294D01*
X160660000Y-87275884D01*
X160660000Y-86966246D01*
X160612380Y-86888837D01*
X160517142Y-86850132D01*
X160326666Y-86850132D01*
X160231428Y-86888837D01*
X160183809Y-86966246D01*
X160183809Y-87043656D01*
X160660000Y-87121065D01*
X158564761Y-86850132D02*
X158564761Y-87508113D01*
X158612380Y-87585523D01*
X158660000Y-87624227D01*
X158755238Y-87662932D01*
X158898095Y-87662932D01*
X158993333Y-87624227D01*
X158564761Y-87353294D02*
X158660000Y-87391999D01*
X158850476Y-87391999D01*
X158945714Y-87353294D01*
X158993333Y-87314589D01*
X159040952Y-87237180D01*
X159040952Y-87004951D01*
X158993333Y-86927542D01*
X158945714Y-86888837D01*
X158850476Y-86850132D01*
X158660000Y-86850132D01*
X158564761Y-86888837D01*
X157945714Y-87391999D02*
X158040952Y-87353294D01*
X158088571Y-87314589D01*
X158136190Y-87237180D01*
X158136190Y-87004951D01*
X158088571Y-86927542D01*
X158040952Y-86888837D01*
X157945714Y-86850132D01*
X157802857Y-86850132D01*
X157707619Y-86888837D01*
X157660000Y-86927542D01*
X157612380Y-87004951D01*
X157612380Y-87237180D01*
X157660000Y-87314589D01*
X157707619Y-87353294D01*
X157802857Y-87391999D01*
X157945714Y-87391999D01*
X156421904Y-87391999D02*
X156421904Y-86579199D01*
X155993333Y-87391999D02*
X155993333Y-86966246D01*
X156040952Y-86888837D01*
X156136190Y-86850132D01*
X156279047Y-86850132D01*
X156374285Y-86888837D01*
X156421904Y-86927542D01*
X155374285Y-87391999D02*
X155469523Y-87353294D01*
X155517142Y-87314589D01*
X155564761Y-87237180D01*
X155564761Y-87004951D01*
X155517142Y-86927542D01*
X155469523Y-86888837D01*
X155374285Y-86850132D01*
X155231428Y-86850132D01*
X155136190Y-86888837D01*
X155088571Y-86927542D01*
X155040952Y-87004951D01*
X155040952Y-87237180D01*
X155088571Y-87314589D01*
X155136190Y-87353294D01*
X155231428Y-87391999D01*
X155374285Y-87391999D01*
X154612380Y-87391999D02*
X154612380Y-86850132D01*
X154612380Y-86927542D02*
X154564761Y-86888837D01*
X154469523Y-86850132D01*
X154326666Y-86850132D01*
X154231428Y-86888837D01*
X154183809Y-86966246D01*
X154183809Y-87391999D01*
X154183809Y-86966246D02*
X154136190Y-86888837D01*
X154040952Y-86850132D01*
X153898095Y-86850132D01*
X153802857Y-86888837D01*
X153755238Y-86966246D01*
X153755238Y-87391999D01*
X152898095Y-87353294D02*
X152993333Y-87391999D01*
X153183809Y-87391999D01*
X153279047Y-87353294D01*
X153326666Y-87275884D01*
X153326666Y-86966246D01*
X153279047Y-86888837D01*
X153183809Y-86850132D01*
X152993333Y-86850132D01*
X152898095Y-86888837D01*
X152850476Y-86966246D01*
X152850476Y-87043656D01*
X153326666Y-87121065D01*
X181517142Y-87887807D02*
X180945714Y-87887807D01*
X181231428Y-88700607D02*
X181231428Y-87887807D01*
X180469523Y-88700607D02*
X180564761Y-88661902D01*
X180612380Y-88623197D01*
X180660000Y-88545788D01*
X180660000Y-88313559D01*
X180612380Y-88236150D01*
X180564761Y-88197445D01*
X180469523Y-88158740D01*
X180326666Y-88158740D01*
X180231428Y-88197445D01*
X180183809Y-88236150D01*
X180136190Y-88313559D01*
X180136190Y-88545788D01*
X180183809Y-88623197D01*
X180231428Y-88661902D01*
X180326666Y-88700607D01*
X180469523Y-88700607D01*
X178802857Y-88700607D02*
X178898095Y-88661902D01*
X178945714Y-88623197D01*
X178993333Y-88545788D01*
X178993333Y-88313559D01*
X178945714Y-88236150D01*
X178898095Y-88197445D01*
X178802857Y-88158740D01*
X178660000Y-88158740D01*
X178564761Y-88197445D01*
X178517142Y-88236150D01*
X178469523Y-88313559D01*
X178469523Y-88545788D01*
X178517142Y-88623197D01*
X178564761Y-88661902D01*
X178660000Y-88700607D01*
X178802857Y-88700607D01*
X178183809Y-88158740D02*
X177802857Y-88158740D01*
X178040952Y-87887807D02*
X178040952Y-88584492D01*
X177993333Y-88661902D01*
X177898095Y-88700607D01*
X177802857Y-88700607D01*
X177469523Y-88700607D02*
X177469523Y-87887807D01*
X177040952Y-88700607D02*
X177040952Y-88274854D01*
X177088571Y-88197445D01*
X177183809Y-88158740D01*
X177326666Y-88158740D01*
X177421904Y-88197445D01*
X177469523Y-88236150D01*
X176183809Y-88661902D02*
X176279047Y-88700607D01*
X176469523Y-88700607D01*
X176564761Y-88661902D01*
X176612380Y-88584492D01*
X176612380Y-88274854D01*
X176564761Y-88197445D01*
X176469523Y-88158740D01*
X176279047Y-88158740D01*
X176183809Y-88197445D01*
X176136190Y-88274854D01*
X176136190Y-88352264D01*
X176612380Y-88429673D01*
X175707619Y-88700607D02*
X175707619Y-88158740D01*
X175707619Y-88313559D02*
X175660000Y-88236150D01*
X175612380Y-88197445D01*
X175517142Y-88158740D01*
X175421904Y-88158740D01*
X174326666Y-88700607D02*
X174326666Y-88158740D01*
X174326666Y-88313559D02*
X174279047Y-88236150D01*
X174231428Y-88197445D01*
X174136190Y-88158740D01*
X174040952Y-88158740D01*
X173326666Y-88661902D02*
X173421904Y-88700607D01*
X173612380Y-88700607D01*
X173707619Y-88661902D01*
X173755238Y-88584492D01*
X173755238Y-88274854D01*
X173707619Y-88197445D01*
X173612380Y-88158740D01*
X173421904Y-88158740D01*
X173326666Y-88197445D01*
X173279047Y-88274854D01*
X173279047Y-88352264D01*
X173755238Y-88429673D01*
X172421904Y-88700607D02*
X172421904Y-88274854D01*
X172469523Y-88197445D01*
X172564761Y-88158740D01*
X172755238Y-88158740D01*
X172850476Y-88197445D01*
X172421904Y-88661902D02*
X172517142Y-88700607D01*
X172755238Y-88700607D01*
X172850476Y-88661902D01*
X172898095Y-88584492D01*
X172898095Y-88507083D01*
X172850476Y-88429673D01*
X172755238Y-88390969D01*
X172517142Y-88390969D01*
X172421904Y-88352264D01*
X171802857Y-88700607D02*
X171898095Y-88661902D01*
X171945714Y-88584492D01*
X171945714Y-87887807D01*
X171421904Y-88700607D02*
X171421904Y-88158740D01*
X171421904Y-88236150D02*
X171374285Y-88197445D01*
X171279047Y-88158740D01*
X171136190Y-88158740D01*
X171040952Y-88197445D01*
X170993333Y-88274854D01*
X170993333Y-88700607D01*
X170993333Y-88274854D02*
X170945714Y-88197445D01*
X170850476Y-88158740D01*
X170707619Y-88158740D01*
X170612380Y-88197445D01*
X170564761Y-88274854D01*
X170564761Y-88700607D01*
X170136190Y-88661902D02*
X170040952Y-88700607D01*
X169850476Y-88700607D01*
X169755238Y-88661902D01*
X169707619Y-88584492D01*
X169707619Y-88545788D01*
X169755238Y-88468378D01*
X169850476Y-88429673D01*
X169993333Y-88429673D01*
X170088571Y-88390969D01*
X170136190Y-88313559D01*
X170136190Y-88274854D01*
X170088571Y-88197445D01*
X169993333Y-88158740D01*
X169850476Y-88158740D01*
X169755238Y-88197445D01*
X168374285Y-88700607D02*
X168469523Y-88661902D01*
X168517142Y-88623197D01*
X168564761Y-88545788D01*
X168564761Y-88313559D01*
X168517142Y-88236150D01*
X168469523Y-88197445D01*
X168374285Y-88158740D01*
X168231428Y-88158740D01*
X168136190Y-88197445D01*
X168088571Y-88236150D01*
X168040952Y-88313559D01*
X168040952Y-88545788D01*
X168088571Y-88623197D01*
X168136190Y-88661902D01*
X168231428Y-88700607D01*
X168374285Y-88700607D01*
X167183809Y-88158740D02*
X167183809Y-88700607D01*
X167612380Y-88158740D02*
X167612380Y-88584492D01*
X167564761Y-88661902D01*
X167469523Y-88700607D01*
X167326666Y-88700607D01*
X167231428Y-88661902D01*
X167183809Y-88623197D01*
X166707619Y-88700607D02*
X166707619Y-88158740D01*
X166707619Y-88313559D02*
X166660000Y-88236150D01*
X166612380Y-88197445D01*
X166517142Y-88158740D01*
X166421904Y-88158740D01*
X165374285Y-88661902D02*
X165279047Y-88700607D01*
X165088571Y-88700607D01*
X164993333Y-88661902D01*
X164945714Y-88584492D01*
X164945714Y-88545788D01*
X164993333Y-88468378D01*
X165088571Y-88429673D01*
X165231428Y-88429673D01*
X165326666Y-88390969D01*
X165374285Y-88313559D01*
X165374285Y-88274854D01*
X165326666Y-88197445D01*
X165231428Y-88158740D01*
X165088571Y-88158740D01*
X164993333Y-88197445D01*
X164374285Y-88700607D02*
X164469523Y-88661902D01*
X164517142Y-88623197D01*
X164564761Y-88545788D01*
X164564761Y-88313559D01*
X164517142Y-88236150D01*
X164469523Y-88197445D01*
X164374285Y-88158740D01*
X164231428Y-88158740D01*
X164136190Y-88197445D01*
X164088571Y-88236150D01*
X164040952Y-88313559D01*
X164040952Y-88545788D01*
X164088571Y-88623197D01*
X164136190Y-88661902D01*
X164231428Y-88700607D01*
X164374285Y-88700607D01*
X163183809Y-88158740D02*
X163183809Y-88700607D01*
X163612380Y-88158740D02*
X163612380Y-88584492D01*
X163564761Y-88661902D01*
X163469523Y-88700607D01*
X163326666Y-88700607D01*
X163231428Y-88661902D01*
X163183809Y-88623197D01*
X162564761Y-88700607D02*
X162660000Y-88661902D01*
X162707619Y-88584492D01*
X162707619Y-87887807D01*
X162231428Y-88661902D02*
X162136190Y-88700607D01*
X161945714Y-88700607D01*
X161850476Y-88661902D01*
X161802857Y-88584492D01*
X161802857Y-88545788D01*
X161850476Y-88468378D01*
X161945714Y-88429673D01*
X162088571Y-88429673D01*
X162183809Y-88390969D01*
X162231428Y-88313559D01*
X162231428Y-88274854D01*
X162183809Y-88197445D01*
X162088571Y-88158740D01*
X161945714Y-88158740D01*
X161850476Y-88197445D01*
X160612380Y-88700607D02*
X160612380Y-88158740D01*
X160612380Y-88236150D02*
X160564761Y-88197445D01*
X160469523Y-88158740D01*
X160326666Y-88158740D01*
X160231428Y-88197445D01*
X160183809Y-88274854D01*
X160183809Y-88700607D01*
X160183809Y-88274854D02*
X160136190Y-88197445D01*
X160040952Y-88158740D01*
X159898095Y-88158740D01*
X159802857Y-88197445D01*
X159755238Y-88274854D01*
X159755238Y-88700607D01*
X158850476Y-88158740D02*
X158850476Y-88700607D01*
X159279047Y-88158740D02*
X159279047Y-88584492D01*
X159231428Y-88661902D01*
X159136190Y-88700607D01*
X158993333Y-88700607D01*
X158898095Y-88661902D01*
X158850476Y-88623197D01*
X158421904Y-88661902D02*
X158326666Y-88700607D01*
X158136190Y-88700607D01*
X158040952Y-88661902D01*
X157993333Y-88584492D01*
X157993333Y-88545788D01*
X158040952Y-88468378D01*
X158136190Y-88429673D01*
X158279047Y-88429673D01*
X158374285Y-88390969D01*
X158421904Y-88313559D01*
X158421904Y-88274854D01*
X158374285Y-88197445D01*
X158279047Y-88158740D01*
X158136190Y-88158740D01*
X158040952Y-88197445D01*
X157707619Y-88158740D02*
X157326666Y-88158740D01*
X157564761Y-87887807D02*
X157564761Y-88584492D01*
X157517142Y-88661902D01*
X157421904Y-88700607D01*
X157326666Y-88700607D01*
X156231428Y-88700607D02*
X156231428Y-88158740D01*
X156231428Y-88313559D02*
X156183809Y-88236150D01*
X156136190Y-88197445D01*
X156040952Y-88158740D01*
X155945714Y-88158740D01*
X155469523Y-88700607D02*
X155564761Y-88661902D01*
X155612380Y-88623197D01*
X155660000Y-88545788D01*
X155660000Y-88313559D01*
X155612380Y-88236150D01*
X155564761Y-88197445D01*
X155469523Y-88158740D01*
X155326666Y-88158740D01*
X155231428Y-88197445D01*
X155183809Y-88236150D01*
X155136190Y-88313559D01*
X155136190Y-88545788D01*
X155183809Y-88623197D01*
X155231428Y-88661902D01*
X155326666Y-88700607D01*
X155469523Y-88700607D01*
X154279047Y-88700607D02*
X154279047Y-88274854D01*
X154326666Y-88197445D01*
X154421904Y-88158740D01*
X154612380Y-88158740D01*
X154707619Y-88197445D01*
X154279047Y-88661902D02*
X154374285Y-88700607D01*
X154612380Y-88700607D01*
X154707619Y-88661902D01*
X154755238Y-88584492D01*
X154755238Y-88507083D01*
X154707619Y-88429673D01*
X154612380Y-88390969D01*
X154374285Y-88390969D01*
X154279047Y-88352264D01*
X153802857Y-88700607D02*
X153802857Y-88158740D01*
X153802857Y-88236150D02*
X153755238Y-88197445D01*
X153660000Y-88158740D01*
X153517142Y-88158740D01*
X153421904Y-88197445D01*
X153374285Y-88274854D01*
X153374285Y-88700607D01*
X153374285Y-88274854D02*
X153326666Y-88197445D01*
X153231428Y-88158740D01*
X153088571Y-88158740D01*
X152993333Y-88197445D01*
X152945714Y-88274854D01*
X152945714Y-88700607D01*
X189207619Y-89196415D02*
X188636190Y-89196415D01*
X188921904Y-90009215D02*
X188921904Y-89196415D01*
X188160000Y-90009215D02*
X188255238Y-89970510D01*
X188302857Y-89931805D01*
X188350476Y-89854396D01*
X188350476Y-89622167D01*
X188302857Y-89544758D01*
X188255238Y-89506053D01*
X188160000Y-89467348D01*
X188017142Y-89467348D01*
X187921904Y-89506053D01*
X187874285Y-89544758D01*
X187826666Y-89622167D01*
X187826666Y-89854396D01*
X187874285Y-89931805D01*
X187921904Y-89970510D01*
X188017142Y-90009215D01*
X188160000Y-90009215D01*
X186207619Y-90009215D02*
X186207619Y-89583462D01*
X186255238Y-89506053D01*
X186350476Y-89467348D01*
X186540952Y-89467348D01*
X186636190Y-89506053D01*
X186207619Y-89970510D02*
X186302857Y-90009215D01*
X186540952Y-90009215D01*
X186636190Y-89970510D01*
X186683809Y-89893100D01*
X186683809Y-89815691D01*
X186636190Y-89738281D01*
X186540952Y-89699577D01*
X186302857Y-89699577D01*
X186207619Y-89660872D01*
X185731428Y-89467348D02*
X185731428Y-90009215D01*
X185731428Y-89544758D02*
X185683809Y-89506053D01*
X185588571Y-89467348D01*
X185445714Y-89467348D01*
X185350476Y-89506053D01*
X185302857Y-89583462D01*
X185302857Y-90009215D01*
X184398095Y-90009215D02*
X184398095Y-89196415D01*
X184398095Y-89970510D02*
X184493333Y-90009215D01*
X184683809Y-90009215D01*
X184779047Y-89970510D01*
X184826666Y-89931805D01*
X184874285Y-89854396D01*
X184874285Y-89622167D01*
X184826666Y-89544758D01*
X184779047Y-89506053D01*
X184683809Y-89467348D01*
X184493333Y-89467348D01*
X184398095Y-89506053D01*
X183302857Y-89467348D02*
X182921904Y-89467348D01*
X183160000Y-89196415D02*
X183160000Y-89893100D01*
X183112380Y-89970510D01*
X183017142Y-90009215D01*
X182921904Y-90009215D01*
X182588571Y-90009215D02*
X182588571Y-89196415D01*
X182160000Y-90009215D02*
X182160000Y-89583462D01*
X182207619Y-89506053D01*
X182302857Y-89467348D01*
X182445714Y-89467348D01*
X182540952Y-89506053D01*
X182588571Y-89544758D01*
X181683809Y-90009215D02*
X181683809Y-89467348D01*
X181683809Y-89622167D02*
X181636190Y-89544758D01*
X181588571Y-89506053D01*
X181493333Y-89467348D01*
X181398095Y-89467348D01*
X180921904Y-90009215D02*
X181017142Y-89970510D01*
X181064761Y-89931805D01*
X181112380Y-89854396D01*
X181112380Y-89622167D01*
X181064761Y-89544758D01*
X181017142Y-89506053D01*
X180921904Y-89467348D01*
X180779047Y-89467348D01*
X180683809Y-89506053D01*
X180636190Y-89544758D01*
X180588571Y-89622167D01*
X180588571Y-89854396D01*
X180636190Y-89931805D01*
X180683809Y-89970510D01*
X180779047Y-90009215D01*
X180921904Y-90009215D01*
X179731428Y-89467348D02*
X179731428Y-90009215D01*
X180160000Y-89467348D02*
X180160000Y-89893100D01*
X180112380Y-89970510D01*
X180017142Y-90009215D01*
X179874285Y-90009215D01*
X179779047Y-89970510D01*
X179731428Y-89931805D01*
X178826666Y-89467348D02*
X178826666Y-90125329D01*
X178874285Y-90202739D01*
X178921904Y-90241443D01*
X179017142Y-90280148D01*
X179160000Y-90280148D01*
X179255238Y-90241443D01*
X178826666Y-89970510D02*
X178921904Y-90009215D01*
X179112380Y-90009215D01*
X179207619Y-89970510D01*
X179255238Y-89931805D01*
X179302857Y-89854396D01*
X179302857Y-89622167D01*
X179255238Y-89544758D01*
X179207619Y-89506053D01*
X179112380Y-89467348D01*
X178921904Y-89467348D01*
X178826666Y-89506053D01*
X178350476Y-90009215D02*
X178350476Y-89196415D01*
X177921904Y-90009215D02*
X177921904Y-89583462D01*
X177969523Y-89506053D01*
X178064761Y-89467348D01*
X178207619Y-89467348D01*
X178302857Y-89506053D01*
X178350476Y-89544758D01*
X176826666Y-89467348D02*
X176445714Y-89467348D01*
X176683809Y-89196415D02*
X176683809Y-89893100D01*
X176636190Y-89970510D01*
X176540952Y-90009215D01*
X176445714Y-90009215D01*
X176112380Y-90009215D02*
X176112380Y-89196415D01*
X175683809Y-90009215D02*
X175683809Y-89583462D01*
X175731428Y-89506053D01*
X175826666Y-89467348D01*
X175969523Y-89467348D01*
X176064761Y-89506053D01*
X176112380Y-89544758D01*
X174826666Y-89970510D02*
X174921904Y-90009215D01*
X175112380Y-90009215D01*
X175207619Y-89970510D01*
X175255238Y-89893100D01*
X175255238Y-89583462D01*
X175207619Y-89506053D01*
X175112380Y-89467348D01*
X174921904Y-89467348D01*
X174826666Y-89506053D01*
X174779047Y-89583462D01*
X174779047Y-89660872D01*
X175255238Y-89738281D01*
X173588571Y-90009215D02*
X173588571Y-89467348D01*
X173588571Y-89544758D02*
X173540952Y-89506053D01*
X173445714Y-89467348D01*
X173302857Y-89467348D01*
X173207619Y-89506053D01*
X173160000Y-89583462D01*
X173160000Y-90009215D01*
X173160000Y-89583462D02*
X173112380Y-89506053D01*
X173017142Y-89467348D01*
X172874285Y-89467348D01*
X172779047Y-89506053D01*
X172731428Y-89583462D01*
X172731428Y-90009215D01*
X172350476Y-89467348D02*
X172112380Y-90009215D01*
X171874285Y-89467348D02*
X172112380Y-90009215D01*
X172207619Y-90202739D01*
X172255238Y-90241443D01*
X172350476Y-90280148D01*
X171636190Y-89467348D02*
X171255238Y-89467348D01*
X171493333Y-89196415D02*
X171493333Y-89893100D01*
X171445714Y-89970510D01*
X171350476Y-90009215D01*
X171255238Y-90009215D01*
X170921904Y-90009215D02*
X170921904Y-89196415D01*
X170493333Y-90009215D02*
X170493333Y-89583462D01*
X170540952Y-89506053D01*
X170636190Y-89467348D01*
X170779047Y-89467348D01*
X170874285Y-89506053D01*
X170921904Y-89544758D01*
X169398095Y-89467348D02*
X169017142Y-89467348D01*
X169255238Y-89196415D02*
X169255238Y-89893100D01*
X169207619Y-89970510D01*
X169112380Y-90009215D01*
X169017142Y-90009215D01*
X168683809Y-90009215D02*
X168683809Y-89196415D01*
X168255238Y-90009215D02*
X168255238Y-89583462D01*
X168302857Y-89506053D01*
X168398095Y-89467348D01*
X168540952Y-89467348D01*
X168636190Y-89506053D01*
X168683809Y-89544758D01*
X167350476Y-90009215D02*
X167350476Y-89583462D01*
X167398095Y-89506053D01*
X167493333Y-89467348D01*
X167683809Y-89467348D01*
X167779047Y-89506053D01*
X167350476Y-89970510D02*
X167445714Y-90009215D01*
X167683809Y-90009215D01*
X167779047Y-89970510D01*
X167826666Y-89893100D01*
X167826666Y-89815691D01*
X167779047Y-89738281D01*
X167683809Y-89699577D01*
X167445714Y-89699577D01*
X167350476Y-89660872D01*
X167017142Y-89467348D02*
X166636190Y-89467348D01*
X166874285Y-89196415D02*
X166874285Y-89893100D01*
X166826666Y-89970510D01*
X166731428Y-90009215D01*
X166636190Y-90009215D01*
X165636190Y-89467348D02*
X165445714Y-90009215D01*
X165255238Y-89622167D01*
X165064761Y-90009215D01*
X164874285Y-89467348D01*
X164112380Y-89970510D02*
X164207619Y-90009215D01*
X164398095Y-90009215D01*
X164493333Y-89970510D01*
X164540952Y-89893100D01*
X164540952Y-89583462D01*
X164493333Y-89506053D01*
X164398095Y-89467348D01*
X164207619Y-89467348D01*
X164112380Y-89506053D01*
X164064761Y-89583462D01*
X164064761Y-89660872D01*
X164540952Y-89738281D01*
X162445714Y-90009215D02*
X162445714Y-89583462D01*
X162493333Y-89506053D01*
X162588571Y-89467348D01*
X162779047Y-89467348D01*
X162874285Y-89506053D01*
X162445714Y-89970510D02*
X162540952Y-90009215D01*
X162779047Y-90009215D01*
X162874285Y-89970510D01*
X162921904Y-89893100D01*
X162921904Y-89815691D01*
X162874285Y-89738281D01*
X162779047Y-89699577D01*
X162540952Y-89699577D01*
X162445714Y-89660872D01*
X161826666Y-90009215D02*
X161921904Y-89970510D01*
X161969523Y-89893100D01*
X161969523Y-89196415D01*
X161302857Y-90009215D02*
X161398095Y-89970510D01*
X161445714Y-89893100D01*
X161445714Y-89196415D01*
X159731428Y-89970510D02*
X159826666Y-90009215D01*
X160017142Y-90009215D01*
X160112380Y-89970510D01*
X160160000Y-89931805D01*
X160207619Y-89854396D01*
X160207619Y-89622167D01*
X160160000Y-89544758D01*
X160112380Y-89506053D01*
X160017142Y-89467348D01*
X159826666Y-89467348D01*
X159731428Y-89506053D01*
X158874285Y-90009215D02*
X158874285Y-89583462D01*
X158921904Y-89506053D01*
X159017142Y-89467348D01*
X159207619Y-89467348D01*
X159302857Y-89506053D01*
X158874285Y-89970510D02*
X158969523Y-90009215D01*
X159207619Y-90009215D01*
X159302857Y-89970510D01*
X159350476Y-89893100D01*
X159350476Y-89815691D01*
X159302857Y-89738281D01*
X159207619Y-89699577D01*
X158969523Y-89699577D01*
X158874285Y-89660872D01*
X158255238Y-90009215D02*
X158350476Y-89970510D01*
X158398095Y-89893100D01*
X158398095Y-89196415D01*
X157731428Y-90009215D02*
X157826666Y-89970510D01*
X157874285Y-89893100D01*
X157874285Y-89196415D01*
X156636190Y-89970510D02*
X156540952Y-90009215D01*
X156350476Y-90009215D01*
X156255238Y-89970510D01*
X156207619Y-89893100D01*
X156207619Y-89854396D01*
X156255238Y-89776986D01*
X156350476Y-89738281D01*
X156493333Y-89738281D01*
X156588571Y-89699577D01*
X156636190Y-89622167D01*
X156636190Y-89583462D01*
X156588571Y-89506053D01*
X156493333Y-89467348D01*
X156350476Y-89467348D01*
X156255238Y-89506053D01*
X155779047Y-89467348D02*
X155779047Y-90280148D01*
X155779047Y-89506053D02*
X155683809Y-89467348D01*
X155493333Y-89467348D01*
X155398095Y-89506053D01*
X155350476Y-89544758D01*
X155302857Y-89622167D01*
X155302857Y-89854396D01*
X155350476Y-89931805D01*
X155398095Y-89970510D01*
X155493333Y-90009215D01*
X155683809Y-90009215D01*
X155779047Y-89970510D01*
X154445714Y-90009215D02*
X154445714Y-89583462D01*
X154493333Y-89506053D01*
X154588571Y-89467348D01*
X154779047Y-89467348D01*
X154874285Y-89506053D01*
X154445714Y-89970510D02*
X154540952Y-90009215D01*
X154779047Y-90009215D01*
X154874285Y-89970510D01*
X154921904Y-89893100D01*
X154921904Y-89815691D01*
X154874285Y-89738281D01*
X154779047Y-89699577D01*
X154540952Y-89699577D01*
X154445714Y-89660872D01*
X153540952Y-89970510D02*
X153636190Y-90009215D01*
X153826666Y-90009215D01*
X153921904Y-89970510D01*
X153969523Y-89931805D01*
X154017142Y-89854396D01*
X154017142Y-89622167D01*
X153969523Y-89544758D01*
X153921904Y-89506053D01*
X153826666Y-89467348D01*
X153636190Y-89467348D01*
X153540952Y-89506053D01*
X152731428Y-89970510D02*
X152826666Y-90009215D01*
X153017142Y-90009215D01*
X153112380Y-89970510D01*
X153160000Y-89893100D01*
X153160000Y-89583462D01*
X153112380Y-89506053D01*
X153017142Y-89467348D01*
X152826666Y-89467348D01*
X152731428Y-89506053D01*
X152683809Y-89583462D01*
X152683809Y-89660872D01*
X153160000Y-89738281D01*
X151064761Y-90009215D02*
X151064761Y-89583462D01*
X151112380Y-89506053D01*
X151207619Y-89467348D01*
X151398095Y-89467348D01*
X151493333Y-89506053D01*
X151064761Y-89970510D02*
X151160000Y-90009215D01*
X151398095Y-90009215D01*
X151493333Y-89970510D01*
X151540952Y-89893100D01*
X151540952Y-89815691D01*
X151493333Y-89738281D01*
X151398095Y-89699577D01*
X151160000Y-89699577D01*
X151064761Y-89660872D01*
X150588571Y-89467348D02*
X150588571Y-90009215D01*
X150588571Y-89544758D02*
X150540952Y-89506053D01*
X150445714Y-89467348D01*
X150302857Y-89467348D01*
X150207619Y-89506053D01*
X150160000Y-89583462D01*
X150160000Y-90009215D01*
X149255238Y-90009215D02*
X149255238Y-89196415D01*
X149255238Y-89970510D02*
X149350476Y-90009215D01*
X149540952Y-90009215D01*
X149636190Y-89970510D01*
X149683809Y-89931805D01*
X149731428Y-89854396D01*
X149731428Y-89622167D01*
X149683809Y-89544758D01*
X149636190Y-89506053D01*
X149540952Y-89467348D01*
X149350476Y-89467348D01*
X149255238Y-89506053D01*
X148160000Y-89467348D02*
X147779047Y-89467348D01*
X148017142Y-89196415D02*
X148017142Y-89893100D01*
X147969523Y-89970510D01*
X147874285Y-90009215D01*
X147779047Y-90009215D01*
X147445714Y-90009215D02*
X147445714Y-89467348D01*
X147445714Y-89196415D02*
X147493333Y-89235120D01*
X147445714Y-89273824D01*
X147398095Y-89235120D01*
X147445714Y-89196415D01*
X147445714Y-89273824D01*
X146969523Y-90009215D02*
X146969523Y-89467348D01*
X146969523Y-89544758D02*
X146921904Y-89506053D01*
X146826666Y-89467348D01*
X146683809Y-89467348D01*
X146588571Y-89506053D01*
X146540952Y-89583462D01*
X146540952Y-90009215D01*
X146540952Y-89583462D02*
X146493333Y-89506053D01*
X146398095Y-89467348D01*
X146255238Y-89467348D01*
X146160000Y-89506053D01*
X146112380Y-89583462D01*
X146112380Y-90009215D01*
X145255238Y-89970510D02*
X145350476Y-90009215D01*
X145540952Y-90009215D01*
X145636190Y-89970510D01*
X145683809Y-89893100D01*
X145683809Y-89583462D01*
X145636190Y-89506053D01*
X145540952Y-89467348D01*
X145350476Y-89467348D01*
X145255238Y-89506053D01*
X145207619Y-89583462D01*
X145207619Y-89660872D01*
X145683809Y-89738281D01*
X104256000Y-113854000D02*
X104002000Y-113346000D01*
X104764000Y-113600000D02*
X104256000Y-113854000D01*
X104256000Y-113854000D02*
X104764000Y-113600000D01*
X104510000Y-113346000D02*
X104256000Y-113854000D01*
X104510000Y-111060000D02*
X104510000Y-113346000D01*
X117101904Y-110480285D02*
X117149523Y-110518990D01*
X117292380Y-110557695D01*
X117387619Y-110557695D01*
X117530476Y-110518990D01*
X117625714Y-110441580D01*
X117673333Y-110364171D01*
X117720952Y-110209352D01*
X117720952Y-110093238D01*
X117673333Y-109938419D01*
X117625714Y-109861009D01*
X117530476Y-109783600D01*
X117387619Y-109744895D01*
X117292380Y-109744895D01*
X117149523Y-109783600D01*
X117101904Y-109822304D01*
X116244761Y-110015828D02*
X116244761Y-110557695D01*
X116673333Y-110015828D02*
X116673333Y-110441580D01*
X116625714Y-110518990D01*
X116530476Y-110557695D01*
X116387619Y-110557695D01*
X116292380Y-110518990D01*
X116244761Y-110480285D01*
X115911428Y-110015828D02*
X115530476Y-110015828D01*
X115768571Y-109744895D02*
X115768571Y-110441580D01*
X115720952Y-110518990D01*
X115625714Y-110557695D01*
X115530476Y-110557695D01*
X114578095Y-110015828D02*
X114197142Y-110015828D01*
X114435238Y-110557695D02*
X114435238Y-109861009D01*
X114387619Y-109783600D01*
X114292380Y-109744895D01*
X114197142Y-109744895D01*
X113720952Y-110557695D02*
X113816190Y-110518990D01*
X113863809Y-110480285D01*
X113911428Y-110402876D01*
X113911428Y-110170647D01*
X113863809Y-110093238D01*
X113816190Y-110054533D01*
X113720952Y-110015828D01*
X113578095Y-110015828D01*
X113482857Y-110054533D01*
X113435238Y-110093238D01*
X113387619Y-110170647D01*
X113387619Y-110402876D01*
X113435238Y-110480285D01*
X113482857Y-110518990D01*
X113578095Y-110557695D01*
X113720952Y-110557695D01*
X112959047Y-110557695D02*
X112959047Y-110015828D01*
X112959047Y-110170647D02*
X112911428Y-110093238D01*
X112863809Y-110054533D01*
X112768571Y-110015828D01*
X112673333Y-110015828D01*
X111435238Y-110557695D02*
X111530476Y-110518990D01*
X111578095Y-110441580D01*
X111578095Y-109744895D01*
X110911428Y-110557695D02*
X111006666Y-110518990D01*
X111054285Y-110480285D01*
X111101904Y-110402876D01*
X111101904Y-110170647D01*
X111054285Y-110093238D01*
X111006666Y-110054533D01*
X110911428Y-110015828D01*
X110768571Y-110015828D01*
X110673333Y-110054533D01*
X110625714Y-110093238D01*
X110578095Y-110170647D01*
X110578095Y-110402876D01*
X110625714Y-110480285D01*
X110673333Y-110518990D01*
X110768571Y-110557695D01*
X110911428Y-110557695D01*
X110244761Y-110015828D02*
X110054285Y-110557695D01*
X109863809Y-110170647D01*
X109673333Y-110557695D01*
X109482857Y-110015828D01*
X108720952Y-110518990D02*
X108816190Y-110557695D01*
X109006666Y-110557695D01*
X109101904Y-110518990D01*
X109149523Y-110441580D01*
X109149523Y-110131942D01*
X109101904Y-110054533D01*
X109006666Y-110015828D01*
X108816190Y-110015828D01*
X108720952Y-110054533D01*
X108673333Y-110131942D01*
X108673333Y-110209352D01*
X109149523Y-110286761D01*
X108244761Y-110557695D02*
X108244761Y-110015828D01*
X108244761Y-110170647D02*
X108197142Y-110093238D01*
X108149523Y-110054533D01*
X108054285Y-110015828D01*
X107959047Y-110015828D01*
X106863809Y-110015828D02*
X106863809Y-110828628D01*
X106863809Y-110054533D02*
X106768571Y-110015828D01*
X106578095Y-110015828D01*
X106482857Y-110054533D01*
X106435238Y-110093238D01*
X106387619Y-110170647D01*
X106387619Y-110402876D01*
X106435238Y-110480285D01*
X106482857Y-110518990D01*
X106578095Y-110557695D01*
X106768571Y-110557695D01*
X106863809Y-110518990D01*
X105816190Y-110557695D02*
X105911428Y-110518990D01*
X105959047Y-110480285D01*
X106006666Y-110402876D01*
X106006666Y-110170647D01*
X105959047Y-110093238D01*
X105911428Y-110054533D01*
X105816190Y-110015828D01*
X105673333Y-110015828D01*
X105578095Y-110054533D01*
X105530476Y-110093238D01*
X105482857Y-110170647D01*
X105482857Y-110402876D01*
X105530476Y-110480285D01*
X105578095Y-110518990D01*
X105673333Y-110557695D01*
X105816190Y-110557695D01*
X105149523Y-110015828D02*
X104959047Y-110557695D01*
X104768571Y-110170647D01*
X104578095Y-110557695D01*
X104387619Y-110015828D01*
X103625714Y-110518990D02*
X103720952Y-110557695D01*
X103911428Y-110557695D01*
X104006666Y-110518990D01*
X104054285Y-110441580D01*
X104054285Y-110131942D01*
X104006666Y-110054533D01*
X103911428Y-110015828D01*
X103720952Y-110015828D01*
X103625714Y-110054533D01*
X103578095Y-110131942D01*
X103578095Y-110209352D01*
X104054285Y-110286761D01*
X103149523Y-110557695D02*
X103149523Y-110015828D01*
X103149523Y-110170647D02*
X103101904Y-110093238D01*
X103054285Y-110054533D01*
X102959047Y-110015828D01*
X102863809Y-110015828D01*
X136550952Y-135368057D02*
X135789047Y-135368057D01*
X141960952Y-135368057D02*
X141199047Y-135368057D01*
X141580000Y-135677695D02*
X141580000Y-135058419D01*
X193530000Y-62680000D02*
X142530000Y-62680000D01*
X193530000Y-127680000D02*
X193530000Y-62680000D01*
X142530000Y-127680000D02*
X142530000Y-62680000D01*
X193530000Y-127680000D02*
X142530000Y-127680000D01*
D12*
G04 #@! TO.C,G\002A\002A\002A*
G36*
X141099677Y-66782107D02*
G01*
X140980557Y-66892541D01*
X141141951Y-67091534D01*
X141170760Y-67127203D01*
X141223179Y-67192957D01*
X141265232Y-67246849D01*
X141293196Y-67284074D01*
X141303345Y-67299825D01*
X141303335Y-67299872D01*
X141286107Y-67301638D01*
X141238273Y-67303112D01*
X141163129Y-67304275D01*
X141063966Y-67305105D01*
X140944078Y-67305584D01*
X140806760Y-67305692D01*
X140655303Y-67305408D01*
X140493002Y-67304713D01*
X139682660Y-67300301D01*
X139671255Y-67240138D01*
X139816723Y-67240138D01*
X140165017Y-67239264D01*
X140513311Y-67238389D01*
X141133445Y-66656841D01*
X141133445Y-64984900D01*
X140800513Y-64571028D01*
X140761146Y-64522108D01*
X140681364Y-64423082D01*
X140609412Y-64333927D01*
X140547980Y-64257968D01*
X140499758Y-64198529D01*
X140467437Y-64158933D01*
X140453706Y-64142504D01*
X140447154Y-64142553D01*
X140416539Y-64155234D01*
X140366966Y-64181092D01*
X140304457Y-64216451D01*
X140235037Y-64257635D01*
X140164730Y-64300970D01*
X140099561Y-64342779D01*
X140045553Y-64379387D01*
X140008730Y-64407120D01*
X139995117Y-64422300D01*
X139997104Y-64427607D01*
X140013137Y-64458034D01*
X140043163Y-64511041D01*
X140084670Y-64582290D01*
X140135141Y-64667441D01*
X140192063Y-64762155D01*
X140389009Y-65087743D01*
X140315399Y-66013127D01*
X140452160Y-66235684D01*
X140588921Y-66458240D01*
X140428977Y-66553687D01*
X140269034Y-66649134D01*
X140258758Y-66745353D01*
X140254980Y-66780427D01*
X140246797Y-66854969D01*
X140239638Y-66918622D01*
X140230793Y-66995672D01*
X139816723Y-67240138D01*
X139671255Y-67240138D01*
X139457203Y-66111003D01*
X139427492Y-65954179D01*
X139391762Y-65765336D01*
X139358333Y-65588369D01*
X139327708Y-65425967D01*
X139300394Y-65280818D01*
X139276896Y-65155610D01*
X139257718Y-65053032D01*
X139243365Y-64975772D01*
X139234344Y-64926519D01*
X139231158Y-64907960D01*
X139229728Y-64903624D01*
X139213579Y-64904715D01*
X139210923Y-64906259D01*
X139199854Y-64907378D01*
X139199313Y-64891172D01*
X139210260Y-64854273D01*
X139233654Y-64793314D01*
X139270452Y-64704927D01*
X139270731Y-64704272D01*
X139294420Y-64647972D01*
X139329014Y-64565098D01*
X139372533Y-64460425D01*
X139422994Y-64338731D01*
X139478418Y-64204794D01*
X139536822Y-64063390D01*
X139596227Y-63919297D01*
X139609830Y-63886278D01*
X139664913Y-63752804D01*
X139715662Y-63630180D01*
X139760648Y-63521838D01*
X139777062Y-63482474D01*
X141023010Y-63482474D01*
X141081561Y-63543728D01*
X141102548Y-63565616D01*
X141129921Y-63593876D01*
X141141025Y-63604898D01*
X141142044Y-63604202D01*
X141159700Y-63590452D01*
X141192118Y-63564665D01*
X141192574Y-63564301D01*
X141218474Y-63541735D01*
X141225922Y-63526327D01*
X141211108Y-63515171D01*
X141170226Y-63505364D01*
X141099465Y-63494000D01*
X141023010Y-63482474D01*
X139777062Y-63482474D01*
X139798440Y-63431207D01*
X139827610Y-63361717D01*
X139846728Y-63316799D01*
X139854365Y-63299882D01*
X139854636Y-63299694D01*
X139875277Y-63296706D01*
X139925071Y-63292430D01*
X139999611Y-63287160D01*
X140094487Y-63281189D01*
X140205292Y-63274811D01*
X140327616Y-63268322D01*
X140794639Y-63244539D01*
X140861309Y-63320279D01*
X140927979Y-63396021D01*
X141166632Y-63434954D01*
X141200219Y-63440536D01*
X141280982Y-63454882D01*
X141346042Y-63467764D01*
X141389440Y-63477953D01*
X141405212Y-63484217D01*
X141404846Y-63485733D01*
X141386487Y-63505133D01*
X141359728Y-63526327D01*
X141342494Y-63539978D01*
X141275753Y-63588275D01*
X141189148Y-63648025D01*
X141085564Y-63717234D01*
X140967884Y-63793904D01*
X140838994Y-63876041D01*
X140795025Y-63903798D01*
X140705906Y-63960267D01*
X140628595Y-64009532D01*
X140567334Y-64048874D01*
X140526363Y-64075577D01*
X140509924Y-64086921D01*
X140509691Y-64087223D01*
X140516253Y-64104840D01*
X140540136Y-64140226D01*
X140576434Y-64186071D01*
X140600844Y-64215535D01*
X140646831Y-64271798D01*
X140707083Y-64346007D01*
X140777781Y-64433447D01*
X140855106Y-64529400D01*
X140935237Y-64629149D01*
X141218395Y-64982212D01*
X141218396Y-64984900D01*
X141218797Y-66671672D01*
X141099677Y-66782107D01*
X141099677Y-66782107D01*
G37*
G36*
X137412429Y-67193455D02*
G01*
X137391147Y-67208658D01*
X137344538Y-67222714D01*
X137293962Y-67206989D01*
X137274991Y-67188166D01*
X137261724Y-67149309D01*
X137253035Y-67083812D01*
X137237788Y-66913455D01*
X137224742Y-66772292D01*
X137213595Y-66658896D01*
X137203901Y-66570201D01*
X137195212Y-66503147D01*
X137187083Y-66454668D01*
X137179068Y-66421703D01*
X137170720Y-66401188D01*
X137161592Y-66390060D01*
X137151238Y-66385255D01*
X137146679Y-66384227D01*
X137107745Y-66377074D01*
X137047541Y-66367406D01*
X136972926Y-66356177D01*
X136890757Y-66344341D01*
X136807891Y-66332854D01*
X136731187Y-66322669D01*
X136667502Y-66314740D01*
X136623694Y-66310022D01*
X136606620Y-66309469D01*
X136605501Y-66313165D01*
X136598728Y-66343474D01*
X136586929Y-66400196D01*
X136571095Y-66478464D01*
X136552213Y-66573410D01*
X136531274Y-66680167D01*
X136523168Y-66721483D01*
X136501766Y-66827921D01*
X136481950Y-66922868D01*
X136464905Y-67000849D01*
X136451816Y-67056390D01*
X136443867Y-67084020D01*
X136438775Y-67094094D01*
X136402476Y-67129642D01*
X136354084Y-67146309D01*
X136307572Y-67138509D01*
X136304818Y-67137034D01*
X136288935Y-67127855D01*
X136276107Y-67117124D01*
X136266652Y-67102199D01*
X136260888Y-67080433D01*
X136259132Y-67049185D01*
X136261702Y-67005810D01*
X136268917Y-66947664D01*
X136281093Y-66872103D01*
X136298550Y-66776483D01*
X136321603Y-66658160D01*
X136350572Y-66514490D01*
X136385774Y-66342830D01*
X136427527Y-66140536D01*
X136436342Y-66097933D01*
X136655265Y-66097933D01*
X136657403Y-66098660D01*
X136684043Y-66103751D01*
X136736168Y-66112361D01*
X136807616Y-66123496D01*
X136892221Y-66136161D01*
X136917258Y-66139819D01*
X137001720Y-66151850D01*
X137073309Y-66161581D01*
X137125116Y-66168093D01*
X137150230Y-66170468D01*
X137153721Y-66170143D01*
X137166323Y-66158009D01*
X137172893Y-66123982D01*
X137174783Y-66062100D01*
X137174106Y-66036525D01*
X137171591Y-65978597D01*
X137167438Y-65894963D01*
X137161882Y-65789598D01*
X137155155Y-65666477D01*
X137147492Y-65529577D01*
X137139127Y-65382874D01*
X137130293Y-65230341D01*
X137121225Y-65075957D01*
X137112155Y-64923695D01*
X137103319Y-64777532D01*
X137094949Y-64641444D01*
X137087279Y-64519405D01*
X137080544Y-64415393D01*
X137074978Y-64333382D01*
X137070813Y-64277348D01*
X137068284Y-64251266D01*
X137065760Y-64256705D01*
X137056515Y-64290882D01*
X137041166Y-64353281D01*
X137020376Y-64441041D01*
X136994806Y-64551305D01*
X136965117Y-64681215D01*
X136931970Y-64827911D01*
X136896028Y-64988536D01*
X136857952Y-65160230D01*
X136830569Y-65284416D01*
X136794156Y-65450129D01*
X136760599Y-65603502D01*
X136730542Y-65741558D01*
X136704628Y-65861323D01*
X136683500Y-65959819D01*
X136667801Y-66034070D01*
X136658175Y-66081100D01*
X136655265Y-66097933D01*
X136436342Y-66097933D01*
X136495690Y-65811121D01*
X136557914Y-65511655D01*
X136614134Y-65242545D01*
X136664679Y-65002305D01*
X136709876Y-64789448D01*
X136750053Y-64602488D01*
X136785537Y-64439938D01*
X136816657Y-64300311D01*
X136843740Y-64182120D01*
X136867114Y-64083880D01*
X136887106Y-64004103D01*
X136904044Y-63941303D01*
X136918256Y-63893993D01*
X136930069Y-63860687D01*
X136933511Y-63852564D01*
X136969267Y-63793440D01*
X137017159Y-63741282D01*
X137068518Y-63704106D01*
X137114676Y-63689933D01*
X137133263Y-63692900D01*
X137176641Y-63720862D01*
X137214724Y-63772533D01*
X137241543Y-63840813D01*
X137242451Y-63845868D01*
X137246342Y-63882458D01*
X137251961Y-63949702D01*
X137259148Y-64045165D01*
X137267741Y-64166415D01*
X137277578Y-64311015D01*
X137288499Y-64476533D01*
X137300342Y-64660534D01*
X137312945Y-64860584D01*
X137326148Y-65074249D01*
X137339788Y-65299094D01*
X137353705Y-65532685D01*
X137384962Y-66062100D01*
X137449961Y-67163063D01*
X137412429Y-67193455D01*
X137412429Y-67193455D01*
G37*
G36*
X138628029Y-65927389D02*
G01*
X138628911Y-66034602D01*
X138630651Y-66250116D01*
X138632034Y-66435144D01*
X138633012Y-66592095D01*
X138633535Y-66723380D01*
X138633554Y-66831410D01*
X138633020Y-66918595D01*
X138631884Y-66987345D01*
X138630095Y-67040071D01*
X138627605Y-67079184D01*
X138624365Y-67107094D01*
X138620325Y-67126211D01*
X138615436Y-67138947D01*
X138609648Y-67147711D01*
X138602912Y-67154914D01*
X138595449Y-67161899D01*
X138543235Y-67189679D01*
X138490349Y-67188760D01*
X138443792Y-67162731D01*
X138410566Y-67115180D01*
X138397673Y-67049699D01*
X138397628Y-67043425D01*
X138396392Y-66978268D01*
X138393785Y-66890022D01*
X138390061Y-66784391D01*
X138385475Y-66667080D01*
X138380282Y-66543794D01*
X138374738Y-66420238D01*
X138369097Y-66302117D01*
X138363614Y-66195135D01*
X138358544Y-66104999D01*
X138354142Y-66037412D01*
X138350664Y-65998080D01*
X138338596Y-65902146D01*
X138202676Y-65812507D01*
X138091888Y-65732498D01*
X137940999Y-65596833D01*
X137813829Y-65447657D01*
X137713794Y-65289173D01*
X137644310Y-65125585D01*
X137604432Y-64964660D01*
X137582696Y-64787593D01*
X137581235Y-64683846D01*
X137872557Y-64683846D01*
X137873457Y-64749811D01*
X137887501Y-64930150D01*
X137919788Y-65086628D01*
X137971892Y-65223778D01*
X138045392Y-65346133D01*
X138141864Y-65458228D01*
X138164433Y-65480095D01*
X138221331Y-65529978D01*
X138273135Y-65568845D01*
X138310871Y-65589717D01*
X138368095Y-65609431D01*
X138355452Y-64817069D01*
X138352967Y-64672884D01*
X138349884Y-64518614D01*
X138346608Y-64376826D01*
X138343242Y-64251101D01*
X138339892Y-64145024D01*
X138336663Y-64062175D01*
X138333659Y-64006139D01*
X138330985Y-63980497D01*
X138323041Y-63958885D01*
X138299606Y-63935785D01*
X138258920Y-63931623D01*
X138194497Y-63944697D01*
X138162888Y-63955084D01*
X138076288Y-64006813D01*
X138004297Y-64087986D01*
X137947421Y-64197440D01*
X137906168Y-64334010D01*
X137881044Y-64496533D01*
X137872557Y-64683846D01*
X137581235Y-64683846D01*
X137580148Y-64606773D01*
X137596462Y-64430362D01*
X137631311Y-64266521D01*
X137684369Y-64123413D01*
X137705423Y-64083531D01*
X137766531Y-63991689D01*
X137840966Y-63902179D01*
X137920148Y-63824766D01*
X137995497Y-63769219D01*
X137999981Y-63766624D01*
X138091732Y-63724622D01*
X138194683Y-63694523D01*
X138300621Y-63677192D01*
X138401336Y-63673491D01*
X138488616Y-63684285D01*
X138554250Y-63710438D01*
X138598004Y-63739107D01*
X138608099Y-64236961D01*
X138608596Y-64262309D01*
X138610559Y-64375626D01*
X138612693Y-64517257D01*
X138614947Y-64682748D01*
X138617267Y-64867648D01*
X138619601Y-65067501D01*
X138621897Y-65277855D01*
X138624102Y-65494257D01*
X138625191Y-65609431D01*
X138626163Y-65712252D01*
X138628029Y-65927389D01*
X138628029Y-65927389D01*
G37*
G36*
X135920165Y-67135120D02*
G01*
X135881085Y-67162493D01*
X135839353Y-67182461D01*
X135777542Y-67187769D01*
X135723168Y-67167233D01*
X135721068Y-67165680D01*
X135711547Y-67157357D01*
X135703699Y-67145799D01*
X135697196Y-67127592D01*
X135691711Y-67099324D01*
X135686918Y-67057580D01*
X135682489Y-66998947D01*
X135678097Y-66920011D01*
X135673416Y-66817360D01*
X135668118Y-66687580D01*
X135661878Y-66527257D01*
X135659695Y-66470037D01*
X135654080Y-66320176D01*
X135649168Y-66199369D01*
X135644101Y-66103962D01*
X135638020Y-66030302D01*
X135630068Y-65974734D01*
X135619387Y-65933605D01*
X135605118Y-65903261D01*
X135586404Y-65880048D01*
X135562386Y-65860312D01*
X135532207Y-65840399D01*
X135495008Y-65816656D01*
X135349146Y-65711627D01*
X135195523Y-65571840D01*
X135072753Y-65420475D01*
X134979533Y-65255125D01*
X134914561Y-65073382D01*
X134876534Y-64872840D01*
X134865977Y-64683846D01*
X135162599Y-64683846D01*
X135162656Y-64742660D01*
X135165900Y-64864242D01*
X135174585Y-64963627D01*
X135190014Y-65049007D01*
X135213488Y-65128578D01*
X135246311Y-65210535D01*
X135279809Y-65275012D01*
X135346317Y-65372390D01*
X135424408Y-65461699D01*
X135504075Y-65530516D01*
X135534041Y-65550869D01*
X135581738Y-65580296D01*
X135615429Y-65597410D01*
X135650559Y-65610506D01*
X135638075Y-64790387D01*
X135637355Y-64744178D01*
X135633827Y-64546044D01*
X135630001Y-64373860D01*
X135625925Y-64228964D01*
X135621646Y-64112694D01*
X135617213Y-64026390D01*
X135612673Y-63971389D01*
X135608073Y-63949030D01*
X135582293Y-63933583D01*
X135532337Y-63931128D01*
X135470783Y-63945557D01*
X135406135Y-63974680D01*
X135346896Y-64016308D01*
X135301169Y-64063337D01*
X135249437Y-64142477D01*
X135210657Y-64240686D01*
X135183885Y-64361377D01*
X135168180Y-64507959D01*
X135162599Y-64683846D01*
X134865977Y-64683846D01*
X134864147Y-64651089D01*
X134865670Y-64580752D01*
X134887292Y-64387267D01*
X134933837Y-64212769D01*
X135004450Y-64058858D01*
X135098278Y-63927131D01*
X135214470Y-63819188D01*
X135352170Y-63736626D01*
X135444526Y-63702625D01*
X135548469Y-63680541D01*
X135651357Y-63672537D01*
X135743594Y-63679336D01*
X135815586Y-63701664D01*
X135875050Y-63732408D01*
X135885548Y-63919297D01*
X135886930Y-63953752D01*
X135888793Y-64024487D01*
X135890812Y-64124070D01*
X135892950Y-64249679D01*
X135895169Y-64398493D01*
X135897433Y-64567690D01*
X135899704Y-64754447D01*
X135901944Y-64955944D01*
X135904115Y-65169359D01*
X135906182Y-65391869D01*
X135908020Y-65610506D01*
X135908105Y-65620653D01*
X135920165Y-67135120D01*
X135920165Y-67135120D01*
G37*
G36*
X128600194Y-63908595D02*
G01*
X128602173Y-63910611D01*
X128608149Y-63917775D01*
X128613511Y-63927480D01*
X128618377Y-63941821D01*
X128622866Y-63962892D01*
X128627098Y-63992788D01*
X128631191Y-64033604D01*
X128635263Y-64087434D01*
X128639434Y-64156372D01*
X128643821Y-64242513D01*
X128648545Y-64347953D01*
X128653723Y-64474784D01*
X128659475Y-64625103D01*
X128665918Y-64801004D01*
X128673173Y-65004580D01*
X128681357Y-65237927D01*
X128690589Y-65503140D01*
X128696203Y-65664478D01*
X128705004Y-65917788D01*
X128712622Y-66140346D01*
X128719017Y-66334187D01*
X128724150Y-66501344D01*
X128727978Y-66643851D01*
X128730464Y-66763742D01*
X128731566Y-66863050D01*
X128731245Y-66943810D01*
X128729460Y-67008055D01*
X128726171Y-67057819D01*
X128721339Y-67095136D01*
X128714922Y-67122040D01*
X128706881Y-67140564D01*
X128697175Y-67152743D01*
X128685766Y-67160610D01*
X128672611Y-67166198D01*
X128657673Y-67171542D01*
X128624207Y-67178338D01*
X128569684Y-67163196D01*
X128518921Y-67114679D01*
X128512587Y-67105545D01*
X128505772Y-67092291D01*
X128500052Y-67074280D01*
X128495279Y-67048589D01*
X128491305Y-67012297D01*
X128487982Y-66962482D01*
X128485162Y-66896221D01*
X128482698Y-66810593D01*
X128480441Y-66702675D01*
X128478244Y-66569545D01*
X128475958Y-66408282D01*
X128473436Y-66215963D01*
X128471520Y-66064835D01*
X128469249Y-65879800D01*
X128467078Y-65696768D01*
X128465067Y-65521067D01*
X128463275Y-65358027D01*
X128461761Y-65212976D01*
X128460586Y-65091244D01*
X128459809Y-64998160D01*
X128457160Y-64632876D01*
X128264613Y-65193545D01*
X128233098Y-65285290D01*
X128138866Y-65559284D01*
X128054708Y-65803363D01*
X127979992Y-66019257D01*
X127914088Y-66208696D01*
X127856363Y-66373410D01*
X127806186Y-66515128D01*
X127762925Y-66635580D01*
X127725949Y-66736496D01*
X127694626Y-66819606D01*
X127668325Y-66886640D01*
X127646414Y-66939327D01*
X127628262Y-66979397D01*
X127613237Y-67008580D01*
X127600708Y-67028605D01*
X127590042Y-67041204D01*
X127571816Y-67057751D01*
X127531751Y-67082988D01*
X127495530Y-67081445D01*
X127452153Y-67054156D01*
X127449311Y-67051909D01*
X127434634Y-67038775D01*
X127423801Y-67022787D01*
X127415973Y-66998763D01*
X127410315Y-66961517D01*
X127405990Y-66905865D01*
X127402160Y-66826622D01*
X127397989Y-66718604D01*
X127396253Y-66672015D01*
X127385530Y-66386514D01*
X127375751Y-66131071D01*
X127366755Y-65902304D01*
X127358380Y-65696830D01*
X127350465Y-65511263D01*
X127342848Y-65342221D01*
X127335369Y-65186321D01*
X127327864Y-65040177D01*
X127320173Y-64900407D01*
X127312134Y-64763628D01*
X127303586Y-64626455D01*
X127294368Y-64485504D01*
X127284316Y-64337393D01*
X127277973Y-64243341D01*
X127273137Y-64161655D01*
X127271168Y-64104425D01*
X127272245Y-64066588D01*
X127276547Y-64043085D01*
X127284250Y-64028853D01*
X127295535Y-64018831D01*
X127322671Y-64004296D01*
X127385680Y-63994546D01*
X127451268Y-64007897D01*
X127506227Y-64042843D01*
X127553318Y-64089935D01*
X127555735Y-64582275D01*
X127556825Y-64710463D01*
X127559006Y-64854240D01*
X127562035Y-64993761D01*
X127565722Y-65121594D01*
X127569878Y-65230309D01*
X127574314Y-65312474D01*
X127577469Y-65358969D01*
X127585198Y-65473227D01*
X127593926Y-65602595D01*
X127602801Y-65734446D01*
X127610971Y-65856153D01*
X127617403Y-65945455D01*
X127624899Y-66035617D01*
X127632133Y-66109567D01*
X127638523Y-66161402D01*
X127643486Y-66185219D01*
X127644242Y-66186234D01*
X127655340Y-66176230D01*
X127675182Y-66137049D01*
X127702735Y-66071623D01*
X127736964Y-65982890D01*
X127776836Y-65873783D01*
X127821316Y-65747239D01*
X127869370Y-65606192D01*
X127919964Y-65453578D01*
X127972065Y-65292332D01*
X128024637Y-65125390D01*
X128076647Y-64955685D01*
X128088487Y-64916546D01*
X128156734Y-64693438D01*
X128216820Y-64501750D01*
X128269178Y-64340247D01*
X128314237Y-64207692D01*
X128352430Y-64102848D01*
X128384188Y-64024480D01*
X128409942Y-63971351D01*
X128430123Y-63942223D01*
X128442399Y-63930457D01*
X128501565Y-63889910D01*
X128554204Y-63882615D01*
X128600194Y-63908595D01*
X128600194Y-63908595D01*
G37*
G36*
X126785980Y-63621184D02*
G01*
X126812022Y-63637468D01*
X126827043Y-63665867D01*
X126832384Y-63711727D01*
X126829386Y-63780397D01*
X126819392Y-63877226D01*
X126801901Y-64037980D01*
X126778363Y-64292669D01*
X126757911Y-64566185D01*
X126740419Y-64861040D01*
X126725761Y-65179745D01*
X126713812Y-65524814D01*
X126704444Y-65898759D01*
X126697532Y-66304091D01*
X126686378Y-67125808D01*
X126633959Y-67158187D01*
X126630584Y-67160210D01*
X126582486Y-67180271D01*
X126539064Y-67185968D01*
X126522201Y-67183022D01*
X126507096Y-67173172D01*
X126496970Y-67150133D01*
X126489137Y-67107023D01*
X126480910Y-67036956D01*
X126476240Y-66964454D01*
X126474429Y-66858201D01*
X126475563Y-66720021D01*
X126479634Y-66550883D01*
X126486635Y-66351755D01*
X126489483Y-66278143D01*
X126494050Y-66151806D01*
X126497723Y-66038951D01*
X126500392Y-65943670D01*
X126501947Y-65870057D01*
X126502280Y-65822206D01*
X126501280Y-65804211D01*
X126488402Y-65804526D01*
X126452789Y-65820762D01*
X126401521Y-65851164D01*
X126340691Y-65891637D01*
X126276390Y-65938085D01*
X126214709Y-65986411D01*
X126161742Y-66032519D01*
X126107892Y-66085738D01*
X126011760Y-66198619D01*
X125927455Y-66325481D01*
X125852230Y-66471321D01*
X125783340Y-66641136D01*
X125718037Y-66839924D01*
X125694780Y-66913987D01*
X125668333Y-66991015D01*
X125644570Y-67053239D01*
X125626740Y-67091702D01*
X125624632Y-67095284D01*
X125599645Y-67129276D01*
X125569764Y-67144123D01*
X125520565Y-67147391D01*
X125479257Y-67145127D01*
X125441740Y-67132123D01*
X125423391Y-67102868D01*
X125421557Y-67052087D01*
X125433582Y-66974502D01*
X125447758Y-66908773D01*
X125504125Y-66713707D01*
X125580003Y-66518036D01*
X125670609Y-66333157D01*
X125771156Y-66170468D01*
X125818746Y-66107704D01*
X125895972Y-66017171D01*
X125985180Y-65921578D01*
X126079863Y-65827347D01*
X126173513Y-65740904D01*
X126259623Y-65668671D01*
X126331687Y-65617073D01*
X126331785Y-65616770D01*
X126325777Y-65597737D01*
X126308701Y-65552749D01*
X126282469Y-65486631D01*
X126248993Y-65404209D01*
X126210184Y-65310309D01*
X126124691Y-65100553D01*
X126043125Y-64887993D01*
X125976642Y-64698149D01*
X125924248Y-64527449D01*
X125884950Y-64372321D01*
X125857753Y-64229193D01*
X125841664Y-64094495D01*
X125835688Y-63964652D01*
X125835496Y-63943261D01*
X125835598Y-63870654D01*
X125838226Y-63822943D01*
X125844768Y-63792777D01*
X125856613Y-63772803D01*
X125875148Y-63755668D01*
X125903716Y-63737752D01*
X125958110Y-63726018D01*
X126007590Y-63739582D01*
X126041958Y-63777131D01*
X126047709Y-63793857D01*
X126059760Y-63843391D01*
X126074345Y-63915445D01*
X126090124Y-64003226D01*
X126105753Y-64099941D01*
X126136907Y-64295106D01*
X126171574Y-64488311D01*
X126207039Y-64657342D01*
X126244748Y-64807372D01*
X126286146Y-64943575D01*
X126332680Y-65071126D01*
X126385794Y-65195200D01*
X126446935Y-65320969D01*
X126466152Y-65358351D01*
X126487401Y-65397186D01*
X126498670Y-65410433D01*
X126503292Y-65401036D01*
X126504596Y-65371939D01*
X126505103Y-65350155D01*
X126507831Y-65267895D01*
X126512160Y-65164322D01*
X126517854Y-65043382D01*
X126524676Y-64909021D01*
X126532390Y-64765186D01*
X126540759Y-64615823D01*
X126549545Y-64464880D01*
X126558513Y-64316301D01*
X126567425Y-64174035D01*
X126576044Y-64042026D01*
X126584134Y-63924222D01*
X126591459Y-63824569D01*
X126597780Y-63747014D01*
X126602862Y-63695502D01*
X126606468Y-63673980D01*
X126630330Y-63642549D01*
X126684333Y-63613560D01*
X126753021Y-63612654D01*
X126785980Y-63621184D01*
X126785980Y-63621184D01*
G37*
G36*
X130257763Y-66790586D02*
G01*
X130312571Y-66820883D01*
X130325181Y-66830284D01*
X130366066Y-66883303D01*
X130379843Y-66946819D01*
X130366098Y-67012114D01*
X130324417Y-67070466D01*
X130299716Y-67087544D01*
X130243327Y-67104302D01*
X130179729Y-67104784D01*
X130118860Y-67090614D01*
X130070657Y-67063416D01*
X130045058Y-67024814D01*
X130042217Y-66992469D01*
X130056830Y-66929358D01*
X130091277Y-66867937D01*
X130139805Y-66820604D01*
X130163045Y-66805810D01*
X130212349Y-66785569D01*
X130257763Y-66790586D01*
X130257763Y-66790586D01*
G37*
G36*
X133178462Y-64084559D02*
G01*
X133170356Y-64285327D01*
X133163650Y-64500755D01*
X133158277Y-64734061D01*
X133154170Y-64988461D01*
X133151261Y-65267174D01*
X133149485Y-65573417D01*
X133148773Y-65910407D01*
X133148161Y-66984059D01*
X133110400Y-67010508D01*
X133066367Y-67030981D01*
X133001970Y-67032998D01*
X132943227Y-67005539D01*
X132904429Y-66974122D01*
X132894004Y-66262228D01*
X132892803Y-66185544D01*
X132890021Y-66037277D01*
X132886864Y-65901011D01*
X132883455Y-65780410D01*
X132879914Y-65679134D01*
X132876362Y-65600849D01*
X132872921Y-65549216D01*
X132869712Y-65527898D01*
X132860997Y-65518930D01*
X132823695Y-65510274D01*
X132769618Y-65518466D01*
X132705928Y-65540668D01*
X132639785Y-65574044D01*
X132578350Y-65615756D01*
X132528784Y-65662967D01*
X132478284Y-65733274D01*
X132413083Y-65860190D01*
X132356042Y-66017201D01*
X132307694Y-66202486D01*
X132268574Y-66414222D01*
X132239214Y-66650590D01*
X132235661Y-66682102D01*
X132221413Y-66751609D01*
X132198514Y-66793179D01*
X132163552Y-66811116D01*
X132113119Y-66809723D01*
X132107840Y-66808772D01*
X132061679Y-66793089D01*
X132031126Y-66770752D01*
X132028276Y-66766142D01*
X132016841Y-66722854D01*
X132012118Y-66653428D01*
X132013593Y-66563819D01*
X132020751Y-66459984D01*
X132033076Y-66347878D01*
X132050054Y-66233458D01*
X132071170Y-66122680D01*
X132095908Y-66021501D01*
X132097581Y-66015546D01*
X132162358Y-65825870D01*
X132242642Y-65664028D01*
X132340903Y-65526546D01*
X132459612Y-65409948D01*
X132601239Y-65310761D01*
X132596357Y-65303212D01*
X132572145Y-65276047D01*
X132532094Y-65233981D01*
X132480956Y-65182098D01*
X132469816Y-65170823D01*
X132361056Y-65041458D01*
X132281523Y-64904335D01*
X132229685Y-64755163D01*
X132204010Y-64589653D01*
X132203570Y-64511193D01*
X132434784Y-64511193D01*
X132439820Y-64590662D01*
X132468915Y-64724337D01*
X132520725Y-64851323D01*
X132591603Y-64965045D01*
X132677899Y-65058926D01*
X132775969Y-65126389D01*
X132808697Y-65142121D01*
X132853718Y-65160783D01*
X132880796Y-65168060D01*
X132881019Y-65168052D01*
X132887453Y-65160716D01*
X132893710Y-65137824D01*
X132900037Y-65096748D01*
X132906683Y-65034863D01*
X132913897Y-64949542D01*
X132921926Y-64838157D01*
X132931019Y-64698081D01*
X132941424Y-64526688D01*
X132942402Y-64510178D01*
X132950882Y-64366010D01*
X132958635Y-64232328D01*
X132965444Y-64113037D01*
X132971089Y-64012042D01*
X132975352Y-63933250D01*
X132978015Y-63880566D01*
X132978859Y-63857894D01*
X132977448Y-63850393D01*
X132955661Y-63832128D01*
X132904334Y-63820338D01*
X132894313Y-63819099D01*
X132791759Y-63823333D01*
X132699865Y-63858990D01*
X132619653Y-63924979D01*
X132552148Y-64020212D01*
X132498372Y-64143599D01*
X132459348Y-64294050D01*
X132446955Y-64370875D01*
X132438092Y-64449101D01*
X132434784Y-64511193D01*
X132203570Y-64511193D01*
X132202966Y-64403511D01*
X132206135Y-64356400D01*
X132214633Y-64270186D01*
X132225361Y-64193046D01*
X132236739Y-64137426D01*
X132240189Y-64125139D01*
X132298146Y-63970991D01*
X132376386Y-63838386D01*
X132472599Y-63730557D01*
X132584471Y-63650742D01*
X132593601Y-63645886D01*
X132689541Y-63605555D01*
X132795310Y-63576915D01*
X132902906Y-63560749D01*
X133004325Y-63557836D01*
X133091562Y-63568959D01*
X133156614Y-63594898D01*
X133204079Y-63625999D01*
X133192190Y-63823618D01*
X133190200Y-63857894D01*
X133188034Y-63895233D01*
X133178462Y-64084559D01*
X133178462Y-64084559D01*
G37*
G36*
X131668092Y-66846372D02*
G01*
X131666869Y-66900830D01*
X131664506Y-66924916D01*
X131662281Y-66929445D01*
X131648060Y-66940720D01*
X131618364Y-66947580D01*
X131567038Y-66950962D01*
X131487925Y-66951805D01*
X131359370Y-66946791D01*
X131248690Y-66929868D01*
X131147060Y-66898285D01*
X131042522Y-66849291D01*
X131012433Y-66832262D01*
X130889711Y-66738875D01*
X130783060Y-66615613D01*
X130692545Y-66462566D01*
X130618232Y-66279820D01*
X130588631Y-66186435D01*
X130563274Y-66092083D01*
X130543555Y-65997266D01*
X130528826Y-65896406D01*
X130518439Y-65783925D01*
X130511746Y-65654244D01*
X130508099Y-65501785D01*
X130506851Y-65320969D01*
X130506938Y-65292842D01*
X130744039Y-65292842D01*
X130745858Y-65451793D01*
X130751833Y-65604109D01*
X130761964Y-65741492D01*
X130776249Y-65855645D01*
X130779841Y-65877144D01*
X130825500Y-66097362D01*
X130882204Y-66286944D01*
X130949771Y-66445531D01*
X131028023Y-66572764D01*
X131116779Y-66668284D01*
X131215859Y-66731732D01*
X131230354Y-66737738D01*
X131297729Y-66756852D01*
X131362608Y-66764743D01*
X131437457Y-66765117D01*
X131427514Y-66514515D01*
X131427084Y-66503560D01*
X131424504Y-66435229D01*
X131420924Y-66337449D01*
X131416475Y-66213904D01*
X131411286Y-66068276D01*
X131405487Y-65904246D01*
X131399210Y-65725498D01*
X131392584Y-65535714D01*
X131385740Y-65338577D01*
X131378807Y-65137768D01*
X131375789Y-65051012D01*
X131368998Y-64862293D01*
X131362303Y-64684713D01*
X131355829Y-64521123D01*
X131349702Y-64374377D01*
X131344046Y-64247329D01*
X131338986Y-64142830D01*
X131334648Y-64063735D01*
X131331156Y-64012895D01*
X131328636Y-63993165D01*
X131321860Y-63987616D01*
X131289246Y-63986551D01*
X131239992Y-64000165D01*
X131182108Y-64025221D01*
X131123603Y-64058480D01*
X131072488Y-64096704D01*
X131021907Y-64147632D01*
X130942607Y-64258964D01*
X130875579Y-64398749D01*
X130820260Y-64568267D01*
X130776086Y-64768796D01*
X130763535Y-64859167D01*
X130752877Y-64988231D01*
X130746378Y-65135555D01*
X130744039Y-65292842D01*
X130506938Y-65292842D01*
X130507320Y-65170877D01*
X130510058Y-65017108D01*
X130515772Y-64886782D01*
X130525102Y-64774178D01*
X130538689Y-64673572D01*
X130557174Y-64579242D01*
X130581195Y-64485466D01*
X130611394Y-64386521D01*
X130651166Y-64278913D01*
X130732906Y-64118982D01*
X130832380Y-63985729D01*
X130948310Y-63880223D01*
X131079416Y-63803537D01*
X131224421Y-63756740D01*
X131382046Y-63740903D01*
X131419637Y-63741364D01*
X131474080Y-63745984D01*
X131511027Y-63757705D01*
X131541331Y-63779130D01*
X131584423Y-63817357D01*
X131602118Y-64445986D01*
X131604679Y-64535483D01*
X131609768Y-64706420D01*
X131615212Y-64881780D01*
X131620763Y-65053883D01*
X131626169Y-65215053D01*
X131631181Y-65357611D01*
X131635550Y-65473879D01*
X131639637Y-65581311D01*
X131645448Y-65747717D01*
X131650764Y-65916032D01*
X131655512Y-66082667D01*
X131659623Y-66244037D01*
X131663023Y-66396555D01*
X131665642Y-66536634D01*
X131667407Y-66660687D01*
X131668248Y-66765117D01*
X131668248Y-66765129D01*
X131668092Y-66846372D01*
X131668092Y-66846372D01*
G37*
G36*
X129593860Y-63863230D02*
G01*
X129598458Y-63869322D01*
X129606820Y-63894008D01*
X129611652Y-63935478D01*
X129612896Y-63996560D01*
X129610495Y-64080083D01*
X129604388Y-64188877D01*
X129594518Y-64325770D01*
X129580826Y-64493592D01*
X129579668Y-64507413D01*
X129571794Y-64608343D01*
X129562494Y-64737264D01*
X129552098Y-64889087D01*
X129540935Y-65058726D01*
X129529335Y-65241093D01*
X129517629Y-65431099D01*
X129506147Y-65623657D01*
X129495218Y-65813678D01*
X129489874Y-65907186D01*
X129479681Y-66078733D01*
X129469626Y-66239612D01*
X129459944Y-66386497D01*
X129450874Y-66516067D01*
X129442650Y-66624997D01*
X129435510Y-66709964D01*
X129429690Y-66767646D01*
X129425426Y-66794718D01*
X129424774Y-66796711D01*
X129404082Y-66839350D01*
X129379361Y-66866409D01*
X129364961Y-66873416D01*
X129309010Y-66882761D01*
X129251755Y-66871921D01*
X129204495Y-66844419D01*
X129178528Y-66803778D01*
X129176078Y-66772410D01*
X129176843Y-66715007D01*
X129180624Y-66640149D01*
X129187132Y-66556089D01*
X129189703Y-66526128D01*
X129195472Y-66454089D01*
X129203218Y-66353635D01*
X129212694Y-66228090D01*
X129223654Y-66080778D01*
X129235853Y-65915024D01*
X129249046Y-65734153D01*
X129262988Y-65541489D01*
X129277432Y-65340356D01*
X129292133Y-65134080D01*
X129378373Y-63919297D01*
X129420803Y-63881070D01*
X129447424Y-63862874D01*
X129501027Y-63845328D01*
X129554374Y-63844979D01*
X129593860Y-63863230D01*
X129593860Y-63863230D01*
G37*
G36*
X134275938Y-63843470D02*
G01*
X134365840Y-63845355D01*
X134442629Y-63848844D01*
X134499037Y-63853995D01*
X134580408Y-63865149D01*
X134568730Y-64219257D01*
X134567117Y-64265956D01*
X134561938Y-64399968D01*
X134555413Y-64552943D01*
X134548023Y-64714255D01*
X134540249Y-64873274D01*
X134532570Y-65019375D01*
X134528628Y-65099652D01*
X134523050Y-65243988D01*
X134518074Y-65409272D01*
X134513877Y-65587667D01*
X134510635Y-65771336D01*
X134508525Y-65952442D01*
X134507722Y-66123148D01*
X134507358Y-66780911D01*
X134469550Y-66801145D01*
X134449186Y-66809444D01*
X134397935Y-66823351D01*
X134337878Y-66834291D01*
X134321543Y-66836070D01*
X134259897Y-66839467D01*
X134176632Y-66841133D01*
X134080605Y-66840956D01*
X133980669Y-66838823D01*
X133926927Y-66836897D01*
X133821517Y-66830891D01*
X133743990Y-66821781D01*
X133690071Y-66808220D01*
X133655484Y-66788860D01*
X133635954Y-66762351D01*
X133627205Y-66727345D01*
X133630921Y-66684609D01*
X133658163Y-66647677D01*
X133711400Y-66621296D01*
X133792362Y-66604941D01*
X133902780Y-66598083D01*
X134044382Y-66600197D01*
X134269499Y-66609361D01*
X134269561Y-66351687D01*
X134269562Y-66349038D01*
X134270491Y-66230122D01*
X134272896Y-66096899D01*
X134276418Y-65965461D01*
X134280699Y-65851906D01*
X134291774Y-65609799D01*
X134009903Y-65609799D01*
X133945579Y-65609380D01*
X133853181Y-65607266D01*
X133774419Y-65603672D01*
X133716074Y-65598939D01*
X133684925Y-65593410D01*
X133674512Y-65588729D01*
X133639496Y-65553576D01*
X133630146Y-65502420D01*
X133648158Y-65442233D01*
X133657870Y-65424591D01*
X133679334Y-65395851D01*
X133707528Y-65375691D01*
X133747894Y-65362715D01*
X133805876Y-65355528D01*
X133886915Y-65352734D01*
X133996454Y-65352938D01*
X134032956Y-65353156D01*
X134118369Y-65352495D01*
X134189536Y-65350312D01*
X134239882Y-65346868D01*
X134262833Y-65342421D01*
X134262979Y-65342310D01*
X134269542Y-65321002D01*
X134277368Y-65268731D01*
X134286223Y-65188406D01*
X134295873Y-65082940D01*
X134306086Y-64955241D01*
X134316629Y-64808220D01*
X134327269Y-64644789D01*
X134337772Y-64467857D01*
X134347905Y-64280334D01*
X134359050Y-64063712D01*
X134114642Y-64063452D01*
X134081184Y-64063297D01*
X133995797Y-64061770D01*
X133924364Y-64058885D01*
X133873560Y-64054973D01*
X133850060Y-64050363D01*
X133831314Y-64028613D01*
X133811830Y-63990046D01*
X133803632Y-63940128D01*
X133823218Y-63892034D01*
X133872373Y-63859019D01*
X133884180Y-63856076D01*
X133930599Y-63850812D01*
X134000255Y-63846861D01*
X134085876Y-63844282D01*
X134180193Y-63843132D01*
X134275938Y-63843470D01*
X134275938Y-63843470D01*
G37*
D13*
G04 #@! TO.C,Q2*
X115630000Y-114610000D02*
X116560000Y-114610000D01*
X118790000Y-114610000D02*
X117860000Y-114610000D01*
X118790000Y-114610000D02*
X118790000Y-116770000D01*
X115630000Y-114610000D02*
X115630000Y-116070000D01*
G04 #@! TO.C,R6*
X116370000Y-118557221D02*
X116370000Y-118882779D01*
X115350000Y-118557221D02*
X115350000Y-118882779D01*
G04 #@! TO.C,C11*
X126480000Y-119219721D02*
X126480000Y-119545279D01*
X125460000Y-119219721D02*
X125460000Y-119545279D01*
G04 #@! TO.C,C3*
X121330000Y-119172779D02*
X121330000Y-118847221D01*
X122350000Y-119172779D02*
X122350000Y-118847221D01*
G04 #@! TO.C,C14*
X130782000Y-119545279D02*
X130782000Y-119219721D01*
X131802000Y-119545279D02*
X131802000Y-119219721D01*
G04 #@! TO.C,C12*
X127234000Y-119545279D02*
X127234000Y-119219721D01*
X128254000Y-119545279D02*
X128254000Y-119219721D01*
G04 #@! TO.C,C13*
X129008000Y-119545279D02*
X129008000Y-119219721D01*
X130028000Y-119545279D02*
X130028000Y-119219721D01*
G04 #@! TO.C,C2*
X131467221Y-116480000D02*
X131792779Y-116480000D01*
X131467221Y-117500000D02*
X131792779Y-117500000D01*
G04 #@! TO.C,C10*
X128277221Y-116490000D02*
X128602779Y-116490000D01*
X128277221Y-117510000D02*
X128602779Y-117510000D01*
G04 #@! TO.C,C16*
X134330000Y-119545279D02*
X134330000Y-119219721D01*
X135350000Y-119545279D02*
X135350000Y-119219721D01*
G04 #@! TO.C,C15*
X132556000Y-119545279D02*
X132556000Y-119219721D01*
X133576000Y-119545279D02*
X133576000Y-119219721D01*
G04 #@! TO.C,C1*
X119670000Y-119192779D02*
X119670000Y-118867221D01*
X120690000Y-119192779D02*
X120690000Y-118867221D01*
G04 #@! TO.C,C7*
X123100000Y-114653578D02*
X123100000Y-114136422D01*
X124520000Y-114653578D02*
X124520000Y-114136422D01*
G04 #@! TO.C,C9*
X123070000Y-118783578D02*
X123070000Y-118266422D01*
X124490000Y-118783578D02*
X124490000Y-118266422D01*
G04 #@! TO.C,U6*
X122250000Y-88170000D02*
X122250000Y-88950000D01*
X122250000Y-88950000D02*
X121250000Y-88950000D01*
X104010000Y-88170000D02*
X104010000Y-88950000D01*
X104010000Y-88950000D02*
X105010000Y-88950000D01*
X122250000Y-63205000D02*
X104010000Y-63205000D01*
X104010000Y-63205000D02*
X104010000Y-69625000D01*
X122250000Y-63205000D02*
X122250000Y-69625000D01*
X122250000Y-69625000D02*
X122630000Y-69625000D01*
D14*
G04 #@! TO.C,U5*
X134435000Y-101080000D02*
X138885000Y-101080000D01*
X132910000Y-107980000D02*
X138885000Y-107980000D01*
G04 #@! TO.C,MICRO_SD1*
X104010000Y-108106000D02*
X104010000Y-100756000D01*
X104010000Y-100756000D02*
X103960000Y-99406000D01*
X103960000Y-99406000D02*
X103810000Y-98256000D01*
X103810000Y-98256000D02*
X103610000Y-97156000D01*
X103610000Y-97156000D02*
X103310000Y-96106000D01*
X117310000Y-97956000D02*
X118610000Y-97956000D01*
X108540000Y-108106000D02*
X115840000Y-108106000D01*
X105990000Y-108106000D02*
X104010000Y-108106000D01*
X103310000Y-96106000D02*
X103310000Y-93406000D01*
X103310000Y-93406000D02*
X105990000Y-93406000D01*
X115930000Y-93406000D02*
X108480000Y-93406000D01*
X116710000Y-98406000D02*
X116710000Y-98706000D01*
X116710000Y-98706000D02*
X116410000Y-98706000D01*
X116410000Y-98706000D02*
X116410000Y-98406000D01*
X116410000Y-98406000D02*
X116710000Y-98406000D01*
X117310000Y-97956000D02*
X117310000Y-95036000D01*
D13*
G04 #@! TO.C,D2*
X125160000Y-113310000D02*
X125160000Y-111310000D01*
X125160000Y-111310000D02*
X129060000Y-111310000D01*
X125160000Y-113310000D02*
X129060000Y-113310000D01*
G04 #@! TO.C,Y1*
X124770000Y-82110000D02*
X124770000Y-78910000D01*
X124770000Y-78910000D02*
X126270000Y-78910000D01*
X126270000Y-78910000D02*
X126270000Y-82110000D01*
X126270000Y-82110000D02*
X124770000Y-82110000D01*
G04 #@! TO.C,U4*
X110380000Y-115745000D02*
X110380000Y-115270000D01*
X110380000Y-115270000D02*
X109905000Y-115270000D01*
X106160000Y-119015000D02*
X106160000Y-119490000D01*
X106160000Y-119490000D02*
X106635000Y-119490000D01*
X106160000Y-115745000D02*
X106160000Y-115270000D01*
X106160000Y-115270000D02*
X106635000Y-115270000D01*
X110380000Y-119015000D02*
X110380000Y-119490000D01*
G04 #@! TO.C,U3*
X109790000Y-125230000D02*
X109790000Y-123430000D01*
X113010000Y-123430000D02*
X113010000Y-125880000D01*
G04 #@! TO.C,U2*
X113878000Y-134990000D02*
X113878000Y-136790000D01*
X110658000Y-136790000D02*
X110658000Y-134340000D01*
G04 #@! TO.C,U1*
X103800000Y-137552000D02*
X103800000Y-135752000D01*
X107020000Y-135752000D02*
X107020000Y-138202000D01*
G04 #@! TO.C,SW1*
X137670000Y-72160000D02*
X134670000Y-72160000D01*
X134670000Y-72160000D02*
X134670000Y-74660000D01*
X137670000Y-72160000D02*
X137670000Y-74660000D01*
X137670000Y-74660000D02*
X134670000Y-74660000D01*
G04 #@! TO.C,Q8*
X135230000Y-82130000D02*
X134300000Y-82130000D01*
X132070000Y-82130000D02*
X133000000Y-82130000D01*
X132070000Y-82130000D02*
X132070000Y-79970000D01*
X135230000Y-82130000D02*
X135230000Y-80670000D01*
G04 #@! TO.C,Q7*
X107858000Y-111982000D02*
X107858000Y-113882000D01*
X105538000Y-113382000D02*
X105538000Y-111982000D01*
G04 #@! TO.C,Q6*
X110906000Y-111982000D02*
X110906000Y-113882000D01*
X108586000Y-113382000D02*
X108586000Y-111982000D01*
G04 #@! TO.C,Q5*
X123630000Y-106520000D02*
X123630000Y-105590000D01*
X123630000Y-103360000D02*
X123630000Y-104290000D01*
X123630000Y-103360000D02*
X125790000Y-103360000D01*
X123630000Y-106520000D02*
X125090000Y-106520000D01*
G04 #@! TO.C,Q4*
X129060000Y-76580000D02*
X128130000Y-76580000D01*
X125900000Y-76580000D02*
X126830000Y-76580000D01*
X125900000Y-76580000D02*
X125900000Y-74420000D01*
X129060000Y-76580000D02*
X129060000Y-75120000D01*
G04 #@! TO.C,Q3*
X136360000Y-114900000D02*
X135430000Y-114900000D01*
X133200000Y-114900000D02*
X134130000Y-114900000D01*
X133200000Y-114900000D02*
X133200000Y-112740000D01*
X136360000Y-114900000D02*
X136360000Y-113440000D01*
G04 #@! TO.C,Q1*
X113848000Y-132586000D02*
X112918000Y-132586000D01*
X110688000Y-132586000D02*
X111618000Y-132586000D01*
X110688000Y-132586000D02*
X110688000Y-130426000D01*
X113848000Y-132586000D02*
X113848000Y-131126000D01*
G04 #@! TO.C,L1*
X122310000Y-115682064D02*
X122310000Y-114477936D01*
X119590000Y-115682064D02*
X119590000Y-114477936D01*
G04 #@! TO.C,JP1*
X102680000Y-116180000D02*
G75*
G03X103380000Y-116880000I700000J0D01*
G01*
X103980000Y-116880000D02*
G75*
G03X104680000Y-116180000I0J700000D01*
G01*
X104680000Y-114780000D02*
G75*
G03X103980000Y-114080000I-700000J0D01*
G01*
X103380000Y-114080000D02*
G75*
G03X102680000Y-114780000I0J-700000D01*
G01*
X103980000Y-114080000D02*
X103380000Y-114080000D01*
X104680000Y-116180000D02*
X104680000Y-114780000D01*
X103380000Y-116880000D02*
X103980000Y-116880000D01*
X102680000Y-114780000D02*
X102680000Y-116180000D01*
D12*
G04 #@! TO.C,J1*
X101960000Y-123200000D02*
X103110000Y-123200000D01*
X101960000Y-132000000D02*
X101960000Y-123200000D01*
X103110000Y-132000000D02*
X101960000Y-132000000D01*
X107110000Y-132000000D02*
X105110000Y-132000000D01*
X107110000Y-123200000D02*
X105110000Y-123175000D01*
D13*
G04 #@! TO.C,D4*
X114976000Y-127778000D02*
X114976000Y-129778000D01*
X114976000Y-129778000D02*
X111126000Y-129778000D01*
X114976000Y-127778000D02*
X111126000Y-127778000D01*
G04 #@! TO.C,D3*
X129660000Y-113900000D02*
X129660000Y-115900000D01*
X129660000Y-115900000D02*
X125760000Y-115900000D01*
X129660000Y-113900000D02*
X125760000Y-113900000D01*
G04 #@! TO.C,D1*
X130280000Y-111430000D02*
X132280000Y-111430000D01*
X132280000Y-111430000D02*
X132280000Y-115330000D01*
X130280000Y-111430000D02*
X130280000Y-115330000D01*
G04 #@! TO.C,BZ1*
X128042000Y-85840000D02*
X140042000Y-85840000D01*
X128042000Y-97840000D02*
X140042000Y-97840000D01*
X128042000Y-85840000D02*
X128042000Y-97840000D01*
X140042000Y-97840000D02*
X140042000Y-85840000D01*
G04 #@! TO.C,BATT1*
X142755000Y-133474000D02*
X142755000Y-134324000D01*
X142755000Y-134324000D02*
X140430000Y-134324000D01*
X140430000Y-134324000D02*
X140430000Y-136714000D01*
X134585000Y-133474000D02*
X134585000Y-134324000D01*
X134585000Y-134324000D02*
X136910000Y-134324000D01*
X142755000Y-129954000D02*
X142755000Y-129104000D01*
X142755000Y-129104000D02*
X134585000Y-129104000D01*
X134585000Y-129104000D02*
X134585000Y-129954000D01*
G04 #@! TO.C,J4*
X145970000Y-131300000D02*
X145970000Y-136500000D01*
X179110000Y-131300000D02*
X179110000Y-136500000D01*
X146540000Y-129860000D02*
X146540000Y-131300000D01*
X145970000Y-131300000D02*
X146540000Y-131300000D01*
X145970000Y-136500000D02*
X146540000Y-136500000D01*
X178540000Y-131300000D02*
X179110000Y-131300000D01*
X178540000Y-136500000D02*
X179110000Y-136500000D01*
X148060000Y-131300000D02*
X149080000Y-131300000D01*
X148060000Y-136500000D02*
X149080000Y-136500000D01*
X150600000Y-131300000D02*
X151620000Y-131300000D01*
X150600000Y-136500000D02*
X151620000Y-136500000D01*
X153140000Y-131300000D02*
X154160000Y-131300000D01*
X153140000Y-136500000D02*
X154160000Y-136500000D01*
X155680000Y-131300000D02*
X156700000Y-131300000D01*
X155680000Y-136500000D02*
X156700000Y-136500000D01*
X158220000Y-131300000D02*
X159240000Y-131300000D01*
X158220000Y-136500000D02*
X159240000Y-136500000D01*
X160760000Y-131300000D02*
X161780000Y-131300000D01*
X160760000Y-136500000D02*
X161780000Y-136500000D01*
X163300000Y-131300000D02*
X164320000Y-131300000D01*
X163300000Y-136500000D02*
X164320000Y-136500000D01*
X165840000Y-131300000D02*
X166860000Y-131300000D01*
X165840000Y-136500000D02*
X166860000Y-136500000D01*
X168380000Y-131300000D02*
X169400000Y-131300000D01*
X168380000Y-136500000D02*
X169400000Y-136500000D01*
X170920000Y-131300000D02*
X171940000Y-131300000D01*
X170920000Y-136500000D02*
X171940000Y-136500000D01*
X173460000Y-131300000D02*
X174480000Y-131300000D01*
X173460000Y-136500000D02*
X174480000Y-136500000D01*
X176000000Y-131300000D02*
X177020000Y-131300000D01*
X176000000Y-136500000D02*
X177020000Y-136500000D01*
G04 #@! TO.C,DS1*
X117796000Y-126390000D02*
X117796000Y-127080000D01*
X117796000Y-127080000D02*
X133096000Y-127080000D01*
X133096000Y-127080000D02*
X133096000Y-126400000D01*
X131606000Y-122850000D02*
X133096000Y-122850000D01*
X119296000Y-122900000D02*
X117806000Y-122900000D01*
X119296000Y-122900000D02*
X119286000Y-121830000D01*
X131606000Y-122850000D02*
X131606000Y-121650000D01*
G04 #@! TO.C,Q2*
D14*
X118389238Y-113599619D02*
X118484476Y-113552000D01*
X118579714Y-113456761D01*
X118722571Y-113313904D01*
X118817809Y-113266285D01*
X118913047Y-113266285D01*
X118865428Y-113504380D02*
X118960666Y-113456761D01*
X119055904Y-113361523D01*
X119103523Y-113171047D01*
X119103523Y-112837714D01*
X119055904Y-112647238D01*
X118960666Y-112552000D01*
X118865428Y-112504380D01*
X118674952Y-112504380D01*
X118579714Y-112552000D01*
X118484476Y-112647238D01*
X118436857Y-112837714D01*
X118436857Y-113171047D01*
X118484476Y-113361523D01*
X118579714Y-113456761D01*
X118674952Y-113504380D01*
X118865428Y-113504380D01*
X118055904Y-112599619D02*
X118008285Y-112552000D01*
X117913047Y-112504380D01*
X117674952Y-112504380D01*
X117579714Y-112552000D01*
X117532095Y-112599619D01*
X117484476Y-112694857D01*
X117484476Y-112790095D01*
X117532095Y-112932952D01*
X118103523Y-113504380D01*
X117484476Y-113504380D01*
G04 #@! TO.C,R6*
X114882380Y-118553333D02*
X114406190Y-118220000D01*
X114882380Y-117981904D02*
X113882380Y-117981904D01*
X113882380Y-118362857D01*
X113930000Y-118458095D01*
X113977619Y-118505714D01*
X114072857Y-118553333D01*
X114215714Y-118553333D01*
X114310952Y-118505714D01*
X114358571Y-118458095D01*
X114406190Y-118362857D01*
X114406190Y-117981904D01*
X113882380Y-119410476D02*
X113882380Y-119220000D01*
X113930000Y-119124761D01*
X113977619Y-119077142D01*
X114120476Y-118981904D01*
X114310952Y-118934285D01*
X114691904Y-118934285D01*
X114787142Y-118981904D01*
X114834761Y-119029523D01*
X114882380Y-119124761D01*
X114882380Y-119315238D01*
X114834761Y-119410476D01*
X114787142Y-119458095D01*
X114691904Y-119505714D01*
X114453809Y-119505714D01*
X114358571Y-119458095D01*
X114310952Y-119410476D01*
X114263333Y-119315238D01*
X114263333Y-119124761D01*
X114310952Y-119029523D01*
X114358571Y-118981904D01*
X114453809Y-118934285D01*
G04 #@! TO.C,C11*
X124897142Y-118739642D02*
X124944761Y-118692023D01*
X124992380Y-118549166D01*
X124992380Y-118453928D01*
X124944761Y-118311071D01*
X124849523Y-118215833D01*
X124754285Y-118168214D01*
X124563809Y-118120595D01*
X124420952Y-118120595D01*
X124230476Y-118168214D01*
X124135238Y-118215833D01*
X124040000Y-118311071D01*
X123992380Y-118453928D01*
X123992380Y-118549166D01*
X124040000Y-118692023D01*
X124087619Y-118739642D01*
X124992380Y-119692023D02*
X124992380Y-119120595D01*
X124992380Y-119406309D02*
X123992380Y-119406309D01*
X124135238Y-119311071D01*
X124230476Y-119215833D01*
X124278095Y-119120595D01*
X124992380Y-120644404D02*
X124992380Y-120072976D01*
X124992380Y-120358690D02*
X123992380Y-120358690D01*
X124135238Y-120263452D01*
X124230476Y-120168214D01*
X124278095Y-120072976D01*
G04 #@! TO.C,C3*
X123627142Y-118843333D02*
X123674761Y-118795714D01*
X123722380Y-118652857D01*
X123722380Y-118557619D01*
X123674761Y-118414761D01*
X123579523Y-118319523D01*
X123484285Y-118271904D01*
X123293809Y-118224285D01*
X123150952Y-118224285D01*
X122960476Y-118271904D01*
X122865238Y-118319523D01*
X122770000Y-118414761D01*
X122722380Y-118557619D01*
X122722380Y-118652857D01*
X122770000Y-118795714D01*
X122817619Y-118843333D01*
X122722380Y-119176666D02*
X122722380Y-119795714D01*
X123103333Y-119462380D01*
X123103333Y-119605238D01*
X123150952Y-119700476D01*
X123198571Y-119748095D01*
X123293809Y-119795714D01*
X123531904Y-119795714D01*
X123627142Y-119748095D01*
X123674761Y-119700476D01*
X123722380Y-119605238D01*
X123722380Y-119319523D01*
X123674761Y-119224285D01*
X123627142Y-119176666D01*
G04 #@! TO.C,C14*
X133079142Y-118739642D02*
X133126761Y-118692023D01*
X133174380Y-118549166D01*
X133174380Y-118453928D01*
X133126761Y-118311071D01*
X133031523Y-118215833D01*
X132936285Y-118168214D01*
X132745809Y-118120595D01*
X132602952Y-118120595D01*
X132412476Y-118168214D01*
X132317238Y-118215833D01*
X132222000Y-118311071D01*
X132174380Y-118453928D01*
X132174380Y-118549166D01*
X132222000Y-118692023D01*
X132269619Y-118739642D01*
X133174380Y-119692023D02*
X133174380Y-119120595D01*
X133174380Y-119406309D02*
X132174380Y-119406309D01*
X132317238Y-119311071D01*
X132412476Y-119215833D01*
X132460095Y-119120595D01*
X132507714Y-120549166D02*
X133174380Y-120549166D01*
X132126761Y-120311071D02*
X132841047Y-120072976D01*
X132841047Y-120692023D01*
G04 #@! TO.C,C12*
X129531142Y-118739642D02*
X129578761Y-118692023D01*
X129626380Y-118549166D01*
X129626380Y-118453928D01*
X129578761Y-118311071D01*
X129483523Y-118215833D01*
X129388285Y-118168214D01*
X129197809Y-118120595D01*
X129054952Y-118120595D01*
X128864476Y-118168214D01*
X128769238Y-118215833D01*
X128674000Y-118311071D01*
X128626380Y-118453928D01*
X128626380Y-118549166D01*
X128674000Y-118692023D01*
X128721619Y-118739642D01*
X129626380Y-119692023D02*
X129626380Y-119120595D01*
X129626380Y-119406309D02*
X128626380Y-119406309D01*
X128769238Y-119311071D01*
X128864476Y-119215833D01*
X128912095Y-119120595D01*
X128721619Y-120072976D02*
X128674000Y-120120595D01*
X128626380Y-120215833D01*
X128626380Y-120453928D01*
X128674000Y-120549166D01*
X128721619Y-120596785D01*
X128816857Y-120644404D01*
X128912095Y-120644404D01*
X129054952Y-120596785D01*
X129626380Y-120025357D01*
X129626380Y-120644404D01*
G04 #@! TO.C,C13*
X131305142Y-118739642D02*
X131352761Y-118692023D01*
X131400380Y-118549166D01*
X131400380Y-118453928D01*
X131352761Y-118311071D01*
X131257523Y-118215833D01*
X131162285Y-118168214D01*
X130971809Y-118120595D01*
X130828952Y-118120595D01*
X130638476Y-118168214D01*
X130543238Y-118215833D01*
X130448000Y-118311071D01*
X130400380Y-118453928D01*
X130400380Y-118549166D01*
X130448000Y-118692023D01*
X130495619Y-118739642D01*
X131400380Y-119692023D02*
X131400380Y-119120595D01*
X131400380Y-119406309D02*
X130400380Y-119406309D01*
X130543238Y-119311071D01*
X130638476Y-119215833D01*
X130686095Y-119120595D01*
X130400380Y-120025357D02*
X130400380Y-120644404D01*
X130781333Y-120311071D01*
X130781333Y-120453928D01*
X130828952Y-120549166D01*
X130876571Y-120596785D01*
X130971809Y-120644404D01*
X131209904Y-120644404D01*
X131305142Y-120596785D01*
X131352761Y-120549166D01*
X131400380Y-120453928D01*
X131400380Y-120168214D01*
X131352761Y-120072976D01*
X131305142Y-120025357D01*
G04 #@! TO.C,C2*
X131796666Y-118777142D02*
X131844285Y-118824761D01*
X131987142Y-118872380D01*
X132082380Y-118872380D01*
X132225238Y-118824761D01*
X132320476Y-118729523D01*
X132368095Y-118634285D01*
X132415714Y-118443809D01*
X132415714Y-118300952D01*
X132368095Y-118110476D01*
X132320476Y-118015238D01*
X132225238Y-117920000D01*
X132082380Y-117872380D01*
X131987142Y-117872380D01*
X131844285Y-117920000D01*
X131796666Y-117967619D01*
X131415714Y-117967619D02*
X131368095Y-117920000D01*
X131272857Y-117872380D01*
X131034761Y-117872380D01*
X130939523Y-117920000D01*
X130891904Y-117967619D01*
X130844285Y-118062857D01*
X130844285Y-118158095D01*
X130891904Y-118300952D01*
X131463333Y-118872380D01*
X130844285Y-118872380D01*
G04 #@! TO.C,C10*
X129082857Y-118787142D02*
X129130476Y-118834761D01*
X129273333Y-118882380D01*
X129368571Y-118882380D01*
X129511428Y-118834761D01*
X129606666Y-118739523D01*
X129654285Y-118644285D01*
X129701904Y-118453809D01*
X129701904Y-118310952D01*
X129654285Y-118120476D01*
X129606666Y-118025238D01*
X129511428Y-117930000D01*
X129368571Y-117882380D01*
X129273333Y-117882380D01*
X129130476Y-117930000D01*
X129082857Y-117977619D01*
X128130476Y-118882380D02*
X128701904Y-118882380D01*
X128416190Y-118882380D02*
X128416190Y-117882380D01*
X128511428Y-118025238D01*
X128606666Y-118120476D01*
X128701904Y-118168095D01*
X127511428Y-117882380D02*
X127416190Y-117882380D01*
X127320952Y-117930000D01*
X127273333Y-117977619D01*
X127225714Y-118072857D01*
X127178095Y-118263333D01*
X127178095Y-118501428D01*
X127225714Y-118691904D01*
X127273333Y-118787142D01*
X127320952Y-118834761D01*
X127416190Y-118882380D01*
X127511428Y-118882380D01*
X127606666Y-118834761D01*
X127654285Y-118787142D01*
X127701904Y-118691904D01*
X127749523Y-118501428D01*
X127749523Y-118263333D01*
X127701904Y-118072857D01*
X127654285Y-117977619D01*
X127606666Y-117930000D01*
X127511428Y-117882380D01*
G04 #@! TO.C,C16*
X136627142Y-118739642D02*
X136674761Y-118692023D01*
X136722380Y-118549166D01*
X136722380Y-118453928D01*
X136674761Y-118311071D01*
X136579523Y-118215833D01*
X136484285Y-118168214D01*
X136293809Y-118120595D01*
X136150952Y-118120595D01*
X135960476Y-118168214D01*
X135865238Y-118215833D01*
X135770000Y-118311071D01*
X135722380Y-118453928D01*
X135722380Y-118549166D01*
X135770000Y-118692023D01*
X135817619Y-118739642D01*
X136722380Y-119692023D02*
X136722380Y-119120595D01*
X136722380Y-119406309D02*
X135722380Y-119406309D01*
X135865238Y-119311071D01*
X135960476Y-119215833D01*
X136008095Y-119120595D01*
X135722380Y-120549166D02*
X135722380Y-120358690D01*
X135770000Y-120263452D01*
X135817619Y-120215833D01*
X135960476Y-120120595D01*
X136150952Y-120072976D01*
X136531904Y-120072976D01*
X136627142Y-120120595D01*
X136674761Y-120168214D01*
X136722380Y-120263452D01*
X136722380Y-120453928D01*
X136674761Y-120549166D01*
X136627142Y-120596785D01*
X136531904Y-120644404D01*
X136293809Y-120644404D01*
X136198571Y-120596785D01*
X136150952Y-120549166D01*
X136103333Y-120453928D01*
X136103333Y-120263452D01*
X136150952Y-120168214D01*
X136198571Y-120120595D01*
X136293809Y-120072976D01*
G04 #@! TO.C,C15*
X134853142Y-118739642D02*
X134900761Y-118692023D01*
X134948380Y-118549166D01*
X134948380Y-118453928D01*
X134900761Y-118311071D01*
X134805523Y-118215833D01*
X134710285Y-118168214D01*
X134519809Y-118120595D01*
X134376952Y-118120595D01*
X134186476Y-118168214D01*
X134091238Y-118215833D01*
X133996000Y-118311071D01*
X133948380Y-118453928D01*
X133948380Y-118549166D01*
X133996000Y-118692023D01*
X134043619Y-118739642D01*
X134948380Y-119692023D02*
X134948380Y-119120595D01*
X134948380Y-119406309D02*
X133948380Y-119406309D01*
X134091238Y-119311071D01*
X134186476Y-119215833D01*
X134234095Y-119120595D01*
X133948380Y-120596785D02*
X133948380Y-120120595D01*
X134424571Y-120072976D01*
X134376952Y-120120595D01*
X134329333Y-120215833D01*
X134329333Y-120453928D01*
X134376952Y-120549166D01*
X134424571Y-120596785D01*
X134519809Y-120644404D01*
X134757904Y-120644404D01*
X134853142Y-120596785D01*
X134900761Y-120549166D01*
X134948380Y-120453928D01*
X134948380Y-120215833D01*
X134900761Y-120120595D01*
X134853142Y-120072976D01*
G04 #@! TO.C,C1*
X121967142Y-118863333D02*
X122014761Y-118815714D01*
X122062380Y-118672857D01*
X122062380Y-118577619D01*
X122014761Y-118434761D01*
X121919523Y-118339523D01*
X121824285Y-118291904D01*
X121633809Y-118244285D01*
X121490952Y-118244285D01*
X121300476Y-118291904D01*
X121205238Y-118339523D01*
X121110000Y-118434761D01*
X121062380Y-118577619D01*
X121062380Y-118672857D01*
X121110000Y-118815714D01*
X121157619Y-118863333D01*
X122062380Y-119815714D02*
X122062380Y-119244285D01*
X122062380Y-119530000D02*
X121062380Y-119530000D01*
X121205238Y-119434761D01*
X121300476Y-119339523D01*
X121348095Y-119244285D01*
G04 #@! TO.C,C7*
X125817142Y-114228333D02*
X125864761Y-114180714D01*
X125912380Y-114037857D01*
X125912380Y-113942619D01*
X125864761Y-113799761D01*
X125769523Y-113704523D01*
X125674285Y-113656904D01*
X125483809Y-113609285D01*
X125340952Y-113609285D01*
X125150476Y-113656904D01*
X125055238Y-113704523D01*
X124960000Y-113799761D01*
X124912380Y-113942619D01*
X124912380Y-114037857D01*
X124960000Y-114180714D01*
X125007619Y-114228333D01*
X124912380Y-114561666D02*
X124912380Y-115228333D01*
X125912380Y-114799761D01*
G04 #@! TO.C,C9*
X125787142Y-118358333D02*
X125834761Y-118310714D01*
X125882380Y-118167857D01*
X125882380Y-118072619D01*
X125834761Y-117929761D01*
X125739523Y-117834523D01*
X125644285Y-117786904D01*
X125453809Y-117739285D01*
X125310952Y-117739285D01*
X125120476Y-117786904D01*
X125025238Y-117834523D01*
X124930000Y-117929761D01*
X124882380Y-118072619D01*
X124882380Y-118167857D01*
X124930000Y-118310714D01*
X124977619Y-118358333D01*
X125882380Y-118834523D02*
X125882380Y-119025000D01*
X125834761Y-119120238D01*
X125787142Y-119167857D01*
X125644285Y-119263095D01*
X125453809Y-119310714D01*
X125072857Y-119310714D01*
X124977619Y-119263095D01*
X124930000Y-119215476D01*
X124882380Y-119120238D01*
X124882380Y-118929761D01*
X124930000Y-118834523D01*
X124977619Y-118786904D01*
X125072857Y-118739285D01*
X125310952Y-118739285D01*
X125406190Y-118786904D01*
X125453809Y-118834523D01*
X125501428Y-118929761D01*
X125501428Y-119120238D01*
X125453809Y-119215476D01*
X125406190Y-119263095D01*
X125310952Y-119310714D01*
G04 #@! TO.C,C24*
X129842857Y-104792857D02*
X129795238Y-104840476D01*
X129747619Y-104983333D01*
X129747619Y-105078571D01*
X129795238Y-105221428D01*
X129890476Y-105316666D01*
X129985714Y-105364285D01*
X130176190Y-105411904D01*
X130319047Y-105411904D01*
X130509523Y-105364285D01*
X130604761Y-105316666D01*
X130700000Y-105221428D01*
X130747619Y-105078571D01*
X130747619Y-104983333D01*
X130700000Y-104840476D01*
X130652380Y-104792857D01*
X130652380Y-104411904D02*
X130700000Y-104364285D01*
X130747619Y-104269047D01*
X130747619Y-104030952D01*
X130700000Y-103935714D01*
X130652380Y-103888095D01*
X130557142Y-103840476D01*
X130461904Y-103840476D01*
X130319047Y-103888095D01*
X129747619Y-104459523D01*
X129747619Y-103840476D01*
X130414285Y-102983333D02*
X129747619Y-102983333D01*
X130795238Y-103221428D02*
X130080952Y-103459523D01*
X130080952Y-102840476D01*
G04 #@! TO.C,U6*
X123192380Y-86738095D02*
X124001904Y-86738095D01*
X124097142Y-86785714D01*
X124144761Y-86833333D01*
X124192380Y-86928571D01*
X124192380Y-87119047D01*
X124144761Y-87214285D01*
X124097142Y-87261904D01*
X124001904Y-87309523D01*
X123192380Y-87309523D01*
X123192380Y-88214285D02*
X123192380Y-88023809D01*
X123240000Y-87928571D01*
X123287619Y-87880952D01*
X123430476Y-87785714D01*
X123620952Y-87738095D01*
X124001904Y-87738095D01*
X124097142Y-87785714D01*
X124144761Y-87833333D01*
X124192380Y-87928571D01*
X124192380Y-88119047D01*
X124144761Y-88214285D01*
X124097142Y-88261904D01*
X124001904Y-88309523D01*
X123763809Y-88309523D01*
X123668571Y-88261904D01*
X123620952Y-88214285D01*
X123573333Y-88119047D01*
X123573333Y-87928571D01*
X123620952Y-87833333D01*
X123668571Y-87785714D01*
X123763809Y-87738095D01*
G04 #@! TO.C,U5*
X137421904Y-108282380D02*
X137421904Y-109091904D01*
X137374285Y-109187142D01*
X137326666Y-109234761D01*
X137231428Y-109282380D01*
X137040952Y-109282380D01*
X136945714Y-109234761D01*
X136898095Y-109187142D01*
X136850476Y-109091904D01*
X136850476Y-108282380D01*
X135898095Y-108282380D02*
X136374285Y-108282380D01*
X136421904Y-108758571D01*
X136374285Y-108710952D01*
X136279047Y-108663333D01*
X136040952Y-108663333D01*
X135945714Y-108710952D01*
X135898095Y-108758571D01*
X135850476Y-108853809D01*
X135850476Y-109091904D01*
X135898095Y-109187142D01*
X135945714Y-109234761D01*
X136040952Y-109282380D01*
X136279047Y-109282380D01*
X136374285Y-109234761D01*
X136421904Y-109187142D01*
G04 #@! TO.C,C23*
X128837857Y-83227142D02*
X128885476Y-83274761D01*
X129028333Y-83322380D01*
X129123571Y-83322380D01*
X129266428Y-83274761D01*
X129361666Y-83179523D01*
X129409285Y-83084285D01*
X129456904Y-82893809D01*
X129456904Y-82750952D01*
X129409285Y-82560476D01*
X129361666Y-82465238D01*
X129266428Y-82370000D01*
X129123571Y-82322380D01*
X129028333Y-82322380D01*
X128885476Y-82370000D01*
X128837857Y-82417619D01*
X128456904Y-82417619D02*
X128409285Y-82370000D01*
X128314047Y-82322380D01*
X128075952Y-82322380D01*
X127980714Y-82370000D01*
X127933095Y-82417619D01*
X127885476Y-82512857D01*
X127885476Y-82608095D01*
X127933095Y-82750952D01*
X128504523Y-83322380D01*
X127885476Y-83322380D01*
X127552142Y-82322380D02*
X126933095Y-82322380D01*
X127266428Y-82703333D01*
X127123571Y-82703333D01*
X127028333Y-82750952D01*
X126980714Y-82798571D01*
X126933095Y-82893809D01*
X126933095Y-83131904D01*
X126980714Y-83227142D01*
X127028333Y-83274761D01*
X127123571Y-83322380D01*
X127409285Y-83322380D01*
X127504523Y-83274761D01*
X127552142Y-83227142D01*
G04 #@! TO.C,D2*
X126868095Y-117412380D02*
X126868095Y-116412380D01*
X126630000Y-116412380D01*
X126487142Y-116460000D01*
X126391904Y-116555238D01*
X126344285Y-116650476D01*
X126296666Y-116840952D01*
X126296666Y-116983809D01*
X126344285Y-117174285D01*
X126391904Y-117269523D01*
X126487142Y-117364761D01*
X126630000Y-117412380D01*
X126868095Y-117412380D01*
X125915714Y-116507619D02*
X125868095Y-116460000D01*
X125772857Y-116412380D01*
X125534761Y-116412380D01*
X125439523Y-116460000D01*
X125391904Y-116507619D01*
X125344285Y-116602857D01*
X125344285Y-116698095D01*
X125391904Y-116840952D01*
X125963333Y-117412380D01*
X125344285Y-117412380D01*
G04 #@! TO.C,Y1*
X127416190Y-80013809D02*
X127892380Y-80013809D01*
X126892380Y-79680476D02*
X127416190Y-80013809D01*
X126892380Y-80347142D01*
X127892380Y-81204285D02*
X127892380Y-80632857D01*
X127892380Y-80918571D02*
X126892380Y-80918571D01*
X127035238Y-80823333D01*
X127130476Y-80728095D01*
X127178095Y-80632857D01*
G04 #@! TO.C,U4*
X111052380Y-118768095D02*
X111861904Y-118768095D01*
X111957142Y-118815714D01*
X112004761Y-118863333D01*
X112052380Y-118958571D01*
X112052380Y-119149047D01*
X112004761Y-119244285D01*
X111957142Y-119291904D01*
X111861904Y-119339523D01*
X111052380Y-119339523D01*
X111385714Y-120244285D02*
X112052380Y-120244285D01*
X111004761Y-120006190D02*
X111719047Y-119768095D01*
X111719047Y-120387142D01*
G04 #@! TO.C,U3*
X113752380Y-123568095D02*
X114561904Y-123568095D01*
X114657142Y-123615714D01*
X114704761Y-123663333D01*
X114752380Y-123758571D01*
X114752380Y-123949047D01*
X114704761Y-124044285D01*
X114657142Y-124091904D01*
X114561904Y-124139523D01*
X113752380Y-124139523D01*
X113752380Y-124520476D02*
X113752380Y-125139523D01*
X114133333Y-124806190D01*
X114133333Y-124949047D01*
X114180952Y-125044285D01*
X114228571Y-125091904D01*
X114323809Y-125139523D01*
X114561904Y-125139523D01*
X114657142Y-125091904D01*
X114704761Y-125044285D01*
X114752380Y-124949047D01*
X114752380Y-124663333D01*
X114704761Y-124568095D01*
X114657142Y-124520476D01*
G04 #@! TO.C,U2*
X108302380Y-133848095D02*
X109111904Y-133848095D01*
X109207142Y-133895714D01*
X109254761Y-133943333D01*
X109302380Y-134038571D01*
X109302380Y-134229047D01*
X109254761Y-134324285D01*
X109207142Y-134371904D01*
X109111904Y-134419523D01*
X108302380Y-134419523D01*
X108397619Y-134848095D02*
X108350000Y-134895714D01*
X108302380Y-134990952D01*
X108302380Y-135229047D01*
X108350000Y-135324285D01*
X108397619Y-135371904D01*
X108492857Y-135419523D01*
X108588095Y-135419523D01*
X108730952Y-135371904D01*
X109302380Y-134800476D01*
X109302380Y-135419523D01*
G04 #@! TO.C,U1*
X102532380Y-135728095D02*
X103341904Y-135728095D01*
X103437142Y-135775714D01*
X103484761Y-135823333D01*
X103532380Y-135918571D01*
X103532380Y-136109047D01*
X103484761Y-136204285D01*
X103437142Y-136251904D01*
X103341904Y-136299523D01*
X102532380Y-136299523D01*
X103532380Y-137299523D02*
X103532380Y-136728095D01*
X103532380Y-137013809D02*
X102532380Y-137013809D01*
X102675238Y-136918571D01*
X102770476Y-136823333D01*
X102818095Y-136728095D01*
G04 #@! TO.C,TH1*
X137055714Y-138512380D02*
X136484285Y-138512380D01*
X136770000Y-139512380D02*
X136770000Y-138512380D01*
X136150952Y-139512380D02*
X136150952Y-138512380D01*
X136150952Y-138988571D02*
X135579523Y-138988571D01*
X135579523Y-139512380D02*
X135579523Y-138512380D01*
X134579523Y-139512380D02*
X135150952Y-139512380D01*
X134865238Y-139512380D02*
X134865238Y-138512380D01*
X134960476Y-138655238D01*
X135055714Y-138750476D01*
X135150952Y-138798095D01*
G04 #@! TO.C,SW1*
X136933333Y-71762761D02*
X136790476Y-71810380D01*
X136552380Y-71810380D01*
X136457142Y-71762761D01*
X136409523Y-71715142D01*
X136361904Y-71619904D01*
X136361904Y-71524666D01*
X136409523Y-71429428D01*
X136457142Y-71381809D01*
X136552380Y-71334190D01*
X136742857Y-71286571D01*
X136838095Y-71238952D01*
X136885714Y-71191333D01*
X136933333Y-71096095D01*
X136933333Y-71000857D01*
X136885714Y-70905619D01*
X136838095Y-70858000D01*
X136742857Y-70810380D01*
X136504761Y-70810380D01*
X136361904Y-70858000D01*
X136028571Y-70810380D02*
X135790476Y-71810380D01*
X135600000Y-71096095D01*
X135409523Y-71810380D01*
X135171428Y-70810380D01*
X134266666Y-71810380D02*
X134838095Y-71810380D01*
X134552380Y-71810380D02*
X134552380Y-70810380D01*
X134647619Y-70953238D01*
X134742857Y-71048476D01*
X134838095Y-71096095D01*
G04 #@! TO.C,R29*
X137872857Y-79472380D02*
X138206190Y-78996190D01*
X138444285Y-79472380D02*
X138444285Y-78472380D01*
X138063333Y-78472380D01*
X137968095Y-78520000D01*
X137920476Y-78567619D01*
X137872857Y-78662857D01*
X137872857Y-78805714D01*
X137920476Y-78900952D01*
X137968095Y-78948571D01*
X138063333Y-78996190D01*
X138444285Y-78996190D01*
X137491904Y-78567619D02*
X137444285Y-78520000D01*
X137349047Y-78472380D01*
X137110952Y-78472380D01*
X137015714Y-78520000D01*
X136968095Y-78567619D01*
X136920476Y-78662857D01*
X136920476Y-78758095D01*
X136968095Y-78900952D01*
X137539523Y-79472380D01*
X136920476Y-79472380D01*
X136444285Y-79472380D02*
X136253809Y-79472380D01*
X136158571Y-79424761D01*
X136110952Y-79377142D01*
X136015714Y-79234285D01*
X135968095Y-79043809D01*
X135968095Y-78662857D01*
X136015714Y-78567619D01*
X136063333Y-78520000D01*
X136158571Y-78472380D01*
X136349047Y-78472380D01*
X136444285Y-78520000D01*
X136491904Y-78567619D01*
X136539523Y-78662857D01*
X136539523Y-78900952D01*
X136491904Y-78996190D01*
X136444285Y-79043809D01*
X136349047Y-79091428D01*
X136158571Y-79091428D01*
X136063333Y-79043809D01*
X136015714Y-78996190D01*
X135968095Y-78900952D01*
G04 #@! TO.C,R28*
X133262857Y-78272380D02*
X133596190Y-77796190D01*
X133834285Y-78272380D02*
X133834285Y-77272380D01*
X133453333Y-77272380D01*
X133358095Y-77320000D01*
X133310476Y-77367619D01*
X133262857Y-77462857D01*
X133262857Y-77605714D01*
X133310476Y-77700952D01*
X133358095Y-77748571D01*
X133453333Y-77796190D01*
X133834285Y-77796190D01*
X132881904Y-77367619D02*
X132834285Y-77320000D01*
X132739047Y-77272380D01*
X132500952Y-77272380D01*
X132405714Y-77320000D01*
X132358095Y-77367619D01*
X132310476Y-77462857D01*
X132310476Y-77558095D01*
X132358095Y-77700952D01*
X132929523Y-78272380D01*
X132310476Y-78272380D01*
X131739047Y-77700952D02*
X131834285Y-77653333D01*
X131881904Y-77605714D01*
X131929523Y-77510476D01*
X131929523Y-77462857D01*
X131881904Y-77367619D01*
X131834285Y-77320000D01*
X131739047Y-77272380D01*
X131548571Y-77272380D01*
X131453333Y-77320000D01*
X131405714Y-77367619D01*
X131358095Y-77462857D01*
X131358095Y-77510476D01*
X131405714Y-77605714D01*
X131453333Y-77653333D01*
X131548571Y-77700952D01*
X131739047Y-77700952D01*
X131834285Y-77748571D01*
X131881904Y-77796190D01*
X131929523Y-77891428D01*
X131929523Y-78081904D01*
X131881904Y-78177142D01*
X131834285Y-78224761D01*
X131739047Y-78272380D01*
X131548571Y-78272380D01*
X131453333Y-78224761D01*
X131405714Y-78177142D01*
X131358095Y-78081904D01*
X131358095Y-77891428D01*
X131405714Y-77796190D01*
X131453333Y-77748571D01*
X131548571Y-77700952D01*
G04 #@! TO.C,R27*
X132782857Y-84292380D02*
X133116190Y-83816190D01*
X133354285Y-84292380D02*
X133354285Y-83292380D01*
X132973333Y-83292380D01*
X132878095Y-83340000D01*
X132830476Y-83387619D01*
X132782857Y-83482857D01*
X132782857Y-83625714D01*
X132830476Y-83720952D01*
X132878095Y-83768571D01*
X132973333Y-83816190D01*
X133354285Y-83816190D01*
X132401904Y-83387619D02*
X132354285Y-83340000D01*
X132259047Y-83292380D01*
X132020952Y-83292380D01*
X131925714Y-83340000D01*
X131878095Y-83387619D01*
X131830476Y-83482857D01*
X131830476Y-83578095D01*
X131878095Y-83720952D01*
X132449523Y-84292380D01*
X131830476Y-84292380D01*
X131497142Y-83292380D02*
X130830476Y-83292380D01*
X131259047Y-84292380D01*
G04 #@! TO.C,R26*
X132552857Y-72532380D02*
X132886190Y-72056190D01*
X133124285Y-72532380D02*
X133124285Y-71532380D01*
X132743333Y-71532380D01*
X132648095Y-71580000D01*
X132600476Y-71627619D01*
X132552857Y-71722857D01*
X132552857Y-71865714D01*
X132600476Y-71960952D01*
X132648095Y-72008571D01*
X132743333Y-72056190D01*
X133124285Y-72056190D01*
X132171904Y-71627619D02*
X132124285Y-71580000D01*
X132029047Y-71532380D01*
X131790952Y-71532380D01*
X131695714Y-71580000D01*
X131648095Y-71627619D01*
X131600476Y-71722857D01*
X131600476Y-71818095D01*
X131648095Y-71960952D01*
X132219523Y-72532380D01*
X131600476Y-72532380D01*
X130743333Y-71532380D02*
X130933809Y-71532380D01*
X131029047Y-71580000D01*
X131076666Y-71627619D01*
X131171904Y-71770476D01*
X131219523Y-71960952D01*
X131219523Y-72341904D01*
X131171904Y-72437142D01*
X131124285Y-72484761D01*
X131029047Y-72532380D01*
X130838571Y-72532380D01*
X130743333Y-72484761D01*
X130695714Y-72437142D01*
X130648095Y-72341904D01*
X130648095Y-72103809D01*
X130695714Y-72008571D01*
X130743333Y-71960952D01*
X130838571Y-71913333D01*
X131029047Y-71913333D01*
X131124285Y-71960952D01*
X131171904Y-72008571D01*
X131219523Y-72103809D01*
G04 #@! TO.C,R25*
X183902380Y-130707142D02*
X183426190Y-130373809D01*
X183902380Y-130135714D02*
X182902380Y-130135714D01*
X182902380Y-130516666D01*
X182950000Y-130611904D01*
X182997619Y-130659523D01*
X183092857Y-130707142D01*
X183235714Y-130707142D01*
X183330952Y-130659523D01*
X183378571Y-130611904D01*
X183426190Y-130516666D01*
X183426190Y-130135714D01*
X182997619Y-131088095D02*
X182950000Y-131135714D01*
X182902380Y-131230952D01*
X182902380Y-131469047D01*
X182950000Y-131564285D01*
X182997619Y-131611904D01*
X183092857Y-131659523D01*
X183188095Y-131659523D01*
X183330952Y-131611904D01*
X183902380Y-131040476D01*
X183902380Y-131659523D01*
X182902380Y-132564285D02*
X182902380Y-132088095D01*
X183378571Y-132040476D01*
X183330952Y-132088095D01*
X183283333Y-132183333D01*
X183283333Y-132421428D01*
X183330952Y-132516666D01*
X183378571Y-132564285D01*
X183473809Y-132611904D01*
X183711904Y-132611904D01*
X183807142Y-132564285D01*
X183854761Y-132516666D01*
X183902380Y-132421428D01*
X183902380Y-132183333D01*
X183854761Y-132088095D01*
X183807142Y-132040476D01*
G04 #@! TO.C,R24*
X180912380Y-130707142D02*
X180436190Y-130373809D01*
X180912380Y-130135714D02*
X179912380Y-130135714D01*
X179912380Y-130516666D01*
X179960000Y-130611904D01*
X180007619Y-130659523D01*
X180102857Y-130707142D01*
X180245714Y-130707142D01*
X180340952Y-130659523D01*
X180388571Y-130611904D01*
X180436190Y-130516666D01*
X180436190Y-130135714D01*
X180007619Y-131088095D02*
X179960000Y-131135714D01*
X179912380Y-131230952D01*
X179912380Y-131469047D01*
X179960000Y-131564285D01*
X180007619Y-131611904D01*
X180102857Y-131659523D01*
X180198095Y-131659523D01*
X180340952Y-131611904D01*
X180912380Y-131040476D01*
X180912380Y-131659523D01*
X180245714Y-132516666D02*
X180912380Y-132516666D01*
X179864761Y-132278571D02*
X180579047Y-132040476D01*
X180579047Y-132659523D01*
G04 #@! TO.C,R23*
X182407380Y-130707142D02*
X181931190Y-130373809D01*
X182407380Y-130135714D02*
X181407380Y-130135714D01*
X181407380Y-130516666D01*
X181455000Y-130611904D01*
X181502619Y-130659523D01*
X181597857Y-130707142D01*
X181740714Y-130707142D01*
X181835952Y-130659523D01*
X181883571Y-130611904D01*
X181931190Y-130516666D01*
X181931190Y-130135714D01*
X181502619Y-131088095D02*
X181455000Y-131135714D01*
X181407380Y-131230952D01*
X181407380Y-131469047D01*
X181455000Y-131564285D01*
X181502619Y-131611904D01*
X181597857Y-131659523D01*
X181693095Y-131659523D01*
X181835952Y-131611904D01*
X182407380Y-131040476D01*
X182407380Y-131659523D01*
X181407380Y-131992857D02*
X181407380Y-132611904D01*
X181788333Y-132278571D01*
X181788333Y-132421428D01*
X181835952Y-132516666D01*
X181883571Y-132564285D01*
X181978809Y-132611904D01*
X182216904Y-132611904D01*
X182312142Y-132564285D01*
X182359761Y-132516666D01*
X182407380Y-132421428D01*
X182407380Y-132135714D01*
X182359761Y-132040476D01*
X182312142Y-131992857D01*
G04 #@! TO.C,R22*
X127652380Y-100947142D02*
X127176190Y-100613809D01*
X127652380Y-100375714D02*
X126652380Y-100375714D01*
X126652380Y-100756666D01*
X126700000Y-100851904D01*
X126747619Y-100899523D01*
X126842857Y-100947142D01*
X126985714Y-100947142D01*
X127080952Y-100899523D01*
X127128571Y-100851904D01*
X127176190Y-100756666D01*
X127176190Y-100375714D01*
X126747619Y-101328095D02*
X126700000Y-101375714D01*
X126652380Y-101470952D01*
X126652380Y-101709047D01*
X126700000Y-101804285D01*
X126747619Y-101851904D01*
X126842857Y-101899523D01*
X126938095Y-101899523D01*
X127080952Y-101851904D01*
X127652380Y-101280476D01*
X127652380Y-101899523D01*
X126747619Y-102280476D02*
X126700000Y-102328095D01*
X126652380Y-102423333D01*
X126652380Y-102661428D01*
X126700000Y-102756666D01*
X126747619Y-102804285D01*
X126842857Y-102851904D01*
X126938095Y-102851904D01*
X127080952Y-102804285D01*
X127652380Y-102232857D01*
X127652380Y-102851904D01*
G04 #@! TO.C,R21*
X126202380Y-107547142D02*
X125726190Y-107213809D01*
X126202380Y-106975714D02*
X125202380Y-106975714D01*
X125202380Y-107356666D01*
X125250000Y-107451904D01*
X125297619Y-107499523D01*
X125392857Y-107547142D01*
X125535714Y-107547142D01*
X125630952Y-107499523D01*
X125678571Y-107451904D01*
X125726190Y-107356666D01*
X125726190Y-106975714D01*
X125297619Y-107928095D02*
X125250000Y-107975714D01*
X125202380Y-108070952D01*
X125202380Y-108309047D01*
X125250000Y-108404285D01*
X125297619Y-108451904D01*
X125392857Y-108499523D01*
X125488095Y-108499523D01*
X125630952Y-108451904D01*
X126202380Y-107880476D01*
X126202380Y-108499523D01*
X126202380Y-109451904D02*
X126202380Y-108880476D01*
X126202380Y-109166190D02*
X125202380Y-109166190D01*
X125345238Y-109070952D01*
X125440476Y-108975714D01*
X125488095Y-108880476D01*
G04 #@! TO.C,R20*
X128122380Y-108357142D02*
X127646190Y-108023809D01*
X128122380Y-107785714D02*
X127122380Y-107785714D01*
X127122380Y-108166666D01*
X127170000Y-108261904D01*
X127217619Y-108309523D01*
X127312857Y-108357142D01*
X127455714Y-108357142D01*
X127550952Y-108309523D01*
X127598571Y-108261904D01*
X127646190Y-108166666D01*
X127646190Y-107785714D01*
X127217619Y-108738095D02*
X127170000Y-108785714D01*
X127122380Y-108880952D01*
X127122380Y-109119047D01*
X127170000Y-109214285D01*
X127217619Y-109261904D01*
X127312857Y-109309523D01*
X127408095Y-109309523D01*
X127550952Y-109261904D01*
X128122380Y-108690476D01*
X128122380Y-109309523D01*
X127122380Y-109928571D02*
X127122380Y-110023809D01*
X127170000Y-110119047D01*
X127217619Y-110166666D01*
X127312857Y-110214285D01*
X127503333Y-110261904D01*
X127741428Y-110261904D01*
X127931904Y-110214285D01*
X128027142Y-110166666D01*
X128074761Y-110119047D01*
X128122380Y-110023809D01*
X128122380Y-109928571D01*
X128074761Y-109833333D01*
X128027142Y-109785714D01*
X127931904Y-109738095D01*
X127741428Y-109690476D01*
X127503333Y-109690476D01*
X127312857Y-109738095D01*
X127217619Y-109785714D01*
X127170000Y-109833333D01*
X127122380Y-109928571D01*
G04 #@! TO.C,R19*
X131902380Y-108267142D02*
X131426190Y-107933809D01*
X131902380Y-107695714D02*
X130902380Y-107695714D01*
X130902380Y-108076666D01*
X130950000Y-108171904D01*
X130997619Y-108219523D01*
X131092857Y-108267142D01*
X131235714Y-108267142D01*
X131330952Y-108219523D01*
X131378571Y-108171904D01*
X131426190Y-108076666D01*
X131426190Y-107695714D01*
X131902380Y-109219523D02*
X131902380Y-108648095D01*
X131902380Y-108933809D02*
X130902380Y-108933809D01*
X131045238Y-108838571D01*
X131140476Y-108743333D01*
X131188095Y-108648095D01*
X131902380Y-109695714D02*
X131902380Y-109886190D01*
X131854761Y-109981428D01*
X131807142Y-110029047D01*
X131664285Y-110124285D01*
X131473809Y-110171904D01*
X131092857Y-110171904D01*
X130997619Y-110124285D01*
X130950000Y-110076666D01*
X130902380Y-109981428D01*
X130902380Y-109790952D01*
X130950000Y-109695714D01*
X130997619Y-109648095D01*
X131092857Y-109600476D01*
X131330952Y-109600476D01*
X131426190Y-109648095D01*
X131473809Y-109695714D01*
X131521428Y-109790952D01*
X131521428Y-109981428D01*
X131473809Y-110076666D01*
X131426190Y-110124285D01*
X131330952Y-110171904D01*
G04 #@! TO.C,R18*
X124582857Y-98812380D02*
X124916190Y-98336190D01*
X125154285Y-98812380D02*
X125154285Y-97812380D01*
X124773333Y-97812380D01*
X124678095Y-97860000D01*
X124630476Y-97907619D01*
X124582857Y-98002857D01*
X124582857Y-98145714D01*
X124630476Y-98240952D01*
X124678095Y-98288571D01*
X124773333Y-98336190D01*
X125154285Y-98336190D01*
X123630476Y-98812380D02*
X124201904Y-98812380D01*
X123916190Y-98812380D02*
X123916190Y-97812380D01*
X124011428Y-97955238D01*
X124106666Y-98050476D01*
X124201904Y-98098095D01*
X123059047Y-98240952D02*
X123154285Y-98193333D01*
X123201904Y-98145714D01*
X123249523Y-98050476D01*
X123249523Y-98002857D01*
X123201904Y-97907619D01*
X123154285Y-97860000D01*
X123059047Y-97812380D01*
X122868571Y-97812380D01*
X122773333Y-97860000D01*
X122725714Y-97907619D01*
X122678095Y-98002857D01*
X122678095Y-98050476D01*
X122725714Y-98145714D01*
X122773333Y-98193333D01*
X122868571Y-98240952D01*
X123059047Y-98240952D01*
X123154285Y-98288571D01*
X123201904Y-98336190D01*
X123249523Y-98431428D01*
X123249523Y-98621904D01*
X123201904Y-98717142D01*
X123154285Y-98764761D01*
X123059047Y-98812380D01*
X122868571Y-98812380D01*
X122773333Y-98764761D01*
X122725714Y-98717142D01*
X122678095Y-98621904D01*
X122678095Y-98431428D01*
X122725714Y-98336190D01*
X122773333Y-98288571D01*
X122868571Y-98240952D01*
G04 #@! TO.C,R17*
X124562857Y-100092380D02*
X124896190Y-99616190D01*
X125134285Y-100092380D02*
X125134285Y-99092380D01*
X124753333Y-99092380D01*
X124658095Y-99140000D01*
X124610476Y-99187619D01*
X124562857Y-99282857D01*
X124562857Y-99425714D01*
X124610476Y-99520952D01*
X124658095Y-99568571D01*
X124753333Y-99616190D01*
X125134285Y-99616190D01*
X123610476Y-100092380D02*
X124181904Y-100092380D01*
X123896190Y-100092380D02*
X123896190Y-99092380D01*
X123991428Y-99235238D01*
X124086666Y-99330476D01*
X124181904Y-99378095D01*
X123277142Y-99092380D02*
X122610476Y-99092380D01*
X123039047Y-100092380D01*
G04 #@! TO.C,R16*
X124572857Y-101352380D02*
X124906190Y-100876190D01*
X125144285Y-101352380D02*
X125144285Y-100352380D01*
X124763333Y-100352380D01*
X124668095Y-100400000D01*
X124620476Y-100447619D01*
X124572857Y-100542857D01*
X124572857Y-100685714D01*
X124620476Y-100780952D01*
X124668095Y-100828571D01*
X124763333Y-100876190D01*
X125144285Y-100876190D01*
X123620476Y-101352380D02*
X124191904Y-101352380D01*
X123906190Y-101352380D02*
X123906190Y-100352380D01*
X124001428Y-100495238D01*
X124096666Y-100590476D01*
X124191904Y-100638095D01*
X122763333Y-100352380D02*
X122953809Y-100352380D01*
X123049047Y-100400000D01*
X123096666Y-100447619D01*
X123191904Y-100590476D01*
X123239523Y-100780952D01*
X123239523Y-101161904D01*
X123191904Y-101257142D01*
X123144285Y-101304761D01*
X123049047Y-101352380D01*
X122858571Y-101352380D01*
X122763333Y-101304761D01*
X122715714Y-101257142D01*
X122668095Y-101161904D01*
X122668095Y-100923809D01*
X122715714Y-100828571D01*
X122763333Y-100780952D01*
X122858571Y-100733333D01*
X123049047Y-100733333D01*
X123144285Y-100780952D01*
X123191904Y-100828571D01*
X123239523Y-100923809D01*
G04 #@! TO.C,R15*
X121672857Y-108102380D02*
X122006190Y-107626190D01*
X122244285Y-108102380D02*
X122244285Y-107102380D01*
X121863333Y-107102380D01*
X121768095Y-107150000D01*
X121720476Y-107197619D01*
X121672857Y-107292857D01*
X121672857Y-107435714D01*
X121720476Y-107530952D01*
X121768095Y-107578571D01*
X121863333Y-107626190D01*
X122244285Y-107626190D01*
X120720476Y-108102380D02*
X121291904Y-108102380D01*
X121006190Y-108102380D02*
X121006190Y-107102380D01*
X121101428Y-107245238D01*
X121196666Y-107340476D01*
X121291904Y-107388095D01*
X119815714Y-107102380D02*
X120291904Y-107102380D01*
X120339523Y-107578571D01*
X120291904Y-107530952D01*
X120196666Y-107483333D01*
X119958571Y-107483333D01*
X119863333Y-107530952D01*
X119815714Y-107578571D01*
X119768095Y-107673809D01*
X119768095Y-107911904D01*
X119815714Y-108007142D01*
X119863333Y-108054761D01*
X119958571Y-108102380D01*
X120196666Y-108102380D01*
X120291904Y-108054761D01*
X120339523Y-108007142D01*
G04 #@! TO.C,R14*
X121692857Y-109572380D02*
X122026190Y-109096190D01*
X122264285Y-109572380D02*
X122264285Y-108572380D01*
X121883333Y-108572380D01*
X121788095Y-108620000D01*
X121740476Y-108667619D01*
X121692857Y-108762857D01*
X121692857Y-108905714D01*
X121740476Y-109000952D01*
X121788095Y-109048571D01*
X121883333Y-109096190D01*
X122264285Y-109096190D01*
X120740476Y-109572380D02*
X121311904Y-109572380D01*
X121026190Y-109572380D02*
X121026190Y-108572380D01*
X121121428Y-108715238D01*
X121216666Y-108810476D01*
X121311904Y-108858095D01*
X119883333Y-108905714D02*
X119883333Y-109572380D01*
X120121428Y-108524761D02*
X120359523Y-109239047D01*
X119740476Y-109239047D01*
G04 #@! TO.C,R13*
X121692857Y-110992380D02*
X122026190Y-110516190D01*
X122264285Y-110992380D02*
X122264285Y-109992380D01*
X121883333Y-109992380D01*
X121788095Y-110040000D01*
X121740476Y-110087619D01*
X121692857Y-110182857D01*
X121692857Y-110325714D01*
X121740476Y-110420952D01*
X121788095Y-110468571D01*
X121883333Y-110516190D01*
X122264285Y-110516190D01*
X120740476Y-110992380D02*
X121311904Y-110992380D01*
X121026190Y-110992380D02*
X121026190Y-109992380D01*
X121121428Y-110135238D01*
X121216666Y-110230476D01*
X121311904Y-110278095D01*
X120407142Y-109992380D02*
X119788095Y-109992380D01*
X120121428Y-110373333D01*
X119978571Y-110373333D01*
X119883333Y-110420952D01*
X119835714Y-110468571D01*
X119788095Y-110563809D01*
X119788095Y-110801904D01*
X119835714Y-110897142D01*
X119883333Y-110944761D01*
X119978571Y-110992380D01*
X120264285Y-110992380D01*
X120359523Y-110944761D01*
X120407142Y-110897142D01*
G04 #@! TO.C,R12*
X124812857Y-73512380D02*
X125146190Y-73036190D01*
X125384285Y-73512380D02*
X125384285Y-72512380D01*
X125003333Y-72512380D01*
X124908095Y-72560000D01*
X124860476Y-72607619D01*
X124812857Y-72702857D01*
X124812857Y-72845714D01*
X124860476Y-72940952D01*
X124908095Y-72988571D01*
X125003333Y-73036190D01*
X125384285Y-73036190D01*
X123860476Y-73512380D02*
X124431904Y-73512380D01*
X124146190Y-73512380D02*
X124146190Y-72512380D01*
X124241428Y-72655238D01*
X124336666Y-72750476D01*
X124431904Y-72798095D01*
X123479523Y-72607619D02*
X123431904Y-72560000D01*
X123336666Y-72512380D01*
X123098571Y-72512380D01*
X123003333Y-72560000D01*
X122955714Y-72607619D01*
X122908095Y-72702857D01*
X122908095Y-72798095D01*
X122955714Y-72940952D01*
X123527142Y-73512380D01*
X122908095Y-73512380D01*
G04 #@! TO.C,R11*
X129152857Y-72582380D02*
X129486190Y-72106190D01*
X129724285Y-72582380D02*
X129724285Y-71582380D01*
X129343333Y-71582380D01*
X129248095Y-71630000D01*
X129200476Y-71677619D01*
X129152857Y-71772857D01*
X129152857Y-71915714D01*
X129200476Y-72010952D01*
X129248095Y-72058571D01*
X129343333Y-72106190D01*
X129724285Y-72106190D01*
X128200476Y-72582380D02*
X128771904Y-72582380D01*
X128486190Y-72582380D02*
X128486190Y-71582380D01*
X128581428Y-71725238D01*
X128676666Y-71820476D01*
X128771904Y-71868095D01*
X127248095Y-72582380D02*
X127819523Y-72582380D01*
X127533809Y-72582380D02*
X127533809Y-71582380D01*
X127629047Y-71725238D01*
X127724285Y-71820476D01*
X127819523Y-71868095D01*
G04 #@! TO.C,R10*
X124112380Y-74507142D02*
X123636190Y-74173809D01*
X124112380Y-73935714D02*
X123112380Y-73935714D01*
X123112380Y-74316666D01*
X123160000Y-74411904D01*
X123207619Y-74459523D01*
X123302857Y-74507142D01*
X123445714Y-74507142D01*
X123540952Y-74459523D01*
X123588571Y-74411904D01*
X123636190Y-74316666D01*
X123636190Y-73935714D01*
X124112380Y-75459523D02*
X124112380Y-74888095D01*
X124112380Y-75173809D02*
X123112380Y-75173809D01*
X123255238Y-75078571D01*
X123350476Y-74983333D01*
X123398095Y-74888095D01*
X123112380Y-76078571D02*
X123112380Y-76173809D01*
X123160000Y-76269047D01*
X123207619Y-76316666D01*
X123302857Y-76364285D01*
X123493333Y-76411904D01*
X123731428Y-76411904D01*
X123921904Y-76364285D01*
X124017142Y-76316666D01*
X124064761Y-76269047D01*
X124112380Y-76173809D01*
X124112380Y-76078571D01*
X124064761Y-75983333D01*
X124017142Y-75935714D01*
X123921904Y-75888095D01*
X123731428Y-75840476D01*
X123493333Y-75840476D01*
X123302857Y-75888095D01*
X123207619Y-75935714D01*
X123160000Y-75983333D01*
X123112380Y-76078571D01*
G04 #@! TO.C,R9*
X125837619Y-77866666D02*
X126313809Y-78200000D01*
X125837619Y-78438095D02*
X126837619Y-78438095D01*
X126837619Y-78057142D01*
X126790000Y-77961904D01*
X126742380Y-77914285D01*
X126647142Y-77866666D01*
X126504285Y-77866666D01*
X126409047Y-77914285D01*
X126361428Y-77961904D01*
X126313809Y-78057142D01*
X126313809Y-78438095D01*
X125837619Y-77390476D02*
X125837619Y-77200000D01*
X125885238Y-77104761D01*
X125932857Y-77057142D01*
X126075714Y-76961904D01*
X126266190Y-76914285D01*
X126647142Y-76914285D01*
X126742380Y-76961904D01*
X126790000Y-77009523D01*
X126837619Y-77104761D01*
X126837619Y-77295238D01*
X126790000Y-77390476D01*
X126742380Y-77438095D01*
X126647142Y-77485714D01*
X126409047Y-77485714D01*
X126313809Y-77438095D01*
X126266190Y-77390476D01*
X126218571Y-77295238D01*
X126218571Y-77104761D01*
X126266190Y-77009523D01*
X126313809Y-76961904D01*
X126409047Y-76914285D01*
G04 #@! TO.C,R8*
X134016666Y-110842380D02*
X134350000Y-110366190D01*
X134588095Y-110842380D02*
X134588095Y-109842380D01*
X134207142Y-109842380D01*
X134111904Y-109890000D01*
X134064285Y-109937619D01*
X134016666Y-110032857D01*
X134016666Y-110175714D01*
X134064285Y-110270952D01*
X134111904Y-110318571D01*
X134207142Y-110366190D01*
X134588095Y-110366190D01*
X133445238Y-110270952D02*
X133540476Y-110223333D01*
X133588095Y-110175714D01*
X133635714Y-110080476D01*
X133635714Y-110032857D01*
X133588095Y-109937619D01*
X133540476Y-109890000D01*
X133445238Y-109842380D01*
X133254761Y-109842380D01*
X133159523Y-109890000D01*
X133111904Y-109937619D01*
X133064285Y-110032857D01*
X133064285Y-110080476D01*
X133111904Y-110175714D01*
X133159523Y-110223333D01*
X133254761Y-110270952D01*
X133445238Y-110270952D01*
X133540476Y-110318571D01*
X133588095Y-110366190D01*
X133635714Y-110461428D01*
X133635714Y-110651904D01*
X133588095Y-110747142D01*
X133540476Y-110794761D01*
X133445238Y-110842380D01*
X133254761Y-110842380D01*
X133159523Y-110794761D01*
X133111904Y-110747142D01*
X133064285Y-110651904D01*
X133064285Y-110461428D01*
X133111904Y-110366190D01*
X133159523Y-110318571D01*
X133254761Y-110270952D01*
G04 #@! TO.C,R7*
X136206666Y-110902380D02*
X136540000Y-110426190D01*
X136778095Y-110902380D02*
X136778095Y-109902380D01*
X136397142Y-109902380D01*
X136301904Y-109950000D01*
X136254285Y-109997619D01*
X136206666Y-110092857D01*
X136206666Y-110235714D01*
X136254285Y-110330952D01*
X136301904Y-110378571D01*
X136397142Y-110426190D01*
X136778095Y-110426190D01*
X135873333Y-109902380D02*
X135206666Y-109902380D01*
X135635238Y-110902380D01*
G04 #@! TO.C,R5*
X117938380Y-120829333D02*
X117462190Y-120496000D01*
X117938380Y-120257904D02*
X116938380Y-120257904D01*
X116938380Y-120638857D01*
X116986000Y-120734095D01*
X117033619Y-120781714D01*
X117128857Y-120829333D01*
X117271714Y-120829333D01*
X117366952Y-120781714D01*
X117414571Y-120734095D01*
X117462190Y-120638857D01*
X117462190Y-120257904D01*
X116938380Y-121734095D02*
X116938380Y-121257904D01*
X117414571Y-121210285D01*
X117366952Y-121257904D01*
X117319333Y-121353142D01*
X117319333Y-121591238D01*
X117366952Y-121686476D01*
X117414571Y-121734095D01*
X117509809Y-121781714D01*
X117747904Y-121781714D01*
X117843142Y-121734095D01*
X117890761Y-121686476D01*
X117938380Y-121591238D01*
X117938380Y-121353142D01*
X117890761Y-121257904D01*
X117843142Y-121210285D01*
G04 #@! TO.C,R4*
X115816666Y-122582380D02*
X116150000Y-122106190D01*
X116388095Y-122582380D02*
X116388095Y-121582380D01*
X116007142Y-121582380D01*
X115911904Y-121630000D01*
X115864285Y-121677619D01*
X115816666Y-121772857D01*
X115816666Y-121915714D01*
X115864285Y-122010952D01*
X115911904Y-122058571D01*
X116007142Y-122106190D01*
X116388095Y-122106190D01*
X114959523Y-121915714D02*
X114959523Y-122582380D01*
X115197619Y-121534761D02*
X115435714Y-122249047D01*
X114816666Y-122249047D01*
G04 #@! TO.C,R3*
X110152380Y-132103333D02*
X109676190Y-131770000D01*
X110152380Y-131531904D02*
X109152380Y-131531904D01*
X109152380Y-131912857D01*
X109200000Y-132008095D01*
X109247619Y-132055714D01*
X109342857Y-132103333D01*
X109485714Y-132103333D01*
X109580952Y-132055714D01*
X109628571Y-132008095D01*
X109676190Y-131912857D01*
X109676190Y-131531904D01*
X109152380Y-132436666D02*
X109152380Y-133055714D01*
X109533333Y-132722380D01*
X109533333Y-132865238D01*
X109580952Y-132960476D01*
X109628571Y-133008095D01*
X109723809Y-133055714D01*
X109961904Y-133055714D01*
X110057142Y-133008095D01*
X110104761Y-132960476D01*
X110152380Y-132865238D01*
X110152380Y-132579523D01*
X110104761Y-132484285D01*
X110057142Y-132436666D01*
G04 #@! TO.C,R2*
X110232380Y-138663333D02*
X109756190Y-138330000D01*
X110232380Y-138091904D02*
X109232380Y-138091904D01*
X109232380Y-138472857D01*
X109280000Y-138568095D01*
X109327619Y-138615714D01*
X109422857Y-138663333D01*
X109565714Y-138663333D01*
X109660952Y-138615714D01*
X109708571Y-138568095D01*
X109756190Y-138472857D01*
X109756190Y-138091904D01*
X109327619Y-139044285D02*
X109280000Y-139091904D01*
X109232380Y-139187142D01*
X109232380Y-139425238D01*
X109280000Y-139520476D01*
X109327619Y-139568095D01*
X109422857Y-139615714D01*
X109518095Y-139615714D01*
X109660952Y-139568095D01*
X110232380Y-138996666D01*
X110232380Y-139615714D01*
G04 #@! TO.C,R1*
X103396666Y-139622380D02*
X103730000Y-139146190D01*
X103968095Y-139622380D02*
X103968095Y-138622380D01*
X103587142Y-138622380D01*
X103491904Y-138670000D01*
X103444285Y-138717619D01*
X103396666Y-138812857D01*
X103396666Y-138955714D01*
X103444285Y-139050952D01*
X103491904Y-139098571D01*
X103587142Y-139146190D01*
X103968095Y-139146190D01*
X102444285Y-139622380D02*
X103015714Y-139622380D01*
X102730000Y-139622380D02*
X102730000Y-138622380D01*
X102825238Y-138765238D01*
X102920476Y-138860476D01*
X103015714Y-138908095D01*
G04 #@! TO.C,Q8*
X131697619Y-81274761D02*
X131650000Y-81179523D01*
X131554761Y-81084285D01*
X131411904Y-80941428D01*
X131364285Y-80846190D01*
X131364285Y-80750952D01*
X131602380Y-80798571D02*
X131554761Y-80703333D01*
X131459523Y-80608095D01*
X131269047Y-80560476D01*
X130935714Y-80560476D01*
X130745238Y-80608095D01*
X130650000Y-80703333D01*
X130602380Y-80798571D01*
X130602380Y-80989047D01*
X130650000Y-81084285D01*
X130745238Y-81179523D01*
X130935714Y-81227142D01*
X131269047Y-81227142D01*
X131459523Y-81179523D01*
X131554761Y-81084285D01*
X131602380Y-80989047D01*
X131602380Y-80798571D01*
X131030952Y-81798571D02*
X130983333Y-81703333D01*
X130935714Y-81655714D01*
X130840476Y-81608095D01*
X130792857Y-81608095D01*
X130697619Y-81655714D01*
X130650000Y-81703333D01*
X130602380Y-81798571D01*
X130602380Y-81989047D01*
X130650000Y-82084285D01*
X130697619Y-82131904D01*
X130792857Y-82179523D01*
X130840476Y-82179523D01*
X130935714Y-82131904D01*
X130983333Y-82084285D01*
X131030952Y-81989047D01*
X131030952Y-81798571D01*
X131078571Y-81703333D01*
X131126190Y-81655714D01*
X131221428Y-81608095D01*
X131411904Y-81608095D01*
X131507142Y-81655714D01*
X131554761Y-81703333D01*
X131602380Y-81798571D01*
X131602380Y-81989047D01*
X131554761Y-82084285D01*
X131507142Y-82131904D01*
X131411904Y-82179523D01*
X131221428Y-82179523D01*
X131126190Y-82131904D01*
X131078571Y-82084285D01*
X131030952Y-81989047D01*
G04 #@! TO.C,Q7*
X112485238Y-113007619D02*
X112580476Y-112960000D01*
X112675714Y-112864761D01*
X112818571Y-112721904D01*
X112913809Y-112674285D01*
X113009047Y-112674285D01*
X112961428Y-112912380D02*
X113056666Y-112864761D01*
X113151904Y-112769523D01*
X113199523Y-112579047D01*
X113199523Y-112245714D01*
X113151904Y-112055238D01*
X113056666Y-111960000D01*
X112961428Y-111912380D01*
X112770952Y-111912380D01*
X112675714Y-111960000D01*
X112580476Y-112055238D01*
X112532857Y-112245714D01*
X112532857Y-112579047D01*
X112580476Y-112769523D01*
X112675714Y-112864761D01*
X112770952Y-112912380D01*
X112961428Y-112912380D01*
X112199523Y-111912380D02*
X111532857Y-111912380D01*
X111961428Y-112912380D01*
G04 #@! TO.C,Q6*
X114985238Y-113047619D02*
X115080476Y-113000000D01*
X115175714Y-112904761D01*
X115318571Y-112761904D01*
X115413809Y-112714285D01*
X115509047Y-112714285D01*
X115461428Y-112952380D02*
X115556666Y-112904761D01*
X115651904Y-112809523D01*
X115699523Y-112619047D01*
X115699523Y-112285714D01*
X115651904Y-112095238D01*
X115556666Y-112000000D01*
X115461428Y-111952380D01*
X115270952Y-111952380D01*
X115175714Y-112000000D01*
X115080476Y-112095238D01*
X115032857Y-112285714D01*
X115032857Y-112619047D01*
X115080476Y-112809523D01*
X115175714Y-112904761D01*
X115270952Y-112952380D01*
X115461428Y-112952380D01*
X114175714Y-111952380D02*
X114366190Y-111952380D01*
X114461428Y-112000000D01*
X114509047Y-112047619D01*
X114604285Y-112190476D01*
X114651904Y-112380952D01*
X114651904Y-112761904D01*
X114604285Y-112857142D01*
X114556666Y-112904761D01*
X114461428Y-112952380D01*
X114270952Y-112952380D01*
X114175714Y-112904761D01*
X114128095Y-112857142D01*
X114080476Y-112761904D01*
X114080476Y-112523809D01*
X114128095Y-112428571D01*
X114175714Y-112380952D01*
X114270952Y-112333333D01*
X114461428Y-112333333D01*
X114556666Y-112380952D01*
X114604285Y-112428571D01*
X114651904Y-112523809D01*
G04 #@! TO.C,Q5*
X124497619Y-107564761D02*
X124450000Y-107469523D01*
X124354761Y-107374285D01*
X124211904Y-107231428D01*
X124164285Y-107136190D01*
X124164285Y-107040952D01*
X124402380Y-107088571D02*
X124354761Y-106993333D01*
X124259523Y-106898095D01*
X124069047Y-106850476D01*
X123735714Y-106850476D01*
X123545238Y-106898095D01*
X123450000Y-106993333D01*
X123402380Y-107088571D01*
X123402380Y-107279047D01*
X123450000Y-107374285D01*
X123545238Y-107469523D01*
X123735714Y-107517142D01*
X124069047Y-107517142D01*
X124259523Y-107469523D01*
X124354761Y-107374285D01*
X124402380Y-107279047D01*
X124402380Y-107088571D01*
X123402380Y-108421904D02*
X123402380Y-107945714D01*
X123878571Y-107898095D01*
X123830952Y-107945714D01*
X123783333Y-108040952D01*
X123783333Y-108279047D01*
X123830952Y-108374285D01*
X123878571Y-108421904D01*
X123973809Y-108469523D01*
X124211904Y-108469523D01*
X124307142Y-108421904D01*
X124354761Y-108374285D01*
X124402380Y-108279047D01*
X124402380Y-108040952D01*
X124354761Y-107945714D01*
X124307142Y-107898095D01*
G04 #@! TO.C,Q4*
X129352380Y-76065238D02*
X129400000Y-76160476D01*
X129495238Y-76255714D01*
X129638095Y-76398571D01*
X129685714Y-76493809D01*
X129685714Y-76589047D01*
X129447619Y-76541428D02*
X129495238Y-76636666D01*
X129590476Y-76731904D01*
X129780952Y-76779523D01*
X130114285Y-76779523D01*
X130304761Y-76731904D01*
X130400000Y-76636666D01*
X130447619Y-76541428D01*
X130447619Y-76350952D01*
X130400000Y-76255714D01*
X130304761Y-76160476D01*
X130114285Y-76112857D01*
X129780952Y-76112857D01*
X129590476Y-76160476D01*
X129495238Y-76255714D01*
X129447619Y-76350952D01*
X129447619Y-76541428D01*
X130114285Y-75255714D02*
X129447619Y-75255714D01*
X130495238Y-75493809D02*
X129780952Y-75731904D01*
X129780952Y-75112857D01*
G04 #@! TO.C,Q3*
X138227619Y-114374761D02*
X138180000Y-114279523D01*
X138084761Y-114184285D01*
X137941904Y-114041428D01*
X137894285Y-113946190D01*
X137894285Y-113850952D01*
X138132380Y-113898571D02*
X138084761Y-113803333D01*
X137989523Y-113708095D01*
X137799047Y-113660476D01*
X137465714Y-113660476D01*
X137275238Y-113708095D01*
X137180000Y-113803333D01*
X137132380Y-113898571D01*
X137132380Y-114089047D01*
X137180000Y-114184285D01*
X137275238Y-114279523D01*
X137465714Y-114327142D01*
X137799047Y-114327142D01*
X137989523Y-114279523D01*
X138084761Y-114184285D01*
X138132380Y-114089047D01*
X138132380Y-113898571D01*
X137132380Y-114660476D02*
X137132380Y-115279523D01*
X137513333Y-114946190D01*
X137513333Y-115089047D01*
X137560952Y-115184285D01*
X137608571Y-115231904D01*
X137703809Y-115279523D01*
X137941904Y-115279523D01*
X138037142Y-115231904D01*
X138084761Y-115184285D01*
X138132380Y-115089047D01*
X138132380Y-114803333D01*
X138084761Y-114708095D01*
X138037142Y-114660476D01*
G04 #@! TO.C,Q1*
X114492380Y-131605238D02*
X114540000Y-131700476D01*
X114635238Y-131795714D01*
X114778095Y-131938571D01*
X114825714Y-132033809D01*
X114825714Y-132129047D01*
X114587619Y-132081428D02*
X114635238Y-132176666D01*
X114730476Y-132271904D01*
X114920952Y-132319523D01*
X115254285Y-132319523D01*
X115444761Y-132271904D01*
X115540000Y-132176666D01*
X115587619Y-132081428D01*
X115587619Y-131890952D01*
X115540000Y-131795714D01*
X115444761Y-131700476D01*
X115254285Y-131652857D01*
X114920952Y-131652857D01*
X114730476Y-131700476D01*
X114635238Y-131795714D01*
X114587619Y-131890952D01*
X114587619Y-132081428D01*
X114587619Y-130700476D02*
X114587619Y-131271904D01*
X114587619Y-130986190D02*
X115587619Y-130986190D01*
X115444761Y-131081428D01*
X115349523Y-131176666D01*
X115301904Y-131271904D01*
G04 #@! TO.C,L1*
X123682380Y-114913333D02*
X123682380Y-114437142D01*
X122682380Y-114437142D01*
X123682380Y-115770476D02*
X123682380Y-115199047D01*
X123682380Y-115484761D02*
X122682380Y-115484761D01*
X122825238Y-115389523D01*
X122920476Y-115294285D01*
X122968095Y-115199047D01*
G04 #@! TO.C,JP1*
X104533333Y-117462380D02*
X104533333Y-118176666D01*
X104580952Y-118319523D01*
X104676190Y-118414761D01*
X104819047Y-118462380D01*
X104914285Y-118462380D01*
X104057142Y-118462380D02*
X104057142Y-117462380D01*
X103676190Y-117462380D01*
X103580952Y-117510000D01*
X103533333Y-117557619D01*
X103485714Y-117652857D01*
X103485714Y-117795714D01*
X103533333Y-117890952D01*
X103580952Y-117938571D01*
X103676190Y-117986190D01*
X104057142Y-117986190D01*
X102533333Y-118462380D02*
X103104761Y-118462380D01*
X102819047Y-118462380D02*
X102819047Y-117462380D01*
X102914285Y-117605238D01*
X103009523Y-117700476D01*
X103104761Y-117748095D01*
G04 #@! TO.C,J1*
D15*
X107924523Y-121156666D02*
X108831666Y-121156666D01*
X109013095Y-121096190D01*
X109134047Y-120975238D01*
X109194523Y-120793809D01*
X109194523Y-120672857D01*
X109194523Y-122426666D02*
X109194523Y-121700952D01*
X109194523Y-122063809D02*
X107924523Y-122063809D01*
X108105952Y-121942857D01*
X108226904Y-121821904D01*
X108287380Y-121700952D01*
G04 #@! TO.C,D4*
D14*
X113641095Y-127325380D02*
X113641095Y-126325380D01*
X113403000Y-126325380D01*
X113260142Y-126373000D01*
X113164904Y-126468238D01*
X113117285Y-126563476D01*
X113069666Y-126753952D01*
X113069666Y-126896809D01*
X113117285Y-127087285D01*
X113164904Y-127182523D01*
X113260142Y-127277761D01*
X113403000Y-127325380D01*
X113641095Y-127325380D01*
X112212523Y-126658714D02*
X112212523Y-127325380D01*
X112450619Y-126277761D02*
X112688714Y-126992047D01*
X112069666Y-126992047D01*
G04 #@! TO.C,D3*
X126728095Y-110962380D02*
X126728095Y-109962380D01*
X126490000Y-109962380D01*
X126347142Y-110010000D01*
X126251904Y-110105238D01*
X126204285Y-110200476D01*
X126156666Y-110390952D01*
X126156666Y-110533809D01*
X126204285Y-110724285D01*
X126251904Y-110819523D01*
X126347142Y-110914761D01*
X126490000Y-110962380D01*
X126728095Y-110962380D01*
X125823333Y-109962380D02*
X125204285Y-109962380D01*
X125537619Y-110343333D01*
X125394761Y-110343333D01*
X125299523Y-110390952D01*
X125251904Y-110438571D01*
X125204285Y-110533809D01*
X125204285Y-110771904D01*
X125251904Y-110867142D01*
X125299523Y-110914761D01*
X125394761Y-110962380D01*
X125680476Y-110962380D01*
X125775714Y-110914761D01*
X125823333Y-110867142D01*
G04 #@! TO.C,D1*
X131918095Y-111032380D02*
X131918095Y-110032380D01*
X131680000Y-110032380D01*
X131537142Y-110080000D01*
X131441904Y-110175238D01*
X131394285Y-110270476D01*
X131346666Y-110460952D01*
X131346666Y-110603809D01*
X131394285Y-110794285D01*
X131441904Y-110889523D01*
X131537142Y-110984761D01*
X131680000Y-111032380D01*
X131918095Y-111032380D01*
X130394285Y-111032380D02*
X130965714Y-111032380D01*
X130680000Y-111032380D02*
X130680000Y-110032380D01*
X130775238Y-110175238D01*
X130870476Y-110270476D01*
X130965714Y-110318095D01*
G04 #@! TO.C,C22*
X130397142Y-78067142D02*
X130444761Y-78019523D01*
X130492380Y-77876666D01*
X130492380Y-77781428D01*
X130444761Y-77638571D01*
X130349523Y-77543333D01*
X130254285Y-77495714D01*
X130063809Y-77448095D01*
X129920952Y-77448095D01*
X129730476Y-77495714D01*
X129635238Y-77543333D01*
X129540000Y-77638571D01*
X129492380Y-77781428D01*
X129492380Y-77876666D01*
X129540000Y-78019523D01*
X129587619Y-78067142D01*
X129587619Y-78448095D02*
X129540000Y-78495714D01*
X129492380Y-78590952D01*
X129492380Y-78829047D01*
X129540000Y-78924285D01*
X129587619Y-78971904D01*
X129682857Y-79019523D01*
X129778095Y-79019523D01*
X129920952Y-78971904D01*
X130492380Y-78400476D01*
X130492380Y-79019523D01*
X129587619Y-79400476D02*
X129540000Y-79448095D01*
X129492380Y-79543333D01*
X129492380Y-79781428D01*
X129540000Y-79876666D01*
X129587619Y-79924285D01*
X129682857Y-79971904D01*
X129778095Y-79971904D01*
X129920952Y-79924285D01*
X130492380Y-79352857D01*
X130492380Y-79971904D01*
G04 #@! TO.C,C21*
X132822857Y-76027142D02*
X132870476Y-76074761D01*
X133013333Y-76122380D01*
X133108571Y-76122380D01*
X133251428Y-76074761D01*
X133346666Y-75979523D01*
X133394285Y-75884285D01*
X133441904Y-75693809D01*
X133441904Y-75550952D01*
X133394285Y-75360476D01*
X133346666Y-75265238D01*
X133251428Y-75170000D01*
X133108571Y-75122380D01*
X133013333Y-75122380D01*
X132870476Y-75170000D01*
X132822857Y-75217619D01*
X132441904Y-75217619D02*
X132394285Y-75170000D01*
X132299047Y-75122380D01*
X132060952Y-75122380D01*
X131965714Y-75170000D01*
X131918095Y-75217619D01*
X131870476Y-75312857D01*
X131870476Y-75408095D01*
X131918095Y-75550952D01*
X132489523Y-76122380D01*
X131870476Y-76122380D01*
X130918095Y-76122380D02*
X131489523Y-76122380D01*
X131203809Y-76122380D02*
X131203809Y-75122380D01*
X131299047Y-75265238D01*
X131394285Y-75360476D01*
X131489523Y-75408095D01*
G04 #@! TO.C,C20*
X124317142Y-68467142D02*
X124364761Y-68419523D01*
X124412380Y-68276666D01*
X124412380Y-68181428D01*
X124364761Y-68038571D01*
X124269523Y-67943333D01*
X124174285Y-67895714D01*
X123983809Y-67848095D01*
X123840952Y-67848095D01*
X123650476Y-67895714D01*
X123555238Y-67943333D01*
X123460000Y-68038571D01*
X123412380Y-68181428D01*
X123412380Y-68276666D01*
X123460000Y-68419523D01*
X123507619Y-68467142D01*
X123507619Y-68848095D02*
X123460000Y-68895714D01*
X123412380Y-68990952D01*
X123412380Y-69229047D01*
X123460000Y-69324285D01*
X123507619Y-69371904D01*
X123602857Y-69419523D01*
X123698095Y-69419523D01*
X123840952Y-69371904D01*
X124412380Y-68800476D01*
X124412380Y-69419523D01*
X123412380Y-70038571D02*
X123412380Y-70133809D01*
X123460000Y-70229047D01*
X123507619Y-70276666D01*
X123602857Y-70324285D01*
X123793333Y-70371904D01*
X124031428Y-70371904D01*
X124221904Y-70324285D01*
X124317142Y-70276666D01*
X124364761Y-70229047D01*
X124412380Y-70133809D01*
X124412380Y-70038571D01*
X124364761Y-69943333D01*
X124317142Y-69895714D01*
X124221904Y-69848095D01*
X124031428Y-69800476D01*
X123793333Y-69800476D01*
X123602857Y-69848095D01*
X123507619Y-69895714D01*
X123460000Y-69943333D01*
X123412380Y-70038571D01*
G04 #@! TO.C,C19*
X125777142Y-68487142D02*
X125824761Y-68439523D01*
X125872380Y-68296666D01*
X125872380Y-68201428D01*
X125824761Y-68058571D01*
X125729523Y-67963333D01*
X125634285Y-67915714D01*
X125443809Y-67868095D01*
X125300952Y-67868095D01*
X125110476Y-67915714D01*
X125015238Y-67963333D01*
X124920000Y-68058571D01*
X124872380Y-68201428D01*
X124872380Y-68296666D01*
X124920000Y-68439523D01*
X124967619Y-68487142D01*
X125872380Y-69439523D02*
X125872380Y-68868095D01*
X125872380Y-69153809D02*
X124872380Y-69153809D01*
X125015238Y-69058571D01*
X125110476Y-68963333D01*
X125158095Y-68868095D01*
X125872380Y-69915714D02*
X125872380Y-70106190D01*
X125824761Y-70201428D01*
X125777142Y-70249047D01*
X125634285Y-70344285D01*
X125443809Y-70391904D01*
X125062857Y-70391904D01*
X124967619Y-70344285D01*
X124920000Y-70296666D01*
X124872380Y-70201428D01*
X124872380Y-70010952D01*
X124920000Y-69915714D01*
X124967619Y-69868095D01*
X125062857Y-69820476D01*
X125300952Y-69820476D01*
X125396190Y-69868095D01*
X125443809Y-69915714D01*
X125491428Y-70010952D01*
X125491428Y-70201428D01*
X125443809Y-70296666D01*
X125396190Y-70344285D01*
X125300952Y-70391904D01*
G04 #@! TO.C,C18*
X125422857Y-102537142D02*
X125470476Y-102584761D01*
X125613333Y-102632380D01*
X125708571Y-102632380D01*
X125851428Y-102584761D01*
X125946666Y-102489523D01*
X125994285Y-102394285D01*
X126041904Y-102203809D01*
X126041904Y-102060952D01*
X125994285Y-101870476D01*
X125946666Y-101775238D01*
X125851428Y-101680000D01*
X125708571Y-101632380D01*
X125613333Y-101632380D01*
X125470476Y-101680000D01*
X125422857Y-101727619D01*
X124470476Y-102632380D02*
X125041904Y-102632380D01*
X124756190Y-102632380D02*
X124756190Y-101632380D01*
X124851428Y-101775238D01*
X124946666Y-101870476D01*
X125041904Y-101918095D01*
X123899047Y-102060952D02*
X123994285Y-102013333D01*
X124041904Y-101965714D01*
X124089523Y-101870476D01*
X124089523Y-101822857D01*
X124041904Y-101727619D01*
X123994285Y-101680000D01*
X123899047Y-101632380D01*
X123708571Y-101632380D01*
X123613333Y-101680000D01*
X123565714Y-101727619D01*
X123518095Y-101822857D01*
X123518095Y-101870476D01*
X123565714Y-101965714D01*
X123613333Y-102013333D01*
X123708571Y-102060952D01*
X123899047Y-102060952D01*
X123994285Y-102108571D01*
X124041904Y-102156190D01*
X124089523Y-102251428D01*
X124089523Y-102441904D01*
X124041904Y-102537142D01*
X123994285Y-102584761D01*
X123899047Y-102632380D01*
X123708571Y-102632380D01*
X123613333Y-102584761D01*
X123565714Y-102537142D01*
X123518095Y-102441904D01*
X123518095Y-102251428D01*
X123565714Y-102156190D01*
X123613333Y-102108571D01*
X123708571Y-102060952D01*
G04 #@! TO.C,C17*
X106392857Y-121127142D02*
X106440476Y-121174761D01*
X106583333Y-121222380D01*
X106678571Y-121222380D01*
X106821428Y-121174761D01*
X106916666Y-121079523D01*
X106964285Y-120984285D01*
X107011904Y-120793809D01*
X107011904Y-120650952D01*
X106964285Y-120460476D01*
X106916666Y-120365238D01*
X106821428Y-120270000D01*
X106678571Y-120222380D01*
X106583333Y-120222380D01*
X106440476Y-120270000D01*
X106392857Y-120317619D01*
X105440476Y-121222380D02*
X106011904Y-121222380D01*
X105726190Y-121222380D02*
X105726190Y-120222380D01*
X105821428Y-120365238D01*
X105916666Y-120460476D01*
X106011904Y-120508095D01*
X105107142Y-120222380D02*
X104440476Y-120222380D01*
X104869047Y-121222380D01*
G04 #@! TO.C,C8*
X139096666Y-139467142D02*
X139144285Y-139514761D01*
X139287142Y-139562380D01*
X139382380Y-139562380D01*
X139525238Y-139514761D01*
X139620476Y-139419523D01*
X139668095Y-139324285D01*
X139715714Y-139133809D01*
X139715714Y-138990952D01*
X139668095Y-138800476D01*
X139620476Y-138705238D01*
X139525238Y-138610000D01*
X139382380Y-138562380D01*
X139287142Y-138562380D01*
X139144285Y-138610000D01*
X139096666Y-138657619D01*
X138525238Y-138990952D02*
X138620476Y-138943333D01*
X138668095Y-138895714D01*
X138715714Y-138800476D01*
X138715714Y-138752857D01*
X138668095Y-138657619D01*
X138620476Y-138610000D01*
X138525238Y-138562380D01*
X138334761Y-138562380D01*
X138239523Y-138610000D01*
X138191904Y-138657619D01*
X138144285Y-138752857D01*
X138144285Y-138800476D01*
X138191904Y-138895714D01*
X138239523Y-138943333D01*
X138334761Y-138990952D01*
X138525238Y-138990952D01*
X138620476Y-139038571D01*
X138668095Y-139086190D01*
X138715714Y-139181428D01*
X138715714Y-139371904D01*
X138668095Y-139467142D01*
X138620476Y-139514761D01*
X138525238Y-139562380D01*
X138334761Y-139562380D01*
X138239523Y-139514761D01*
X138191904Y-139467142D01*
X138144285Y-139371904D01*
X138144285Y-139181428D01*
X138191904Y-139086190D01*
X138239523Y-139038571D01*
X138334761Y-138990952D01*
G04 #@! TO.C,C6*
X116335142Y-136508333D02*
X116382761Y-136460714D01*
X116430380Y-136317857D01*
X116430380Y-136222619D01*
X116382761Y-136079761D01*
X116287523Y-135984523D01*
X116192285Y-135936904D01*
X116001809Y-135889285D01*
X115858952Y-135889285D01*
X115668476Y-135936904D01*
X115573238Y-135984523D01*
X115478000Y-136079761D01*
X115430380Y-136222619D01*
X115430380Y-136317857D01*
X115478000Y-136460714D01*
X115525619Y-136508333D01*
X115430380Y-137365476D02*
X115430380Y-137175000D01*
X115478000Y-137079761D01*
X115525619Y-137032142D01*
X115668476Y-136936904D01*
X115858952Y-136889285D01*
X116239904Y-136889285D01*
X116335142Y-136936904D01*
X116382761Y-136984523D01*
X116430380Y-137079761D01*
X116430380Y-137270238D01*
X116382761Y-137365476D01*
X116335142Y-137413095D01*
X116239904Y-137460714D01*
X116001809Y-137460714D01*
X115906571Y-137413095D01*
X115858952Y-137365476D01*
X115811333Y-137270238D01*
X115811333Y-137079761D01*
X115858952Y-136984523D01*
X115906571Y-136936904D01*
X116001809Y-136889285D01*
G04 #@! TO.C,C5*
X108407142Y-138783333D02*
X108454761Y-138735714D01*
X108502380Y-138592857D01*
X108502380Y-138497619D01*
X108454761Y-138354761D01*
X108359523Y-138259523D01*
X108264285Y-138211904D01*
X108073809Y-138164285D01*
X107930952Y-138164285D01*
X107740476Y-138211904D01*
X107645238Y-138259523D01*
X107550000Y-138354761D01*
X107502380Y-138497619D01*
X107502380Y-138592857D01*
X107550000Y-138735714D01*
X107597619Y-138783333D01*
X107502380Y-139688095D02*
X107502380Y-139211904D01*
X107978571Y-139164285D01*
X107930952Y-139211904D01*
X107883333Y-139307142D01*
X107883333Y-139545238D01*
X107930952Y-139640476D01*
X107978571Y-139688095D01*
X108073809Y-139735714D01*
X108311904Y-139735714D01*
X108407142Y-139688095D01*
X108454761Y-139640476D01*
X108502380Y-139545238D01*
X108502380Y-139307142D01*
X108454761Y-139211904D01*
X108407142Y-139164285D01*
G04 #@! TO.C,C4*
X107516666Y-133377142D02*
X107564285Y-133424761D01*
X107707142Y-133472380D01*
X107802380Y-133472380D01*
X107945238Y-133424761D01*
X108040476Y-133329523D01*
X108088095Y-133234285D01*
X108135714Y-133043809D01*
X108135714Y-132900952D01*
X108088095Y-132710476D01*
X108040476Y-132615238D01*
X107945238Y-132520000D01*
X107802380Y-132472380D01*
X107707142Y-132472380D01*
X107564285Y-132520000D01*
X107516666Y-132567619D01*
X106659523Y-132805714D02*
X106659523Y-133472380D01*
X106897619Y-132424761D02*
X107135714Y-133139047D01*
X106516666Y-133139047D01*
G04 #@! TO.C,BZ1*
X140830571Y-85389047D02*
X140878190Y-85531904D01*
X140925809Y-85579523D01*
X141021047Y-85627142D01*
X141163904Y-85627142D01*
X141259142Y-85579523D01*
X141306761Y-85531904D01*
X141354380Y-85436666D01*
X141354380Y-85055714D01*
X140354380Y-85055714D01*
X140354380Y-85389047D01*
X140402000Y-85484285D01*
X140449619Y-85531904D01*
X140544857Y-85579523D01*
X140640095Y-85579523D01*
X140735333Y-85531904D01*
X140782952Y-85484285D01*
X140830571Y-85389047D01*
X140830571Y-85055714D01*
X140354380Y-85960476D02*
X140354380Y-86627142D01*
X141354380Y-85960476D01*
X141354380Y-86627142D01*
X141354380Y-87531904D02*
X141354380Y-86960476D01*
X141354380Y-87246190D02*
X140354380Y-87246190D01*
X140497238Y-87150952D01*
X140592476Y-87055714D01*
X140640095Y-86960476D01*
G04 #@! TO.C,BATT1*
X144275238Y-136938571D02*
X144132380Y-136986190D01*
X144084761Y-137033809D01*
X144037142Y-137129047D01*
X144037142Y-137271904D01*
X144084761Y-137367142D01*
X144132380Y-137414761D01*
X144227619Y-137462380D01*
X144608571Y-137462380D01*
X144608571Y-136462380D01*
X144275238Y-136462380D01*
X144180000Y-136510000D01*
X144132380Y-136557619D01*
X144084761Y-136652857D01*
X144084761Y-136748095D01*
X144132380Y-136843333D01*
X144180000Y-136890952D01*
X144275238Y-136938571D01*
X144608571Y-136938571D01*
X143656190Y-137176666D02*
X143180000Y-137176666D01*
X143751428Y-137462380D02*
X143418095Y-136462380D01*
X143084761Y-137462380D01*
X142894285Y-136462380D02*
X142322857Y-136462380D01*
X142608571Y-137462380D02*
X142608571Y-136462380D01*
X142132380Y-136462380D02*
X141560952Y-136462380D01*
X141846666Y-137462380D02*
X141846666Y-136462380D01*
X140703809Y-137462380D02*
X141275238Y-137462380D01*
X140989523Y-137462380D02*
X140989523Y-136462380D01*
X141084761Y-136605238D01*
X141180000Y-136700476D01*
X141275238Y-136748095D01*
G04 #@! TO.C,J2*
X185972380Y-156976666D02*
X186686666Y-156976666D01*
X186829523Y-156929047D01*
X186924761Y-156833809D01*
X186972380Y-156690952D01*
X186972380Y-156595714D01*
X186067619Y-157405238D02*
X186020000Y-157452857D01*
X185972380Y-157548095D01*
X185972380Y-157786190D01*
X186020000Y-157881428D01*
X186067619Y-157929047D01*
X186162857Y-157976666D01*
X186258095Y-157976666D01*
X186400952Y-157929047D01*
X186972380Y-157357619D01*
X186972380Y-157976666D01*
G04 #@! TO.C,J4*
X145517619Y-134233333D02*
X144803333Y-134233333D01*
X144660476Y-134280952D01*
X144565238Y-134376190D01*
X144517619Y-134519047D01*
X144517619Y-134614285D01*
X145184285Y-133328571D02*
X144517619Y-133328571D01*
X145565238Y-133566666D02*
X144850952Y-133804761D01*
X144850952Y-133185714D01*
G04 #@! TO.C,DS1*
X118907428Y-122531428D02*
X118564571Y-122531428D01*
X118736000Y-122531428D02*
X118736000Y-121931428D01*
X118678857Y-122017142D01*
X118621714Y-122074285D01*
X118564571Y-122102857D01*
G04 #@! TD*
M02*
