  0
SECTION
  2
HEADER
  9
$ANGBASE
  50
0.0
  9
$ANGDIR
  70
1
  9
$MEASUREMENT
  70
0
  0
ENDSEC
  0
SECTION
  2
TABLES
  0
TABLE
  2
LTYPE
  70
4
  0
LTYPE
  5
40F
  2
CONTINUOUS
  70
0
  3
Solid line
  72
65
  73
0
  40
0.0
  0
LTYPE
  5
410
  2
DASHDOT
 70
0
  3
Dash Dot ____ _ ____ _
 72
65
 73
4
 40
2.0
 49
1.25
 49
-0.25
 49
0.25
 49
-0.25
  0
LTYPE
  5
411
  2
DASHED
 70
0
  3
Dashed __ __ __ __ __
 72
65
 73
2
 40
0.75
 49
0.5
 49
-0.25
  0
LTYPE
  5
43B
  2
DOTTED
 70
0
  3
Dotted .  .  .  .
 72
65
 73
2
 40
0.2
 49
0.0
 49
-0.2
  0
ENDTAB
  0
TABLE
  2
STYLE
  70
4
  0
STYLE
  2
KICAD
  70
0
  40
0
  41
1
  42
1
  50
0
  71
0
  3
isocp.shx
  0
STYLE
  2
KICADB
  70
0
  40
0
  41
1
  42
1
  50
0
  71
0
  3
isocp.shx
  0
STYLE
  2
KICADI
  70
0
  40
0
  41
1
  42
1
  50
15
  71
0
  3
isocp.shx
  0
STYLE
  2
KICADBI
  70
0
  40
0
  41
1
  42
1
  50
15
  71
0
  3
isocp.shx
  0
ENDTAB
  0
TABLE
  2
LAYER
  70
1
  0
LAYER
  2
BLACK
  70
0
  62
7
  6
CONTINUOUS
  0
ENDTAB
  0
ENDSEC
  0
SECTION
  2
ENTITIES
0
LINE
8
BLACK
6
CONTINUOUS
10
7.62078
20
-2.46535
11
7.62212
21
-2.46591
0
LINE
8
BLACK
6
CONTINUOUS
10
7.62212
20
-2.46591
11
7.62287
21
-2.46772
0
LINE
8
BLACK
6
CONTINUOUS
10
7.62287
20
-2.46772
11
7.62268
21
-2.46819
0
LINE
8
BLACK
6
CONTINUOUS
10
7.62268
20
-2.46819
11
7.62268
21
-5.50268
0
LINE
8
BLACK
6
CONTINUOUS
10
7.62268
20
-5.50268
11
7.62287
21
-5.50315
0
LINE
8
BLACK
6
CONTINUOUS
10
7.62287
20
-5.50315
11
7.62268
21
-5.50362
0
LINE
8
BLACK
6
CONTINUOUS
10
7.62268
20
-5.50362
11
7.62212
21
-5.50496
0
LINE
8
BLACK
6
CONTINUOUS
10
7.62212
20
-5.50496
11
7.62031
21
-5.50571
0
LINE
8
BLACK
6
CONTINUOUS
10
7.62031
20
-5.50571
11
7.61985
21
-5.50551
0
LINE
8
BLACK
6
CONTINUOUS
10
7.61985
20
-5.50551
11
4.03417
21
-5.50551
0
LINE
8
BLACK
6
CONTINUOUS
10
4.03417
20
-5.50551
11
4.0337
21
-5.50571
0
LINE
8
BLACK
6
CONTINUOUS
10
4.0337
20
-5.50571
11
4.03323
21
-5.50551
0
LINE
8
BLACK
6
CONTINUOUS
10
4.03323
20
-5.50551
11
4.03189
21
-5.50496
0
LINE
8
BLACK
6
CONTINUOUS
10
4.03189
20
-5.50496
11
4.03114
21
-5.50315
0
LINE
8
BLACK
6
CONTINUOUS
10
4.03114
20
-5.50315
11
4.03134
21
-5.50268
0
LINE
8
BLACK
6
CONTINUOUS
10
4.03134
20
-5.50268
11
4.03134
21
-2.46819
0
LINE
8
BLACK
6
CONTINUOUS
10
4.03134
20
-2.46819
11
4.03114
21
-2.46772
0
LINE
8
BLACK
6
CONTINUOUS
10
4.03114
20
-2.46772
11
4.03189
21
-2.46591
0
LINE
8
BLACK
6
CONTINUOUS
10
4.03189
20
-2.46591
11
4.03323
21
-2.46535
0
LINE
8
BLACK
6
CONTINUOUS
10
4.03323
20
-2.46535
11
4.0337
21
-2.46516
0
LINE
8
BLACK
6
CONTINUOUS
10
4.0337
20
-2.46516
11
4.03417
21
-2.46535
0
LINE
8
BLACK
6
CONTINUOUS
10
4.03417
20
-2.46535
11
7.61985
21
-2.46535
0
LINE
8
BLACK
6
CONTINUOUS
10
7.61985
20
-2.46535
11
7.62031
21
-2.46516
0
LINE
8
BLACK
6
CONTINUOUS
10
7.62031
20
-2.46516
11
7.62078
21
-2.46535
0
LINE
8
BLACK
6
CONTINUOUS
10
4.03606
20
-2.47008
11
4.03606
21
-5.50079
0
LINE
8
BLACK
6
CONTINUOUS
10
4.03606
20
-5.50079
11
7.61795
21
-5.50079
0
LINE
8
BLACK
6
CONTINUOUS
10
7.61795
20
-5.50079
11
7.61795
21
-2.47008
0
LINE
8
BLACK
6
CONTINUOUS
10
7.61795
20
-2.47008
11
4.03606
21
-2.47008
0
LINE
8
BLACK
6
CONTINUOUS
10
7.37199
20
-5.16593
11
7.37213
21
-5.16591
0
LINE
8
BLACK
6
CONTINUOUS
10
7.37213
20
-5.16591
11
7.37224
21
-5.16598
0
LINE
8
BLACK
6
CONTINUOUS
10
7.37224
20
-5.16598
11
7.3726
21
-5.16604
0
LINE
8
BLACK
6
CONTINUOUS
10
7.3726
20
-5.16604
11
7.37325
21
-5.16658
0
LINE
8
BLACK
6
CONTINUOUS
10
7.37325
20
-5.16658
11
7.37397
21
-5.16702
0
LINE
8
BLACK
6
CONTINUOUS
10
7.37397
20
-5.16702
11
7.37405
21
-5.16726
0
LINE
8
BLACK
6
CONTINUOUS
10
7.37405
20
-5.16726
11
7.37424
21
-5.16742
0
LINE
8
BLACK
6
CONTINUOUS
10
7.37424
20
-5.16742
11
7.37439
21
-5.16825
0
LINE
8
BLACK
6
CONTINUOUS
10
7.37439
20
-5.16825
11
7.37466
21
-5.16906
0
LINE
8
BLACK
6
CONTINUOUS
10
7.37466
20
-5.16906
11
7.37457
21
-5.16929
0
LINE
8
BLACK
6
CONTINUOUS
10
7.37457
20
-5.16929
11
7.37462
21
-5.16954
0
LINE
8
BLACK
6
CONTINUOUS
10
7.37462
20
-5.16954
11
7.37419
21
-5.17027
0
LINE
8
BLACK
6
CONTINUOUS
10
7.37419
20
-5.17027
11
7.37389
21
-5.17106
0
LINE
8
BLACK
6
CONTINUOUS
10
7.37389
20
-5.17106
11
7.36513
21
-5.18107
0
LINE
8
BLACK
6
CONTINUOUS
10
7.36513
20
-5.18107
11
7.36524
21
-5.18116
0
LINE
8
BLACK
6
CONTINUOUS
10
7.36524
20
-5.18116
11
7.36543
21
-5.18118
0
LINE
8
BLACK
6
CONTINUOUS
10
7.36543
20
-5.18118
11
7.36918
21
-5.18305
0
LINE
8
BLACK
6
CONTINUOUS
10
7.36918
20
-5.18305
11
7.36993
21
-5.18361
0
LINE
8
BLACK
6
CONTINUOUS
10
7.36993
20
-5.18361
11
7.36999
21
-5.18364
0
LINE
8
BLACK
6
CONTINUOUS
10
7.36999
20
-5.18364
11
7.37187
21
-5.18552
0
LINE
8
BLACK
6
CONTINUOUS
10
7.37187
20
-5.18552
11
7.37241
21
-5.18629
0
LINE
8
BLACK
6
CONTINUOUS
10
7.37241
20
-5.18629
11
7.37246
21
-5.18633
0
LINE
8
BLACK
6
CONTINUOUS
10
7.37246
20
-5.18633
11
7.37433
21
-5.19008
0
LINE
8
BLACK
6
CONTINUOUS
10
7.37433
20
-5.19008
11
7.37464
21
-5.19113
0
LINE
8
BLACK
6
CONTINUOUS
10
7.37464
20
-5.19113
11
7.3746
21
-5.19131
0
LINE
8
BLACK
6
CONTINUOUS
10
7.3746
20
-5.19131
11
7.37466
21
-5.19149
0
LINE
8
BLACK
6
CONTINUOUS
10
7.37466
20
-5.19149
11
7.37466
21
-5.20086
0
LINE
8
BLACK
6
CONTINUOUS
10
7.37466
20
-5.20086
11
7.37448
21
-5.20194
0
LINE
8
BLACK
6
CONTINUOUS
10
7.37448
20
-5.20194
11
7.37435
21
-5.20208
0
LINE
8
BLACK
6
CONTINUOUS
10
7.37435
20
-5.20208
11
7.37433
21
-5.20227
0
LINE
8
BLACK
6
CONTINUOUS
10
7.37433
20
-5.20227
11
7.37246
21
-5.20602
0
LINE
8
BLACK
6
CONTINUOUS
10
7.37246
20
-5.20602
11
7.3719
21
-5.20677
0
LINE
8
BLACK
6
CONTINUOUS
10
7.3719
20
-5.20677
11
7.37187
21
-5.20683
0
LINE
8
BLACK
6
CONTINUOUS
10
7.37187
20
-5.20683
11
7.36999
21
-5.20871
0
LINE
8
BLACK
6
CONTINUOUS
10
7.36999
20
-5.20871
11
7.36923
21
-5.20925
0
LINE
8
BLACK
6
CONTINUOUS
10
7.36923
20
-5.20925
11
7.36918
21
-5.2093
0
LINE
8
BLACK
6
CONTINUOUS
10
7.36918
20
-5.2093
11
7.36543
21
-5.21117
0
LINE
8
BLACK
6
CONTINUOUS
10
7.36543
20
-5.21117
11
7.36438
21
-5.21148
0
LINE
8
BLACK
6
CONTINUOUS
10
7.36438
20
-5.21148
11
7.3642
21
-5.21144
0
LINE
8
BLACK
6
CONTINUOUS
10
7.3642
20
-5.21144
11
7.36402
21
-5.2115
0
LINE
8
BLACK
6
CONTINUOUS
10
7.36402
20
-5.2115
11
7.35277
21
-5.2115
0
LINE
8
BLACK
6
CONTINUOUS
10
7.35277
20
-5.2115
11
7.3517
21
-5.21131
0
LINE
8
BLACK
6
CONTINUOUS
10
7.3517
20
-5.21131
11
7.35156
21
-5.21119
0
LINE
8
BLACK
6
CONTINUOUS
10
7.35156
20
-5.21119
11
7.35137
21
-5.21117
0
LINE
8
BLACK
6
CONTINUOUS
10
7.35137
20
-5.21117
11
7.34762
21
-5.2093
0
LINE
8
BLACK
6
CONTINUOUS
10
7.34762
20
-5.2093
11
7.34687
21
-5.20874
0
LINE
8
BLACK
6
CONTINUOUS
10
7.34687
20
-5.20874
11
7.3468
21
-5.20871
0
LINE
8
BLACK
6
CONTINUOUS
10
7.3468
20
-5.20871
11
7.34493
21
-5.20683
0
LINE
8
BLACK
6
CONTINUOUS
10
7.34493
20
-5.20683
11
7.3443
21
-5.20594
0
LINE
8
BLACK
6
CONTINUOUS
10
7.3443
20
-5.20594
11
7.34412
21
-5.2038
0
LINE
8
BLACK
6
CONTINUOUS
10
7.34412
20
-5.2038
11
7.34535
21
-5.20204
0
LINE
8
BLACK
6
CONTINUOUS
10
7.34535
20
-5.20204
11
7.34742
21
-5.20148
0
LINE
8
BLACK
6
CONTINUOUS
10
7.34742
20
-5.20148
11
7.34937
21
-5.20239
0
LINE
8
BLACK
6
CONTINUOUS
10
7.34937
20
-5.20239
11
7.35089
21
-5.2039
0
LINE
8
BLACK
6
CONTINUOUS
10
7.35089
20
-5.2039
11
7.35352
21
-5.20522
0
LINE
8
BLACK
6
CONTINUOUS
10
7.35352
20
-5.20522
11
7.36328
21
-5.20522
0
LINE
8
BLACK
6
CONTINUOUS
10
7.36328
20
-5.20522
11
7.36591
21
-5.2039
0
LINE
8
BLACK
6
CONTINUOUS
10
7.36591
20
-5.2039
11
7.36707
21
-5.20275
0
LINE
8
BLACK
6
CONTINUOUS
10
7.36707
20
-5.20275
11
7.36838
21
-5.20012
0
LINE
8
BLACK
6
CONTINUOUS
10
7.36838
20
-5.20012
11
7.36838
21
-5.19223
0
LINE
8
BLACK
6
CONTINUOUS
10
7.36838
20
-5.19223
11
7.36707
21
-5.1896
0
LINE
8
BLACK
6
CONTINUOUS
10
7.36707
20
-5.1896
11
7.36591
21
-5.18845
0
LINE
8
BLACK
6
CONTINUOUS
10
7.36591
20
-5.18845
11
7.36328
21
-5.18713
0
LINE
8
BLACK
6
CONTINUOUS
10
7.36328
20
-5.18713
11
7.3584
21
-5.18713
0
LINE
8
BLACK
6
CONTINUOUS
10
7.3584
20
-5.18713
11
7.35793
21
-5.18705
0
LINE
8
BLACK
6
CONTINUOUS
10
7.35793
20
-5.18705
11
7.35779
21
-5.18707
0
LINE
8
BLACK
6
CONTINUOUS
10
7.35779
20
-5.18707
11
7.35768
21
-5.187
0
LINE
8
BLACK
6
CONTINUOUS
10
7.35768
20
-5.187
11
7.35732
21
-5.18694
0
LINE
8
BLACK
6
CONTINUOUS
10
7.35732
20
-5.18694
11
7.35668
21
-5.1864
0
LINE
8
BLACK
6
CONTINUOUS
10
7.35668
20
-5.1864
11
7.35595
21
-5.18596
0
LINE
8
BLACK
6
CONTINUOUS
10
7.35595
20
-5.18596
11
7.35587
21
-5.18572
0
LINE
8
BLACK
6
CONTINUOUS
10
7.35587
20
-5.18572
11
7.35568
21
-5.18556
0
LINE
8
BLACK
6
CONTINUOUS
10
7.35568
20
-5.18556
11
7.35553
21
-5.18473
0
LINE
8
BLACK
6
CONTINUOUS
10
7.35553
20
-5.18473
11
7.35526
21
-5.18392
0
LINE
8
BLACK
6
CONTINUOUS
10
7.35526
20
-5.18392
11
7.35535
21
-5.18369
0
LINE
8
BLACK
6
CONTINUOUS
10
7.35535
20
-5.18369
11
7.3553
21
-5.18344
0
LINE
8
BLACK
6
CONTINUOUS
10
7.3553
20
-5.18344
11
7.35573
21
-5.18271
0
LINE
8
BLACK
6
CONTINUOUS
10
7.35573
20
-5.18271
11
7.35603
21
-5.18192
0
LINE
8
BLACK
6
CONTINUOUS
10
7.35603
20
-5.18192
11
7.3646
21
-5.17213
0
LINE
8
BLACK
6
CONTINUOUS
10
7.3646
20
-5.17213
11
7.34715
21
-5.17213
0
LINE
8
BLACK
6
CONTINUOUS
10
7.34715
20
-5.17213
11
7.34608
21
-5.17194
0
LINE
8
BLACK
6
CONTINUOUS
10
7.34608
20
-5.17194
11
7.34443
21
-5.17056
0
LINE
8
BLACK
6
CONTINUOUS
10
7.34443
20
-5.17056
11
7.34406
21
-5.16845
0
LINE
8
BLACK
6
CONTINUOUS
10
7.34406
20
-5.16845
11
7.34513
21
-5.16658
0
LINE
8
BLACK
6
CONTINUOUS
10
7.34513
20
-5.16658
11
7.34715
21
-5.16585
0
LINE
8
BLACK
6
CONTINUOUS
10
7.34715
20
-5.16585
11
7.37152
21
-5.16585
0
LINE
8
BLACK
6
CONTINUOUS
10
7.37152
20
-5.16585
11
7.37199
21
-5.16593
0
LINE
8
BLACK
6
CONTINUOUS
10
7.33456
20
-5.16697
11
7.33529
21
-5.16899
0
LINE
8
BLACK
6
CONTINUOUS
10
7.33529
20
-5.16899
11
7.33529
21
-5.19711
0
LINE
8
BLACK
6
CONTINUOUS
10
7.33529
20
-5.19711
11
7.33513
21
-5.19804
0
LINE
8
BLACK
6
CONTINUOUS
10
7.33513
20
-5.19804
11
7.33513
21
-5.19811
0
LINE
8
BLACK
6
CONTINUOUS
10
7.33513
20
-5.19811
11
7.33326
21
-5.20373
0
LINE
8
BLACK
6
CONTINUOUS
10
7.33326
20
-5.20373
11
7.33274
21
-5.20469
0
LINE
8
BLACK
6
CONTINUOUS
10
7.33274
20
-5.20469
11
7.33258
21
-5.20479
0
LINE
8
BLACK
6
CONTINUOUS
10
7.33258
20
-5.20479
11
7.3325
21
-5.20496
0
LINE
8
BLACK
6
CONTINUOUS
10
7.3325
20
-5.20496
11
7.32875
21
-5.20871
0
LINE
8
BLACK
6
CONTINUOUS
10
7.32875
20
-5.20871
11
7.32786
21
-5.20933
0
LINE
8
BLACK
6
CONTINUOUS
10
7.32786
20
-5.20933
11
7.32767
21
-5.20935
0
LINE
8
BLACK
6
CONTINUOUS
10
7.32767
20
-5.20935
11
7.32752
21
-5.20947
0
LINE
8
BLACK
6
CONTINUOUS
10
7.32752
20
-5.20947
11
7.3219
21
-5.21134
0
LINE
8
BLACK
6
CONTINUOUS
10
7.3219
20
-5.21134
11
7.32097
21
-5.21148
0
LINE
8
BLACK
6
CONTINUOUS
10
7.32097
20
-5.21148
11
7.3209
21
-5.2115
0
LINE
8
BLACK
6
CONTINUOUS
10
7.3209
20
-5.2115
11
7.31715
21
-5.2115
0
LINE
8
BLACK
6
CONTINUOUS
10
7.31715
20
-5.2115
11
7.31608
21
-5.21131
0
LINE
8
BLACK
6
CONTINUOUS
10
7.31608
20
-5.21131
11
7.31443
21
-5.20993
0
LINE
8
BLACK
6
CONTINUOUS
10
7.31443
20
-5.20993
11
7.31406
21
-5.20782
0
LINE
8
BLACK
6
CONTINUOUS
10
7.31406
20
-5.20782
11
7.31513
21
-5.20595
0
LINE
8
BLACK
6
CONTINUOUS
10
7.31513
20
-5.20595
11
7.31715
21
-5.20522
0
LINE
8
BLACK
6
CONTINUOUS
10
7.31715
20
-5.20522
11
7.32039
21
-5.20522
0
LINE
8
BLACK
6
CONTINUOUS
10
7.32039
20
-5.20522
11
7.32483
21
-5.20374
0
LINE
8
BLACK
6
CONTINUOUS
10
7.32483
20
-5.20374
11
7.32753
21
-5.20104
0
LINE
8
BLACK
6
CONTINUOUS
10
7.32753
20
-5.20104
11
7.32901
21
-5.1966
0
LINE
8
BLACK
6
CONTINUOUS
10
7.32901
20
-5.1966
11
7.32901
21
-5.16899
0
LINE
8
BLACK
6
CONTINUOUS
10
7.32901
20
-5.16899
11
7.3292
21
-5.16792
0
LINE
8
BLACK
6
CONTINUOUS
10
7.3292
20
-5.16792
11
7.33058
21
-5.16627
0
LINE
8
BLACK
6
CONTINUOUS
10
7.33058
20
-5.16627
11
7.3327
21
-5.1659
0
LINE
8
BLACK
6
CONTINUOUS
10
7.3327
20
-5.1659
11
7.33456
21
-5.16697
  0
ENDSEC
  0
EOF
