G04 #@! TF.GenerationSoftware,KiCad,Pcbnew,5.99.0-unknown-c3175b4~100~ubuntu16.04.1*
G04 #@! TF.CreationDate,2020-01-01T10:39:55+05:30*
G04 #@! TF.ProjectId,paperd.ink_final_panel,70617065-7264-42e6-996e-6b5f66696e61,rev?*
G04 #@! TF.SameCoordinates,Original*
G04 #@! TF.FileFunction,Legend,Top*
G04 #@! TF.FilePolarity,Positive*
%FSLAX46Y46*%
G04 Gerber Fmt 4.6, Leading zero omitted, Abs format (unit mm)*
G04 Created by KiCad (PCBNEW 5.99.0-unknown-c3175b4~100~ubuntu16.04.1) date 2020-01-01 10:39:55*
%MOMM*%
%LPD*%
G04 APERTURE LIST*
%ADD10C,0.152400*%
%ADD11C,0.120000*%
%ADD12C,0.150000*%
G04 APERTURE END LIST*
D10*
X147217142Y-157097695D02*
X146740952Y-157097695D01*
X146740952Y-156284895D01*
X147550476Y-156671942D02*
X147883809Y-156671942D01*
X148026666Y-157097695D02*
X147550476Y-157097695D01*
X147550476Y-156284895D01*
X148026666Y-156284895D01*
X148455238Y-157097695D02*
X148455238Y-156284895D01*
X148693333Y-156284895D01*
X148836190Y-156323600D01*
X148931428Y-156401009D01*
X148979047Y-156478419D01*
X149026666Y-156633238D01*
X149026666Y-156749352D01*
X148979047Y-156904171D01*
X148931428Y-156981580D01*
X148836190Y-157058990D01*
X148693333Y-157097695D01*
X148455238Y-157097695D01*
X168075714Y-157820285D02*
X168028095Y-157858990D01*
X167885238Y-157897695D01*
X167790000Y-157897695D01*
X167647142Y-157858990D01*
X167551904Y-157781580D01*
X167504285Y-157704171D01*
X167456666Y-157549352D01*
X167456666Y-157433238D01*
X167504285Y-157278419D01*
X167551904Y-157201009D01*
X167647142Y-157123600D01*
X167790000Y-157084895D01*
X167885238Y-157084895D01*
X168028095Y-157123600D01*
X168075714Y-157162304D01*
X168932857Y-157897695D02*
X168932857Y-157471942D01*
X168885238Y-157394533D01*
X168790000Y-157355828D01*
X168599523Y-157355828D01*
X168504285Y-157394533D01*
X168932857Y-157858990D02*
X168837619Y-157897695D01*
X168599523Y-157897695D01*
X168504285Y-157858990D01*
X168456666Y-157781580D01*
X168456666Y-157704171D01*
X168504285Y-157626761D01*
X168599523Y-157588057D01*
X168837619Y-157588057D01*
X168932857Y-157549352D01*
X169409047Y-157355828D02*
X169409047Y-158168628D01*
X169409047Y-157394533D02*
X169504285Y-157355828D01*
X169694761Y-157355828D01*
X169790000Y-157394533D01*
X169837619Y-157433238D01*
X169885238Y-157510647D01*
X169885238Y-157742876D01*
X169837619Y-157820285D01*
X169790000Y-157858990D01*
X169694761Y-157897695D01*
X169504285Y-157897695D01*
X169409047Y-157858990D01*
X170742380Y-157897695D02*
X170742380Y-157471942D01*
X170694761Y-157394533D01*
X170599523Y-157355828D01*
X170409047Y-157355828D01*
X170313809Y-157394533D01*
X170742380Y-157858990D02*
X170647142Y-157897695D01*
X170409047Y-157897695D01*
X170313809Y-157858990D01*
X170266190Y-157781580D01*
X170266190Y-157704171D01*
X170313809Y-157626761D01*
X170409047Y-157588057D01*
X170647142Y-157588057D01*
X170742380Y-157549352D01*
X171647142Y-157858990D02*
X171551904Y-157897695D01*
X171361428Y-157897695D01*
X171266190Y-157858990D01*
X171218571Y-157820285D01*
X171170952Y-157742876D01*
X171170952Y-157510647D01*
X171218571Y-157433238D01*
X171266190Y-157394533D01*
X171361428Y-157355828D01*
X171551904Y-157355828D01*
X171647142Y-157394533D01*
X172075714Y-157897695D02*
X172075714Y-157355828D01*
X172075714Y-157084895D02*
X172028095Y-157123600D01*
X172075714Y-157162304D01*
X172123333Y-157123600D01*
X172075714Y-157084895D01*
X172075714Y-157162304D01*
X172409047Y-157355828D02*
X172790000Y-157355828D01*
X172551904Y-157084895D02*
X172551904Y-157781580D01*
X172599523Y-157858990D01*
X172694761Y-157897695D01*
X172790000Y-157897695D01*
X173123333Y-157897695D02*
X173123333Y-157355828D01*
X173123333Y-157084895D02*
X173075714Y-157123600D01*
X173123333Y-157162304D01*
X173170952Y-157123600D01*
X173123333Y-157084895D01*
X173123333Y-157162304D01*
X173504285Y-157355828D02*
X173742380Y-157897695D01*
X173980476Y-157355828D01*
X174742380Y-157858990D02*
X174647142Y-157897695D01*
X174456666Y-157897695D01*
X174361428Y-157858990D01*
X174313809Y-157781580D01*
X174313809Y-157471942D01*
X174361428Y-157394533D01*
X174456666Y-157355828D01*
X174647142Y-157355828D01*
X174742380Y-157394533D01*
X174790000Y-157471942D01*
X174790000Y-157549352D01*
X174313809Y-157626761D01*
X176313809Y-157471942D02*
X176456666Y-157510647D01*
X176504285Y-157549352D01*
X176551904Y-157626761D01*
X176551904Y-157742876D01*
X176504285Y-157820285D01*
X176456666Y-157858990D01*
X176361428Y-157897695D01*
X175980476Y-157897695D01*
X175980476Y-157084895D01*
X176313809Y-157084895D01*
X176409047Y-157123600D01*
X176456666Y-157162304D01*
X176504285Y-157239714D01*
X176504285Y-157317123D01*
X176456666Y-157394533D01*
X176409047Y-157433238D01*
X176313809Y-157471942D01*
X175980476Y-157471942D01*
X177409047Y-157355828D02*
X177409047Y-157897695D01*
X176980476Y-157355828D02*
X176980476Y-157781580D01*
X177028095Y-157858990D01*
X177123333Y-157897695D01*
X177266190Y-157897695D01*
X177361428Y-157858990D01*
X177409047Y-157820285D01*
X177742380Y-157355828D02*
X178123333Y-157355828D01*
X177885238Y-157084895D02*
X177885238Y-157781580D01*
X177932857Y-157858990D01*
X178028095Y-157897695D01*
X178123333Y-157897695D01*
X178313809Y-157355828D02*
X178694761Y-157355828D01*
X178456666Y-157084895D02*
X178456666Y-157781580D01*
X178504285Y-157858990D01*
X178599523Y-157897695D01*
X178694761Y-157897695D01*
X179170952Y-157897695D02*
X179075714Y-157858990D01*
X179028095Y-157820285D01*
X178980476Y-157742876D01*
X178980476Y-157510647D01*
X179028095Y-157433238D01*
X179075714Y-157394533D01*
X179170952Y-157355828D01*
X179313809Y-157355828D01*
X179409047Y-157394533D01*
X179456666Y-157433238D01*
X179504285Y-157510647D01*
X179504285Y-157742876D01*
X179456666Y-157820285D01*
X179409047Y-157858990D01*
X179313809Y-157897695D01*
X179170952Y-157897695D01*
X179932857Y-157355828D02*
X179932857Y-157897695D01*
X179932857Y-157433238D02*
X179980476Y-157394533D01*
X180075714Y-157355828D01*
X180218571Y-157355828D01*
X180313809Y-157394533D01*
X180361428Y-157471942D01*
X180361428Y-157897695D01*
X181551904Y-157162304D02*
X181599523Y-157123600D01*
X181694761Y-157084895D01*
X181932857Y-157084895D01*
X182028095Y-157123600D01*
X182075714Y-157162304D01*
X182123333Y-157239714D01*
X182123333Y-157317123D01*
X182075714Y-157433238D01*
X181504285Y-157897695D01*
X182123333Y-157897695D01*
X113845714Y-157720285D02*
X113798095Y-157758990D01*
X113655238Y-157797695D01*
X113560000Y-157797695D01*
X113417142Y-157758990D01*
X113321904Y-157681580D01*
X113274285Y-157604171D01*
X113226666Y-157449352D01*
X113226666Y-157333238D01*
X113274285Y-157178419D01*
X113321904Y-157101009D01*
X113417142Y-157023600D01*
X113560000Y-156984895D01*
X113655238Y-156984895D01*
X113798095Y-157023600D01*
X113845714Y-157062304D01*
X114702857Y-157797695D02*
X114702857Y-157371942D01*
X114655238Y-157294533D01*
X114560000Y-157255828D01*
X114369523Y-157255828D01*
X114274285Y-157294533D01*
X114702857Y-157758990D02*
X114607619Y-157797695D01*
X114369523Y-157797695D01*
X114274285Y-157758990D01*
X114226666Y-157681580D01*
X114226666Y-157604171D01*
X114274285Y-157526761D01*
X114369523Y-157488057D01*
X114607619Y-157488057D01*
X114702857Y-157449352D01*
X115179047Y-157255828D02*
X115179047Y-158068628D01*
X115179047Y-157294533D02*
X115274285Y-157255828D01*
X115464761Y-157255828D01*
X115560000Y-157294533D01*
X115607619Y-157333238D01*
X115655238Y-157410647D01*
X115655238Y-157642876D01*
X115607619Y-157720285D01*
X115560000Y-157758990D01*
X115464761Y-157797695D01*
X115274285Y-157797695D01*
X115179047Y-157758990D01*
X116512380Y-157797695D02*
X116512380Y-157371942D01*
X116464761Y-157294533D01*
X116369523Y-157255828D01*
X116179047Y-157255828D01*
X116083809Y-157294533D01*
X116512380Y-157758990D02*
X116417142Y-157797695D01*
X116179047Y-157797695D01*
X116083809Y-157758990D01*
X116036190Y-157681580D01*
X116036190Y-157604171D01*
X116083809Y-157526761D01*
X116179047Y-157488057D01*
X116417142Y-157488057D01*
X116512380Y-157449352D01*
X117417142Y-157758990D02*
X117321904Y-157797695D01*
X117131428Y-157797695D01*
X117036190Y-157758990D01*
X116988571Y-157720285D01*
X116940952Y-157642876D01*
X116940952Y-157410647D01*
X116988571Y-157333238D01*
X117036190Y-157294533D01*
X117131428Y-157255828D01*
X117321904Y-157255828D01*
X117417142Y-157294533D01*
X117845714Y-157797695D02*
X117845714Y-157255828D01*
X117845714Y-156984895D02*
X117798095Y-157023600D01*
X117845714Y-157062304D01*
X117893333Y-157023600D01*
X117845714Y-156984895D01*
X117845714Y-157062304D01*
X118179047Y-157255828D02*
X118560000Y-157255828D01*
X118321904Y-156984895D02*
X118321904Y-157681580D01*
X118369523Y-157758990D01*
X118464761Y-157797695D01*
X118560000Y-157797695D01*
X118893333Y-157797695D02*
X118893333Y-157255828D01*
X118893333Y-156984895D02*
X118845714Y-157023600D01*
X118893333Y-157062304D01*
X118940952Y-157023600D01*
X118893333Y-156984895D01*
X118893333Y-157062304D01*
X119274285Y-157255828D02*
X119512380Y-157797695D01*
X119750476Y-157255828D01*
X120512380Y-157758990D02*
X120417142Y-157797695D01*
X120226666Y-157797695D01*
X120131428Y-157758990D01*
X120083809Y-157681580D01*
X120083809Y-157371942D01*
X120131428Y-157294533D01*
X120226666Y-157255828D01*
X120417142Y-157255828D01*
X120512380Y-157294533D01*
X120560000Y-157371942D01*
X120560000Y-157449352D01*
X120083809Y-157526761D01*
X122083809Y-157371942D02*
X122226666Y-157410647D01*
X122274285Y-157449352D01*
X122321904Y-157526761D01*
X122321904Y-157642876D01*
X122274285Y-157720285D01*
X122226666Y-157758990D01*
X122131428Y-157797695D01*
X121750476Y-157797695D01*
X121750476Y-156984895D01*
X122083809Y-156984895D01*
X122179047Y-157023600D01*
X122226666Y-157062304D01*
X122274285Y-157139714D01*
X122274285Y-157217123D01*
X122226666Y-157294533D01*
X122179047Y-157333238D01*
X122083809Y-157371942D01*
X121750476Y-157371942D01*
X123179047Y-157255828D02*
X123179047Y-157797695D01*
X122750476Y-157255828D02*
X122750476Y-157681580D01*
X122798095Y-157758990D01*
X122893333Y-157797695D01*
X123036190Y-157797695D01*
X123131428Y-157758990D01*
X123179047Y-157720285D01*
X123512380Y-157255828D02*
X123893333Y-157255828D01*
X123655238Y-156984895D02*
X123655238Y-157681580D01*
X123702857Y-157758990D01*
X123798095Y-157797695D01*
X123893333Y-157797695D01*
X124083809Y-157255828D02*
X124464761Y-157255828D01*
X124226666Y-156984895D02*
X124226666Y-157681580D01*
X124274285Y-157758990D01*
X124369523Y-157797695D01*
X124464761Y-157797695D01*
X124940952Y-157797695D02*
X124845714Y-157758990D01*
X124798095Y-157720285D01*
X124750476Y-157642876D01*
X124750476Y-157410647D01*
X124798095Y-157333238D01*
X124845714Y-157294533D01*
X124940952Y-157255828D01*
X125083809Y-157255828D01*
X125179047Y-157294533D01*
X125226666Y-157333238D01*
X125274285Y-157410647D01*
X125274285Y-157642876D01*
X125226666Y-157720285D01*
X125179047Y-157758990D01*
X125083809Y-157797695D01*
X124940952Y-157797695D01*
X125702857Y-157255828D02*
X125702857Y-157797695D01*
X125702857Y-157333238D02*
X125750476Y-157294533D01*
X125845714Y-157255828D01*
X125988571Y-157255828D01*
X126083809Y-157294533D01*
X126131428Y-157371942D01*
X126131428Y-157797695D01*
X127893333Y-157797695D02*
X127321904Y-157797695D01*
X127607619Y-157797695D02*
X127607619Y-156984895D01*
X127512380Y-157101009D01*
X127417142Y-157178419D01*
X127321904Y-157217123D01*
D11*
G04 #@! TO.C,D5*
X146878000Y-153280000D02*
X148978000Y-153280000D01*
X148978000Y-155380000D02*
X148978000Y-153280000D01*
X146878000Y-155380000D02*
X148978000Y-155380000D01*
X146878000Y-155380000D02*
X146878000Y-153280000D01*
G04 #@! TO.C,DS1*
X102456000Y-62680000D02*
X193556000Y-62680000D01*
X193556000Y-62680000D02*
X193556000Y-139780000D01*
X102456000Y-139780000D02*
X193556000Y-139780000D01*
X102456000Y-62680000D02*
X102456000Y-139780000D01*
G04 #@! TO.C,S2*
D12*
X162422095Y-152612761D02*
X162564952Y-152660380D01*
X162803047Y-152660380D01*
X162898285Y-152612761D01*
X162945904Y-152565142D01*
X162993523Y-152469904D01*
X162993523Y-152374666D01*
X162945904Y-152279428D01*
X162898285Y-152231809D01*
X162803047Y-152184190D01*
X162612571Y-152136571D01*
X162517333Y-152088952D01*
X162469714Y-152041333D01*
X162422095Y-151946095D01*
X162422095Y-151850857D01*
X162469714Y-151755619D01*
X162517333Y-151708000D01*
X162612571Y-151660380D01*
X162850666Y-151660380D01*
X162993523Y-151708000D01*
X163374476Y-151755619D02*
X163422095Y-151708000D01*
X163517333Y-151660380D01*
X163755428Y-151660380D01*
X163850666Y-151708000D01*
X163898285Y-151755619D01*
X163945904Y-151850857D01*
X163945904Y-151946095D01*
X163898285Y-152088952D01*
X163326857Y-152660380D01*
X163945904Y-152660380D01*
G04 #@! TO.C,S1*
X108348095Y-152434761D02*
X108490952Y-152482380D01*
X108729047Y-152482380D01*
X108824285Y-152434761D01*
X108871904Y-152387142D01*
X108919523Y-152291904D01*
X108919523Y-152196666D01*
X108871904Y-152101428D01*
X108824285Y-152053809D01*
X108729047Y-152006190D01*
X108538571Y-151958571D01*
X108443333Y-151910952D01*
X108395714Y-151863333D01*
X108348095Y-151768095D01*
X108348095Y-151672857D01*
X108395714Y-151577619D01*
X108443333Y-151530000D01*
X108538571Y-151482380D01*
X108776666Y-151482380D01*
X108919523Y-151530000D01*
X109871904Y-152482380D02*
X109300476Y-152482380D01*
X109586190Y-152482380D02*
X109586190Y-151482380D01*
X109490952Y-151625238D01*
X109395714Y-151720476D01*
X109300476Y-151768095D01*
G04 #@! TO.C,D5*
X150827904Y-154478380D02*
X150827904Y-153478380D01*
X151066000Y-153478380D01*
X151208857Y-153526000D01*
X151304095Y-153621238D01*
X151351714Y-153716476D01*
X151399333Y-153906952D01*
X151399333Y-154049809D01*
X151351714Y-154240285D01*
X151304095Y-154335523D01*
X151208857Y-154430761D01*
X151066000Y-154478380D01*
X150827904Y-154478380D01*
X152304095Y-153478380D02*
X151827904Y-153478380D01*
X151780285Y-153954571D01*
X151827904Y-153906952D01*
X151923142Y-153859333D01*
X152161238Y-153859333D01*
X152256476Y-153906952D01*
X152304095Y-153954571D01*
X152351714Y-154049809D01*
X152351714Y-154287904D01*
X152304095Y-154383142D01*
X152256476Y-154430761D01*
X152161238Y-154478380D01*
X151923142Y-154478380D01*
X151827904Y-154430761D01*
X151780285Y-154383142D01*
G04 #@! TO.C,J3*
X186236666Y-131292380D02*
X186236666Y-132006666D01*
X186189047Y-132149523D01*
X186093809Y-132244761D01*
X185950952Y-132292380D01*
X185855714Y-132292380D01*
X186617619Y-131292380D02*
X187236666Y-131292380D01*
X186903333Y-131673333D01*
X187046190Y-131673333D01*
X187141428Y-131720952D01*
X187189047Y-131768571D01*
X187236666Y-131863809D01*
X187236666Y-132101904D01*
X187189047Y-132197142D01*
X187141428Y-132244761D01*
X187046190Y-132292380D01*
X186760476Y-132292380D01*
X186665238Y-132244761D01*
X186617619Y-132197142D01*
G04 #@! TD*
M02*
