G04 #@! TF.GenerationSoftware,KiCad,Pcbnew,5.99.0-unknown-711fc99~101~ubuntu18.04.1*
G04 #@! TF.CreationDate,2020-06-08T21:24:47+05:30*
G04 #@! TF.ProjectId,paperd.ink_main_pcb,70617065-7264-42e6-996e-6b5f6d61696e,rev?*
G04 #@! TF.SameCoordinates,Original*
G04 #@! TF.FileFunction,Paste,Bot*
G04 #@! TF.FilePolarity,Positive*
%FSLAX46Y46*%
G04 Gerber Fmt 4.6, Leading zero omitted, Abs format (unit mm)*
G04 Created by KiCad (PCBNEW 5.99.0-unknown-711fc99~101~ubuntu18.04.1) date 2020-06-08 21:24:47*
%MOMM*%
%LPD*%
G01*
G04 APERTURE LIST*
%ADD10R,4.600000X1.600000*%
%ADD11R,2.000000X0.900000*%
%ADD12R,0.900000X2.000000*%
%ADD13R,5.000000X5.000000*%
%ADD14R,2.200000X3.300000*%
%ADD15R,0.300000X1.300000*%
%ADD16R,0.650000X1.800000*%
%ADD17R,1.800000X1.000000*%
%ADD18R,0.800000X0.900000*%
%ADD19R,1.450000X0.450000*%
%ADD20R,1.600000X0.700000*%
%ADD21R,1.500000X1.200000*%
%ADD22R,1.500000X1.600000*%
%ADD23R,2.200000X1.200000*%
%ADD24R,0.900000X1.200000*%
%ADD25R,0.650000X1.060000*%
%ADD26R,0.400000X0.650000*%
%ADD27R,0.900000X0.800000*%
%ADD28R,1.000000X1.100000*%
%ADD29R,1.500000X1.350000*%
%ADD30R,1.400000X1.500000*%
%ADD31R,1.800000X0.400000*%
%ADD32R,1.100000X1.100000*%
%ADD33R,1.200000X0.900000*%
%ADD34R,1.000000X3.150000*%
G04 APERTURE END LIST*
D10*
X134042000Y-85850000D03*
X134042000Y-97840000D03*
D11*
X104630000Y-70815000D03*
X104630000Y-72085000D03*
X104630000Y-73355000D03*
X104630000Y-74625000D03*
X104630000Y-75895000D03*
X104630000Y-77165000D03*
X104630000Y-78435000D03*
X104630000Y-79705000D03*
X104630000Y-80975000D03*
X104630000Y-82245000D03*
X104630000Y-83515000D03*
X104630000Y-84785000D03*
X104630000Y-86055000D03*
X104630000Y-87325000D03*
D12*
X107415000Y-88325000D03*
X108685000Y-88325000D03*
X109955000Y-88325000D03*
X111225000Y-88325000D03*
X112495000Y-88325000D03*
X113765000Y-88325000D03*
X115035000Y-88325000D03*
X116305000Y-88325000D03*
X117575000Y-88325000D03*
X118845000Y-88325000D03*
D11*
X121630000Y-87325000D03*
X121630000Y-86055000D03*
X121630000Y-84785000D03*
X121630000Y-83515000D03*
X121630000Y-82245000D03*
X121630000Y-80975000D03*
X121630000Y-79705000D03*
X121630000Y-78435000D03*
X121630000Y-77165000D03*
X121630000Y-75895000D03*
X121630000Y-74625000D03*
X121630000Y-73355000D03*
X121630000Y-72085000D03*
X121630000Y-70815000D03*
D13*
X114130000Y-78315000D03*
D14*
X132796000Y-124650000D03*
D15*
X119696000Y-122480000D03*
D14*
X118096000Y-124650000D03*
D15*
X120196000Y-122480000D03*
X120696000Y-122480000D03*
X121196000Y-122480000D03*
X121696000Y-122480000D03*
X122196000Y-122480000D03*
X122696000Y-122480000D03*
X123196000Y-122480000D03*
X123696000Y-122480000D03*
X124196000Y-122480000D03*
X124696000Y-122480000D03*
X125196000Y-122480000D03*
X125696000Y-122480000D03*
X126196000Y-122480000D03*
X126696000Y-122480000D03*
X127196000Y-122480000D03*
X127696000Y-122480000D03*
X128196000Y-122480000D03*
X128696000Y-122480000D03*
X129196000Y-122480000D03*
X129696000Y-122480000D03*
X130196000Y-122480000D03*
X130696000Y-122480000D03*
X131196000Y-122480000D03*
D16*
X134425000Y-73390000D03*
X137875000Y-73390000D03*
D17*
X125510000Y-79210000D03*
X125510000Y-81710000D03*
D18*
X117210000Y-114370000D03*
X116260000Y-116370000D03*
X118160000Y-116370000D03*
G36*
G01*
X115603750Y-119070000D02*
X116116250Y-119070000D01*
G75*
G02*
X116335000Y-119288750I0J-218750D01*
G01*
X116335000Y-119726250D01*
G75*
G02*
X116116250Y-119945000I-218750J0D01*
G01*
X115603750Y-119945000D01*
G75*
G02*
X115385000Y-119726250I0J218750D01*
G01*
X115385000Y-119288750D01*
G75*
G02*
X115603750Y-119070000I218750J0D01*
G01*
G37*
G36*
G01*
X115603750Y-117495000D02*
X116116250Y-117495000D01*
G75*
G02*
X116335000Y-117713750I0J-218750D01*
G01*
X116335000Y-118151250D01*
G75*
G02*
X116116250Y-118370000I-218750J0D01*
G01*
X115603750Y-118370000D01*
G75*
G02*
X115385000Y-118151250I0J218750D01*
G01*
X115385000Y-117713750D01*
G75*
G02*
X115603750Y-117495000I218750J0D01*
G01*
G37*
G36*
G01*
X125713750Y-119732500D02*
X126226250Y-119732500D01*
G75*
G02*
X126445000Y-119951250I0J-218750D01*
G01*
X126445000Y-120388750D01*
G75*
G02*
X126226250Y-120607500I-218750J0D01*
G01*
X125713750Y-120607500D01*
G75*
G02*
X125495000Y-120388750I0J218750D01*
G01*
X125495000Y-119951250D01*
G75*
G02*
X125713750Y-119732500I218750J0D01*
G01*
G37*
G36*
G01*
X125713750Y-118157500D02*
X126226250Y-118157500D01*
G75*
G02*
X126445000Y-118376250I0J-218750D01*
G01*
X126445000Y-118813750D01*
G75*
G02*
X126226250Y-119032500I-218750J0D01*
G01*
X125713750Y-119032500D01*
G75*
G02*
X125495000Y-118813750I0J218750D01*
G01*
X125495000Y-118376250D01*
G75*
G02*
X125713750Y-118157500I218750J0D01*
G01*
G37*
G36*
G01*
X122096250Y-118660000D02*
X121583750Y-118660000D01*
G75*
G02*
X121365000Y-118441250I0J218750D01*
G01*
X121365000Y-118003750D01*
G75*
G02*
X121583750Y-117785000I218750J0D01*
G01*
X122096250Y-117785000D01*
G75*
G02*
X122315000Y-118003750I0J-218750D01*
G01*
X122315000Y-118441250D01*
G75*
G02*
X122096250Y-118660000I-218750J0D01*
G01*
G37*
G36*
G01*
X122096250Y-120235000D02*
X121583750Y-120235000D01*
G75*
G02*
X121365000Y-120016250I0J218750D01*
G01*
X121365000Y-119578750D01*
G75*
G02*
X121583750Y-119360000I218750J0D01*
G01*
X122096250Y-119360000D01*
G75*
G02*
X122315000Y-119578750I0J-218750D01*
G01*
X122315000Y-120016250D01*
G75*
G02*
X122096250Y-120235000I-218750J0D01*
G01*
G37*
G36*
G01*
X131548250Y-119032500D02*
X131035750Y-119032500D01*
G75*
G02*
X130817000Y-118813750I0J218750D01*
G01*
X130817000Y-118376250D01*
G75*
G02*
X131035750Y-118157500I218750J0D01*
G01*
X131548250Y-118157500D01*
G75*
G02*
X131767000Y-118376250I0J-218750D01*
G01*
X131767000Y-118813750D01*
G75*
G02*
X131548250Y-119032500I-218750J0D01*
G01*
G37*
G36*
G01*
X131548250Y-120607500D02*
X131035750Y-120607500D01*
G75*
G02*
X130817000Y-120388750I0J218750D01*
G01*
X130817000Y-119951250D01*
G75*
G02*
X131035750Y-119732500I218750J0D01*
G01*
X131548250Y-119732500D01*
G75*
G02*
X131767000Y-119951250I0J-218750D01*
G01*
X131767000Y-120388750D01*
G75*
G02*
X131548250Y-120607500I-218750J0D01*
G01*
G37*
G36*
G01*
X128000250Y-119032500D02*
X127487750Y-119032500D01*
G75*
G02*
X127269000Y-118813750I0J218750D01*
G01*
X127269000Y-118376250D01*
G75*
G02*
X127487750Y-118157500I218750J0D01*
G01*
X128000250Y-118157500D01*
G75*
G02*
X128219000Y-118376250I0J-218750D01*
G01*
X128219000Y-118813750D01*
G75*
G02*
X128000250Y-119032500I-218750J0D01*
G01*
G37*
G36*
G01*
X128000250Y-120607500D02*
X127487750Y-120607500D01*
G75*
G02*
X127269000Y-120388750I0J218750D01*
G01*
X127269000Y-119951250D01*
G75*
G02*
X127487750Y-119732500I218750J0D01*
G01*
X128000250Y-119732500D01*
G75*
G02*
X128219000Y-119951250I0J-218750D01*
G01*
X128219000Y-120388750D01*
G75*
G02*
X128000250Y-120607500I-218750J0D01*
G01*
G37*
G36*
G01*
X129774250Y-119032500D02*
X129261750Y-119032500D01*
G75*
G02*
X129043000Y-118813750I0J218750D01*
G01*
X129043000Y-118376250D01*
G75*
G02*
X129261750Y-118157500I218750J0D01*
G01*
X129774250Y-118157500D01*
G75*
G02*
X129993000Y-118376250I0J-218750D01*
G01*
X129993000Y-118813750D01*
G75*
G02*
X129774250Y-119032500I-218750J0D01*
G01*
G37*
G36*
G01*
X129774250Y-120607500D02*
X129261750Y-120607500D01*
G75*
G02*
X129043000Y-120388750I0J218750D01*
G01*
X129043000Y-119951250D01*
G75*
G02*
X129261750Y-119732500I218750J0D01*
G01*
X129774250Y-119732500D01*
G75*
G02*
X129993000Y-119951250I0J-218750D01*
G01*
X129993000Y-120388750D01*
G75*
G02*
X129774250Y-120607500I-218750J0D01*
G01*
G37*
G36*
G01*
X131980000Y-117246250D02*
X131980000Y-116733750D01*
G75*
G02*
X132198750Y-116515000I218750J0D01*
G01*
X132636250Y-116515000D01*
G75*
G02*
X132855000Y-116733750I0J-218750D01*
G01*
X132855000Y-117246250D01*
G75*
G02*
X132636250Y-117465000I-218750J0D01*
G01*
X132198750Y-117465000D01*
G75*
G02*
X131980000Y-117246250I0J218750D01*
G01*
G37*
G36*
G01*
X130405000Y-117246250D02*
X130405000Y-116733750D01*
G75*
G02*
X130623750Y-116515000I218750J0D01*
G01*
X131061250Y-116515000D01*
G75*
G02*
X131280000Y-116733750I0J-218750D01*
G01*
X131280000Y-117246250D01*
G75*
G02*
X131061250Y-117465000I-218750J0D01*
G01*
X130623750Y-117465000D01*
G75*
G02*
X130405000Y-117246250I0J218750D01*
G01*
G37*
G36*
G01*
X128790000Y-117256250D02*
X128790000Y-116743750D01*
G75*
G02*
X129008750Y-116525000I218750J0D01*
G01*
X129446250Y-116525000D01*
G75*
G02*
X129665000Y-116743750I0J-218750D01*
G01*
X129665000Y-117256250D01*
G75*
G02*
X129446250Y-117475000I-218750J0D01*
G01*
X129008750Y-117475000D01*
G75*
G02*
X128790000Y-117256250I0J218750D01*
G01*
G37*
G36*
G01*
X127215000Y-117256250D02*
X127215000Y-116743750D01*
G75*
G02*
X127433750Y-116525000I218750J0D01*
G01*
X127871250Y-116525000D01*
G75*
G02*
X128090000Y-116743750I0J-218750D01*
G01*
X128090000Y-117256250D01*
G75*
G02*
X127871250Y-117475000I-218750J0D01*
G01*
X127433750Y-117475000D01*
G75*
G02*
X127215000Y-117256250I0J218750D01*
G01*
G37*
G36*
G01*
X135096250Y-119032500D02*
X134583750Y-119032500D01*
G75*
G02*
X134365000Y-118813750I0J218750D01*
G01*
X134365000Y-118376250D01*
G75*
G02*
X134583750Y-118157500I218750J0D01*
G01*
X135096250Y-118157500D01*
G75*
G02*
X135315000Y-118376250I0J-218750D01*
G01*
X135315000Y-118813750D01*
G75*
G02*
X135096250Y-119032500I-218750J0D01*
G01*
G37*
G36*
G01*
X135096250Y-120607500D02*
X134583750Y-120607500D01*
G75*
G02*
X134365000Y-120388750I0J218750D01*
G01*
X134365000Y-119951250D01*
G75*
G02*
X134583750Y-119732500I218750J0D01*
G01*
X135096250Y-119732500D01*
G75*
G02*
X135315000Y-119951250I0J-218750D01*
G01*
X135315000Y-120388750D01*
G75*
G02*
X135096250Y-120607500I-218750J0D01*
G01*
G37*
G36*
G01*
X133322250Y-119032500D02*
X132809750Y-119032500D01*
G75*
G02*
X132591000Y-118813750I0J218750D01*
G01*
X132591000Y-118376250D01*
G75*
G02*
X132809750Y-118157500I218750J0D01*
G01*
X133322250Y-118157500D01*
G75*
G02*
X133541000Y-118376250I0J-218750D01*
G01*
X133541000Y-118813750D01*
G75*
G02*
X133322250Y-119032500I-218750J0D01*
G01*
G37*
G36*
G01*
X133322250Y-120607500D02*
X132809750Y-120607500D01*
G75*
G02*
X132591000Y-120388750I0J218750D01*
G01*
X132591000Y-119951250D01*
G75*
G02*
X132809750Y-119732500I218750J0D01*
G01*
X133322250Y-119732500D01*
G75*
G02*
X133541000Y-119951250I0J-218750D01*
G01*
X133541000Y-120388750D01*
G75*
G02*
X133322250Y-120607500I-218750J0D01*
G01*
G37*
G36*
G01*
X120436250Y-118680000D02*
X119923750Y-118680000D01*
G75*
G02*
X119705000Y-118461250I0J218750D01*
G01*
X119705000Y-118023750D01*
G75*
G02*
X119923750Y-117805000I218750J0D01*
G01*
X120436250Y-117805000D01*
G75*
G02*
X120655000Y-118023750I0J-218750D01*
G01*
X120655000Y-118461250D01*
G75*
G02*
X120436250Y-118680000I-218750J0D01*
G01*
G37*
G36*
G01*
X120436250Y-120255000D02*
X119923750Y-120255000D01*
G75*
G02*
X119705000Y-120036250I0J218750D01*
G01*
X119705000Y-119598750D01*
G75*
G02*
X119923750Y-119380000I218750J0D01*
G01*
X120436250Y-119380000D01*
G75*
G02*
X120655000Y-119598750I0J-218750D01*
G01*
X120655000Y-120036250D01*
G75*
G02*
X120436250Y-120255000I-218750J0D01*
G01*
G37*
G36*
G01*
X124266250Y-113945000D02*
X123353750Y-113945000D01*
G75*
G02*
X123110000Y-113701250I0J243750D01*
G01*
X123110000Y-113213750D01*
G75*
G02*
X123353750Y-112970000I243750J0D01*
G01*
X124266250Y-112970000D01*
G75*
G02*
X124510000Y-113213750I0J-243750D01*
G01*
X124510000Y-113701250D01*
G75*
G02*
X124266250Y-113945000I-243750J0D01*
G01*
G37*
G36*
G01*
X124266250Y-115820000D02*
X123353750Y-115820000D01*
G75*
G02*
X123110000Y-115576250I0J243750D01*
G01*
X123110000Y-115088750D01*
G75*
G02*
X123353750Y-114845000I243750J0D01*
G01*
X124266250Y-114845000D01*
G75*
G02*
X124510000Y-115088750I0J-243750D01*
G01*
X124510000Y-115576250D01*
G75*
G02*
X124266250Y-115820000I-243750J0D01*
G01*
G37*
G36*
G01*
X124236250Y-118075000D02*
X123323750Y-118075000D01*
G75*
G02*
X123080000Y-117831250I0J243750D01*
G01*
X123080000Y-117343750D01*
G75*
G02*
X123323750Y-117100000I243750J0D01*
G01*
X124236250Y-117100000D01*
G75*
G02*
X124480000Y-117343750I0J-243750D01*
G01*
X124480000Y-117831250D01*
G75*
G02*
X124236250Y-118075000I-243750J0D01*
G01*
G37*
G36*
G01*
X124236250Y-119950000D02*
X123323750Y-119950000D01*
G75*
G02*
X123080000Y-119706250I0J243750D01*
G01*
X123080000Y-119218750D01*
G75*
G02*
X123323750Y-118975000I243750J0D01*
G01*
X124236250Y-118975000D01*
G75*
G02*
X124480000Y-119218750I0J-243750D01*
G01*
X124480000Y-119706250D01*
G75*
G02*
X124236250Y-119950000I-243750J0D01*
G01*
G37*
G36*
G01*
X131197500Y-104340000D02*
X131542500Y-104340000D01*
G75*
G02*
X131690000Y-104487500I0J-147500D01*
G01*
X131690000Y-104782500D01*
G75*
G02*
X131542500Y-104930000I-147500J0D01*
G01*
X131197500Y-104930000D01*
G75*
G02*
X131050000Y-104782500I0J147500D01*
G01*
X131050000Y-104487500D01*
G75*
G02*
X131197500Y-104340000I147500J0D01*
G01*
G37*
G36*
G01*
X131197500Y-103370000D02*
X131542500Y-103370000D01*
G75*
G02*
X131690000Y-103517500I0J-147500D01*
G01*
X131690000Y-103812500D01*
G75*
G02*
X131542500Y-103960000I-147500J0D01*
G01*
X131197500Y-103960000D01*
G75*
G02*
X131050000Y-103812500I0J147500D01*
G01*
X131050000Y-103517500D01*
G75*
G02*
X131197500Y-103370000I147500J0D01*
G01*
G37*
D19*
X139610000Y-107455000D03*
X139610000Y-106805000D03*
X139610000Y-106155000D03*
X139610000Y-105505000D03*
X139610000Y-104855000D03*
X139610000Y-104205000D03*
X139610000Y-103555000D03*
X139610000Y-102905000D03*
X139610000Y-102255000D03*
X139610000Y-101605000D03*
X133710000Y-101605000D03*
X133710000Y-102255000D03*
X133710000Y-102905000D03*
X133710000Y-103555000D03*
X133710000Y-104205000D03*
X133710000Y-104855000D03*
X133710000Y-105505000D03*
X133710000Y-106155000D03*
X133710000Y-106805000D03*
X133710000Y-107455000D03*
D20*
X117810000Y-100756000D03*
X117810000Y-99656000D03*
X117810000Y-98556000D03*
X117810000Y-101856000D03*
X117810000Y-102956000D03*
X117810000Y-104056000D03*
X117810000Y-106256000D03*
X117810000Y-105156000D03*
X117810000Y-107356000D03*
D21*
X116910000Y-108556000D03*
D22*
X116940000Y-93986000D03*
D23*
X107220000Y-108556000D03*
X107230000Y-93076000D03*
G36*
G01*
X128385000Y-81872500D02*
X128385000Y-81527500D01*
G75*
G02*
X128532500Y-81380000I147500J0D01*
G01*
X128827500Y-81380000D01*
G75*
G02*
X128975000Y-81527500I0J-147500D01*
G01*
X128975000Y-81872500D01*
G75*
G02*
X128827500Y-82020000I-147500J0D01*
G01*
X128532500Y-82020000D01*
G75*
G02*
X128385000Y-81872500I0J147500D01*
G01*
G37*
G36*
G01*
X127415000Y-81872500D02*
X127415000Y-81527500D01*
G75*
G02*
X127562500Y-81380000I147500J0D01*
G01*
X127857500Y-81380000D01*
G75*
G02*
X128005000Y-81527500I0J-147500D01*
G01*
X128005000Y-81872500D01*
G75*
G02*
X127857500Y-82020000I-147500J0D01*
G01*
X127562500Y-82020000D01*
G75*
G02*
X127415000Y-81872500I0J147500D01*
G01*
G37*
D24*
X129060000Y-112310000D03*
X125760000Y-112310000D03*
G36*
G01*
X110557500Y-118755000D02*
X109857500Y-118755000D01*
G75*
G02*
X109795000Y-118692500I0J62500D01*
G01*
X109795000Y-118567500D01*
G75*
G02*
X109857500Y-118505000I62500J0D01*
G01*
X110557500Y-118505000D01*
G75*
G02*
X110620000Y-118567500I0J-62500D01*
G01*
X110620000Y-118692500D01*
G75*
G02*
X110557500Y-118755000I-62500J0D01*
G01*
G37*
G36*
G01*
X110557500Y-118255000D02*
X109857500Y-118255000D01*
G75*
G02*
X109795000Y-118192500I0J62500D01*
G01*
X109795000Y-118067500D01*
G75*
G02*
X109857500Y-118005000I62500J0D01*
G01*
X110557500Y-118005000D01*
G75*
G02*
X110620000Y-118067500I0J-62500D01*
G01*
X110620000Y-118192500D01*
G75*
G02*
X110557500Y-118255000I-62500J0D01*
G01*
G37*
G36*
G01*
X110557500Y-117755000D02*
X109857500Y-117755000D01*
G75*
G02*
X109795000Y-117692500I0J62500D01*
G01*
X109795000Y-117567500D01*
G75*
G02*
X109857500Y-117505000I62500J0D01*
G01*
X110557500Y-117505000D01*
G75*
G02*
X110620000Y-117567500I0J-62500D01*
G01*
X110620000Y-117692500D01*
G75*
G02*
X110557500Y-117755000I-62500J0D01*
G01*
G37*
G36*
G01*
X110557500Y-117255000D02*
X109857500Y-117255000D01*
G75*
G02*
X109795000Y-117192500I0J62500D01*
G01*
X109795000Y-117067500D01*
G75*
G02*
X109857500Y-117005000I62500J0D01*
G01*
X110557500Y-117005000D01*
G75*
G02*
X110620000Y-117067500I0J-62500D01*
G01*
X110620000Y-117192500D01*
G75*
G02*
X110557500Y-117255000I-62500J0D01*
G01*
G37*
G36*
G01*
X110557500Y-116755000D02*
X109857500Y-116755000D01*
G75*
G02*
X109795000Y-116692500I0J62500D01*
G01*
X109795000Y-116567500D01*
G75*
G02*
X109857500Y-116505000I62500J0D01*
G01*
X110557500Y-116505000D01*
G75*
G02*
X110620000Y-116567500I0J-62500D01*
G01*
X110620000Y-116692500D01*
G75*
G02*
X110557500Y-116755000I-62500J0D01*
G01*
G37*
G36*
G01*
X110557500Y-116255000D02*
X109857500Y-116255000D01*
G75*
G02*
X109795000Y-116192500I0J62500D01*
G01*
X109795000Y-116067500D01*
G75*
G02*
X109857500Y-116005000I62500J0D01*
G01*
X110557500Y-116005000D01*
G75*
G02*
X110620000Y-116067500I0J-62500D01*
G01*
X110620000Y-116192500D01*
G75*
G02*
X110557500Y-116255000I-62500J0D01*
G01*
G37*
G36*
G01*
X109582500Y-115855000D02*
X109457500Y-115855000D01*
G75*
G02*
X109395000Y-115792500I0J62500D01*
G01*
X109395000Y-115092500D01*
G75*
G02*
X109457500Y-115030000I62500J0D01*
G01*
X109582500Y-115030000D01*
G75*
G02*
X109645000Y-115092500I0J-62500D01*
G01*
X109645000Y-115792500D01*
G75*
G02*
X109582500Y-115855000I-62500J0D01*
G01*
G37*
G36*
G01*
X109082500Y-115855000D02*
X108957500Y-115855000D01*
G75*
G02*
X108895000Y-115792500I0J62500D01*
G01*
X108895000Y-115092500D01*
G75*
G02*
X108957500Y-115030000I62500J0D01*
G01*
X109082500Y-115030000D01*
G75*
G02*
X109145000Y-115092500I0J-62500D01*
G01*
X109145000Y-115792500D01*
G75*
G02*
X109082500Y-115855000I-62500J0D01*
G01*
G37*
G36*
G01*
X108582500Y-115855000D02*
X108457500Y-115855000D01*
G75*
G02*
X108395000Y-115792500I0J62500D01*
G01*
X108395000Y-115092500D01*
G75*
G02*
X108457500Y-115030000I62500J0D01*
G01*
X108582500Y-115030000D01*
G75*
G02*
X108645000Y-115092500I0J-62500D01*
G01*
X108645000Y-115792500D01*
G75*
G02*
X108582500Y-115855000I-62500J0D01*
G01*
G37*
G36*
G01*
X108082500Y-115855000D02*
X107957500Y-115855000D01*
G75*
G02*
X107895000Y-115792500I0J62500D01*
G01*
X107895000Y-115092500D01*
G75*
G02*
X107957500Y-115030000I62500J0D01*
G01*
X108082500Y-115030000D01*
G75*
G02*
X108145000Y-115092500I0J-62500D01*
G01*
X108145000Y-115792500D01*
G75*
G02*
X108082500Y-115855000I-62500J0D01*
G01*
G37*
G36*
G01*
X107582500Y-115855000D02*
X107457500Y-115855000D01*
G75*
G02*
X107395000Y-115792500I0J62500D01*
G01*
X107395000Y-115092500D01*
G75*
G02*
X107457500Y-115030000I62500J0D01*
G01*
X107582500Y-115030000D01*
G75*
G02*
X107645000Y-115092500I0J-62500D01*
G01*
X107645000Y-115792500D01*
G75*
G02*
X107582500Y-115855000I-62500J0D01*
G01*
G37*
G36*
G01*
X107082500Y-115855000D02*
X106957500Y-115855000D01*
G75*
G02*
X106895000Y-115792500I0J62500D01*
G01*
X106895000Y-115092500D01*
G75*
G02*
X106957500Y-115030000I62500J0D01*
G01*
X107082500Y-115030000D01*
G75*
G02*
X107145000Y-115092500I0J-62500D01*
G01*
X107145000Y-115792500D01*
G75*
G02*
X107082500Y-115855000I-62500J0D01*
G01*
G37*
G36*
G01*
X106682500Y-116255000D02*
X105982500Y-116255000D01*
G75*
G02*
X105920000Y-116192500I0J62500D01*
G01*
X105920000Y-116067500D01*
G75*
G02*
X105982500Y-116005000I62500J0D01*
G01*
X106682500Y-116005000D01*
G75*
G02*
X106745000Y-116067500I0J-62500D01*
G01*
X106745000Y-116192500D01*
G75*
G02*
X106682500Y-116255000I-62500J0D01*
G01*
G37*
G36*
G01*
X106682500Y-116755000D02*
X105982500Y-116755000D01*
G75*
G02*
X105920000Y-116692500I0J62500D01*
G01*
X105920000Y-116567500D01*
G75*
G02*
X105982500Y-116505000I62500J0D01*
G01*
X106682500Y-116505000D01*
G75*
G02*
X106745000Y-116567500I0J-62500D01*
G01*
X106745000Y-116692500D01*
G75*
G02*
X106682500Y-116755000I-62500J0D01*
G01*
G37*
G36*
G01*
X106682500Y-117255000D02*
X105982500Y-117255000D01*
G75*
G02*
X105920000Y-117192500I0J62500D01*
G01*
X105920000Y-117067500D01*
G75*
G02*
X105982500Y-117005000I62500J0D01*
G01*
X106682500Y-117005000D01*
G75*
G02*
X106745000Y-117067500I0J-62500D01*
G01*
X106745000Y-117192500D01*
G75*
G02*
X106682500Y-117255000I-62500J0D01*
G01*
G37*
G36*
G01*
X106682500Y-117755000D02*
X105982500Y-117755000D01*
G75*
G02*
X105920000Y-117692500I0J62500D01*
G01*
X105920000Y-117567500D01*
G75*
G02*
X105982500Y-117505000I62500J0D01*
G01*
X106682500Y-117505000D01*
G75*
G02*
X106745000Y-117567500I0J-62500D01*
G01*
X106745000Y-117692500D01*
G75*
G02*
X106682500Y-117755000I-62500J0D01*
G01*
G37*
G36*
G01*
X106682500Y-118255000D02*
X105982500Y-118255000D01*
G75*
G02*
X105920000Y-118192500I0J62500D01*
G01*
X105920000Y-118067500D01*
G75*
G02*
X105982500Y-118005000I62500J0D01*
G01*
X106682500Y-118005000D01*
G75*
G02*
X106745000Y-118067500I0J-62500D01*
G01*
X106745000Y-118192500D01*
G75*
G02*
X106682500Y-118255000I-62500J0D01*
G01*
G37*
G36*
G01*
X106682500Y-118755000D02*
X105982500Y-118755000D01*
G75*
G02*
X105920000Y-118692500I0J62500D01*
G01*
X105920000Y-118567500D01*
G75*
G02*
X105982500Y-118505000I62500J0D01*
G01*
X106682500Y-118505000D01*
G75*
G02*
X106745000Y-118567500I0J-62500D01*
G01*
X106745000Y-118692500D01*
G75*
G02*
X106682500Y-118755000I-62500J0D01*
G01*
G37*
G36*
G01*
X107082500Y-119730000D02*
X106957500Y-119730000D01*
G75*
G02*
X106895000Y-119667500I0J62500D01*
G01*
X106895000Y-118967500D01*
G75*
G02*
X106957500Y-118905000I62500J0D01*
G01*
X107082500Y-118905000D01*
G75*
G02*
X107145000Y-118967500I0J-62500D01*
G01*
X107145000Y-119667500D01*
G75*
G02*
X107082500Y-119730000I-62500J0D01*
G01*
G37*
G36*
G01*
X107582500Y-119730000D02*
X107457500Y-119730000D01*
G75*
G02*
X107395000Y-119667500I0J62500D01*
G01*
X107395000Y-118967500D01*
G75*
G02*
X107457500Y-118905000I62500J0D01*
G01*
X107582500Y-118905000D01*
G75*
G02*
X107645000Y-118967500I0J-62500D01*
G01*
X107645000Y-119667500D01*
G75*
G02*
X107582500Y-119730000I-62500J0D01*
G01*
G37*
G36*
G01*
X108082500Y-119730000D02*
X107957500Y-119730000D01*
G75*
G02*
X107895000Y-119667500I0J62500D01*
G01*
X107895000Y-118967500D01*
G75*
G02*
X107957500Y-118905000I62500J0D01*
G01*
X108082500Y-118905000D01*
G75*
G02*
X108145000Y-118967500I0J-62500D01*
G01*
X108145000Y-119667500D01*
G75*
G02*
X108082500Y-119730000I-62500J0D01*
G01*
G37*
G36*
G01*
X108582500Y-119730000D02*
X108457500Y-119730000D01*
G75*
G02*
X108395000Y-119667500I0J62500D01*
G01*
X108395000Y-118967500D01*
G75*
G02*
X108457500Y-118905000I62500J0D01*
G01*
X108582500Y-118905000D01*
G75*
G02*
X108645000Y-118967500I0J-62500D01*
G01*
X108645000Y-119667500D01*
G75*
G02*
X108582500Y-119730000I-62500J0D01*
G01*
G37*
G36*
G01*
X109082500Y-119730000D02*
X108957500Y-119730000D01*
G75*
G02*
X108895000Y-119667500I0J62500D01*
G01*
X108895000Y-118967500D01*
G75*
G02*
X108957500Y-118905000I62500J0D01*
G01*
X109082500Y-118905000D01*
G75*
G02*
X109145000Y-118967500I0J-62500D01*
G01*
X109145000Y-119667500D01*
G75*
G02*
X109082500Y-119730000I-62500J0D01*
G01*
G37*
G36*
G01*
X109582500Y-119730000D02*
X109457500Y-119730000D01*
G75*
G02*
X109395000Y-119667500I0J62500D01*
G01*
X109395000Y-118967500D01*
G75*
G02*
X109457500Y-118905000I62500J0D01*
G01*
X109582500Y-118905000D01*
G75*
G02*
X109645000Y-118967500I0J-62500D01*
G01*
X109645000Y-119667500D01*
G75*
G02*
X109582500Y-119730000I-62500J0D01*
G01*
G37*
G36*
G01*
X107895001Y-117255000D02*
X107344999Y-117255000D01*
G75*
G02*
X107095000Y-117005001I0J249999D01*
G01*
X107095000Y-116454999D01*
G75*
G02*
X107344999Y-116205000I249999J0D01*
G01*
X107895001Y-116205000D01*
G75*
G02*
X108145000Y-116454999I0J-249999D01*
G01*
X108145000Y-117005001D01*
G75*
G02*
X107895001Y-117255000I-249999J0D01*
G01*
G37*
G36*
G01*
X109195001Y-117255000D02*
X108644999Y-117255000D01*
G75*
G02*
X108395000Y-117005001I0J249999D01*
G01*
X108395000Y-116454999D01*
G75*
G02*
X108644999Y-116205000I249999J0D01*
G01*
X109195001Y-116205000D01*
G75*
G02*
X109445000Y-116454999I0J-249999D01*
G01*
X109445000Y-117005001D01*
G75*
G02*
X109195001Y-117255000I-249999J0D01*
G01*
G37*
G36*
G01*
X107895001Y-118555000D02*
X107344999Y-118555000D01*
G75*
G02*
X107095000Y-118305001I0J249999D01*
G01*
X107095000Y-117754999D01*
G75*
G02*
X107344999Y-117505000I249999J0D01*
G01*
X107895001Y-117505000D01*
G75*
G02*
X108145000Y-117754999I0J-249999D01*
G01*
X108145000Y-118305001D01*
G75*
G02*
X107895001Y-118555000I-249999J0D01*
G01*
G37*
G36*
G01*
X109195001Y-118555000D02*
X108644999Y-118555000D01*
G75*
G02*
X108395000Y-118305001I0J249999D01*
G01*
X108395000Y-117754999D01*
G75*
G02*
X108644999Y-117505000I249999J0D01*
G01*
X109195001Y-117505000D01*
G75*
G02*
X109445000Y-117754999I0J-249999D01*
G01*
X109445000Y-118305001D01*
G75*
G02*
X109195001Y-118555000I-249999J0D01*
G01*
G37*
D25*
X111400000Y-123230000D03*
X112350000Y-123230000D03*
X110450000Y-123230000D03*
X110450000Y-125430000D03*
X111400000Y-125430000D03*
X112350000Y-125430000D03*
X112268000Y-136990000D03*
X111318000Y-136990000D03*
X113218000Y-136990000D03*
X113218000Y-134790000D03*
X112268000Y-134790000D03*
X111318000Y-134790000D03*
X106360000Y-135552000D03*
X104460000Y-135552000D03*
X104460000Y-137752000D03*
X105410000Y-137752000D03*
X106360000Y-137752000D03*
G36*
G01*
X136551000Y-137954500D02*
X136551000Y-137609500D01*
G75*
G02*
X136698500Y-137462000I147500J0D01*
G01*
X136993500Y-137462000D01*
G75*
G02*
X137141000Y-137609500I0J-147500D01*
G01*
X137141000Y-137954500D01*
G75*
G02*
X136993500Y-138102000I-147500J0D01*
G01*
X136698500Y-138102000D01*
G75*
G02*
X136551000Y-137954500I0J147500D01*
G01*
G37*
G36*
G01*
X135581000Y-137954500D02*
X135581000Y-137609500D01*
G75*
G02*
X135728500Y-137462000I147500J0D01*
G01*
X136023500Y-137462000D01*
G75*
G02*
X136171000Y-137609500I0J-147500D01*
G01*
X136171000Y-137954500D01*
G75*
G02*
X136023500Y-138102000I-147500J0D01*
G01*
X135728500Y-138102000D01*
G75*
G02*
X135581000Y-137954500I0J147500D01*
G01*
G37*
G36*
G01*
X134945000Y-79162500D02*
X134945000Y-78817500D01*
G75*
G02*
X135092500Y-78670000I147500J0D01*
G01*
X135387500Y-78670000D01*
G75*
G02*
X135535000Y-78817500I0J-147500D01*
G01*
X135535000Y-79162500D01*
G75*
G02*
X135387500Y-79310000I-147500J0D01*
G01*
X135092500Y-79310000D01*
G75*
G02*
X134945000Y-79162500I0J147500D01*
G01*
G37*
G36*
G01*
X133975000Y-79162500D02*
X133975000Y-78817500D01*
G75*
G02*
X134122500Y-78670000I147500J0D01*
G01*
X134417500Y-78670000D01*
G75*
G02*
X134565000Y-78817500I0J-147500D01*
G01*
X134565000Y-79162500D01*
G75*
G02*
X134417500Y-79310000I-147500J0D01*
G01*
X134122500Y-79310000D01*
G75*
G02*
X133975000Y-79162500I0J147500D01*
G01*
G37*
G36*
G01*
X132430000Y-78817500D02*
X132430000Y-79162500D01*
G75*
G02*
X132282500Y-79310000I-147500J0D01*
G01*
X131987500Y-79310000D01*
G75*
G02*
X131840000Y-79162500I0J147500D01*
G01*
X131840000Y-78817500D01*
G75*
G02*
X131987500Y-78670000I147500J0D01*
G01*
X132282500Y-78670000D01*
G75*
G02*
X132430000Y-78817500I0J-147500D01*
G01*
G37*
G36*
G01*
X133400000Y-78817500D02*
X133400000Y-79162500D01*
G75*
G02*
X133252500Y-79310000I-147500J0D01*
G01*
X132957500Y-79310000D01*
G75*
G02*
X132810000Y-79162500I0J147500D01*
G01*
X132810000Y-78817500D01*
G75*
G02*
X132957500Y-78670000I147500J0D01*
G01*
X133252500Y-78670000D01*
G75*
G02*
X133400000Y-78817500I0J-147500D01*
G01*
G37*
G36*
G01*
X134285000Y-83507500D02*
X134285000Y-83852500D01*
G75*
G02*
X134137500Y-84000000I-147500J0D01*
G01*
X133842500Y-84000000D01*
G75*
G02*
X133695000Y-83852500I0J147500D01*
G01*
X133695000Y-83507500D01*
G75*
G02*
X133842500Y-83360000I147500J0D01*
G01*
X134137500Y-83360000D01*
G75*
G02*
X134285000Y-83507500I0J-147500D01*
G01*
G37*
G36*
G01*
X135255000Y-83507500D02*
X135255000Y-83852500D01*
G75*
G02*
X135107500Y-84000000I-147500J0D01*
G01*
X134812500Y-84000000D01*
G75*
G02*
X134665000Y-83852500I0J147500D01*
G01*
X134665000Y-83507500D01*
G75*
G02*
X134812500Y-83360000I147500J0D01*
G01*
X135107500Y-83360000D01*
G75*
G02*
X135255000Y-83507500I0J-147500D01*
G01*
G37*
G36*
G01*
X131980000Y-73562500D02*
X131980000Y-73217500D01*
G75*
G02*
X132127500Y-73070000I147500J0D01*
G01*
X132422500Y-73070000D01*
G75*
G02*
X132570000Y-73217500I0J-147500D01*
G01*
X132570000Y-73562500D01*
G75*
G02*
X132422500Y-73710000I-147500J0D01*
G01*
X132127500Y-73710000D01*
G75*
G02*
X131980000Y-73562500I0J147500D01*
G01*
G37*
G36*
G01*
X131010000Y-73562500D02*
X131010000Y-73217500D01*
G75*
G02*
X131157500Y-73070000I147500J0D01*
G01*
X131452500Y-73070000D01*
G75*
G02*
X131600000Y-73217500I0J-147500D01*
G01*
X131600000Y-73562500D01*
G75*
G02*
X131452500Y-73710000I-147500J0D01*
G01*
X131157500Y-73710000D01*
G75*
G02*
X131010000Y-73562500I0J147500D01*
G01*
G37*
G36*
G01*
X183167500Y-129120000D02*
X183512500Y-129120000D01*
G75*
G02*
X183660000Y-129267500I0J-147500D01*
G01*
X183660000Y-129562500D01*
G75*
G02*
X183512500Y-129710000I-147500J0D01*
G01*
X183167500Y-129710000D01*
G75*
G02*
X183020000Y-129562500I0J147500D01*
G01*
X183020000Y-129267500D01*
G75*
G02*
X183167500Y-129120000I147500J0D01*
G01*
G37*
G36*
G01*
X183167500Y-128150000D02*
X183512500Y-128150000D01*
G75*
G02*
X183660000Y-128297500I0J-147500D01*
G01*
X183660000Y-128592500D01*
G75*
G02*
X183512500Y-128740000I-147500J0D01*
G01*
X183167500Y-128740000D01*
G75*
G02*
X183020000Y-128592500I0J147500D01*
G01*
X183020000Y-128297500D01*
G75*
G02*
X183167500Y-128150000I147500J0D01*
G01*
G37*
G36*
G01*
X180517500Y-129120000D02*
X180862500Y-129120000D01*
G75*
G02*
X181010000Y-129267500I0J-147500D01*
G01*
X181010000Y-129562500D01*
G75*
G02*
X180862500Y-129710000I-147500J0D01*
G01*
X180517500Y-129710000D01*
G75*
G02*
X180370000Y-129562500I0J147500D01*
G01*
X180370000Y-129267500D01*
G75*
G02*
X180517500Y-129120000I147500J0D01*
G01*
G37*
G36*
G01*
X180517500Y-128150000D02*
X180862500Y-128150000D01*
G75*
G02*
X181010000Y-128297500I0J-147500D01*
G01*
X181010000Y-128592500D01*
G75*
G02*
X180862500Y-128740000I-147500J0D01*
G01*
X180517500Y-128740000D01*
G75*
G02*
X180370000Y-128592500I0J147500D01*
G01*
X180370000Y-128297500D01*
G75*
G02*
X180517500Y-128150000I147500J0D01*
G01*
G37*
G36*
G01*
X181842500Y-129120000D02*
X182187500Y-129120000D01*
G75*
G02*
X182335000Y-129267500I0J-147500D01*
G01*
X182335000Y-129562500D01*
G75*
G02*
X182187500Y-129710000I-147500J0D01*
G01*
X181842500Y-129710000D01*
G75*
G02*
X181695000Y-129562500I0J147500D01*
G01*
X181695000Y-129267500D01*
G75*
G02*
X181842500Y-129120000I147500J0D01*
G01*
G37*
G36*
G01*
X181842500Y-128150000D02*
X182187500Y-128150000D01*
G75*
G02*
X182335000Y-128297500I0J-147500D01*
G01*
X182335000Y-128592500D01*
G75*
G02*
X182187500Y-128740000I-147500J0D01*
G01*
X181842500Y-128740000D01*
G75*
G02*
X181695000Y-128592500I0J147500D01*
G01*
X181695000Y-128297500D01*
G75*
G02*
X181842500Y-128150000I147500J0D01*
G01*
G37*
G36*
G01*
X126717500Y-104235000D02*
X127062500Y-104235000D01*
G75*
G02*
X127210000Y-104382500I0J-147500D01*
G01*
X127210000Y-104677500D01*
G75*
G02*
X127062500Y-104825000I-147500J0D01*
G01*
X126717500Y-104825000D01*
G75*
G02*
X126570000Y-104677500I0J147500D01*
G01*
X126570000Y-104382500D01*
G75*
G02*
X126717500Y-104235000I147500J0D01*
G01*
G37*
G36*
G01*
X126717500Y-103265000D02*
X127062500Y-103265000D01*
G75*
G02*
X127210000Y-103412500I0J-147500D01*
G01*
X127210000Y-103707500D01*
G75*
G02*
X127062500Y-103855000I-147500J0D01*
G01*
X126717500Y-103855000D01*
G75*
G02*
X126570000Y-103707500I0J147500D01*
G01*
X126570000Y-103412500D01*
G75*
G02*
X126717500Y-103265000I147500J0D01*
G01*
G37*
G36*
G01*
X126717500Y-106260000D02*
X127062500Y-106260000D01*
G75*
G02*
X127210000Y-106407500I0J-147500D01*
G01*
X127210000Y-106702500D01*
G75*
G02*
X127062500Y-106850000I-147500J0D01*
G01*
X126717500Y-106850000D01*
G75*
G02*
X126570000Y-106702500I0J147500D01*
G01*
X126570000Y-106407500D01*
G75*
G02*
X126717500Y-106260000I147500J0D01*
G01*
G37*
G36*
G01*
X126717500Y-105290000D02*
X127062500Y-105290000D01*
G75*
G02*
X127210000Y-105437500I0J-147500D01*
G01*
X127210000Y-105732500D01*
G75*
G02*
X127062500Y-105880000I-147500J0D01*
G01*
X126717500Y-105880000D01*
G75*
G02*
X126570000Y-105732500I0J147500D01*
G01*
X126570000Y-105437500D01*
G75*
G02*
X126717500Y-105290000I147500J0D01*
G01*
G37*
G36*
G01*
X128824501Y-109115000D02*
X129169501Y-109115000D01*
G75*
G02*
X129317001Y-109262500I0J-147500D01*
G01*
X129317001Y-109557500D01*
G75*
G02*
X129169501Y-109705000I-147500J0D01*
G01*
X128824501Y-109705000D01*
G75*
G02*
X128677001Y-109557500I0J147500D01*
G01*
X128677001Y-109262500D01*
G75*
G02*
X128824501Y-109115000I147500J0D01*
G01*
G37*
G36*
G01*
X128824501Y-108145000D02*
X129169501Y-108145000D01*
G75*
G02*
X129317001Y-108292500I0J-147500D01*
G01*
X129317001Y-108587500D01*
G75*
G02*
X129169501Y-108735000I-147500J0D01*
G01*
X128824501Y-108735000D01*
G75*
G02*
X128677001Y-108587500I0J147500D01*
G01*
X128677001Y-108292500D01*
G75*
G02*
X128824501Y-108145000I147500J0D01*
G01*
G37*
G36*
G01*
X129967500Y-109115000D02*
X130312500Y-109115000D01*
G75*
G02*
X130460000Y-109262500I0J-147500D01*
G01*
X130460000Y-109557500D01*
G75*
G02*
X130312500Y-109705000I-147500J0D01*
G01*
X129967500Y-109705000D01*
G75*
G02*
X129820000Y-109557500I0J147500D01*
G01*
X129820000Y-109262500D01*
G75*
G02*
X129967500Y-109115000I147500J0D01*
G01*
G37*
G36*
G01*
X129967500Y-108145000D02*
X130312500Y-108145000D01*
G75*
G02*
X130460000Y-108292500I0J-147500D01*
G01*
X130460000Y-108587500D01*
G75*
G02*
X130312500Y-108735000I-147500J0D01*
G01*
X129967500Y-108735000D01*
G75*
G02*
X129820000Y-108587500I0J147500D01*
G01*
X129820000Y-108292500D01*
G75*
G02*
X129967500Y-108145000I147500J0D01*
G01*
G37*
G36*
G01*
X121065000Y-98427500D02*
X121065000Y-98772500D01*
G75*
G02*
X120917500Y-98920000I-147500J0D01*
G01*
X120622500Y-98920000D01*
G75*
G02*
X120475000Y-98772500I0J147500D01*
G01*
X120475000Y-98427500D01*
G75*
G02*
X120622500Y-98280000I147500J0D01*
G01*
X120917500Y-98280000D01*
G75*
G02*
X121065000Y-98427500I0J-147500D01*
G01*
G37*
G36*
G01*
X122035000Y-98427500D02*
X122035000Y-98772500D01*
G75*
G02*
X121887500Y-98920000I-147500J0D01*
G01*
X121592500Y-98920000D01*
G75*
G02*
X121445000Y-98772500I0J147500D01*
G01*
X121445000Y-98427500D01*
G75*
G02*
X121592500Y-98280000I147500J0D01*
G01*
X121887500Y-98280000D01*
G75*
G02*
X122035000Y-98427500I0J-147500D01*
G01*
G37*
G36*
G01*
X121065000Y-99502500D02*
X121065000Y-99847500D01*
G75*
G02*
X120917500Y-99995000I-147500J0D01*
G01*
X120622500Y-99995000D01*
G75*
G02*
X120475000Y-99847500I0J147500D01*
G01*
X120475000Y-99502500D01*
G75*
G02*
X120622500Y-99355000I147500J0D01*
G01*
X120917500Y-99355000D01*
G75*
G02*
X121065000Y-99502500I0J-147500D01*
G01*
G37*
G36*
G01*
X122035000Y-99502500D02*
X122035000Y-99847500D01*
G75*
G02*
X121887500Y-99995000I-147500J0D01*
G01*
X121592500Y-99995000D01*
G75*
G02*
X121445000Y-99847500I0J147500D01*
G01*
X121445000Y-99502500D01*
G75*
G02*
X121592500Y-99355000I147500J0D01*
G01*
X121887500Y-99355000D01*
G75*
G02*
X122035000Y-99502500I0J-147500D01*
G01*
G37*
G36*
G01*
X121065000Y-100577500D02*
X121065000Y-100922500D01*
G75*
G02*
X120917500Y-101070000I-147500J0D01*
G01*
X120622500Y-101070000D01*
G75*
G02*
X120475000Y-100922500I0J147500D01*
G01*
X120475000Y-100577500D01*
G75*
G02*
X120622500Y-100430000I147500J0D01*
G01*
X120917500Y-100430000D01*
G75*
G02*
X121065000Y-100577500I0J-147500D01*
G01*
G37*
G36*
G01*
X122035000Y-100577500D02*
X122035000Y-100922500D01*
G75*
G02*
X121887500Y-101070000I-147500J0D01*
G01*
X121592500Y-101070000D01*
G75*
G02*
X121445000Y-100922500I0J147500D01*
G01*
X121445000Y-100577500D01*
G75*
G02*
X121592500Y-100430000I147500J0D01*
G01*
X121887500Y-100430000D01*
G75*
G02*
X122035000Y-100577500I0J-147500D01*
G01*
G37*
G36*
G01*
X121065000Y-103277500D02*
X121065000Y-103622500D01*
G75*
G02*
X120917500Y-103770000I-147500J0D01*
G01*
X120622500Y-103770000D01*
G75*
G02*
X120475000Y-103622500I0J147500D01*
G01*
X120475000Y-103277500D01*
G75*
G02*
X120622500Y-103130000I147500J0D01*
G01*
X120917500Y-103130000D01*
G75*
G02*
X121065000Y-103277500I0J-147500D01*
G01*
G37*
G36*
G01*
X122035000Y-103277500D02*
X122035000Y-103622500D01*
G75*
G02*
X121887500Y-103770000I-147500J0D01*
G01*
X121592500Y-103770000D01*
G75*
G02*
X121445000Y-103622500I0J147500D01*
G01*
X121445000Y-103277500D01*
G75*
G02*
X121592500Y-103130000I147500J0D01*
G01*
X121887500Y-103130000D01*
G75*
G02*
X122035000Y-103277500I0J-147500D01*
G01*
G37*
G36*
G01*
X121065000Y-104957500D02*
X121065000Y-105302500D01*
G75*
G02*
X120917500Y-105450000I-147500J0D01*
G01*
X120622500Y-105450000D01*
G75*
G02*
X120475000Y-105302500I0J147500D01*
G01*
X120475000Y-104957500D01*
G75*
G02*
X120622500Y-104810000I147500J0D01*
G01*
X120917500Y-104810000D01*
G75*
G02*
X121065000Y-104957500I0J-147500D01*
G01*
G37*
G36*
G01*
X122035000Y-104957500D02*
X122035000Y-105302500D01*
G75*
G02*
X121887500Y-105450000I-147500J0D01*
G01*
X121592500Y-105450000D01*
G75*
G02*
X121445000Y-105302500I0J147500D01*
G01*
X121445000Y-104957500D01*
G75*
G02*
X121592500Y-104810000I147500J0D01*
G01*
X121887500Y-104810000D01*
G75*
G02*
X122035000Y-104957500I0J-147500D01*
G01*
G37*
G36*
G01*
X121065000Y-106077500D02*
X121065000Y-106422500D01*
G75*
G02*
X120917500Y-106570000I-147500J0D01*
G01*
X120622500Y-106570000D01*
G75*
G02*
X120475000Y-106422500I0J147500D01*
G01*
X120475000Y-106077500D01*
G75*
G02*
X120622500Y-105930000I147500J0D01*
G01*
X120917500Y-105930000D01*
G75*
G02*
X121065000Y-106077500I0J-147500D01*
G01*
G37*
G36*
G01*
X122035000Y-106077500D02*
X122035000Y-106422500D01*
G75*
G02*
X121887500Y-106570000I-147500J0D01*
G01*
X121592500Y-106570000D01*
G75*
G02*
X121445000Y-106422500I0J147500D01*
G01*
X121445000Y-106077500D01*
G75*
G02*
X121592500Y-105930000I147500J0D01*
G01*
X121887500Y-105930000D01*
G75*
G02*
X122035000Y-106077500I0J-147500D01*
G01*
G37*
G36*
G01*
X126725000Y-73602500D02*
X126725000Y-73257500D01*
G75*
G02*
X126872500Y-73110000I147500J0D01*
G01*
X127167500Y-73110000D01*
G75*
G02*
X127315000Y-73257500I0J-147500D01*
G01*
X127315000Y-73602500D01*
G75*
G02*
X127167500Y-73750000I-147500J0D01*
G01*
X126872500Y-73750000D01*
G75*
G02*
X126725000Y-73602500I0J147500D01*
G01*
G37*
G36*
G01*
X125755000Y-73602500D02*
X125755000Y-73257500D01*
G75*
G02*
X125902500Y-73110000I147500J0D01*
G01*
X126197500Y-73110000D01*
G75*
G02*
X126345000Y-73257500I0J-147500D01*
G01*
X126345000Y-73602500D01*
G75*
G02*
X126197500Y-73750000I-147500J0D01*
G01*
X125902500Y-73750000D01*
G75*
G02*
X125755000Y-73602500I0J147500D01*
G01*
G37*
G36*
G01*
X128765000Y-73602500D02*
X128765000Y-73257500D01*
G75*
G02*
X128912500Y-73110000I147500J0D01*
G01*
X129207500Y-73110000D01*
G75*
G02*
X129355000Y-73257500I0J-147500D01*
G01*
X129355000Y-73602500D01*
G75*
G02*
X129207500Y-73750000I-147500J0D01*
G01*
X128912500Y-73750000D01*
G75*
G02*
X128765000Y-73602500I0J147500D01*
G01*
G37*
G36*
G01*
X127795000Y-73602500D02*
X127795000Y-73257500D01*
G75*
G02*
X127942500Y-73110000I147500J0D01*
G01*
X128237500Y-73110000D01*
G75*
G02*
X128385000Y-73257500I0J-147500D01*
G01*
X128385000Y-73602500D01*
G75*
G02*
X128237500Y-73750000I-147500J0D01*
G01*
X127942500Y-73750000D01*
G75*
G02*
X127795000Y-73602500I0J147500D01*
G01*
G37*
G36*
G01*
X124857500Y-74765000D02*
X125202500Y-74765000D01*
G75*
G02*
X125350000Y-74912500I0J-147500D01*
G01*
X125350000Y-75207500D01*
G75*
G02*
X125202500Y-75355000I-147500J0D01*
G01*
X124857500Y-75355000D01*
G75*
G02*
X124710000Y-75207500I0J147500D01*
G01*
X124710000Y-74912500D01*
G75*
G02*
X124857500Y-74765000I147500J0D01*
G01*
G37*
G36*
G01*
X124857500Y-73795000D02*
X125202500Y-73795000D01*
G75*
G02*
X125350000Y-73942500I0J-147500D01*
G01*
X125350000Y-74237500D01*
G75*
G02*
X125202500Y-74385000I-147500J0D01*
G01*
X124857500Y-74385000D01*
G75*
G02*
X124710000Y-74237500I0J147500D01*
G01*
X124710000Y-73942500D01*
G75*
G02*
X124857500Y-73795000I147500J0D01*
G01*
G37*
G36*
G01*
X124857500Y-76795000D02*
X125202500Y-76795000D01*
G75*
G02*
X125350000Y-76942500I0J-147500D01*
G01*
X125350000Y-77237500D01*
G75*
G02*
X125202500Y-77385000I-147500J0D01*
G01*
X124857500Y-77385000D01*
G75*
G02*
X124710000Y-77237500I0J147500D01*
G01*
X124710000Y-76942500D01*
G75*
G02*
X124857500Y-76795000I147500J0D01*
G01*
G37*
G36*
G01*
X124857500Y-75825000D02*
X125202500Y-75825000D01*
G75*
G02*
X125350000Y-75972500I0J-147500D01*
G01*
X125350000Y-76267500D01*
G75*
G02*
X125202500Y-76415000I-147500J0D01*
G01*
X124857500Y-76415000D01*
G75*
G02*
X124710000Y-76267500I0J147500D01*
G01*
X124710000Y-75972500D01*
G75*
G02*
X124857500Y-75825000I147500J0D01*
G01*
G37*
G36*
G01*
X134140000Y-111882500D02*
X134140000Y-111537500D01*
G75*
G02*
X134287500Y-111390000I147500J0D01*
G01*
X134582500Y-111390000D01*
G75*
G02*
X134730000Y-111537500I0J-147500D01*
G01*
X134730000Y-111882500D01*
G75*
G02*
X134582500Y-112030000I-147500J0D01*
G01*
X134287500Y-112030000D01*
G75*
G02*
X134140000Y-111882500I0J147500D01*
G01*
G37*
G36*
G01*
X133170000Y-111882500D02*
X133170000Y-111537500D01*
G75*
G02*
X133317500Y-111390000I147500J0D01*
G01*
X133612500Y-111390000D01*
G75*
G02*
X133760000Y-111537500I0J-147500D01*
G01*
X133760000Y-111882500D01*
G75*
G02*
X133612500Y-112030000I-147500J0D01*
G01*
X133317500Y-112030000D01*
G75*
G02*
X133170000Y-111882500I0J147500D01*
G01*
G37*
G36*
G01*
X136145000Y-111882500D02*
X136145000Y-111537500D01*
G75*
G02*
X136292500Y-111390000I147500J0D01*
G01*
X136587500Y-111390000D01*
G75*
G02*
X136735000Y-111537500I0J-147500D01*
G01*
X136735000Y-111882500D01*
G75*
G02*
X136587500Y-112030000I-147500J0D01*
G01*
X136292500Y-112030000D01*
G75*
G02*
X136145000Y-111882500I0J147500D01*
G01*
G37*
G36*
G01*
X135175000Y-111882500D02*
X135175000Y-111537500D01*
G75*
G02*
X135322500Y-111390000I147500J0D01*
G01*
X135617500Y-111390000D01*
G75*
G02*
X135765000Y-111537500I0J-147500D01*
G01*
X135765000Y-111882500D01*
G75*
G02*
X135617500Y-112030000I-147500J0D01*
G01*
X135322500Y-112030000D01*
G75*
G02*
X135175000Y-111882500I0J147500D01*
G01*
G37*
G36*
G01*
X117457500Y-118520000D02*
X117802500Y-118520000D01*
G75*
G02*
X117950000Y-118667500I0J-147500D01*
G01*
X117950000Y-118962500D01*
G75*
G02*
X117802500Y-119110000I-147500J0D01*
G01*
X117457500Y-119110000D01*
G75*
G02*
X117310000Y-118962500I0J147500D01*
G01*
X117310000Y-118667500D01*
G75*
G02*
X117457500Y-118520000I147500J0D01*
G01*
G37*
G36*
G01*
X117457500Y-117550000D02*
X117802500Y-117550000D01*
G75*
G02*
X117950000Y-117697500I0J-147500D01*
G01*
X117950000Y-117992500D01*
G75*
G02*
X117802500Y-118140000I-147500J0D01*
G01*
X117457500Y-118140000D01*
G75*
G02*
X117310000Y-117992500I0J147500D01*
G01*
X117310000Y-117697500D01*
G75*
G02*
X117457500Y-117550000I147500J0D01*
G01*
G37*
G36*
G01*
X115840000Y-121132500D02*
X115840000Y-120787500D01*
G75*
G02*
X115987500Y-120640000I147500J0D01*
G01*
X116282500Y-120640000D01*
G75*
G02*
X116430000Y-120787500I0J-147500D01*
G01*
X116430000Y-121132500D01*
G75*
G02*
X116282500Y-121280000I-147500J0D01*
G01*
X115987500Y-121280000D01*
G75*
G02*
X115840000Y-121132500I0J147500D01*
G01*
G37*
G36*
G01*
X114870000Y-121132500D02*
X114870000Y-120787500D01*
G75*
G02*
X115017500Y-120640000I147500J0D01*
G01*
X115312500Y-120640000D01*
G75*
G02*
X115460000Y-120787500I0J-147500D01*
G01*
X115460000Y-121132500D01*
G75*
G02*
X115312500Y-121280000I-147500J0D01*
G01*
X115017500Y-121280000D01*
G75*
G02*
X114870000Y-121132500I0J147500D01*
G01*
G37*
G36*
G01*
X109900500Y-130112000D02*
X109555500Y-130112000D01*
G75*
G02*
X109408000Y-129964500I0J147500D01*
G01*
X109408000Y-129669500D01*
G75*
G02*
X109555500Y-129522000I147500J0D01*
G01*
X109900500Y-129522000D01*
G75*
G02*
X110048000Y-129669500I0J-147500D01*
G01*
X110048000Y-129964500D01*
G75*
G02*
X109900500Y-130112000I-147500J0D01*
G01*
G37*
G36*
G01*
X109900500Y-131082000D02*
X109555500Y-131082000D01*
G75*
G02*
X109408000Y-130934500I0J147500D01*
G01*
X109408000Y-130639500D01*
G75*
G02*
X109555500Y-130492000I147500J0D01*
G01*
X109900500Y-130492000D01*
G75*
G02*
X110048000Y-130639500I0J-147500D01*
G01*
X110048000Y-130934500D01*
G75*
G02*
X109900500Y-131082000I-147500J0D01*
G01*
G37*
G36*
G01*
X109900500Y-136739000D02*
X109555500Y-136739000D01*
G75*
G02*
X109408000Y-136591500I0J147500D01*
G01*
X109408000Y-136296500D01*
G75*
G02*
X109555500Y-136149000I147500J0D01*
G01*
X109900500Y-136149000D01*
G75*
G02*
X110048000Y-136296500I0J-147500D01*
G01*
X110048000Y-136591500D01*
G75*
G02*
X109900500Y-136739000I-147500J0D01*
G01*
G37*
G36*
G01*
X109900500Y-137709000D02*
X109555500Y-137709000D01*
G75*
G02*
X109408000Y-137561500I0J147500D01*
G01*
X109408000Y-137266500D01*
G75*
G02*
X109555500Y-137119000I147500J0D01*
G01*
X109900500Y-137119000D01*
G75*
G02*
X110048000Y-137266500I0J-147500D01*
G01*
X110048000Y-137561500D01*
G75*
G02*
X109900500Y-137709000I-147500J0D01*
G01*
G37*
G36*
G01*
X105320000Y-139392500D02*
X105320000Y-139047500D01*
G75*
G02*
X105467500Y-138900000I147500J0D01*
G01*
X105762500Y-138900000D01*
G75*
G02*
X105910000Y-139047500I0J-147500D01*
G01*
X105910000Y-139392500D01*
G75*
G02*
X105762500Y-139540000I-147500J0D01*
G01*
X105467500Y-139540000D01*
G75*
G02*
X105320000Y-139392500I0J147500D01*
G01*
G37*
G36*
G01*
X104350000Y-139392500D02*
X104350000Y-139047500D01*
G75*
G02*
X104497500Y-138900000I147500J0D01*
G01*
X104792500Y-138900000D01*
G75*
G02*
X104940000Y-139047500I0J-147500D01*
G01*
X104940000Y-139392500D01*
G75*
G02*
X104792500Y-139540000I-147500J0D01*
G01*
X104497500Y-139540000D01*
G75*
G02*
X104350000Y-139392500I0J147500D01*
G01*
G37*
D18*
X133650000Y-82370000D03*
X134600000Y-80370000D03*
X132700000Y-80370000D03*
D26*
X107348000Y-111732000D03*
X106048000Y-111732000D03*
X106698000Y-113632000D03*
X106698000Y-111732000D03*
X106048000Y-113632000D03*
X107348000Y-113632000D03*
X110396000Y-111732000D03*
X109096000Y-111732000D03*
X109746000Y-113632000D03*
X109746000Y-111732000D03*
X109096000Y-113632000D03*
X110396000Y-113632000D03*
D27*
X123390000Y-104940000D03*
X125390000Y-105890000D03*
X125390000Y-103990000D03*
D18*
X127480000Y-76820000D03*
X128430000Y-74820000D03*
X126530000Y-74820000D03*
X134780000Y-115140000D03*
X135730000Y-113140000D03*
X133830000Y-113140000D03*
X112268000Y-132826000D03*
X113218000Y-130826000D03*
X111318000Y-130826000D03*
G36*
G01*
X122025000Y-114305000D02*
X119875000Y-114305000D01*
G75*
G02*
X119625000Y-114055000I0J250000D01*
G01*
X119625000Y-113305000D01*
G75*
G02*
X119875000Y-113055000I250000J0D01*
G01*
X122025000Y-113055000D01*
G75*
G02*
X122275000Y-113305000I0J-250000D01*
G01*
X122275000Y-114055000D01*
G75*
G02*
X122025000Y-114305000I-250000J0D01*
G01*
G37*
G36*
G01*
X122025000Y-117105000D02*
X119875000Y-117105000D01*
G75*
G02*
X119625000Y-116855000I0J250000D01*
G01*
X119625000Y-116105000D01*
G75*
G02*
X119875000Y-115855000I250000J0D01*
G01*
X122025000Y-115855000D01*
G75*
G02*
X122275000Y-116105000I0J-250000D01*
G01*
X122275000Y-116855000D01*
G75*
G02*
X122025000Y-117105000I-250000J0D01*
G01*
G37*
D28*
X102960000Y-126100000D03*
X102960000Y-129100000D03*
D29*
X104110000Y-123525000D03*
X104110000Y-131675000D03*
D30*
X106810000Y-124350000D03*
X106810000Y-130850000D03*
D31*
X106980000Y-126300000D03*
X106980000Y-126950000D03*
X106980000Y-127600000D03*
X106980000Y-128250000D03*
X106980000Y-128900000D03*
D32*
X111376000Y-128778000D03*
X114176000Y-128778000D03*
D24*
X125760000Y-114900000D03*
X129060000Y-114900000D03*
D33*
X131280000Y-115330000D03*
X131280000Y-112030000D03*
G36*
G01*
X128005000Y-79037500D02*
X128005000Y-79382500D01*
G75*
G02*
X127857500Y-79530000I-147500J0D01*
G01*
X127562500Y-79530000D01*
G75*
G02*
X127415000Y-79382500I0J147500D01*
G01*
X127415000Y-79037500D01*
G75*
G02*
X127562500Y-78890000I147500J0D01*
G01*
X127857500Y-78890000D01*
G75*
G02*
X128005000Y-79037500I0J-147500D01*
G01*
G37*
G36*
G01*
X128975000Y-79037500D02*
X128975000Y-79382500D01*
G75*
G02*
X128827500Y-79530000I-147500J0D01*
G01*
X128532500Y-79530000D01*
G75*
G02*
X128385000Y-79382500I0J147500D01*
G01*
X128385000Y-79037500D01*
G75*
G02*
X128532500Y-78890000I147500J0D01*
G01*
X128827500Y-78890000D01*
G75*
G02*
X128975000Y-79037500I0J-147500D01*
G01*
G37*
G36*
G01*
X131980000Y-74662500D02*
X131980000Y-74317500D01*
G75*
G02*
X132127500Y-74170000I147500J0D01*
G01*
X132422500Y-74170000D01*
G75*
G02*
X132570000Y-74317500I0J-147500D01*
G01*
X132570000Y-74662500D01*
G75*
G02*
X132422500Y-74810000I-147500J0D01*
G01*
X132127500Y-74810000D01*
G75*
G02*
X131980000Y-74662500I0J147500D01*
G01*
G37*
G36*
G01*
X131010000Y-74662500D02*
X131010000Y-74317500D01*
G75*
G02*
X131157500Y-74170000I147500J0D01*
G01*
X131452500Y-74170000D01*
G75*
G02*
X131600000Y-74317500I0J-147500D01*
G01*
X131600000Y-74662500D01*
G75*
G02*
X131452500Y-74810000I-147500J0D01*
G01*
X131157500Y-74810000D01*
G75*
G02*
X131010000Y-74662500I0J147500D01*
G01*
G37*
G36*
G01*
X123797500Y-71705000D02*
X124142500Y-71705000D01*
G75*
G02*
X124290000Y-71852500I0J-147500D01*
G01*
X124290000Y-72147500D01*
G75*
G02*
X124142500Y-72295000I-147500J0D01*
G01*
X123797500Y-72295000D01*
G75*
G02*
X123650000Y-72147500I0J147500D01*
G01*
X123650000Y-71852500D01*
G75*
G02*
X123797500Y-71705000I147500J0D01*
G01*
G37*
G36*
G01*
X123797500Y-70735000D02*
X124142500Y-70735000D01*
G75*
G02*
X124290000Y-70882500I0J-147500D01*
G01*
X124290000Y-71177500D01*
G75*
G02*
X124142500Y-71325000I-147500J0D01*
G01*
X123797500Y-71325000D01*
G75*
G02*
X123650000Y-71177500I0J147500D01*
G01*
X123650000Y-70882500D01*
G75*
G02*
X123797500Y-70735000I147500J0D01*
G01*
G37*
G36*
G01*
X125147500Y-71705000D02*
X125492500Y-71705000D01*
G75*
G02*
X125640000Y-71852500I0J-147500D01*
G01*
X125640000Y-72147500D01*
G75*
G02*
X125492500Y-72295000I-147500J0D01*
G01*
X125147500Y-72295000D01*
G75*
G02*
X125000000Y-72147500I0J147500D01*
G01*
X125000000Y-71852500D01*
G75*
G02*
X125147500Y-71705000I147500J0D01*
G01*
G37*
G36*
G01*
X125147500Y-70735000D02*
X125492500Y-70735000D01*
G75*
G02*
X125640000Y-70882500I0J-147500D01*
G01*
X125640000Y-71177500D01*
G75*
G02*
X125492500Y-71325000I-147500J0D01*
G01*
X125147500Y-71325000D01*
G75*
G02*
X125000000Y-71177500I0J147500D01*
G01*
X125000000Y-70882500D01*
G75*
G02*
X125147500Y-70735000I147500J0D01*
G01*
G37*
G36*
G01*
X122035000Y-101777500D02*
X122035000Y-102122500D01*
G75*
G02*
X121887500Y-102270000I-147500J0D01*
G01*
X121592500Y-102270000D01*
G75*
G02*
X121445000Y-102122500I0J147500D01*
G01*
X121445000Y-101777500D01*
G75*
G02*
X121592500Y-101630000I147500J0D01*
G01*
X121887500Y-101630000D01*
G75*
G02*
X122035000Y-101777500I0J-147500D01*
G01*
G37*
G36*
G01*
X123005000Y-101777500D02*
X123005000Y-102122500D01*
G75*
G02*
X122857500Y-102270000I-147500J0D01*
G01*
X122562500Y-102270000D01*
G75*
G02*
X122415000Y-102122500I0J147500D01*
G01*
X122415000Y-101777500D01*
G75*
G02*
X122562500Y-101630000I147500J0D01*
G01*
X122857500Y-101630000D01*
G75*
G02*
X123005000Y-101777500I0J-147500D01*
G01*
G37*
G36*
G01*
X104270000Y-119357500D02*
X104270000Y-119702500D01*
G75*
G02*
X104122500Y-119850000I-147500J0D01*
G01*
X103827500Y-119850000D01*
G75*
G02*
X103680000Y-119702500I0J147500D01*
G01*
X103680000Y-119357500D01*
G75*
G02*
X103827500Y-119210000I147500J0D01*
G01*
X104122500Y-119210000D01*
G75*
G02*
X104270000Y-119357500I0J-147500D01*
G01*
G37*
G36*
G01*
X105240000Y-119357500D02*
X105240000Y-119702500D01*
G75*
G02*
X105092500Y-119850000I-147500J0D01*
G01*
X104797500Y-119850000D01*
G75*
G02*
X104650000Y-119702500I0J147500D01*
G01*
X104650000Y-119357500D01*
G75*
G02*
X104797500Y-119210000I147500J0D01*
G01*
X105092500Y-119210000D01*
G75*
G02*
X105240000Y-119357500I0J-147500D01*
G01*
G37*
G36*
G01*
X138503000Y-137609500D02*
X138503000Y-137954500D01*
G75*
G02*
X138355500Y-138102000I-147500J0D01*
G01*
X138060500Y-138102000D01*
G75*
G02*
X137913000Y-137954500I0J147500D01*
G01*
X137913000Y-137609500D01*
G75*
G02*
X138060500Y-137462000I147500J0D01*
G01*
X138355500Y-137462000D01*
G75*
G02*
X138503000Y-137609500I0J-147500D01*
G01*
G37*
G36*
G01*
X139473000Y-137609500D02*
X139473000Y-137954500D01*
G75*
G02*
X139325500Y-138102000I-147500J0D01*
G01*
X139030500Y-138102000D01*
G75*
G02*
X138883000Y-137954500I0J147500D01*
G01*
X138883000Y-137609500D01*
G75*
G02*
X139030500Y-137462000I147500J0D01*
G01*
X139325500Y-137462000D01*
G75*
G02*
X139473000Y-137609500I0J-147500D01*
G01*
G37*
G36*
G01*
X114980500Y-136485000D02*
X114635500Y-136485000D01*
G75*
G02*
X114488000Y-136337500I0J147500D01*
G01*
X114488000Y-136042500D01*
G75*
G02*
X114635500Y-135895000I147500J0D01*
G01*
X114980500Y-135895000D01*
G75*
G02*
X115128000Y-136042500I0J-147500D01*
G01*
X115128000Y-136337500D01*
G75*
G02*
X114980500Y-136485000I-147500J0D01*
G01*
G37*
G36*
G01*
X114980500Y-137455000D02*
X114635500Y-137455000D01*
G75*
G02*
X114488000Y-137307500I0J147500D01*
G01*
X114488000Y-137012500D01*
G75*
G02*
X114635500Y-136865000I147500J0D01*
G01*
X114980500Y-136865000D01*
G75*
G02*
X115128000Y-137012500I0J-147500D01*
G01*
X115128000Y-137307500D01*
G75*
G02*
X114980500Y-137455000I-147500J0D01*
G01*
G37*
G36*
G01*
X108122500Y-136993000D02*
X107777500Y-136993000D01*
G75*
G02*
X107630000Y-136845500I0J147500D01*
G01*
X107630000Y-136550500D01*
G75*
G02*
X107777500Y-136403000I147500J0D01*
G01*
X108122500Y-136403000D01*
G75*
G02*
X108270000Y-136550500I0J-147500D01*
G01*
X108270000Y-136845500D01*
G75*
G02*
X108122500Y-136993000I-147500J0D01*
G01*
G37*
G36*
G01*
X108122500Y-137963000D02*
X107777500Y-137963000D01*
G75*
G02*
X107630000Y-137815500I0J147500D01*
G01*
X107630000Y-137520500D01*
G75*
G02*
X107777500Y-137373000I147500J0D01*
G01*
X108122500Y-137373000D01*
G75*
G02*
X108270000Y-137520500I0J-147500D01*
G01*
X108270000Y-137815500D01*
G75*
G02*
X108122500Y-137963000I-147500J0D01*
G01*
G37*
G36*
G01*
X105497000Y-133939500D02*
X105497000Y-134284500D01*
G75*
G02*
X105349500Y-134432000I-147500J0D01*
G01*
X105054500Y-134432000D01*
G75*
G02*
X104907000Y-134284500I0J147500D01*
G01*
X104907000Y-133939500D01*
G75*
G02*
X105054500Y-133792000I147500J0D01*
G01*
X105349500Y-133792000D01*
G75*
G02*
X105497000Y-133939500I0J-147500D01*
G01*
G37*
G36*
G01*
X106467000Y-133939500D02*
X106467000Y-134284500D01*
G75*
G02*
X106319500Y-134432000I-147500J0D01*
G01*
X106024500Y-134432000D01*
G75*
G02*
X105877000Y-134284500I0J147500D01*
G01*
X105877000Y-133939500D01*
G75*
G02*
X106024500Y-133792000I147500J0D01*
G01*
X106319500Y-133792000D01*
G75*
G02*
X106467000Y-133939500I0J-147500D01*
G01*
G37*
G36*
G01*
X136070000Y-130464000D02*
X136070000Y-132964000D01*
G75*
G02*
X135820000Y-133214000I-250000J0D01*
G01*
X134720000Y-133214000D01*
G75*
G02*
X134470000Y-132964000I0J250000D01*
G01*
X134470000Y-130464000D01*
G75*
G02*
X134720000Y-130214000I250000J0D01*
G01*
X135820000Y-130214000D01*
G75*
G02*
X136070000Y-130464000I0J-250000D01*
G01*
G37*
G36*
G01*
X142870000Y-130464000D02*
X142870000Y-132964000D01*
G75*
G02*
X142620000Y-133214000I-250000J0D01*
G01*
X141520000Y-133214000D01*
G75*
G02*
X141270000Y-132964000I0J250000D01*
G01*
X141270000Y-130464000D01*
G75*
G02*
X141520000Y-130214000I250000J0D01*
G01*
X142620000Y-130214000D01*
G75*
G02*
X142870000Y-130464000I0J-250000D01*
G01*
G37*
G36*
G01*
X138170000Y-131464000D02*
X138170000Y-136464000D01*
G75*
G02*
X137920000Y-136714000I-250000J0D01*
G01*
X137420000Y-136714000D01*
G75*
G02*
X137170000Y-136464000I0J250000D01*
G01*
X137170000Y-131464000D01*
G75*
G02*
X137420000Y-131214000I250000J0D01*
G01*
X137920000Y-131214000D01*
G75*
G02*
X138170000Y-131464000I0J-250000D01*
G01*
G37*
G36*
G01*
X140170000Y-131464000D02*
X140170000Y-136464000D01*
G75*
G02*
X139920000Y-136714000I-250000J0D01*
G01*
X139420000Y-136714000D01*
G75*
G02*
X139170000Y-136464000I0J250000D01*
G01*
X139170000Y-131464000D01*
G75*
G02*
X139420000Y-131214000I250000J0D01*
G01*
X139920000Y-131214000D01*
G75*
G02*
X140170000Y-131464000I0J-250000D01*
G01*
G37*
D34*
X177780000Y-136425000D03*
X177780000Y-131375000D03*
X175240000Y-136425000D03*
X175240000Y-131375000D03*
X172700000Y-136425000D03*
X172700000Y-131375000D03*
X170160000Y-136425000D03*
X170160000Y-131375000D03*
X167620000Y-136425000D03*
X167620000Y-131375000D03*
X165080000Y-136425000D03*
X165080000Y-131375000D03*
X162540000Y-136425000D03*
X162540000Y-131375000D03*
X160000000Y-136425000D03*
X160000000Y-131375000D03*
X157460000Y-136425000D03*
X157460000Y-131375000D03*
X154920000Y-136425000D03*
X154920000Y-131375000D03*
X152380000Y-136425000D03*
X152380000Y-131375000D03*
X149840000Y-136425000D03*
X149840000Y-131375000D03*
X147300000Y-136425000D03*
X147300000Y-131375000D03*
M02*
