G04 #@! TF.GenerationSoftware,KiCad,Pcbnew,5.99.0-unknown-711fc99~101~ubuntu18.04.1*
G04 #@! TF.CreationDate,2020-06-08T21:24:47+05:30*
G04 #@! TF.ProjectId,paperd.ink_main_pcb,70617065-7264-42e6-996e-6b5f6d61696e,rev?*
G04 #@! TF.SameCoordinates,Original*
G04 #@! TF.FileFunction,Paste,Top*
G04 #@! TF.FilePolarity,Positive*
%FSLAX46Y46*%
G04 Gerber Fmt 4.6, Leading zero omitted, Abs format (unit mm)*
G04 Created by KiCad (PCBNEW 5.99.0-unknown-711fc99~101~ubuntu18.04.1) date 2020-06-08 21:24:47*
%MOMM*%
%LPD*%
G01*
G04 APERTURE LIST*
G04 APERTURE END LIST*
G36*
G01*
X182560000Y-139560000D02*
X182560000Y-139560000D01*
G75*
G02*
X182710000Y-139410000I150000J0D01*
G01*
X187410000Y-139410000D01*
G75*
G02*
X187560000Y-139560000I0J-150000D01*
G01*
X187560000Y-139560000D01*
G75*
G02*
X187410000Y-139710000I-150000J0D01*
G01*
X182710000Y-139710000D01*
G75*
G02*
X182560000Y-139560000I0J150000D01*
G01*
G37*
G36*
G01*
X182560000Y-139060000D02*
X182560000Y-139060000D01*
G75*
G02*
X182710000Y-138910000I150000J0D01*
G01*
X187410000Y-138910000D01*
G75*
G02*
X187560000Y-139060000I0J-150000D01*
G01*
X187560000Y-139060000D01*
G75*
G02*
X187410000Y-139210000I-150000J0D01*
G01*
X182710000Y-139210000D01*
G75*
G02*
X182560000Y-139060000I0J150000D01*
G01*
G37*
G36*
G01*
X182560000Y-138560000D02*
X182560000Y-138560000D01*
G75*
G02*
X182710000Y-138410000I150000J0D01*
G01*
X187410000Y-138410000D01*
G75*
G02*
X187560000Y-138560000I0J-150000D01*
G01*
X187560000Y-138560000D01*
G75*
G02*
X187410000Y-138710000I-150000J0D01*
G01*
X182710000Y-138710000D01*
G75*
G02*
X182560000Y-138560000I0J150000D01*
G01*
G37*
G36*
G01*
X182560000Y-138060000D02*
X182560000Y-138060000D01*
G75*
G02*
X182710000Y-137910000I150000J0D01*
G01*
X187410000Y-137910000D01*
G75*
G02*
X187560000Y-138060000I0J-150000D01*
G01*
X187560000Y-138060000D01*
G75*
G02*
X187410000Y-138210000I-150000J0D01*
G01*
X182710000Y-138210000D01*
G75*
G02*
X182560000Y-138060000I0J150000D01*
G01*
G37*
G36*
G01*
X182560000Y-137560000D02*
X182560000Y-137560000D01*
G75*
G02*
X182710000Y-137410000I150000J0D01*
G01*
X187410000Y-137410000D01*
G75*
G02*
X187560000Y-137560000I0J-150000D01*
G01*
X187560000Y-137560000D01*
G75*
G02*
X187410000Y-137710000I-150000J0D01*
G01*
X182710000Y-137710000D01*
G75*
G02*
X182560000Y-137560000I0J150000D01*
G01*
G37*
G36*
G01*
X182560000Y-137060000D02*
X182560000Y-137060000D01*
G75*
G02*
X182710000Y-136910000I150000J0D01*
G01*
X187410000Y-136910000D01*
G75*
G02*
X187560000Y-137060000I0J-150000D01*
G01*
X187560000Y-137060000D01*
G75*
G02*
X187410000Y-137210000I-150000J0D01*
G01*
X182710000Y-137210000D01*
G75*
G02*
X182560000Y-137060000I0J150000D01*
G01*
G37*
G36*
G01*
X182560000Y-136560000D02*
X182560000Y-136560000D01*
G75*
G02*
X182710000Y-136410000I150000J0D01*
G01*
X187410000Y-136410000D01*
G75*
G02*
X187560000Y-136560000I0J-150000D01*
G01*
X187560000Y-136560000D01*
G75*
G02*
X187410000Y-136710000I-150000J0D01*
G01*
X182710000Y-136710000D01*
G75*
G02*
X182560000Y-136560000I0J150000D01*
G01*
G37*
G36*
G01*
X182560000Y-136060000D02*
X182560000Y-136060000D01*
G75*
G02*
X182710000Y-135910000I150000J0D01*
G01*
X187410000Y-135910000D01*
G75*
G02*
X187560000Y-136060000I0J-150000D01*
G01*
X187560000Y-136060000D01*
G75*
G02*
X187410000Y-136210000I-150000J0D01*
G01*
X182710000Y-136210000D01*
G75*
G02*
X182560000Y-136060000I0J150000D01*
G01*
G37*
G36*
G01*
X182560000Y-135560000D02*
X182560000Y-135560000D01*
G75*
G02*
X182710000Y-135410000I150000J0D01*
G01*
X187410000Y-135410000D01*
G75*
G02*
X187560000Y-135560000I0J-150000D01*
G01*
X187560000Y-135560000D01*
G75*
G02*
X187410000Y-135710000I-150000J0D01*
G01*
X182710000Y-135710000D01*
G75*
G02*
X182560000Y-135560000I0J150000D01*
G01*
G37*
G36*
G01*
X182560000Y-135060000D02*
X182560000Y-135060000D01*
G75*
G02*
X182710000Y-134910000I150000J0D01*
G01*
X187410000Y-134910000D01*
G75*
G02*
X187560000Y-135060000I0J-150000D01*
G01*
X187560000Y-135060000D01*
G75*
G02*
X187410000Y-135210000I-150000J0D01*
G01*
X182710000Y-135210000D01*
G75*
G02*
X182560000Y-135060000I0J150000D01*
G01*
G37*
G36*
G01*
X182560000Y-134560000D02*
X182560000Y-134560000D01*
G75*
G02*
X182710000Y-134410000I150000J0D01*
G01*
X187410000Y-134410000D01*
G75*
G02*
X187560000Y-134560000I0J-150000D01*
G01*
X187560000Y-134560000D01*
G75*
G02*
X187410000Y-134710000I-150000J0D01*
G01*
X182710000Y-134710000D01*
G75*
G02*
X182560000Y-134560000I0J150000D01*
G01*
G37*
G36*
G01*
X182560000Y-134060000D02*
X182560000Y-134060000D01*
G75*
G02*
X182710000Y-133910000I150000J0D01*
G01*
X187410000Y-133910000D01*
G75*
G02*
X187560000Y-134060000I0J-150000D01*
G01*
X187560000Y-134060000D01*
G75*
G02*
X187410000Y-134210000I-150000J0D01*
G01*
X182710000Y-134210000D01*
G75*
G02*
X182560000Y-134060000I0J150000D01*
G01*
G37*
G36*
G01*
X182560000Y-133560000D02*
X182560000Y-133560000D01*
G75*
G02*
X182710000Y-133410000I150000J0D01*
G01*
X187410000Y-133410000D01*
G75*
G02*
X187560000Y-133560000I0J-150000D01*
G01*
X187560000Y-133560000D01*
G75*
G02*
X187410000Y-133710000I-150000J0D01*
G01*
X182710000Y-133710000D01*
G75*
G02*
X182560000Y-133560000I0J150000D01*
G01*
G37*
G36*
G01*
X182560000Y-133060000D02*
X182560000Y-133060000D01*
G75*
G02*
X182710000Y-132910000I150000J0D01*
G01*
X187410000Y-132910000D01*
G75*
G02*
X187560000Y-133060000I0J-150000D01*
G01*
X187560000Y-133060000D01*
G75*
G02*
X187410000Y-133210000I-150000J0D01*
G01*
X182710000Y-133210000D01*
G75*
G02*
X182560000Y-133060000I0J150000D01*
G01*
G37*
M02*
