M48
; DRILL file {KiCad 5.99.0-unknown-711fc99~101~ubuntu18.04.1} date Mon Jun  8 21:24:49 2020
; FORMAT={3:3/ absolute / metric / suppress leading zeros}
; #@! TF.CreationDate,2020-06-08T21:24:49+05:30
; #@! TF.GenerationSoftware,Kicad,Pcbnew,5.99.0-unknown-711fc99~101~ubuntu18.04.1
FMAT,2
METRIC,TZ
T1C0.200
T2C0.300
T3C0.500
T4C0.700
T5C1.000
%
G90
G05
T1
X102663Y-94460
X102940Y-133950
X102940Y-134852
X102940Y-135753
X102940Y-136655
X102940Y-137557
X102940Y-138458
X102940Y-139360
X102990Y-81060
X103010Y-79640
X103240Y-89740
X103560Y-112430
X104020Y-101080
X104040Y-99550
X104630Y-101100
X104640Y-99590
X105100Y-117780
X105930Y-95010
X105990Y-91300
X106400Y-73420
X106500Y-75930
X106500Y-82250
X106530Y-77100
X106560Y-74820
X106760Y-114410
X107120Y-90524
X107940Y-91506
X108220Y-113700
X108250Y-111980
X108410Y-120530
X108500Y-112880
X109330Y-128830
X109480Y-139210
X109490Y-91506
X109580Y-102860
X109660Y-120520
X109700Y-134710
X109900Y-93960
X109910Y-96740
X110086Y-135320
X110086Y-138720
X110950Y-114600
X111250Y-116630
X111270Y-117890
X111400Y-121930
X111730Y-117100
X111770Y-96330
X111812Y-96880
X111820Y-95750
X111840Y-95120
X111840Y-97520
X111860Y-94000
X112237Y-129995
X112720Y-120700
X113290Y-117140
X113360Y-116460
X114430Y-134490
X114640Y-138060
X114900Y-99110
X115450Y-99660
X115460Y-100780
X115470Y-102940
X116340Y-105030
X117140Y-90880
X117860Y-90450
X118200Y-92486
X118300Y-121030
X118430Y-117780
X120590Y-89950
X123110Y-106760
X123178Y-86248
X123290Y-120780
X123640Y-75880
X123645Y-92365
X123670Y-83380
X123710Y-74640
X123720Y-110490
X123890Y-120650
X123940Y-77790
X123950Y-87340
X124114Y-86088
X124240Y-95870
X124240Y-102730
X124380Y-83390
X124650Y-126970
X124680Y-126070
X124690Y-120600
X124720Y-92473
X124850Y-109920
X124900Y-121180
X125700Y-124080
X126260Y-123640
X127890Y-104520
X127890Y-107390
X129000Y-106030
X129050Y-104790
X129460Y-107110
X129690Y-104870
X135210Y-105560
X135230Y-106770
X137840Y-104830
X137850Y-103570
X137860Y-102240
X139890Y-70760
X139890Y-72030
X140152Y-93402
X140510Y-93840
X140540Y-92930
X141010Y-105560
X141160Y-70760
X141160Y-72030
X141233Y-107430
X141470Y-106770
X142430Y-70760
X142430Y-72030
X142811Y-92649
X142823Y-94438
X142900Y-95070
X142910Y-93810
X143010Y-121950
X143039Y-126548
X143040Y-123190
X143049Y-124335
X143049Y-127665
X143050Y-125420
X143184Y-121390
X143184Y-122580
X143184Y-123800
X143184Y-124880
X143184Y-126000
X143184Y-127080
X143184Y-128200
X143700Y-70760
X143700Y-72030
X144970Y-70760
X144970Y-72030
X146240Y-70760
X146240Y-72030
X147510Y-70760
X147510Y-72030
X148780Y-70760
X148780Y-72030
X150050Y-70760
X150050Y-72030
X151320Y-70760
X151320Y-72030
X152590Y-70760
X152590Y-72030
X153860Y-70760
X153860Y-72030
X155130Y-70760
X155130Y-72030
X156400Y-70760
X156400Y-72030
X157670Y-70760
X157670Y-72030
X158940Y-70760
X158940Y-72030
X160210Y-70760
X160210Y-72030
X161480Y-70760
X161480Y-72030
X162750Y-70760
X162750Y-72030
X164020Y-70760
X164020Y-72030
X165290Y-70760
X165290Y-72030
X166560Y-70760
X166560Y-72030
X167610Y-126910
X167830Y-70760
X167830Y-72030
X169100Y-70760
X169100Y-72030
X170150Y-128640
X170370Y-70760
X170370Y-72030
X171640Y-70760
X171640Y-72030
X172620Y-128630
X172910Y-70760
X172910Y-72030
X174180Y-70760
X174180Y-72030
X175230Y-128640
X175450Y-70760
X175450Y-72030
X176720Y-70760
X176720Y-72030
X177990Y-70760
X177990Y-72030
X179260Y-70760
X179260Y-72030
X180530Y-70760
X180530Y-72030
X181110Y-136380
X181650Y-138356
X181800Y-70760
X181800Y-72030
X181870Y-134290
X183070Y-70760
X183070Y-72030
X184340Y-70760
X184340Y-72030
X185610Y-70760
X185610Y-72030
X186880Y-70760
X186880Y-72030
X188150Y-70760
X188150Y-72030
X189890Y-70760
X189890Y-72030
X191160Y-70760
X191160Y-72030
X191160Y-73300
X191160Y-75300
X191160Y-76570
X191160Y-77840
X191160Y-79110
X191160Y-80380
X191160Y-81650
X191160Y-82920
X191160Y-84190
X191160Y-85460
X191160Y-86730
X191160Y-88000
X191160Y-89270
X191160Y-90540
X191160Y-91810
X191160Y-93080
X191160Y-94350
X191160Y-95620
X191160Y-96890
X191160Y-98160
X191160Y-99430
X191160Y-100700
X191160Y-101970
X191160Y-103240
X191160Y-104510
X191160Y-105780
X191160Y-107050
X191160Y-108320
X191160Y-109590
X191160Y-110860
X191160Y-112130
X191160Y-113400
X191160Y-114670
X191160Y-115940
X191160Y-117210
X191160Y-118480
X191160Y-119750
X191160Y-121020
X191160Y-122290
X191160Y-123560
X191160Y-124830
X191160Y-126100
X191160Y-127370
X191160Y-128640
X191160Y-129910
X191160Y-131180
X191160Y-132450
X191160Y-133720
X191160Y-134990
X192430Y-70760
X192430Y-72030
X192430Y-73300
X192430Y-75300
X192430Y-76570
X192430Y-77840
X192430Y-79110
X192430Y-80380
X192430Y-81650
X192430Y-82920
X192430Y-84190
X192430Y-85460
X192430Y-86730
X192430Y-88000
X192430Y-89270
X192430Y-90540
X192430Y-91810
X192430Y-93080
X192430Y-94350
X192430Y-95620
X192430Y-96890
X192430Y-98160
X192430Y-99430
X192430Y-100700
X192430Y-101970
X192430Y-103240
X192430Y-104510
X192430Y-105780
X192430Y-107050
X192430Y-108320
X192430Y-109590
X192430Y-110860
X192430Y-112130
X192430Y-113400
X192430Y-114670
X192430Y-115940
X192430Y-117210
X192430Y-118480
X192430Y-119750
X192430Y-121020
X192430Y-122290
X192430Y-123560
X192430Y-124830
X192430Y-126100
X192430Y-127370
X192430Y-128640
X192430Y-129910
X192430Y-131180
X192430Y-132450
X192430Y-133720
X192430Y-134990
T2
X103240Y-113320
X103990Y-120790
X104030Y-133970
X106720Y-70820
X107420Y-107010
X107560Y-116650
X107560Y-117920
X107770Y-134140
X107960Y-135570
X108540Y-130310
X108830Y-116650
X108830Y-117920
X109350Y-93050
X111390Y-126500
X112150Y-76360
X112150Y-77630
X112150Y-78900
X112150Y-80170
X112230Y-138119
X113420Y-76360
X113420Y-77630
X113420Y-78900
X113420Y-80170
X114690Y-76360
X114690Y-77630
X114690Y-78900
X114690Y-80170
X114720Y-119520
X114910Y-94150
X115200Y-135090
X115960Y-76360
X115960Y-77630
X115960Y-78900
X115960Y-80170
X116910Y-120930
X117670Y-119560
X118820Y-86460
X119050Y-117810
X119140Y-109670
X119640Y-104080
X122250Y-121100
X123190Y-100860
X123920Y-73810
X124780Y-111940
X125350Y-116840
X125370Y-107440
X126320Y-117450
X126550Y-71060
X126560Y-72040
X127420Y-121200
X127740Y-109440
X128680Y-80490
X130010Y-116020
X130170Y-73320
X130240Y-74150
X130400Y-104172
X131850Y-102250
X133220Y-117700
X134020Y-99510
X134730Y-116560
X134800Y-117680
X135240Y-77840
X136200Y-83690
X136570Y-104430
X137260Y-113210
X137560Y-138660
X139250Y-73350
X145710Y-130090
X145800Y-136230
X165120Y-128900
X166355Y-136425
X171415Y-136425
X179410Y-136850
X181860Y-133070
X181860Y-139180
T3
X106260Y-125600
X106260Y-129600
T4
X136150Y-73390
T5
X106830Y-97776
X106830Y-105776
T0
M30
