G04 #@! TF.GenerationSoftware,KiCad,Pcbnew,5.99.0-unknown-711fc99~101~ubuntu18.04.1*
G04 #@! TF.CreationDate,2020-06-08T21:24:47+05:30*
G04 #@! TF.ProjectId,paperd.ink_main_pcb,70617065-7264-42e6-996e-6b5f6d61696e,rev?*
G04 #@! TF.SameCoordinates,Original*
G04 #@! TF.FileFunction,Soldermask,Top*
G04 #@! TF.FilePolarity,Negative*
%FSLAX46Y46*%
G04 Gerber Fmt 4.6, Leading zero omitted, Abs format (unit mm)*
G04 Created by KiCad (PCBNEW 5.99.0-unknown-711fc99~101~ubuntu18.04.1) date 2020-06-08 21:24:47*
%MOMM*%
%LPD*%
G01*
G04 APERTURE LIST*
%ADD10C,0.802000*%
%ADD11C,1.102000*%
%ADD12C,0.602000*%
G04 APERTURE END LIST*
D10*
X136150000Y-73390000D03*
D11*
X106830000Y-105776000D03*
X106830000Y-97776000D03*
D12*
X106260000Y-125600000D03*
X106260000Y-129600000D03*
G36*
G01*
X182509000Y-139560000D02*
X182509000Y-139560000D01*
G75*
G02*
X182710000Y-139359000I201000J0D01*
G01*
X187410000Y-139359000D01*
G75*
G02*
X187611000Y-139560000I0J-201000D01*
G01*
X187611000Y-139560000D01*
G75*
G02*
X187410000Y-139761000I-201000J0D01*
G01*
X182710000Y-139761000D01*
G75*
G02*
X182509000Y-139560000I0J201000D01*
G01*
G37*
G36*
G01*
X182509000Y-139060000D02*
X182509000Y-139060000D01*
G75*
G02*
X182710000Y-138859000I201000J0D01*
G01*
X187410000Y-138859000D01*
G75*
G02*
X187611000Y-139060000I0J-201000D01*
G01*
X187611000Y-139060000D01*
G75*
G02*
X187410000Y-139261000I-201000J0D01*
G01*
X182710000Y-139261000D01*
G75*
G02*
X182509000Y-139060000I0J201000D01*
G01*
G37*
G36*
G01*
X182509000Y-138560000D02*
X182509000Y-138560000D01*
G75*
G02*
X182710000Y-138359000I201000J0D01*
G01*
X187410000Y-138359000D01*
G75*
G02*
X187611000Y-138560000I0J-201000D01*
G01*
X187611000Y-138560000D01*
G75*
G02*
X187410000Y-138761000I-201000J0D01*
G01*
X182710000Y-138761000D01*
G75*
G02*
X182509000Y-138560000I0J201000D01*
G01*
G37*
G36*
G01*
X182509000Y-138060000D02*
X182509000Y-138060000D01*
G75*
G02*
X182710000Y-137859000I201000J0D01*
G01*
X187410000Y-137859000D01*
G75*
G02*
X187611000Y-138060000I0J-201000D01*
G01*
X187611000Y-138060000D01*
G75*
G02*
X187410000Y-138261000I-201000J0D01*
G01*
X182710000Y-138261000D01*
G75*
G02*
X182509000Y-138060000I0J201000D01*
G01*
G37*
G36*
G01*
X182509000Y-137560000D02*
X182509000Y-137560000D01*
G75*
G02*
X182710000Y-137359000I201000J0D01*
G01*
X187410000Y-137359000D01*
G75*
G02*
X187611000Y-137560000I0J-201000D01*
G01*
X187611000Y-137560000D01*
G75*
G02*
X187410000Y-137761000I-201000J0D01*
G01*
X182710000Y-137761000D01*
G75*
G02*
X182509000Y-137560000I0J201000D01*
G01*
G37*
G36*
G01*
X182509000Y-137060000D02*
X182509000Y-137060000D01*
G75*
G02*
X182710000Y-136859000I201000J0D01*
G01*
X187410000Y-136859000D01*
G75*
G02*
X187611000Y-137060000I0J-201000D01*
G01*
X187611000Y-137060000D01*
G75*
G02*
X187410000Y-137261000I-201000J0D01*
G01*
X182710000Y-137261000D01*
G75*
G02*
X182509000Y-137060000I0J201000D01*
G01*
G37*
G36*
G01*
X182509000Y-136560000D02*
X182509000Y-136560000D01*
G75*
G02*
X182710000Y-136359000I201000J0D01*
G01*
X187410000Y-136359000D01*
G75*
G02*
X187611000Y-136560000I0J-201000D01*
G01*
X187611000Y-136560000D01*
G75*
G02*
X187410000Y-136761000I-201000J0D01*
G01*
X182710000Y-136761000D01*
G75*
G02*
X182509000Y-136560000I0J201000D01*
G01*
G37*
G36*
G01*
X182509000Y-136060000D02*
X182509000Y-136060000D01*
G75*
G02*
X182710000Y-135859000I201000J0D01*
G01*
X187410000Y-135859000D01*
G75*
G02*
X187611000Y-136060000I0J-201000D01*
G01*
X187611000Y-136060000D01*
G75*
G02*
X187410000Y-136261000I-201000J0D01*
G01*
X182710000Y-136261000D01*
G75*
G02*
X182509000Y-136060000I0J201000D01*
G01*
G37*
G36*
G01*
X182509000Y-135560000D02*
X182509000Y-135560000D01*
G75*
G02*
X182710000Y-135359000I201000J0D01*
G01*
X187410000Y-135359000D01*
G75*
G02*
X187611000Y-135560000I0J-201000D01*
G01*
X187611000Y-135560000D01*
G75*
G02*
X187410000Y-135761000I-201000J0D01*
G01*
X182710000Y-135761000D01*
G75*
G02*
X182509000Y-135560000I0J201000D01*
G01*
G37*
G36*
G01*
X182509000Y-135060000D02*
X182509000Y-135060000D01*
G75*
G02*
X182710000Y-134859000I201000J0D01*
G01*
X187410000Y-134859000D01*
G75*
G02*
X187611000Y-135060000I0J-201000D01*
G01*
X187611000Y-135060000D01*
G75*
G02*
X187410000Y-135261000I-201000J0D01*
G01*
X182710000Y-135261000D01*
G75*
G02*
X182509000Y-135060000I0J201000D01*
G01*
G37*
G36*
G01*
X182509000Y-134560000D02*
X182509000Y-134560000D01*
G75*
G02*
X182710000Y-134359000I201000J0D01*
G01*
X187410000Y-134359000D01*
G75*
G02*
X187611000Y-134560000I0J-201000D01*
G01*
X187611000Y-134560000D01*
G75*
G02*
X187410000Y-134761000I-201000J0D01*
G01*
X182710000Y-134761000D01*
G75*
G02*
X182509000Y-134560000I0J201000D01*
G01*
G37*
G36*
G01*
X182509000Y-134060000D02*
X182509000Y-134060000D01*
G75*
G02*
X182710000Y-133859000I201000J0D01*
G01*
X187410000Y-133859000D01*
G75*
G02*
X187611000Y-134060000I0J-201000D01*
G01*
X187611000Y-134060000D01*
G75*
G02*
X187410000Y-134261000I-201000J0D01*
G01*
X182710000Y-134261000D01*
G75*
G02*
X182509000Y-134060000I0J201000D01*
G01*
G37*
G36*
G01*
X182509000Y-133560000D02*
X182509000Y-133560000D01*
G75*
G02*
X182710000Y-133359000I201000J0D01*
G01*
X187410000Y-133359000D01*
G75*
G02*
X187611000Y-133560000I0J-201000D01*
G01*
X187611000Y-133560000D01*
G75*
G02*
X187410000Y-133761000I-201000J0D01*
G01*
X182710000Y-133761000D01*
G75*
G02*
X182509000Y-133560000I0J201000D01*
G01*
G37*
G36*
G01*
X182509000Y-133060000D02*
X182509000Y-133060000D01*
G75*
G02*
X182710000Y-132859000I201000J0D01*
G01*
X187410000Y-132859000D01*
G75*
G02*
X187611000Y-133060000I0J-201000D01*
G01*
X187611000Y-133060000D01*
G75*
G02*
X187410000Y-133261000I-201000J0D01*
G01*
X182710000Y-133261000D01*
G75*
G02*
X182509000Y-133060000I0J201000D01*
G01*
G37*
G36*
X182581425Y-139208779D02*
G01*
X182633860Y-139243816D01*
X182710199Y-139259001D01*
X187409801Y-139259001D01*
X187486140Y-139243816D01*
X187529971Y-139214529D01*
X187531967Y-139214398D01*
X187533078Y-139216061D01*
X187532720Y-139217339D01*
X187499088Y-139265370D01*
X187493543Y-139328759D01*
X187520475Y-139386515D01*
X187528751Y-139393461D01*
X187528997Y-139393707D01*
X187541218Y-139408271D01*
X187541565Y-139410241D01*
X187540033Y-139411527D01*
X187538575Y-139411220D01*
X187486140Y-139376184D01*
X187409801Y-139360999D01*
X182710199Y-139360999D01*
X182633860Y-139376184D01*
X182590030Y-139405471D01*
X182588034Y-139405602D01*
X182586923Y-139403939D01*
X182587281Y-139402661D01*
X182620912Y-139354632D01*
X182626458Y-139291243D01*
X182599528Y-139233486D01*
X182591251Y-139226542D01*
X182591005Y-139226296D01*
X182578782Y-139211728D01*
X182578435Y-139209758D01*
X182579967Y-139208472D01*
X182581425Y-139208779D01*
G37*
G36*
X182581425Y-138708779D02*
G01*
X182633860Y-138743816D01*
X182710199Y-138759001D01*
X187409801Y-138759001D01*
X187486140Y-138743816D01*
X187529971Y-138714529D01*
X187531967Y-138714398D01*
X187533078Y-138716061D01*
X187532720Y-138717339D01*
X187499088Y-138765370D01*
X187493543Y-138828759D01*
X187520475Y-138886515D01*
X187528751Y-138893461D01*
X187528997Y-138893707D01*
X187541218Y-138908271D01*
X187541565Y-138910241D01*
X187540033Y-138911527D01*
X187538575Y-138911220D01*
X187486140Y-138876184D01*
X187409801Y-138860999D01*
X182710199Y-138860999D01*
X182633860Y-138876184D01*
X182590030Y-138905471D01*
X182588034Y-138905602D01*
X182586923Y-138903939D01*
X182587281Y-138902661D01*
X182620912Y-138854632D01*
X182626458Y-138791243D01*
X182599528Y-138733486D01*
X182591251Y-138726542D01*
X182591005Y-138726296D01*
X182578782Y-138711728D01*
X182578435Y-138709758D01*
X182579967Y-138708472D01*
X182581425Y-138708779D01*
G37*
G36*
X182581425Y-138208779D02*
G01*
X182633860Y-138243816D01*
X182710199Y-138259001D01*
X187409801Y-138259001D01*
X187486140Y-138243816D01*
X187529971Y-138214529D01*
X187531967Y-138214398D01*
X187533078Y-138216061D01*
X187532720Y-138217339D01*
X187499088Y-138265370D01*
X187493543Y-138328759D01*
X187520475Y-138386515D01*
X187528751Y-138393461D01*
X187528997Y-138393707D01*
X187541218Y-138408271D01*
X187541565Y-138410241D01*
X187540033Y-138411527D01*
X187538575Y-138411220D01*
X187486140Y-138376184D01*
X187409801Y-138360999D01*
X182710199Y-138360999D01*
X182633860Y-138376184D01*
X182590030Y-138405471D01*
X182588034Y-138405602D01*
X182586923Y-138403939D01*
X182587281Y-138402661D01*
X182620912Y-138354632D01*
X182626458Y-138291243D01*
X182599528Y-138233486D01*
X182591251Y-138226542D01*
X182591005Y-138226296D01*
X182578782Y-138211728D01*
X182578435Y-138209758D01*
X182579967Y-138208472D01*
X182581425Y-138208779D01*
G37*
G36*
X182581425Y-137708779D02*
G01*
X182633860Y-137743816D01*
X182710199Y-137759001D01*
X187409801Y-137759001D01*
X187486140Y-137743816D01*
X187529971Y-137714529D01*
X187531967Y-137714398D01*
X187533078Y-137716061D01*
X187532720Y-137717339D01*
X187499088Y-137765370D01*
X187493543Y-137828759D01*
X187520475Y-137886515D01*
X187528751Y-137893461D01*
X187528997Y-137893707D01*
X187541218Y-137908271D01*
X187541565Y-137910241D01*
X187540033Y-137911527D01*
X187538575Y-137911220D01*
X187486140Y-137876184D01*
X187409801Y-137860999D01*
X182710199Y-137860999D01*
X182633860Y-137876184D01*
X182590030Y-137905471D01*
X182588034Y-137905602D01*
X182586923Y-137903939D01*
X182587281Y-137902661D01*
X182620912Y-137854632D01*
X182626458Y-137791243D01*
X182599528Y-137733486D01*
X182591251Y-137726542D01*
X182591005Y-137726296D01*
X182578782Y-137711728D01*
X182578435Y-137709758D01*
X182579967Y-137708472D01*
X182581425Y-137708779D01*
G37*
G36*
X182581425Y-137208779D02*
G01*
X182633860Y-137243816D01*
X182710199Y-137259001D01*
X187409801Y-137259001D01*
X187486140Y-137243816D01*
X187529971Y-137214529D01*
X187531967Y-137214398D01*
X187533078Y-137216061D01*
X187532720Y-137217339D01*
X187499088Y-137265370D01*
X187493543Y-137328759D01*
X187520475Y-137386515D01*
X187528751Y-137393461D01*
X187528997Y-137393707D01*
X187541218Y-137408271D01*
X187541565Y-137410241D01*
X187540033Y-137411527D01*
X187538575Y-137411220D01*
X187486140Y-137376184D01*
X187409801Y-137360999D01*
X182710199Y-137360999D01*
X182633860Y-137376184D01*
X182590030Y-137405471D01*
X182588034Y-137405602D01*
X182586923Y-137403939D01*
X182587281Y-137402661D01*
X182620912Y-137354632D01*
X182626458Y-137291243D01*
X182599528Y-137233486D01*
X182591251Y-137226542D01*
X182591005Y-137226296D01*
X182578782Y-137211728D01*
X182578435Y-137209758D01*
X182579967Y-137208472D01*
X182581425Y-137208779D01*
G37*
G36*
X182581425Y-136708779D02*
G01*
X182633860Y-136743816D01*
X182710199Y-136759001D01*
X187409801Y-136759001D01*
X187486140Y-136743816D01*
X187529971Y-136714529D01*
X187531967Y-136714398D01*
X187533078Y-136716061D01*
X187532720Y-136717339D01*
X187499088Y-136765370D01*
X187493543Y-136828759D01*
X187520475Y-136886515D01*
X187528751Y-136893461D01*
X187528997Y-136893707D01*
X187541218Y-136908271D01*
X187541565Y-136910241D01*
X187540033Y-136911527D01*
X187538575Y-136911220D01*
X187486140Y-136876184D01*
X187409801Y-136860999D01*
X182710199Y-136860999D01*
X182633860Y-136876184D01*
X182590030Y-136905471D01*
X182588034Y-136905602D01*
X182586923Y-136903939D01*
X182587281Y-136902661D01*
X182620912Y-136854632D01*
X182626458Y-136791243D01*
X182599528Y-136733486D01*
X182591251Y-136726542D01*
X182591005Y-136726296D01*
X182578782Y-136711728D01*
X182578435Y-136709758D01*
X182579967Y-136708472D01*
X182581425Y-136708779D01*
G37*
G36*
X182581425Y-136208779D02*
G01*
X182633860Y-136243816D01*
X182710199Y-136259001D01*
X187409801Y-136259001D01*
X187486140Y-136243816D01*
X187529971Y-136214529D01*
X187531967Y-136214398D01*
X187533078Y-136216061D01*
X187532720Y-136217339D01*
X187499088Y-136265370D01*
X187493543Y-136328759D01*
X187520475Y-136386515D01*
X187528751Y-136393461D01*
X187528997Y-136393707D01*
X187541218Y-136408271D01*
X187541565Y-136410241D01*
X187540033Y-136411527D01*
X187538575Y-136411220D01*
X187486140Y-136376184D01*
X187409801Y-136360999D01*
X182710199Y-136360999D01*
X182633860Y-136376184D01*
X182590030Y-136405471D01*
X182588034Y-136405602D01*
X182586923Y-136403939D01*
X182587281Y-136402661D01*
X182620912Y-136354632D01*
X182626458Y-136291243D01*
X182599528Y-136233486D01*
X182591251Y-136226542D01*
X182591005Y-136226296D01*
X182578782Y-136211728D01*
X182578435Y-136209758D01*
X182579967Y-136208472D01*
X182581425Y-136208779D01*
G37*
G36*
X182581425Y-135708779D02*
G01*
X182633860Y-135743816D01*
X182710199Y-135759001D01*
X187409801Y-135759001D01*
X187486140Y-135743816D01*
X187529971Y-135714529D01*
X187531967Y-135714398D01*
X187533078Y-135716061D01*
X187532720Y-135717339D01*
X187499088Y-135765370D01*
X187493543Y-135828759D01*
X187520475Y-135886515D01*
X187528751Y-135893461D01*
X187528997Y-135893707D01*
X187541218Y-135908271D01*
X187541565Y-135910241D01*
X187540033Y-135911527D01*
X187538575Y-135911220D01*
X187486140Y-135876184D01*
X187409801Y-135860999D01*
X182710199Y-135860999D01*
X182633860Y-135876184D01*
X182590030Y-135905471D01*
X182588034Y-135905602D01*
X182586923Y-135903939D01*
X182587281Y-135902661D01*
X182620912Y-135854632D01*
X182626458Y-135791243D01*
X182599528Y-135733486D01*
X182591251Y-135726542D01*
X182591005Y-135726296D01*
X182578782Y-135711728D01*
X182578435Y-135709758D01*
X182579967Y-135708472D01*
X182581425Y-135708779D01*
G37*
G36*
X182581425Y-135208779D02*
G01*
X182633860Y-135243816D01*
X182710199Y-135259001D01*
X187409801Y-135259001D01*
X187486140Y-135243816D01*
X187529971Y-135214529D01*
X187531967Y-135214398D01*
X187533078Y-135216061D01*
X187532720Y-135217339D01*
X187499088Y-135265370D01*
X187493543Y-135328759D01*
X187520475Y-135386515D01*
X187528751Y-135393461D01*
X187528997Y-135393707D01*
X187541218Y-135408271D01*
X187541565Y-135410241D01*
X187540033Y-135411527D01*
X187538575Y-135411220D01*
X187486140Y-135376184D01*
X187409801Y-135360999D01*
X182710199Y-135360999D01*
X182633860Y-135376184D01*
X182590030Y-135405471D01*
X182588034Y-135405602D01*
X182586923Y-135403939D01*
X182587281Y-135402661D01*
X182620912Y-135354632D01*
X182626458Y-135291243D01*
X182599528Y-135233486D01*
X182591251Y-135226542D01*
X182591005Y-135226296D01*
X182578782Y-135211728D01*
X182578435Y-135209758D01*
X182579967Y-135208472D01*
X182581425Y-135208779D01*
G37*
G36*
X182581425Y-134708779D02*
G01*
X182633860Y-134743816D01*
X182710199Y-134759001D01*
X187409801Y-134759001D01*
X187486140Y-134743816D01*
X187529971Y-134714529D01*
X187531967Y-134714398D01*
X187533078Y-134716061D01*
X187532720Y-134717339D01*
X187499088Y-134765370D01*
X187493543Y-134828759D01*
X187520475Y-134886515D01*
X187528751Y-134893461D01*
X187528997Y-134893707D01*
X187541218Y-134908271D01*
X187541565Y-134910241D01*
X187540033Y-134911527D01*
X187538575Y-134911220D01*
X187486140Y-134876184D01*
X187409801Y-134860999D01*
X182710199Y-134860999D01*
X182633860Y-134876184D01*
X182590030Y-134905471D01*
X182588034Y-134905602D01*
X182586923Y-134903939D01*
X182587281Y-134902661D01*
X182620912Y-134854632D01*
X182626458Y-134791243D01*
X182599528Y-134733486D01*
X182591251Y-134726542D01*
X182591005Y-134726296D01*
X182578782Y-134711728D01*
X182578435Y-134709758D01*
X182579967Y-134708472D01*
X182581425Y-134708779D01*
G37*
G36*
X182581425Y-134208779D02*
G01*
X182633860Y-134243816D01*
X182710199Y-134259001D01*
X187409801Y-134259001D01*
X187486140Y-134243816D01*
X187529971Y-134214529D01*
X187531967Y-134214398D01*
X187533078Y-134216061D01*
X187532720Y-134217339D01*
X187499088Y-134265370D01*
X187493543Y-134328759D01*
X187520475Y-134386515D01*
X187528751Y-134393461D01*
X187528997Y-134393707D01*
X187541218Y-134408271D01*
X187541565Y-134410241D01*
X187540033Y-134411527D01*
X187538575Y-134411220D01*
X187486140Y-134376184D01*
X187409801Y-134360999D01*
X182710199Y-134360999D01*
X182633860Y-134376184D01*
X182590030Y-134405471D01*
X182588034Y-134405602D01*
X182586923Y-134403939D01*
X182587281Y-134402661D01*
X182620912Y-134354632D01*
X182626458Y-134291243D01*
X182599528Y-134233486D01*
X182591251Y-134226542D01*
X182591005Y-134226296D01*
X182578782Y-134211728D01*
X182578435Y-134209758D01*
X182579967Y-134208472D01*
X182581425Y-134208779D01*
G37*
G36*
X182581425Y-133708779D02*
G01*
X182633860Y-133743816D01*
X182710199Y-133759001D01*
X187409801Y-133759001D01*
X187486140Y-133743816D01*
X187529971Y-133714529D01*
X187531967Y-133714398D01*
X187533078Y-133716061D01*
X187532720Y-133717339D01*
X187499088Y-133765370D01*
X187493543Y-133828759D01*
X187520475Y-133886515D01*
X187528751Y-133893461D01*
X187528997Y-133893707D01*
X187541218Y-133908271D01*
X187541565Y-133910241D01*
X187540033Y-133911527D01*
X187538575Y-133911220D01*
X187486140Y-133876184D01*
X187409801Y-133860999D01*
X182710199Y-133860999D01*
X182633860Y-133876184D01*
X182590030Y-133905471D01*
X182588034Y-133905602D01*
X182586923Y-133903939D01*
X182587281Y-133902661D01*
X182620912Y-133854632D01*
X182626458Y-133791243D01*
X182599528Y-133733486D01*
X182591251Y-133726542D01*
X182591005Y-133726296D01*
X182578782Y-133711728D01*
X182578435Y-133709758D01*
X182579967Y-133708472D01*
X182581425Y-133708779D01*
G37*
G36*
X182581425Y-133208779D02*
G01*
X182633860Y-133243816D01*
X182710199Y-133259001D01*
X187409801Y-133259001D01*
X187486140Y-133243816D01*
X187529971Y-133214529D01*
X187531967Y-133214398D01*
X187533078Y-133216061D01*
X187532720Y-133217339D01*
X187499088Y-133265370D01*
X187493543Y-133328759D01*
X187520475Y-133386515D01*
X187528751Y-133393461D01*
X187528997Y-133393707D01*
X187541218Y-133408271D01*
X187541565Y-133410241D01*
X187540033Y-133411527D01*
X187538575Y-133411220D01*
X187486140Y-133376184D01*
X187409801Y-133360999D01*
X182710199Y-133360999D01*
X182633860Y-133376184D01*
X182590030Y-133405471D01*
X182588034Y-133405602D01*
X182586923Y-133403939D01*
X182587281Y-133402661D01*
X182620912Y-133354632D01*
X182626458Y-133291243D01*
X182599528Y-133233486D01*
X182591251Y-133226542D01*
X182591005Y-133226296D01*
X182578782Y-133211728D01*
X182578435Y-133209758D01*
X182579967Y-133208472D01*
X182581425Y-133208779D01*
G37*
M02*
