G04 #@! TF.GenerationSoftware,KiCad,Pcbnew,5.99.0-unknown-c3175b4~100~ubuntu16.04.1*
G04 #@! TF.CreationDate,2020-01-01T10:39:55+05:30*
G04 #@! TF.ProjectId,paperd.ink_final_panel,70617065-7264-42e6-996e-6b5f66696e61,rev?*
G04 #@! TF.SameCoordinates,Original*
G04 #@! TF.FileFunction,Paste,Bot*
G04 #@! TF.FilePolarity,Positive*
%FSLAX46Y46*%
G04 Gerber Fmt 4.6, Leading zero omitted, Abs format (unit mm)*
G04 Created by KiCad (PCBNEW 5.99.0-unknown-c3175b4~100~ubuntu16.04.1) date 2020-01-01 10:39:55*
%MOMM*%
%LPD*%
G04 APERTURE LIST*
%ADD10R,0.800000X0.900000*%
%ADD11C,0.100000*%
%ADD12C,0.875000*%
%ADD13C,0.975000*%
%ADD14C,0.590000*%
%ADD15R,2.000000X0.900000*%
%ADD16R,0.900000X2.000000*%
%ADD17R,5.000000X5.000000*%
%ADD18R,1.450000X0.450000*%
%ADD19R,1.600000X0.700000*%
%ADD20R,1.500000X1.200000*%
%ADD21R,1.500000X1.600000*%
%ADD22R,2.200000X1.200000*%
%ADD23R,0.900000X1.200000*%
%ADD24R,1.800000X1.000000*%
%ADD25C,0.250000*%
%ADD26C,1.050000*%
%ADD27R,0.650000X1.060000*%
%ADD28R,0.650000X1.800000*%
%ADD29R,0.400000X0.650000*%
%ADD30R,0.900000X0.800000*%
%ADD31C,1.250000*%
%ADD32R,1.000000X1.100000*%
%ADD33R,1.500000X1.350000*%
%ADD34R,1.400000X1.500000*%
%ADD35R,1.800000X0.400000*%
%ADD36R,1.100000X1.100000*%
%ADD37R,1.200000X0.900000*%
%ADD38R,4.600000X1.600000*%
%ADD39C,1.600000*%
%ADD40C,1.000000*%
%ADD41C,0.300000*%
%ADD42R,1.000000X3.150000*%
%ADD43R,2.200000X3.300000*%
%ADD44R,0.300000X1.300000*%
G04 APERTURE END LIST*
D10*
G04 #@! TO.C,Q2*
X117210000Y-114370000D03*
X116260000Y-116370000D03*
X118160000Y-116370000D03*
G04 #@! TD*
D11*
G04 #@! TO.C,R6*
G36*
X116199962Y-119086651D02*
G01*
X116270930Y-119134070D01*
X116318349Y-119205038D01*
X116335000Y-119288750D01*
X116335000Y-119726250D01*
X116318349Y-119809962D01*
X116270930Y-119880930D01*
X116199962Y-119928349D01*
X116116250Y-119945000D01*
X115603750Y-119945000D01*
X115520038Y-119928349D01*
X115449070Y-119880930D01*
X115401651Y-119809962D01*
X115385000Y-119726250D01*
X115385000Y-119288750D01*
X115401651Y-119205038D01*
X115449070Y-119134070D01*
X115520038Y-119086651D01*
X115603750Y-119070000D01*
X116116250Y-119070000D01*
X116199962Y-119086651D01*
X116199962Y-119086651D01*
G37*
D12*
X115860000Y-119507500D03*
D11*
G36*
X116199962Y-117511651D02*
G01*
X116270930Y-117559070D01*
X116318349Y-117630038D01*
X116335000Y-117713750D01*
X116335000Y-118151250D01*
X116318349Y-118234962D01*
X116270930Y-118305930D01*
X116199962Y-118353349D01*
X116116250Y-118370000D01*
X115603750Y-118370000D01*
X115520038Y-118353349D01*
X115449070Y-118305930D01*
X115401651Y-118234962D01*
X115385000Y-118151250D01*
X115385000Y-117713750D01*
X115401651Y-117630038D01*
X115449070Y-117559070D01*
X115520038Y-117511651D01*
X115603750Y-117495000D01*
X116116250Y-117495000D01*
X116199962Y-117511651D01*
X116199962Y-117511651D01*
G37*
D12*
X115860000Y-117932500D03*
G04 #@! TD*
D11*
G04 #@! TO.C,C11*
G36*
X126309962Y-119749151D02*
G01*
X126380930Y-119796570D01*
X126428349Y-119867538D01*
X126445000Y-119951250D01*
X126445000Y-120388750D01*
X126428349Y-120472462D01*
X126380930Y-120543430D01*
X126309962Y-120590849D01*
X126226250Y-120607500D01*
X125713750Y-120607500D01*
X125630038Y-120590849D01*
X125559070Y-120543430D01*
X125511651Y-120472462D01*
X125495000Y-120388750D01*
X125495000Y-119951250D01*
X125511651Y-119867538D01*
X125559070Y-119796570D01*
X125630038Y-119749151D01*
X125713750Y-119732500D01*
X126226250Y-119732500D01*
X126309962Y-119749151D01*
X126309962Y-119749151D01*
G37*
D12*
X125970000Y-120170000D03*
D11*
G36*
X126309962Y-118174151D02*
G01*
X126380930Y-118221570D01*
X126428349Y-118292538D01*
X126445000Y-118376250D01*
X126445000Y-118813750D01*
X126428349Y-118897462D01*
X126380930Y-118968430D01*
X126309962Y-119015849D01*
X126226250Y-119032500D01*
X125713750Y-119032500D01*
X125630038Y-119015849D01*
X125559070Y-118968430D01*
X125511651Y-118897462D01*
X125495000Y-118813750D01*
X125495000Y-118376250D01*
X125511651Y-118292538D01*
X125559070Y-118221570D01*
X125630038Y-118174151D01*
X125713750Y-118157500D01*
X126226250Y-118157500D01*
X126309962Y-118174151D01*
X126309962Y-118174151D01*
G37*
D12*
X125970000Y-118595000D03*
G04 #@! TD*
D11*
G04 #@! TO.C,C3*
G36*
X122179962Y-117801651D02*
G01*
X122250930Y-117849070D01*
X122298349Y-117920038D01*
X122315000Y-118003750D01*
X122315000Y-118441250D01*
X122298349Y-118524962D01*
X122250930Y-118595930D01*
X122179962Y-118643349D01*
X122096250Y-118660000D01*
X121583750Y-118660000D01*
X121500038Y-118643349D01*
X121429070Y-118595930D01*
X121381651Y-118524962D01*
X121365000Y-118441250D01*
X121365000Y-118003750D01*
X121381651Y-117920038D01*
X121429070Y-117849070D01*
X121500038Y-117801651D01*
X121583750Y-117785000D01*
X122096250Y-117785000D01*
X122179962Y-117801651D01*
X122179962Y-117801651D01*
G37*
D12*
X121840000Y-118222500D03*
D11*
G36*
X122179962Y-119376651D02*
G01*
X122250930Y-119424070D01*
X122298349Y-119495038D01*
X122315000Y-119578750D01*
X122315000Y-120016250D01*
X122298349Y-120099962D01*
X122250930Y-120170930D01*
X122179962Y-120218349D01*
X122096250Y-120235000D01*
X121583750Y-120235000D01*
X121500038Y-120218349D01*
X121429070Y-120170930D01*
X121381651Y-120099962D01*
X121365000Y-120016250D01*
X121365000Y-119578750D01*
X121381651Y-119495038D01*
X121429070Y-119424070D01*
X121500038Y-119376651D01*
X121583750Y-119360000D01*
X122096250Y-119360000D01*
X122179962Y-119376651D01*
X122179962Y-119376651D01*
G37*
D12*
X121840000Y-119797500D03*
G04 #@! TD*
D11*
G04 #@! TO.C,C14*
G36*
X131631962Y-118174151D02*
G01*
X131702930Y-118221570D01*
X131750349Y-118292538D01*
X131767000Y-118376250D01*
X131767000Y-118813750D01*
X131750349Y-118897462D01*
X131702930Y-118968430D01*
X131631962Y-119015849D01*
X131548250Y-119032500D01*
X131035750Y-119032500D01*
X130952038Y-119015849D01*
X130881070Y-118968430D01*
X130833651Y-118897462D01*
X130817000Y-118813750D01*
X130817000Y-118376250D01*
X130833651Y-118292538D01*
X130881070Y-118221570D01*
X130952038Y-118174151D01*
X131035750Y-118157500D01*
X131548250Y-118157500D01*
X131631962Y-118174151D01*
X131631962Y-118174151D01*
G37*
D12*
X131292000Y-118595000D03*
D11*
G36*
X131631962Y-119749151D02*
G01*
X131702930Y-119796570D01*
X131750349Y-119867538D01*
X131767000Y-119951250D01*
X131767000Y-120388750D01*
X131750349Y-120472462D01*
X131702930Y-120543430D01*
X131631962Y-120590849D01*
X131548250Y-120607500D01*
X131035750Y-120607500D01*
X130952038Y-120590849D01*
X130881070Y-120543430D01*
X130833651Y-120472462D01*
X130817000Y-120388750D01*
X130817000Y-119951250D01*
X130833651Y-119867538D01*
X130881070Y-119796570D01*
X130952038Y-119749151D01*
X131035750Y-119732500D01*
X131548250Y-119732500D01*
X131631962Y-119749151D01*
X131631962Y-119749151D01*
G37*
D12*
X131292000Y-120170000D03*
G04 #@! TD*
D11*
G04 #@! TO.C,C12*
G36*
X128083962Y-118174151D02*
G01*
X128154930Y-118221570D01*
X128202349Y-118292538D01*
X128219000Y-118376250D01*
X128219000Y-118813750D01*
X128202349Y-118897462D01*
X128154930Y-118968430D01*
X128083962Y-119015849D01*
X128000250Y-119032500D01*
X127487750Y-119032500D01*
X127404038Y-119015849D01*
X127333070Y-118968430D01*
X127285651Y-118897462D01*
X127269000Y-118813750D01*
X127269000Y-118376250D01*
X127285651Y-118292538D01*
X127333070Y-118221570D01*
X127404038Y-118174151D01*
X127487750Y-118157500D01*
X128000250Y-118157500D01*
X128083962Y-118174151D01*
X128083962Y-118174151D01*
G37*
D12*
X127744000Y-118595000D03*
D11*
G36*
X128083962Y-119749151D02*
G01*
X128154930Y-119796570D01*
X128202349Y-119867538D01*
X128219000Y-119951250D01*
X128219000Y-120388750D01*
X128202349Y-120472462D01*
X128154930Y-120543430D01*
X128083962Y-120590849D01*
X128000250Y-120607500D01*
X127487750Y-120607500D01*
X127404038Y-120590849D01*
X127333070Y-120543430D01*
X127285651Y-120472462D01*
X127269000Y-120388750D01*
X127269000Y-119951250D01*
X127285651Y-119867538D01*
X127333070Y-119796570D01*
X127404038Y-119749151D01*
X127487750Y-119732500D01*
X128000250Y-119732500D01*
X128083962Y-119749151D01*
X128083962Y-119749151D01*
G37*
D12*
X127744000Y-120170000D03*
G04 #@! TD*
D11*
G04 #@! TO.C,C13*
G36*
X129857962Y-118174151D02*
G01*
X129928930Y-118221570D01*
X129976349Y-118292538D01*
X129993000Y-118376250D01*
X129993000Y-118813750D01*
X129976349Y-118897462D01*
X129928930Y-118968430D01*
X129857962Y-119015849D01*
X129774250Y-119032500D01*
X129261750Y-119032500D01*
X129178038Y-119015849D01*
X129107070Y-118968430D01*
X129059651Y-118897462D01*
X129043000Y-118813750D01*
X129043000Y-118376250D01*
X129059651Y-118292538D01*
X129107070Y-118221570D01*
X129178038Y-118174151D01*
X129261750Y-118157500D01*
X129774250Y-118157500D01*
X129857962Y-118174151D01*
X129857962Y-118174151D01*
G37*
D12*
X129518000Y-118595000D03*
D11*
G36*
X129857962Y-119749151D02*
G01*
X129928930Y-119796570D01*
X129976349Y-119867538D01*
X129993000Y-119951250D01*
X129993000Y-120388750D01*
X129976349Y-120472462D01*
X129928930Y-120543430D01*
X129857962Y-120590849D01*
X129774250Y-120607500D01*
X129261750Y-120607500D01*
X129178038Y-120590849D01*
X129107070Y-120543430D01*
X129059651Y-120472462D01*
X129043000Y-120388750D01*
X129043000Y-119951250D01*
X129059651Y-119867538D01*
X129107070Y-119796570D01*
X129178038Y-119749151D01*
X129261750Y-119732500D01*
X129774250Y-119732500D01*
X129857962Y-119749151D01*
X129857962Y-119749151D01*
G37*
D12*
X129518000Y-120170000D03*
G04 #@! TD*
D11*
G04 #@! TO.C,C2*
G36*
X132719962Y-116531651D02*
G01*
X132790930Y-116579070D01*
X132838349Y-116650038D01*
X132855000Y-116733750D01*
X132855000Y-117246250D01*
X132838349Y-117329962D01*
X132790930Y-117400930D01*
X132719962Y-117448349D01*
X132636250Y-117465000D01*
X132198750Y-117465000D01*
X132115038Y-117448349D01*
X132044070Y-117400930D01*
X131996651Y-117329962D01*
X131980000Y-117246250D01*
X131980000Y-116733750D01*
X131996651Y-116650038D01*
X132044070Y-116579070D01*
X132115038Y-116531651D01*
X132198750Y-116515000D01*
X132636250Y-116515000D01*
X132719962Y-116531651D01*
X132719962Y-116531651D01*
G37*
D12*
X132417500Y-116990000D03*
D11*
G36*
X131144962Y-116531651D02*
G01*
X131215930Y-116579070D01*
X131263349Y-116650038D01*
X131280000Y-116733750D01*
X131280000Y-117246250D01*
X131263349Y-117329962D01*
X131215930Y-117400930D01*
X131144962Y-117448349D01*
X131061250Y-117465000D01*
X130623750Y-117465000D01*
X130540038Y-117448349D01*
X130469070Y-117400930D01*
X130421651Y-117329962D01*
X130405000Y-117246250D01*
X130405000Y-116733750D01*
X130421651Y-116650038D01*
X130469070Y-116579070D01*
X130540038Y-116531651D01*
X130623750Y-116515000D01*
X131061250Y-116515000D01*
X131144962Y-116531651D01*
X131144962Y-116531651D01*
G37*
D12*
X130842500Y-116990000D03*
G04 #@! TD*
D11*
G04 #@! TO.C,C10*
G36*
X129529962Y-116541651D02*
G01*
X129600930Y-116589070D01*
X129648349Y-116660038D01*
X129665000Y-116743750D01*
X129665000Y-117256250D01*
X129648349Y-117339962D01*
X129600930Y-117410930D01*
X129529962Y-117458349D01*
X129446250Y-117475000D01*
X129008750Y-117475000D01*
X128925038Y-117458349D01*
X128854070Y-117410930D01*
X128806651Y-117339962D01*
X128790000Y-117256250D01*
X128790000Y-116743750D01*
X128806651Y-116660038D01*
X128854070Y-116589070D01*
X128925038Y-116541651D01*
X129008750Y-116525000D01*
X129446250Y-116525000D01*
X129529962Y-116541651D01*
X129529962Y-116541651D01*
G37*
D12*
X129227500Y-117000000D03*
D11*
G36*
X127954962Y-116541651D02*
G01*
X128025930Y-116589070D01*
X128073349Y-116660038D01*
X128090000Y-116743750D01*
X128090000Y-117256250D01*
X128073349Y-117339962D01*
X128025930Y-117410930D01*
X127954962Y-117458349D01*
X127871250Y-117475000D01*
X127433750Y-117475000D01*
X127350038Y-117458349D01*
X127279070Y-117410930D01*
X127231651Y-117339962D01*
X127215000Y-117256250D01*
X127215000Y-116743750D01*
X127231651Y-116660038D01*
X127279070Y-116589070D01*
X127350038Y-116541651D01*
X127433750Y-116525000D01*
X127871250Y-116525000D01*
X127954962Y-116541651D01*
X127954962Y-116541651D01*
G37*
D12*
X127652500Y-117000000D03*
G04 #@! TD*
D11*
G04 #@! TO.C,C16*
G36*
X135179962Y-118174151D02*
G01*
X135250930Y-118221570D01*
X135298349Y-118292538D01*
X135315000Y-118376250D01*
X135315000Y-118813750D01*
X135298349Y-118897462D01*
X135250930Y-118968430D01*
X135179962Y-119015849D01*
X135096250Y-119032500D01*
X134583750Y-119032500D01*
X134500038Y-119015849D01*
X134429070Y-118968430D01*
X134381651Y-118897462D01*
X134365000Y-118813750D01*
X134365000Y-118376250D01*
X134381651Y-118292538D01*
X134429070Y-118221570D01*
X134500038Y-118174151D01*
X134583750Y-118157500D01*
X135096250Y-118157500D01*
X135179962Y-118174151D01*
X135179962Y-118174151D01*
G37*
D12*
X134840000Y-118595000D03*
D11*
G36*
X135179962Y-119749151D02*
G01*
X135250930Y-119796570D01*
X135298349Y-119867538D01*
X135315000Y-119951250D01*
X135315000Y-120388750D01*
X135298349Y-120472462D01*
X135250930Y-120543430D01*
X135179962Y-120590849D01*
X135096250Y-120607500D01*
X134583750Y-120607500D01*
X134500038Y-120590849D01*
X134429070Y-120543430D01*
X134381651Y-120472462D01*
X134365000Y-120388750D01*
X134365000Y-119951250D01*
X134381651Y-119867538D01*
X134429070Y-119796570D01*
X134500038Y-119749151D01*
X134583750Y-119732500D01*
X135096250Y-119732500D01*
X135179962Y-119749151D01*
X135179962Y-119749151D01*
G37*
D12*
X134840000Y-120170000D03*
G04 #@! TD*
D11*
G04 #@! TO.C,C15*
G36*
X133405962Y-118174151D02*
G01*
X133476930Y-118221570D01*
X133524349Y-118292538D01*
X133541000Y-118376250D01*
X133541000Y-118813750D01*
X133524349Y-118897462D01*
X133476930Y-118968430D01*
X133405962Y-119015849D01*
X133322250Y-119032500D01*
X132809750Y-119032500D01*
X132726038Y-119015849D01*
X132655070Y-118968430D01*
X132607651Y-118897462D01*
X132591000Y-118813750D01*
X132591000Y-118376250D01*
X132607651Y-118292538D01*
X132655070Y-118221570D01*
X132726038Y-118174151D01*
X132809750Y-118157500D01*
X133322250Y-118157500D01*
X133405962Y-118174151D01*
X133405962Y-118174151D01*
G37*
D12*
X133066000Y-118595000D03*
D11*
G36*
X133405962Y-119749151D02*
G01*
X133476930Y-119796570D01*
X133524349Y-119867538D01*
X133541000Y-119951250D01*
X133541000Y-120388750D01*
X133524349Y-120472462D01*
X133476930Y-120543430D01*
X133405962Y-120590849D01*
X133322250Y-120607500D01*
X132809750Y-120607500D01*
X132726038Y-120590849D01*
X132655070Y-120543430D01*
X132607651Y-120472462D01*
X132591000Y-120388750D01*
X132591000Y-119951250D01*
X132607651Y-119867538D01*
X132655070Y-119796570D01*
X132726038Y-119749151D01*
X132809750Y-119732500D01*
X133322250Y-119732500D01*
X133405962Y-119749151D01*
X133405962Y-119749151D01*
G37*
D12*
X133066000Y-120170000D03*
G04 #@! TD*
D11*
G04 #@! TO.C,C1*
G36*
X120519962Y-117821651D02*
G01*
X120590930Y-117869070D01*
X120638349Y-117940038D01*
X120655000Y-118023750D01*
X120655000Y-118461250D01*
X120638349Y-118544962D01*
X120590930Y-118615930D01*
X120519962Y-118663349D01*
X120436250Y-118680000D01*
X119923750Y-118680000D01*
X119840038Y-118663349D01*
X119769070Y-118615930D01*
X119721651Y-118544962D01*
X119705000Y-118461250D01*
X119705000Y-118023750D01*
X119721651Y-117940038D01*
X119769070Y-117869070D01*
X119840038Y-117821651D01*
X119923750Y-117805000D01*
X120436250Y-117805000D01*
X120519962Y-117821651D01*
X120519962Y-117821651D01*
G37*
D12*
X120180000Y-118242500D03*
D11*
G36*
X120519962Y-119396651D02*
G01*
X120590930Y-119444070D01*
X120638349Y-119515038D01*
X120655000Y-119598750D01*
X120655000Y-120036250D01*
X120638349Y-120119962D01*
X120590930Y-120190930D01*
X120519962Y-120238349D01*
X120436250Y-120255000D01*
X119923750Y-120255000D01*
X119840038Y-120238349D01*
X119769070Y-120190930D01*
X119721651Y-120119962D01*
X119705000Y-120036250D01*
X119705000Y-119598750D01*
X119721651Y-119515038D01*
X119769070Y-119444070D01*
X119840038Y-119396651D01*
X119923750Y-119380000D01*
X120436250Y-119380000D01*
X120519962Y-119396651D01*
X120519962Y-119396651D01*
G37*
D12*
X120180000Y-119817500D03*
G04 #@! TD*
D11*
G04 #@! TO.C,C7*
G36*
X124359529Y-112988554D02*
G01*
X124438607Y-113041393D01*
X124491446Y-113120471D01*
X124510000Y-113213750D01*
X124510000Y-113701250D01*
X124491446Y-113794529D01*
X124438607Y-113873607D01*
X124359529Y-113926446D01*
X124266250Y-113945000D01*
X123353750Y-113945000D01*
X123260471Y-113926446D01*
X123181393Y-113873607D01*
X123128554Y-113794529D01*
X123110000Y-113701250D01*
X123110000Y-113213750D01*
X123128554Y-113120471D01*
X123181393Y-113041393D01*
X123260471Y-112988554D01*
X123353750Y-112970000D01*
X124266250Y-112970000D01*
X124359529Y-112988554D01*
X124359529Y-112988554D01*
G37*
D13*
X123810000Y-113457500D03*
D11*
G36*
X124359529Y-114863554D02*
G01*
X124438607Y-114916393D01*
X124491446Y-114995471D01*
X124510000Y-115088750D01*
X124510000Y-115576250D01*
X124491446Y-115669529D01*
X124438607Y-115748607D01*
X124359529Y-115801446D01*
X124266250Y-115820000D01*
X123353750Y-115820000D01*
X123260471Y-115801446D01*
X123181393Y-115748607D01*
X123128554Y-115669529D01*
X123110000Y-115576250D01*
X123110000Y-115088750D01*
X123128554Y-114995471D01*
X123181393Y-114916393D01*
X123260471Y-114863554D01*
X123353750Y-114845000D01*
X124266250Y-114845000D01*
X124359529Y-114863554D01*
X124359529Y-114863554D01*
G37*
D13*
X123810000Y-115332500D03*
G04 #@! TD*
D11*
G04 #@! TO.C,C9*
G36*
X124329529Y-117118554D02*
G01*
X124408607Y-117171393D01*
X124461446Y-117250471D01*
X124480000Y-117343750D01*
X124480000Y-117831250D01*
X124461446Y-117924529D01*
X124408607Y-118003607D01*
X124329529Y-118056446D01*
X124236250Y-118075000D01*
X123323750Y-118075000D01*
X123230471Y-118056446D01*
X123151393Y-118003607D01*
X123098554Y-117924529D01*
X123080000Y-117831250D01*
X123080000Y-117343750D01*
X123098554Y-117250471D01*
X123151393Y-117171393D01*
X123230471Y-117118554D01*
X123323750Y-117100000D01*
X124236250Y-117100000D01*
X124329529Y-117118554D01*
X124329529Y-117118554D01*
G37*
D13*
X123780000Y-117587500D03*
D11*
G36*
X124329529Y-118993554D02*
G01*
X124408607Y-119046393D01*
X124461446Y-119125471D01*
X124480000Y-119218750D01*
X124480000Y-119706250D01*
X124461446Y-119799529D01*
X124408607Y-119878607D01*
X124329529Y-119931446D01*
X124236250Y-119950000D01*
X123323750Y-119950000D01*
X123230471Y-119931446D01*
X123151393Y-119878607D01*
X123098554Y-119799529D01*
X123080000Y-119706250D01*
X123080000Y-119218750D01*
X123098554Y-119125471D01*
X123151393Y-119046393D01*
X123230471Y-118993554D01*
X123323750Y-118975000D01*
X124236250Y-118975000D01*
X124329529Y-118993554D01*
X124329529Y-118993554D01*
G37*
D13*
X123780000Y-119462500D03*
G04 #@! TD*
D11*
G04 #@! TO.C,C24*
G36*
X131598946Y-104351228D02*
G01*
X131646798Y-104383202D01*
X131678772Y-104431054D01*
X131690000Y-104487500D01*
X131690000Y-104782500D01*
X131678772Y-104838946D01*
X131646798Y-104886798D01*
X131598946Y-104918772D01*
X131542500Y-104930000D01*
X131197500Y-104930000D01*
X131141054Y-104918772D01*
X131093202Y-104886798D01*
X131061228Y-104838946D01*
X131050000Y-104782500D01*
X131050000Y-104487500D01*
X131061228Y-104431054D01*
X131093202Y-104383202D01*
X131141054Y-104351228D01*
X131197500Y-104340000D01*
X131542500Y-104340000D01*
X131598946Y-104351228D01*
X131598946Y-104351228D01*
G37*
D14*
X131370000Y-104635000D03*
D11*
G36*
X131598946Y-103381228D02*
G01*
X131646798Y-103413202D01*
X131678772Y-103461054D01*
X131690000Y-103517500D01*
X131690000Y-103812500D01*
X131678772Y-103868946D01*
X131646798Y-103916798D01*
X131598946Y-103948772D01*
X131542500Y-103960000D01*
X131197500Y-103960000D01*
X131141054Y-103948772D01*
X131093202Y-103916798D01*
X131061228Y-103868946D01*
X131050000Y-103812500D01*
X131050000Y-103517500D01*
X131061228Y-103461054D01*
X131093202Y-103413202D01*
X131141054Y-103381228D01*
X131197500Y-103370000D01*
X131542500Y-103370000D01*
X131598946Y-103381228D01*
X131598946Y-103381228D01*
G37*
D14*
X131370000Y-103665000D03*
G04 #@! TD*
D15*
G04 #@! TO.C,U6*
X104630000Y-70815000D03*
X104630000Y-72085000D03*
X104630000Y-73355000D03*
X104630000Y-74625000D03*
X104630000Y-75895000D03*
X104630000Y-77165000D03*
X104630000Y-78435000D03*
X104630000Y-79705000D03*
X104630000Y-80975000D03*
X104630000Y-82245000D03*
X104630000Y-83515000D03*
X104630000Y-84785000D03*
X104630000Y-86055000D03*
X104630000Y-87325000D03*
D16*
X107415000Y-88325000D03*
X108685000Y-88325000D03*
X109955000Y-88325000D03*
X111225000Y-88325000D03*
X112495000Y-88325000D03*
X113765000Y-88325000D03*
X115035000Y-88325000D03*
X116305000Y-88325000D03*
X117575000Y-88325000D03*
X118845000Y-88325000D03*
D15*
X121630000Y-87325000D03*
X121630000Y-86055000D03*
X121630000Y-84785000D03*
X121630000Y-83515000D03*
X121630000Y-82245000D03*
X121630000Y-80975000D03*
X121630000Y-79705000D03*
X121630000Y-78435000D03*
X121630000Y-77165000D03*
X121630000Y-75895000D03*
X121630000Y-74625000D03*
X121630000Y-73355000D03*
X121630000Y-72085000D03*
X121630000Y-70815000D03*
D17*
X114130000Y-78315000D03*
G04 #@! TD*
D18*
G04 #@! TO.C,U5*
X139610000Y-107455000D03*
X139610000Y-106805000D03*
X139610000Y-106155000D03*
X139610000Y-105505000D03*
X139610000Y-104855000D03*
X139610000Y-104205000D03*
X139610000Y-103555000D03*
X139610000Y-102905000D03*
X139610000Y-102255000D03*
X139610000Y-101605000D03*
X133710000Y-101605000D03*
X133710000Y-102255000D03*
X133710000Y-102905000D03*
X133710000Y-103555000D03*
X133710000Y-104205000D03*
X133710000Y-104855000D03*
X133710000Y-105505000D03*
X133710000Y-106155000D03*
X133710000Y-106805000D03*
X133710000Y-107455000D03*
G04 #@! TD*
D19*
G04 #@! TO.C,MICRO_SD1*
X117810000Y-100756000D03*
X117810000Y-99656000D03*
X117810000Y-98556000D03*
X117810000Y-101856000D03*
X117810000Y-102956000D03*
X117810000Y-104056000D03*
X117810000Y-106256000D03*
X117810000Y-105156000D03*
X117810000Y-107356000D03*
D20*
X116910000Y-108556000D03*
D21*
X116940000Y-93986000D03*
D22*
X107220000Y-108556000D03*
X107230000Y-93076000D03*
G04 #@! TD*
D11*
G04 #@! TO.C,C23*
G36*
X128883946Y-81391228D02*
G01*
X128931798Y-81423202D01*
X128963772Y-81471054D01*
X128975000Y-81527500D01*
X128975000Y-81872500D01*
X128963772Y-81928946D01*
X128931798Y-81976798D01*
X128883946Y-82008772D01*
X128827500Y-82020000D01*
X128532500Y-82020000D01*
X128476054Y-82008772D01*
X128428202Y-81976798D01*
X128396228Y-81928946D01*
X128385000Y-81872500D01*
X128385000Y-81527500D01*
X128396228Y-81471054D01*
X128428202Y-81423202D01*
X128476054Y-81391228D01*
X128532500Y-81380000D01*
X128827500Y-81380000D01*
X128883946Y-81391228D01*
X128883946Y-81391228D01*
G37*
D14*
X128680000Y-81700000D03*
D11*
G36*
X127913946Y-81391228D02*
G01*
X127961798Y-81423202D01*
X127993772Y-81471054D01*
X128005000Y-81527500D01*
X128005000Y-81872500D01*
X127993772Y-81928946D01*
X127961798Y-81976798D01*
X127913946Y-82008772D01*
X127857500Y-82020000D01*
X127562500Y-82020000D01*
X127506054Y-82008772D01*
X127458202Y-81976798D01*
X127426228Y-81928946D01*
X127415000Y-81872500D01*
X127415000Y-81527500D01*
X127426228Y-81471054D01*
X127458202Y-81423202D01*
X127506054Y-81391228D01*
X127562500Y-81380000D01*
X127857500Y-81380000D01*
X127913946Y-81391228D01*
X127913946Y-81391228D01*
G37*
D14*
X127710000Y-81700000D03*
G04 #@! TD*
D23*
G04 #@! TO.C,D2*
X129060000Y-112310000D03*
X125760000Y-112310000D03*
G04 #@! TD*
D24*
G04 #@! TO.C,Y1*
X125510000Y-79210000D03*
X125510000Y-81710000D03*
G04 #@! TD*
D11*
G04 #@! TO.C,U4*
G36*
X110581418Y-118509758D02*
G01*
X110601694Y-118523306D01*
X110615242Y-118543582D01*
X110620000Y-118567500D01*
X110620000Y-118692500D01*
X110615242Y-118716418D01*
X110601694Y-118736694D01*
X110581418Y-118750242D01*
X110557500Y-118755000D01*
X109857500Y-118755000D01*
X109833582Y-118750242D01*
X109813306Y-118736694D01*
X109799758Y-118716418D01*
X109795000Y-118692500D01*
X109795000Y-118567500D01*
X109799758Y-118543582D01*
X109813306Y-118523306D01*
X109833582Y-118509758D01*
X109857500Y-118505000D01*
X110557500Y-118505000D01*
X110581418Y-118509758D01*
X110581418Y-118509758D01*
G37*
D25*
X110207500Y-118630000D03*
D11*
G36*
X110581418Y-118009758D02*
G01*
X110601694Y-118023306D01*
X110615242Y-118043582D01*
X110620000Y-118067500D01*
X110620000Y-118192500D01*
X110615242Y-118216418D01*
X110601694Y-118236694D01*
X110581418Y-118250242D01*
X110557500Y-118255000D01*
X109857500Y-118255000D01*
X109833582Y-118250242D01*
X109813306Y-118236694D01*
X109799758Y-118216418D01*
X109795000Y-118192500D01*
X109795000Y-118067500D01*
X109799758Y-118043582D01*
X109813306Y-118023306D01*
X109833582Y-118009758D01*
X109857500Y-118005000D01*
X110557500Y-118005000D01*
X110581418Y-118009758D01*
X110581418Y-118009758D01*
G37*
D25*
X110207500Y-118130000D03*
D11*
G36*
X110581418Y-117509758D02*
G01*
X110601694Y-117523306D01*
X110615242Y-117543582D01*
X110620000Y-117567500D01*
X110620000Y-117692500D01*
X110615242Y-117716418D01*
X110601694Y-117736694D01*
X110581418Y-117750242D01*
X110557500Y-117755000D01*
X109857500Y-117755000D01*
X109833582Y-117750242D01*
X109813306Y-117736694D01*
X109799758Y-117716418D01*
X109795000Y-117692500D01*
X109795000Y-117567500D01*
X109799758Y-117543582D01*
X109813306Y-117523306D01*
X109833582Y-117509758D01*
X109857500Y-117505000D01*
X110557500Y-117505000D01*
X110581418Y-117509758D01*
X110581418Y-117509758D01*
G37*
D25*
X110207500Y-117630000D03*
D11*
G36*
X110581418Y-117009758D02*
G01*
X110601694Y-117023306D01*
X110615242Y-117043582D01*
X110620000Y-117067500D01*
X110620000Y-117192500D01*
X110615242Y-117216418D01*
X110601694Y-117236694D01*
X110581418Y-117250242D01*
X110557500Y-117255000D01*
X109857500Y-117255000D01*
X109833582Y-117250242D01*
X109813306Y-117236694D01*
X109799758Y-117216418D01*
X109795000Y-117192500D01*
X109795000Y-117067500D01*
X109799758Y-117043582D01*
X109813306Y-117023306D01*
X109833582Y-117009758D01*
X109857500Y-117005000D01*
X110557500Y-117005000D01*
X110581418Y-117009758D01*
X110581418Y-117009758D01*
G37*
D25*
X110207500Y-117130000D03*
D11*
G36*
X110581418Y-116509758D02*
G01*
X110601694Y-116523306D01*
X110615242Y-116543582D01*
X110620000Y-116567500D01*
X110620000Y-116692500D01*
X110615242Y-116716418D01*
X110601694Y-116736694D01*
X110581418Y-116750242D01*
X110557500Y-116755000D01*
X109857500Y-116755000D01*
X109833582Y-116750242D01*
X109813306Y-116736694D01*
X109799758Y-116716418D01*
X109795000Y-116692500D01*
X109795000Y-116567500D01*
X109799758Y-116543582D01*
X109813306Y-116523306D01*
X109833582Y-116509758D01*
X109857500Y-116505000D01*
X110557500Y-116505000D01*
X110581418Y-116509758D01*
X110581418Y-116509758D01*
G37*
D25*
X110207500Y-116630000D03*
D11*
G36*
X110581418Y-116009758D02*
G01*
X110601694Y-116023306D01*
X110615242Y-116043582D01*
X110620000Y-116067500D01*
X110620000Y-116192500D01*
X110615242Y-116216418D01*
X110601694Y-116236694D01*
X110581418Y-116250242D01*
X110557500Y-116255000D01*
X109857500Y-116255000D01*
X109833582Y-116250242D01*
X109813306Y-116236694D01*
X109799758Y-116216418D01*
X109795000Y-116192500D01*
X109795000Y-116067500D01*
X109799758Y-116043582D01*
X109813306Y-116023306D01*
X109833582Y-116009758D01*
X109857500Y-116005000D01*
X110557500Y-116005000D01*
X110581418Y-116009758D01*
X110581418Y-116009758D01*
G37*
D25*
X110207500Y-116130000D03*
D11*
G36*
X109606418Y-115034758D02*
G01*
X109626694Y-115048306D01*
X109640242Y-115068582D01*
X109645000Y-115092500D01*
X109645000Y-115792500D01*
X109640242Y-115816418D01*
X109626694Y-115836694D01*
X109606418Y-115850242D01*
X109582500Y-115855000D01*
X109457500Y-115855000D01*
X109433582Y-115850242D01*
X109413306Y-115836694D01*
X109399758Y-115816418D01*
X109395000Y-115792500D01*
X109395000Y-115092500D01*
X109399758Y-115068582D01*
X109413306Y-115048306D01*
X109433582Y-115034758D01*
X109457500Y-115030000D01*
X109582500Y-115030000D01*
X109606418Y-115034758D01*
X109606418Y-115034758D01*
G37*
D25*
X109520000Y-115442500D03*
D11*
G36*
X109106418Y-115034758D02*
G01*
X109126694Y-115048306D01*
X109140242Y-115068582D01*
X109145000Y-115092500D01*
X109145000Y-115792500D01*
X109140242Y-115816418D01*
X109126694Y-115836694D01*
X109106418Y-115850242D01*
X109082500Y-115855000D01*
X108957500Y-115855000D01*
X108933582Y-115850242D01*
X108913306Y-115836694D01*
X108899758Y-115816418D01*
X108895000Y-115792500D01*
X108895000Y-115092500D01*
X108899758Y-115068582D01*
X108913306Y-115048306D01*
X108933582Y-115034758D01*
X108957500Y-115030000D01*
X109082500Y-115030000D01*
X109106418Y-115034758D01*
X109106418Y-115034758D01*
G37*
D25*
X109020000Y-115442500D03*
D11*
G36*
X108606418Y-115034758D02*
G01*
X108626694Y-115048306D01*
X108640242Y-115068582D01*
X108645000Y-115092500D01*
X108645000Y-115792500D01*
X108640242Y-115816418D01*
X108626694Y-115836694D01*
X108606418Y-115850242D01*
X108582500Y-115855000D01*
X108457500Y-115855000D01*
X108433582Y-115850242D01*
X108413306Y-115836694D01*
X108399758Y-115816418D01*
X108395000Y-115792500D01*
X108395000Y-115092500D01*
X108399758Y-115068582D01*
X108413306Y-115048306D01*
X108433582Y-115034758D01*
X108457500Y-115030000D01*
X108582500Y-115030000D01*
X108606418Y-115034758D01*
X108606418Y-115034758D01*
G37*
D25*
X108520000Y-115442500D03*
D11*
G36*
X108106418Y-115034758D02*
G01*
X108126694Y-115048306D01*
X108140242Y-115068582D01*
X108145000Y-115092500D01*
X108145000Y-115792500D01*
X108140242Y-115816418D01*
X108126694Y-115836694D01*
X108106418Y-115850242D01*
X108082500Y-115855000D01*
X107957500Y-115855000D01*
X107933582Y-115850242D01*
X107913306Y-115836694D01*
X107899758Y-115816418D01*
X107895000Y-115792500D01*
X107895000Y-115092500D01*
X107899758Y-115068582D01*
X107913306Y-115048306D01*
X107933582Y-115034758D01*
X107957500Y-115030000D01*
X108082500Y-115030000D01*
X108106418Y-115034758D01*
X108106418Y-115034758D01*
G37*
D25*
X108020000Y-115442500D03*
D11*
G36*
X107606418Y-115034758D02*
G01*
X107626694Y-115048306D01*
X107640242Y-115068582D01*
X107645000Y-115092500D01*
X107645000Y-115792500D01*
X107640242Y-115816418D01*
X107626694Y-115836694D01*
X107606418Y-115850242D01*
X107582500Y-115855000D01*
X107457500Y-115855000D01*
X107433582Y-115850242D01*
X107413306Y-115836694D01*
X107399758Y-115816418D01*
X107395000Y-115792500D01*
X107395000Y-115092500D01*
X107399758Y-115068582D01*
X107413306Y-115048306D01*
X107433582Y-115034758D01*
X107457500Y-115030000D01*
X107582500Y-115030000D01*
X107606418Y-115034758D01*
X107606418Y-115034758D01*
G37*
D25*
X107520000Y-115442500D03*
D11*
G36*
X107106418Y-115034758D02*
G01*
X107126694Y-115048306D01*
X107140242Y-115068582D01*
X107145000Y-115092500D01*
X107145000Y-115792500D01*
X107140242Y-115816418D01*
X107126694Y-115836694D01*
X107106418Y-115850242D01*
X107082500Y-115855000D01*
X106957500Y-115855000D01*
X106933582Y-115850242D01*
X106913306Y-115836694D01*
X106899758Y-115816418D01*
X106895000Y-115792500D01*
X106895000Y-115092500D01*
X106899758Y-115068582D01*
X106913306Y-115048306D01*
X106933582Y-115034758D01*
X106957500Y-115030000D01*
X107082500Y-115030000D01*
X107106418Y-115034758D01*
X107106418Y-115034758D01*
G37*
D25*
X107020000Y-115442500D03*
D11*
G36*
X106706418Y-116009758D02*
G01*
X106726694Y-116023306D01*
X106740242Y-116043582D01*
X106745000Y-116067500D01*
X106745000Y-116192500D01*
X106740242Y-116216418D01*
X106726694Y-116236694D01*
X106706418Y-116250242D01*
X106682500Y-116255000D01*
X105982500Y-116255000D01*
X105958582Y-116250242D01*
X105938306Y-116236694D01*
X105924758Y-116216418D01*
X105920000Y-116192500D01*
X105920000Y-116067500D01*
X105924758Y-116043582D01*
X105938306Y-116023306D01*
X105958582Y-116009758D01*
X105982500Y-116005000D01*
X106682500Y-116005000D01*
X106706418Y-116009758D01*
X106706418Y-116009758D01*
G37*
D25*
X106332500Y-116130000D03*
D11*
G36*
X106706418Y-116509758D02*
G01*
X106726694Y-116523306D01*
X106740242Y-116543582D01*
X106745000Y-116567500D01*
X106745000Y-116692500D01*
X106740242Y-116716418D01*
X106726694Y-116736694D01*
X106706418Y-116750242D01*
X106682500Y-116755000D01*
X105982500Y-116755000D01*
X105958582Y-116750242D01*
X105938306Y-116736694D01*
X105924758Y-116716418D01*
X105920000Y-116692500D01*
X105920000Y-116567500D01*
X105924758Y-116543582D01*
X105938306Y-116523306D01*
X105958582Y-116509758D01*
X105982500Y-116505000D01*
X106682500Y-116505000D01*
X106706418Y-116509758D01*
X106706418Y-116509758D01*
G37*
D25*
X106332500Y-116630000D03*
D11*
G36*
X106706418Y-117009758D02*
G01*
X106726694Y-117023306D01*
X106740242Y-117043582D01*
X106745000Y-117067500D01*
X106745000Y-117192500D01*
X106740242Y-117216418D01*
X106726694Y-117236694D01*
X106706418Y-117250242D01*
X106682500Y-117255000D01*
X105982500Y-117255000D01*
X105958582Y-117250242D01*
X105938306Y-117236694D01*
X105924758Y-117216418D01*
X105920000Y-117192500D01*
X105920000Y-117067500D01*
X105924758Y-117043582D01*
X105938306Y-117023306D01*
X105958582Y-117009758D01*
X105982500Y-117005000D01*
X106682500Y-117005000D01*
X106706418Y-117009758D01*
X106706418Y-117009758D01*
G37*
D25*
X106332500Y-117130000D03*
D11*
G36*
X106706418Y-117509758D02*
G01*
X106726694Y-117523306D01*
X106740242Y-117543582D01*
X106745000Y-117567500D01*
X106745000Y-117692500D01*
X106740242Y-117716418D01*
X106726694Y-117736694D01*
X106706418Y-117750242D01*
X106682500Y-117755000D01*
X105982500Y-117755000D01*
X105958582Y-117750242D01*
X105938306Y-117736694D01*
X105924758Y-117716418D01*
X105920000Y-117692500D01*
X105920000Y-117567500D01*
X105924758Y-117543582D01*
X105938306Y-117523306D01*
X105958582Y-117509758D01*
X105982500Y-117505000D01*
X106682500Y-117505000D01*
X106706418Y-117509758D01*
X106706418Y-117509758D01*
G37*
D25*
X106332500Y-117630000D03*
D11*
G36*
X106706418Y-118009758D02*
G01*
X106726694Y-118023306D01*
X106740242Y-118043582D01*
X106745000Y-118067500D01*
X106745000Y-118192500D01*
X106740242Y-118216418D01*
X106726694Y-118236694D01*
X106706418Y-118250242D01*
X106682500Y-118255000D01*
X105982500Y-118255000D01*
X105958582Y-118250242D01*
X105938306Y-118236694D01*
X105924758Y-118216418D01*
X105920000Y-118192500D01*
X105920000Y-118067500D01*
X105924758Y-118043582D01*
X105938306Y-118023306D01*
X105958582Y-118009758D01*
X105982500Y-118005000D01*
X106682500Y-118005000D01*
X106706418Y-118009758D01*
X106706418Y-118009758D01*
G37*
D25*
X106332500Y-118130000D03*
D11*
G36*
X106706418Y-118509758D02*
G01*
X106726694Y-118523306D01*
X106740242Y-118543582D01*
X106745000Y-118567500D01*
X106745000Y-118692500D01*
X106740242Y-118716418D01*
X106726694Y-118736694D01*
X106706418Y-118750242D01*
X106682500Y-118755000D01*
X105982500Y-118755000D01*
X105958582Y-118750242D01*
X105938306Y-118736694D01*
X105924758Y-118716418D01*
X105920000Y-118692500D01*
X105920000Y-118567500D01*
X105924758Y-118543582D01*
X105938306Y-118523306D01*
X105958582Y-118509758D01*
X105982500Y-118505000D01*
X106682500Y-118505000D01*
X106706418Y-118509758D01*
X106706418Y-118509758D01*
G37*
D25*
X106332500Y-118630000D03*
D11*
G36*
X107106418Y-118909758D02*
G01*
X107126694Y-118923306D01*
X107140242Y-118943582D01*
X107145000Y-118967500D01*
X107145000Y-119667500D01*
X107140242Y-119691418D01*
X107126694Y-119711694D01*
X107106418Y-119725242D01*
X107082500Y-119730000D01*
X106957500Y-119730000D01*
X106933582Y-119725242D01*
X106913306Y-119711694D01*
X106899758Y-119691418D01*
X106895000Y-119667500D01*
X106895000Y-118967500D01*
X106899758Y-118943582D01*
X106913306Y-118923306D01*
X106933582Y-118909758D01*
X106957500Y-118905000D01*
X107082500Y-118905000D01*
X107106418Y-118909758D01*
X107106418Y-118909758D01*
G37*
D25*
X107020000Y-119317500D03*
D11*
G36*
X107606418Y-118909758D02*
G01*
X107626694Y-118923306D01*
X107640242Y-118943582D01*
X107645000Y-118967500D01*
X107645000Y-119667500D01*
X107640242Y-119691418D01*
X107626694Y-119711694D01*
X107606418Y-119725242D01*
X107582500Y-119730000D01*
X107457500Y-119730000D01*
X107433582Y-119725242D01*
X107413306Y-119711694D01*
X107399758Y-119691418D01*
X107395000Y-119667500D01*
X107395000Y-118967500D01*
X107399758Y-118943582D01*
X107413306Y-118923306D01*
X107433582Y-118909758D01*
X107457500Y-118905000D01*
X107582500Y-118905000D01*
X107606418Y-118909758D01*
X107606418Y-118909758D01*
G37*
D25*
X107520000Y-119317500D03*
D11*
G36*
X108106418Y-118909758D02*
G01*
X108126694Y-118923306D01*
X108140242Y-118943582D01*
X108145000Y-118967500D01*
X108145000Y-119667500D01*
X108140242Y-119691418D01*
X108126694Y-119711694D01*
X108106418Y-119725242D01*
X108082500Y-119730000D01*
X107957500Y-119730000D01*
X107933582Y-119725242D01*
X107913306Y-119711694D01*
X107899758Y-119691418D01*
X107895000Y-119667500D01*
X107895000Y-118967500D01*
X107899758Y-118943582D01*
X107913306Y-118923306D01*
X107933582Y-118909758D01*
X107957500Y-118905000D01*
X108082500Y-118905000D01*
X108106418Y-118909758D01*
X108106418Y-118909758D01*
G37*
D25*
X108020000Y-119317500D03*
D11*
G36*
X108606418Y-118909758D02*
G01*
X108626694Y-118923306D01*
X108640242Y-118943582D01*
X108645000Y-118967500D01*
X108645000Y-119667500D01*
X108640242Y-119691418D01*
X108626694Y-119711694D01*
X108606418Y-119725242D01*
X108582500Y-119730000D01*
X108457500Y-119730000D01*
X108433582Y-119725242D01*
X108413306Y-119711694D01*
X108399758Y-119691418D01*
X108395000Y-119667500D01*
X108395000Y-118967500D01*
X108399758Y-118943582D01*
X108413306Y-118923306D01*
X108433582Y-118909758D01*
X108457500Y-118905000D01*
X108582500Y-118905000D01*
X108606418Y-118909758D01*
X108606418Y-118909758D01*
G37*
D25*
X108520000Y-119317500D03*
D11*
G36*
X109106418Y-118909758D02*
G01*
X109126694Y-118923306D01*
X109140242Y-118943582D01*
X109145000Y-118967500D01*
X109145000Y-119667500D01*
X109140242Y-119691418D01*
X109126694Y-119711694D01*
X109106418Y-119725242D01*
X109082500Y-119730000D01*
X108957500Y-119730000D01*
X108933582Y-119725242D01*
X108913306Y-119711694D01*
X108899758Y-119691418D01*
X108895000Y-119667500D01*
X108895000Y-118967500D01*
X108899758Y-118943582D01*
X108913306Y-118923306D01*
X108933582Y-118909758D01*
X108957500Y-118905000D01*
X109082500Y-118905000D01*
X109106418Y-118909758D01*
X109106418Y-118909758D01*
G37*
D25*
X109020000Y-119317500D03*
D11*
G36*
X109606418Y-118909758D02*
G01*
X109626694Y-118923306D01*
X109640242Y-118943582D01*
X109645000Y-118967500D01*
X109645000Y-119667500D01*
X109640242Y-119691418D01*
X109626694Y-119711694D01*
X109606418Y-119725242D01*
X109582500Y-119730000D01*
X109457500Y-119730000D01*
X109433582Y-119725242D01*
X109413306Y-119711694D01*
X109399758Y-119691418D01*
X109395000Y-119667500D01*
X109395000Y-118967500D01*
X109399758Y-118943582D01*
X109413306Y-118923306D01*
X109433582Y-118909758D01*
X109457500Y-118905000D01*
X109582500Y-118905000D01*
X109606418Y-118909758D01*
X109606418Y-118909758D01*
G37*
D25*
X109520000Y-119317500D03*
D11*
G36*
X107990671Y-116224030D02*
G01*
X108071777Y-116278223D01*
X108125970Y-116359329D01*
X108145000Y-116454999D01*
X108145000Y-117005001D01*
X108125970Y-117100671D01*
X108071777Y-117181777D01*
X107990671Y-117235970D01*
X107895001Y-117255000D01*
X107344999Y-117255000D01*
X107249329Y-117235970D01*
X107168223Y-117181777D01*
X107114030Y-117100671D01*
X107095000Y-117005001D01*
X107095000Y-116454999D01*
X107114030Y-116359329D01*
X107168223Y-116278223D01*
X107249329Y-116224030D01*
X107344999Y-116205000D01*
X107895001Y-116205000D01*
X107990671Y-116224030D01*
X107990671Y-116224030D01*
G37*
D26*
X107620000Y-116730000D03*
D11*
G36*
X109290671Y-116224030D02*
G01*
X109371777Y-116278223D01*
X109425970Y-116359329D01*
X109445000Y-116454999D01*
X109445000Y-117005001D01*
X109425970Y-117100671D01*
X109371777Y-117181777D01*
X109290671Y-117235970D01*
X109195001Y-117255000D01*
X108644999Y-117255000D01*
X108549329Y-117235970D01*
X108468223Y-117181777D01*
X108414030Y-117100671D01*
X108395000Y-117005001D01*
X108395000Y-116454999D01*
X108414030Y-116359329D01*
X108468223Y-116278223D01*
X108549329Y-116224030D01*
X108644999Y-116205000D01*
X109195001Y-116205000D01*
X109290671Y-116224030D01*
X109290671Y-116224030D01*
G37*
D26*
X108920000Y-116730000D03*
D11*
G36*
X107990671Y-117524030D02*
G01*
X108071777Y-117578223D01*
X108125970Y-117659329D01*
X108145000Y-117754999D01*
X108145000Y-118305001D01*
X108125970Y-118400671D01*
X108071777Y-118481777D01*
X107990671Y-118535970D01*
X107895001Y-118555000D01*
X107344999Y-118555000D01*
X107249329Y-118535970D01*
X107168223Y-118481777D01*
X107114030Y-118400671D01*
X107095000Y-118305001D01*
X107095000Y-117754999D01*
X107114030Y-117659329D01*
X107168223Y-117578223D01*
X107249329Y-117524030D01*
X107344999Y-117505000D01*
X107895001Y-117505000D01*
X107990671Y-117524030D01*
X107990671Y-117524030D01*
G37*
D26*
X107620000Y-118030000D03*
D11*
G36*
X109290671Y-117524030D02*
G01*
X109371777Y-117578223D01*
X109425970Y-117659329D01*
X109445000Y-117754999D01*
X109445000Y-118305001D01*
X109425970Y-118400671D01*
X109371777Y-118481777D01*
X109290671Y-118535970D01*
X109195001Y-118555000D01*
X108644999Y-118555000D01*
X108549329Y-118535970D01*
X108468223Y-118481777D01*
X108414030Y-118400671D01*
X108395000Y-118305001D01*
X108395000Y-117754999D01*
X108414030Y-117659329D01*
X108468223Y-117578223D01*
X108549329Y-117524030D01*
X108644999Y-117505000D01*
X109195001Y-117505000D01*
X109290671Y-117524030D01*
X109290671Y-117524030D01*
G37*
D26*
X108920000Y-118030000D03*
G04 #@! TD*
D27*
G04 #@! TO.C,U3*
X111400000Y-123230000D03*
X112350000Y-123230000D03*
X110450000Y-123230000D03*
X110450000Y-125430000D03*
X111400000Y-125430000D03*
X112350000Y-125430000D03*
G04 #@! TD*
G04 #@! TO.C,U2*
X112268000Y-136990000D03*
X111318000Y-136990000D03*
X113218000Y-136990000D03*
X113218000Y-134790000D03*
X112268000Y-134790000D03*
X111318000Y-134790000D03*
G04 #@! TD*
G04 #@! TO.C,U1*
X106360000Y-135552000D03*
X104460000Y-135552000D03*
X104460000Y-137752000D03*
X105410000Y-137752000D03*
X106360000Y-137752000D03*
G04 #@! TD*
D11*
G04 #@! TO.C,TH1*
G36*
X137049946Y-137473228D02*
G01*
X137097798Y-137505202D01*
X137129772Y-137553054D01*
X137141000Y-137609500D01*
X137141000Y-137954500D01*
X137129772Y-138010946D01*
X137097798Y-138058798D01*
X137049946Y-138090772D01*
X136993500Y-138102000D01*
X136698500Y-138102000D01*
X136642054Y-138090772D01*
X136594202Y-138058798D01*
X136562228Y-138010946D01*
X136551000Y-137954500D01*
X136551000Y-137609500D01*
X136562228Y-137553054D01*
X136594202Y-137505202D01*
X136642054Y-137473228D01*
X136698500Y-137462000D01*
X136993500Y-137462000D01*
X137049946Y-137473228D01*
X137049946Y-137473228D01*
G37*
D14*
X136846000Y-137782000D03*
D11*
G36*
X136079946Y-137473228D02*
G01*
X136127798Y-137505202D01*
X136159772Y-137553054D01*
X136171000Y-137609500D01*
X136171000Y-137954500D01*
X136159772Y-138010946D01*
X136127798Y-138058798D01*
X136079946Y-138090772D01*
X136023500Y-138102000D01*
X135728500Y-138102000D01*
X135672054Y-138090772D01*
X135624202Y-138058798D01*
X135592228Y-138010946D01*
X135581000Y-137954500D01*
X135581000Y-137609500D01*
X135592228Y-137553054D01*
X135624202Y-137505202D01*
X135672054Y-137473228D01*
X135728500Y-137462000D01*
X136023500Y-137462000D01*
X136079946Y-137473228D01*
X136079946Y-137473228D01*
G37*
D14*
X135876000Y-137782000D03*
G04 #@! TD*
D28*
G04 #@! TO.C,SW1*
X134425000Y-73390000D03*
X137875000Y-73390000D03*
G04 #@! TD*
D11*
G04 #@! TO.C,R29*
G36*
X135443946Y-78681228D02*
G01*
X135491798Y-78713202D01*
X135523772Y-78761054D01*
X135535000Y-78817500D01*
X135535000Y-79162500D01*
X135523772Y-79218946D01*
X135491798Y-79266798D01*
X135443946Y-79298772D01*
X135387500Y-79310000D01*
X135092500Y-79310000D01*
X135036054Y-79298772D01*
X134988202Y-79266798D01*
X134956228Y-79218946D01*
X134945000Y-79162500D01*
X134945000Y-78817500D01*
X134956228Y-78761054D01*
X134988202Y-78713202D01*
X135036054Y-78681228D01*
X135092500Y-78670000D01*
X135387500Y-78670000D01*
X135443946Y-78681228D01*
X135443946Y-78681228D01*
G37*
D14*
X135240000Y-78990000D03*
D11*
G36*
X134473946Y-78681228D02*
G01*
X134521798Y-78713202D01*
X134553772Y-78761054D01*
X134565000Y-78817500D01*
X134565000Y-79162500D01*
X134553772Y-79218946D01*
X134521798Y-79266798D01*
X134473946Y-79298772D01*
X134417500Y-79310000D01*
X134122500Y-79310000D01*
X134066054Y-79298772D01*
X134018202Y-79266798D01*
X133986228Y-79218946D01*
X133975000Y-79162500D01*
X133975000Y-78817500D01*
X133986228Y-78761054D01*
X134018202Y-78713202D01*
X134066054Y-78681228D01*
X134122500Y-78670000D01*
X134417500Y-78670000D01*
X134473946Y-78681228D01*
X134473946Y-78681228D01*
G37*
D14*
X134270000Y-78990000D03*
G04 #@! TD*
D11*
G04 #@! TO.C,R28*
G36*
X132338946Y-78681228D02*
G01*
X132386798Y-78713202D01*
X132418772Y-78761054D01*
X132430000Y-78817500D01*
X132430000Y-79162500D01*
X132418772Y-79218946D01*
X132386798Y-79266798D01*
X132338946Y-79298772D01*
X132282500Y-79310000D01*
X131987500Y-79310000D01*
X131931054Y-79298772D01*
X131883202Y-79266798D01*
X131851228Y-79218946D01*
X131840000Y-79162500D01*
X131840000Y-78817500D01*
X131851228Y-78761054D01*
X131883202Y-78713202D01*
X131931054Y-78681228D01*
X131987500Y-78670000D01*
X132282500Y-78670000D01*
X132338946Y-78681228D01*
X132338946Y-78681228D01*
G37*
D14*
X132135000Y-78990000D03*
D11*
G36*
X133308946Y-78681228D02*
G01*
X133356798Y-78713202D01*
X133388772Y-78761054D01*
X133400000Y-78817500D01*
X133400000Y-79162500D01*
X133388772Y-79218946D01*
X133356798Y-79266798D01*
X133308946Y-79298772D01*
X133252500Y-79310000D01*
X132957500Y-79310000D01*
X132901054Y-79298772D01*
X132853202Y-79266798D01*
X132821228Y-79218946D01*
X132810000Y-79162500D01*
X132810000Y-78817500D01*
X132821228Y-78761054D01*
X132853202Y-78713202D01*
X132901054Y-78681228D01*
X132957500Y-78670000D01*
X133252500Y-78670000D01*
X133308946Y-78681228D01*
X133308946Y-78681228D01*
G37*
D14*
X133105000Y-78990000D03*
G04 #@! TD*
D11*
G04 #@! TO.C,R27*
G36*
X134193946Y-83371228D02*
G01*
X134241798Y-83403202D01*
X134273772Y-83451054D01*
X134285000Y-83507500D01*
X134285000Y-83852500D01*
X134273772Y-83908946D01*
X134241798Y-83956798D01*
X134193946Y-83988772D01*
X134137500Y-84000000D01*
X133842500Y-84000000D01*
X133786054Y-83988772D01*
X133738202Y-83956798D01*
X133706228Y-83908946D01*
X133695000Y-83852500D01*
X133695000Y-83507500D01*
X133706228Y-83451054D01*
X133738202Y-83403202D01*
X133786054Y-83371228D01*
X133842500Y-83360000D01*
X134137500Y-83360000D01*
X134193946Y-83371228D01*
X134193946Y-83371228D01*
G37*
D14*
X133990000Y-83680000D03*
D11*
G36*
X135163946Y-83371228D02*
G01*
X135211798Y-83403202D01*
X135243772Y-83451054D01*
X135255000Y-83507500D01*
X135255000Y-83852500D01*
X135243772Y-83908946D01*
X135211798Y-83956798D01*
X135163946Y-83988772D01*
X135107500Y-84000000D01*
X134812500Y-84000000D01*
X134756054Y-83988772D01*
X134708202Y-83956798D01*
X134676228Y-83908946D01*
X134665000Y-83852500D01*
X134665000Y-83507500D01*
X134676228Y-83451054D01*
X134708202Y-83403202D01*
X134756054Y-83371228D01*
X134812500Y-83360000D01*
X135107500Y-83360000D01*
X135163946Y-83371228D01*
X135163946Y-83371228D01*
G37*
D14*
X134960000Y-83680000D03*
G04 #@! TD*
D11*
G04 #@! TO.C,R26*
G36*
X132478946Y-73081228D02*
G01*
X132526798Y-73113202D01*
X132558772Y-73161054D01*
X132570000Y-73217500D01*
X132570000Y-73562500D01*
X132558772Y-73618946D01*
X132526798Y-73666798D01*
X132478946Y-73698772D01*
X132422500Y-73710000D01*
X132127500Y-73710000D01*
X132071054Y-73698772D01*
X132023202Y-73666798D01*
X131991228Y-73618946D01*
X131980000Y-73562500D01*
X131980000Y-73217500D01*
X131991228Y-73161054D01*
X132023202Y-73113202D01*
X132071054Y-73081228D01*
X132127500Y-73070000D01*
X132422500Y-73070000D01*
X132478946Y-73081228D01*
X132478946Y-73081228D01*
G37*
D14*
X132275000Y-73390000D03*
D11*
G36*
X131508946Y-73081228D02*
G01*
X131556798Y-73113202D01*
X131588772Y-73161054D01*
X131600000Y-73217500D01*
X131600000Y-73562500D01*
X131588772Y-73618946D01*
X131556798Y-73666798D01*
X131508946Y-73698772D01*
X131452500Y-73710000D01*
X131157500Y-73710000D01*
X131101054Y-73698772D01*
X131053202Y-73666798D01*
X131021228Y-73618946D01*
X131010000Y-73562500D01*
X131010000Y-73217500D01*
X131021228Y-73161054D01*
X131053202Y-73113202D01*
X131101054Y-73081228D01*
X131157500Y-73070000D01*
X131452500Y-73070000D01*
X131508946Y-73081228D01*
X131508946Y-73081228D01*
G37*
D14*
X131305000Y-73390000D03*
G04 #@! TD*
D11*
G04 #@! TO.C,R25*
G36*
X183568946Y-129131228D02*
G01*
X183616798Y-129163202D01*
X183648772Y-129211054D01*
X183660000Y-129267500D01*
X183660000Y-129562500D01*
X183648772Y-129618946D01*
X183616798Y-129666798D01*
X183568946Y-129698772D01*
X183512500Y-129710000D01*
X183167500Y-129710000D01*
X183111054Y-129698772D01*
X183063202Y-129666798D01*
X183031228Y-129618946D01*
X183020000Y-129562500D01*
X183020000Y-129267500D01*
X183031228Y-129211054D01*
X183063202Y-129163202D01*
X183111054Y-129131228D01*
X183167500Y-129120000D01*
X183512500Y-129120000D01*
X183568946Y-129131228D01*
X183568946Y-129131228D01*
G37*
D14*
X183340000Y-129415000D03*
D11*
G36*
X183568946Y-128161228D02*
G01*
X183616798Y-128193202D01*
X183648772Y-128241054D01*
X183660000Y-128297500D01*
X183660000Y-128592500D01*
X183648772Y-128648946D01*
X183616798Y-128696798D01*
X183568946Y-128728772D01*
X183512500Y-128740000D01*
X183167500Y-128740000D01*
X183111054Y-128728772D01*
X183063202Y-128696798D01*
X183031228Y-128648946D01*
X183020000Y-128592500D01*
X183020000Y-128297500D01*
X183031228Y-128241054D01*
X183063202Y-128193202D01*
X183111054Y-128161228D01*
X183167500Y-128150000D01*
X183512500Y-128150000D01*
X183568946Y-128161228D01*
X183568946Y-128161228D01*
G37*
D14*
X183340000Y-128445000D03*
G04 #@! TD*
D11*
G04 #@! TO.C,R24*
G36*
X180918946Y-129131228D02*
G01*
X180966798Y-129163202D01*
X180998772Y-129211054D01*
X181010000Y-129267500D01*
X181010000Y-129562500D01*
X180998772Y-129618946D01*
X180966798Y-129666798D01*
X180918946Y-129698772D01*
X180862500Y-129710000D01*
X180517500Y-129710000D01*
X180461054Y-129698772D01*
X180413202Y-129666798D01*
X180381228Y-129618946D01*
X180370000Y-129562500D01*
X180370000Y-129267500D01*
X180381228Y-129211054D01*
X180413202Y-129163202D01*
X180461054Y-129131228D01*
X180517500Y-129120000D01*
X180862500Y-129120000D01*
X180918946Y-129131228D01*
X180918946Y-129131228D01*
G37*
D14*
X180690000Y-129415000D03*
D11*
G36*
X180918946Y-128161228D02*
G01*
X180966798Y-128193202D01*
X180998772Y-128241054D01*
X181010000Y-128297500D01*
X181010000Y-128592500D01*
X180998772Y-128648946D01*
X180966798Y-128696798D01*
X180918946Y-128728772D01*
X180862500Y-128740000D01*
X180517500Y-128740000D01*
X180461054Y-128728772D01*
X180413202Y-128696798D01*
X180381228Y-128648946D01*
X180370000Y-128592500D01*
X180370000Y-128297500D01*
X180381228Y-128241054D01*
X180413202Y-128193202D01*
X180461054Y-128161228D01*
X180517500Y-128150000D01*
X180862500Y-128150000D01*
X180918946Y-128161228D01*
X180918946Y-128161228D01*
G37*
D14*
X180690000Y-128445000D03*
G04 #@! TD*
D11*
G04 #@! TO.C,R23*
G36*
X182243946Y-129131228D02*
G01*
X182291798Y-129163202D01*
X182323772Y-129211054D01*
X182335000Y-129267500D01*
X182335000Y-129562500D01*
X182323772Y-129618946D01*
X182291798Y-129666798D01*
X182243946Y-129698772D01*
X182187500Y-129710000D01*
X181842500Y-129710000D01*
X181786054Y-129698772D01*
X181738202Y-129666798D01*
X181706228Y-129618946D01*
X181695000Y-129562500D01*
X181695000Y-129267500D01*
X181706228Y-129211054D01*
X181738202Y-129163202D01*
X181786054Y-129131228D01*
X181842500Y-129120000D01*
X182187500Y-129120000D01*
X182243946Y-129131228D01*
X182243946Y-129131228D01*
G37*
D14*
X182015000Y-129415000D03*
D11*
G36*
X182243946Y-128161228D02*
G01*
X182291798Y-128193202D01*
X182323772Y-128241054D01*
X182335000Y-128297500D01*
X182335000Y-128592500D01*
X182323772Y-128648946D01*
X182291798Y-128696798D01*
X182243946Y-128728772D01*
X182187500Y-128740000D01*
X181842500Y-128740000D01*
X181786054Y-128728772D01*
X181738202Y-128696798D01*
X181706228Y-128648946D01*
X181695000Y-128592500D01*
X181695000Y-128297500D01*
X181706228Y-128241054D01*
X181738202Y-128193202D01*
X181786054Y-128161228D01*
X181842500Y-128150000D01*
X182187500Y-128150000D01*
X182243946Y-128161228D01*
X182243946Y-128161228D01*
G37*
D14*
X182015000Y-128445000D03*
G04 #@! TD*
D11*
G04 #@! TO.C,R22*
G36*
X127118946Y-104246228D02*
G01*
X127166798Y-104278202D01*
X127198772Y-104326054D01*
X127210000Y-104382500D01*
X127210000Y-104677500D01*
X127198772Y-104733946D01*
X127166798Y-104781798D01*
X127118946Y-104813772D01*
X127062500Y-104825000D01*
X126717500Y-104825000D01*
X126661054Y-104813772D01*
X126613202Y-104781798D01*
X126581228Y-104733946D01*
X126570000Y-104677500D01*
X126570000Y-104382500D01*
X126581228Y-104326054D01*
X126613202Y-104278202D01*
X126661054Y-104246228D01*
X126717500Y-104235000D01*
X127062500Y-104235000D01*
X127118946Y-104246228D01*
X127118946Y-104246228D01*
G37*
D14*
X126890000Y-104530000D03*
D11*
G36*
X127118946Y-103276228D02*
G01*
X127166798Y-103308202D01*
X127198772Y-103356054D01*
X127210000Y-103412500D01*
X127210000Y-103707500D01*
X127198772Y-103763946D01*
X127166798Y-103811798D01*
X127118946Y-103843772D01*
X127062500Y-103855000D01*
X126717500Y-103855000D01*
X126661054Y-103843772D01*
X126613202Y-103811798D01*
X126581228Y-103763946D01*
X126570000Y-103707500D01*
X126570000Y-103412500D01*
X126581228Y-103356054D01*
X126613202Y-103308202D01*
X126661054Y-103276228D01*
X126717500Y-103265000D01*
X127062500Y-103265000D01*
X127118946Y-103276228D01*
X127118946Y-103276228D01*
G37*
D14*
X126890000Y-103560000D03*
G04 #@! TD*
D11*
G04 #@! TO.C,R21*
G36*
X127118946Y-106271228D02*
G01*
X127166798Y-106303202D01*
X127198772Y-106351054D01*
X127210000Y-106407500D01*
X127210000Y-106702500D01*
X127198772Y-106758946D01*
X127166798Y-106806798D01*
X127118946Y-106838772D01*
X127062500Y-106850000D01*
X126717500Y-106850000D01*
X126661054Y-106838772D01*
X126613202Y-106806798D01*
X126581228Y-106758946D01*
X126570000Y-106702500D01*
X126570000Y-106407500D01*
X126581228Y-106351054D01*
X126613202Y-106303202D01*
X126661054Y-106271228D01*
X126717500Y-106260000D01*
X127062500Y-106260000D01*
X127118946Y-106271228D01*
X127118946Y-106271228D01*
G37*
D14*
X126890000Y-106555000D03*
D11*
G36*
X127118946Y-105301228D02*
G01*
X127166798Y-105333202D01*
X127198772Y-105381054D01*
X127210000Y-105437500D01*
X127210000Y-105732500D01*
X127198772Y-105788946D01*
X127166798Y-105836798D01*
X127118946Y-105868772D01*
X127062500Y-105880000D01*
X126717500Y-105880000D01*
X126661054Y-105868772D01*
X126613202Y-105836798D01*
X126581228Y-105788946D01*
X126570000Y-105732500D01*
X126570000Y-105437500D01*
X126581228Y-105381054D01*
X126613202Y-105333202D01*
X126661054Y-105301228D01*
X126717500Y-105290000D01*
X127062500Y-105290000D01*
X127118946Y-105301228D01*
X127118946Y-105301228D01*
G37*
D14*
X126890000Y-105585000D03*
G04 #@! TD*
D11*
G04 #@! TO.C,R20*
G36*
X129225947Y-109126228D02*
G01*
X129273799Y-109158202D01*
X129305773Y-109206054D01*
X129317001Y-109262500D01*
X129317001Y-109557500D01*
X129305773Y-109613946D01*
X129273799Y-109661798D01*
X129225947Y-109693772D01*
X129169501Y-109705000D01*
X128824501Y-109705000D01*
X128768055Y-109693772D01*
X128720203Y-109661798D01*
X128688229Y-109613946D01*
X128677001Y-109557500D01*
X128677001Y-109262500D01*
X128688229Y-109206054D01*
X128720203Y-109158202D01*
X128768055Y-109126228D01*
X128824501Y-109115000D01*
X129169501Y-109115000D01*
X129225947Y-109126228D01*
X129225947Y-109126228D01*
G37*
D14*
X128997001Y-109410000D03*
D11*
G36*
X129225947Y-108156228D02*
G01*
X129273799Y-108188202D01*
X129305773Y-108236054D01*
X129317001Y-108292500D01*
X129317001Y-108587500D01*
X129305773Y-108643946D01*
X129273799Y-108691798D01*
X129225947Y-108723772D01*
X129169501Y-108735000D01*
X128824501Y-108735000D01*
X128768055Y-108723772D01*
X128720203Y-108691798D01*
X128688229Y-108643946D01*
X128677001Y-108587500D01*
X128677001Y-108292500D01*
X128688229Y-108236054D01*
X128720203Y-108188202D01*
X128768055Y-108156228D01*
X128824501Y-108145000D01*
X129169501Y-108145000D01*
X129225947Y-108156228D01*
X129225947Y-108156228D01*
G37*
D14*
X128997001Y-108440000D03*
G04 #@! TD*
D11*
G04 #@! TO.C,R19*
G36*
X130368946Y-109126228D02*
G01*
X130416798Y-109158202D01*
X130448772Y-109206054D01*
X130460000Y-109262500D01*
X130460000Y-109557500D01*
X130448772Y-109613946D01*
X130416798Y-109661798D01*
X130368946Y-109693772D01*
X130312500Y-109705000D01*
X129967500Y-109705000D01*
X129911054Y-109693772D01*
X129863202Y-109661798D01*
X129831228Y-109613946D01*
X129820000Y-109557500D01*
X129820000Y-109262500D01*
X129831228Y-109206054D01*
X129863202Y-109158202D01*
X129911054Y-109126228D01*
X129967500Y-109115000D01*
X130312500Y-109115000D01*
X130368946Y-109126228D01*
X130368946Y-109126228D01*
G37*
D14*
X130140000Y-109410000D03*
D11*
G36*
X130368946Y-108156228D02*
G01*
X130416798Y-108188202D01*
X130448772Y-108236054D01*
X130460000Y-108292500D01*
X130460000Y-108587500D01*
X130448772Y-108643946D01*
X130416798Y-108691798D01*
X130368946Y-108723772D01*
X130312500Y-108735000D01*
X129967500Y-108735000D01*
X129911054Y-108723772D01*
X129863202Y-108691798D01*
X129831228Y-108643946D01*
X129820000Y-108587500D01*
X129820000Y-108292500D01*
X129831228Y-108236054D01*
X129863202Y-108188202D01*
X129911054Y-108156228D01*
X129967500Y-108145000D01*
X130312500Y-108145000D01*
X130368946Y-108156228D01*
X130368946Y-108156228D01*
G37*
D14*
X130140000Y-108440000D03*
G04 #@! TD*
D11*
G04 #@! TO.C,R18*
G36*
X120973946Y-98291228D02*
G01*
X121021798Y-98323202D01*
X121053772Y-98371054D01*
X121065000Y-98427500D01*
X121065000Y-98772500D01*
X121053772Y-98828946D01*
X121021798Y-98876798D01*
X120973946Y-98908772D01*
X120917500Y-98920000D01*
X120622500Y-98920000D01*
X120566054Y-98908772D01*
X120518202Y-98876798D01*
X120486228Y-98828946D01*
X120475000Y-98772500D01*
X120475000Y-98427500D01*
X120486228Y-98371054D01*
X120518202Y-98323202D01*
X120566054Y-98291228D01*
X120622500Y-98280000D01*
X120917500Y-98280000D01*
X120973946Y-98291228D01*
X120973946Y-98291228D01*
G37*
D14*
X120770000Y-98600000D03*
D11*
G36*
X121943946Y-98291228D02*
G01*
X121991798Y-98323202D01*
X122023772Y-98371054D01*
X122035000Y-98427500D01*
X122035000Y-98772500D01*
X122023772Y-98828946D01*
X121991798Y-98876798D01*
X121943946Y-98908772D01*
X121887500Y-98920000D01*
X121592500Y-98920000D01*
X121536054Y-98908772D01*
X121488202Y-98876798D01*
X121456228Y-98828946D01*
X121445000Y-98772500D01*
X121445000Y-98427500D01*
X121456228Y-98371054D01*
X121488202Y-98323202D01*
X121536054Y-98291228D01*
X121592500Y-98280000D01*
X121887500Y-98280000D01*
X121943946Y-98291228D01*
X121943946Y-98291228D01*
G37*
D14*
X121740000Y-98600000D03*
G04 #@! TD*
D11*
G04 #@! TO.C,R17*
G36*
X120973946Y-99366228D02*
G01*
X121021798Y-99398202D01*
X121053772Y-99446054D01*
X121065000Y-99502500D01*
X121065000Y-99847500D01*
X121053772Y-99903946D01*
X121021798Y-99951798D01*
X120973946Y-99983772D01*
X120917500Y-99995000D01*
X120622500Y-99995000D01*
X120566054Y-99983772D01*
X120518202Y-99951798D01*
X120486228Y-99903946D01*
X120475000Y-99847500D01*
X120475000Y-99502500D01*
X120486228Y-99446054D01*
X120518202Y-99398202D01*
X120566054Y-99366228D01*
X120622500Y-99355000D01*
X120917500Y-99355000D01*
X120973946Y-99366228D01*
X120973946Y-99366228D01*
G37*
D14*
X120770000Y-99675000D03*
D11*
G36*
X121943946Y-99366228D02*
G01*
X121991798Y-99398202D01*
X122023772Y-99446054D01*
X122035000Y-99502500D01*
X122035000Y-99847500D01*
X122023772Y-99903946D01*
X121991798Y-99951798D01*
X121943946Y-99983772D01*
X121887500Y-99995000D01*
X121592500Y-99995000D01*
X121536054Y-99983772D01*
X121488202Y-99951798D01*
X121456228Y-99903946D01*
X121445000Y-99847500D01*
X121445000Y-99502500D01*
X121456228Y-99446054D01*
X121488202Y-99398202D01*
X121536054Y-99366228D01*
X121592500Y-99355000D01*
X121887500Y-99355000D01*
X121943946Y-99366228D01*
X121943946Y-99366228D01*
G37*
D14*
X121740000Y-99675000D03*
G04 #@! TD*
D11*
G04 #@! TO.C,R16*
G36*
X120973946Y-100441228D02*
G01*
X121021798Y-100473202D01*
X121053772Y-100521054D01*
X121065000Y-100577500D01*
X121065000Y-100922500D01*
X121053772Y-100978946D01*
X121021798Y-101026798D01*
X120973946Y-101058772D01*
X120917500Y-101070000D01*
X120622500Y-101070000D01*
X120566054Y-101058772D01*
X120518202Y-101026798D01*
X120486228Y-100978946D01*
X120475000Y-100922500D01*
X120475000Y-100577500D01*
X120486228Y-100521054D01*
X120518202Y-100473202D01*
X120566054Y-100441228D01*
X120622500Y-100430000D01*
X120917500Y-100430000D01*
X120973946Y-100441228D01*
X120973946Y-100441228D01*
G37*
D14*
X120770000Y-100750000D03*
D11*
G36*
X121943946Y-100441228D02*
G01*
X121991798Y-100473202D01*
X122023772Y-100521054D01*
X122035000Y-100577500D01*
X122035000Y-100922500D01*
X122023772Y-100978946D01*
X121991798Y-101026798D01*
X121943946Y-101058772D01*
X121887500Y-101070000D01*
X121592500Y-101070000D01*
X121536054Y-101058772D01*
X121488202Y-101026798D01*
X121456228Y-100978946D01*
X121445000Y-100922500D01*
X121445000Y-100577500D01*
X121456228Y-100521054D01*
X121488202Y-100473202D01*
X121536054Y-100441228D01*
X121592500Y-100430000D01*
X121887500Y-100430000D01*
X121943946Y-100441228D01*
X121943946Y-100441228D01*
G37*
D14*
X121740000Y-100750000D03*
G04 #@! TD*
D11*
G04 #@! TO.C,R15*
G36*
X120973946Y-103141228D02*
G01*
X121021798Y-103173202D01*
X121053772Y-103221054D01*
X121065000Y-103277500D01*
X121065000Y-103622500D01*
X121053772Y-103678946D01*
X121021798Y-103726798D01*
X120973946Y-103758772D01*
X120917500Y-103770000D01*
X120622500Y-103770000D01*
X120566054Y-103758772D01*
X120518202Y-103726798D01*
X120486228Y-103678946D01*
X120475000Y-103622500D01*
X120475000Y-103277500D01*
X120486228Y-103221054D01*
X120518202Y-103173202D01*
X120566054Y-103141228D01*
X120622500Y-103130000D01*
X120917500Y-103130000D01*
X120973946Y-103141228D01*
X120973946Y-103141228D01*
G37*
D14*
X120770000Y-103450000D03*
D11*
G36*
X121943946Y-103141228D02*
G01*
X121991798Y-103173202D01*
X122023772Y-103221054D01*
X122035000Y-103277500D01*
X122035000Y-103622500D01*
X122023772Y-103678946D01*
X121991798Y-103726798D01*
X121943946Y-103758772D01*
X121887500Y-103770000D01*
X121592500Y-103770000D01*
X121536054Y-103758772D01*
X121488202Y-103726798D01*
X121456228Y-103678946D01*
X121445000Y-103622500D01*
X121445000Y-103277500D01*
X121456228Y-103221054D01*
X121488202Y-103173202D01*
X121536054Y-103141228D01*
X121592500Y-103130000D01*
X121887500Y-103130000D01*
X121943946Y-103141228D01*
X121943946Y-103141228D01*
G37*
D14*
X121740000Y-103450000D03*
G04 #@! TD*
D11*
G04 #@! TO.C,R14*
G36*
X120973946Y-104821228D02*
G01*
X121021798Y-104853202D01*
X121053772Y-104901054D01*
X121065000Y-104957500D01*
X121065000Y-105302500D01*
X121053772Y-105358946D01*
X121021798Y-105406798D01*
X120973946Y-105438772D01*
X120917500Y-105450000D01*
X120622500Y-105450000D01*
X120566054Y-105438772D01*
X120518202Y-105406798D01*
X120486228Y-105358946D01*
X120475000Y-105302500D01*
X120475000Y-104957500D01*
X120486228Y-104901054D01*
X120518202Y-104853202D01*
X120566054Y-104821228D01*
X120622500Y-104810000D01*
X120917500Y-104810000D01*
X120973946Y-104821228D01*
X120973946Y-104821228D01*
G37*
D14*
X120770000Y-105130000D03*
D11*
G36*
X121943946Y-104821228D02*
G01*
X121991798Y-104853202D01*
X122023772Y-104901054D01*
X122035000Y-104957500D01*
X122035000Y-105302500D01*
X122023772Y-105358946D01*
X121991798Y-105406798D01*
X121943946Y-105438772D01*
X121887500Y-105450000D01*
X121592500Y-105450000D01*
X121536054Y-105438772D01*
X121488202Y-105406798D01*
X121456228Y-105358946D01*
X121445000Y-105302500D01*
X121445000Y-104957500D01*
X121456228Y-104901054D01*
X121488202Y-104853202D01*
X121536054Y-104821228D01*
X121592500Y-104810000D01*
X121887500Y-104810000D01*
X121943946Y-104821228D01*
X121943946Y-104821228D01*
G37*
D14*
X121740000Y-105130000D03*
G04 #@! TD*
D11*
G04 #@! TO.C,R13*
G36*
X120973946Y-105941228D02*
G01*
X121021798Y-105973202D01*
X121053772Y-106021054D01*
X121065000Y-106077500D01*
X121065000Y-106422500D01*
X121053772Y-106478946D01*
X121021798Y-106526798D01*
X120973946Y-106558772D01*
X120917500Y-106570000D01*
X120622500Y-106570000D01*
X120566054Y-106558772D01*
X120518202Y-106526798D01*
X120486228Y-106478946D01*
X120475000Y-106422500D01*
X120475000Y-106077500D01*
X120486228Y-106021054D01*
X120518202Y-105973202D01*
X120566054Y-105941228D01*
X120622500Y-105930000D01*
X120917500Y-105930000D01*
X120973946Y-105941228D01*
X120973946Y-105941228D01*
G37*
D14*
X120770000Y-106250000D03*
D11*
G36*
X121943946Y-105941228D02*
G01*
X121991798Y-105973202D01*
X122023772Y-106021054D01*
X122035000Y-106077500D01*
X122035000Y-106422500D01*
X122023772Y-106478946D01*
X121991798Y-106526798D01*
X121943946Y-106558772D01*
X121887500Y-106570000D01*
X121592500Y-106570000D01*
X121536054Y-106558772D01*
X121488202Y-106526798D01*
X121456228Y-106478946D01*
X121445000Y-106422500D01*
X121445000Y-106077500D01*
X121456228Y-106021054D01*
X121488202Y-105973202D01*
X121536054Y-105941228D01*
X121592500Y-105930000D01*
X121887500Y-105930000D01*
X121943946Y-105941228D01*
X121943946Y-105941228D01*
G37*
D14*
X121740000Y-106250000D03*
G04 #@! TD*
D11*
G04 #@! TO.C,R12*
G36*
X127223946Y-73121228D02*
G01*
X127271798Y-73153202D01*
X127303772Y-73201054D01*
X127315000Y-73257500D01*
X127315000Y-73602500D01*
X127303772Y-73658946D01*
X127271798Y-73706798D01*
X127223946Y-73738772D01*
X127167500Y-73750000D01*
X126872500Y-73750000D01*
X126816054Y-73738772D01*
X126768202Y-73706798D01*
X126736228Y-73658946D01*
X126725000Y-73602500D01*
X126725000Y-73257500D01*
X126736228Y-73201054D01*
X126768202Y-73153202D01*
X126816054Y-73121228D01*
X126872500Y-73110000D01*
X127167500Y-73110000D01*
X127223946Y-73121228D01*
X127223946Y-73121228D01*
G37*
D14*
X127020000Y-73430000D03*
D11*
G36*
X126253946Y-73121228D02*
G01*
X126301798Y-73153202D01*
X126333772Y-73201054D01*
X126345000Y-73257500D01*
X126345000Y-73602500D01*
X126333772Y-73658946D01*
X126301798Y-73706798D01*
X126253946Y-73738772D01*
X126197500Y-73750000D01*
X125902500Y-73750000D01*
X125846054Y-73738772D01*
X125798202Y-73706798D01*
X125766228Y-73658946D01*
X125755000Y-73602500D01*
X125755000Y-73257500D01*
X125766228Y-73201054D01*
X125798202Y-73153202D01*
X125846054Y-73121228D01*
X125902500Y-73110000D01*
X126197500Y-73110000D01*
X126253946Y-73121228D01*
X126253946Y-73121228D01*
G37*
D14*
X126050000Y-73430000D03*
G04 #@! TD*
D11*
G04 #@! TO.C,R11*
G36*
X129263946Y-73121228D02*
G01*
X129311798Y-73153202D01*
X129343772Y-73201054D01*
X129355000Y-73257500D01*
X129355000Y-73602500D01*
X129343772Y-73658946D01*
X129311798Y-73706798D01*
X129263946Y-73738772D01*
X129207500Y-73750000D01*
X128912500Y-73750000D01*
X128856054Y-73738772D01*
X128808202Y-73706798D01*
X128776228Y-73658946D01*
X128765000Y-73602500D01*
X128765000Y-73257500D01*
X128776228Y-73201054D01*
X128808202Y-73153202D01*
X128856054Y-73121228D01*
X128912500Y-73110000D01*
X129207500Y-73110000D01*
X129263946Y-73121228D01*
X129263946Y-73121228D01*
G37*
D14*
X129060000Y-73430000D03*
D11*
G36*
X128293946Y-73121228D02*
G01*
X128341798Y-73153202D01*
X128373772Y-73201054D01*
X128385000Y-73257500D01*
X128385000Y-73602500D01*
X128373772Y-73658946D01*
X128341798Y-73706798D01*
X128293946Y-73738772D01*
X128237500Y-73750000D01*
X127942500Y-73750000D01*
X127886054Y-73738772D01*
X127838202Y-73706798D01*
X127806228Y-73658946D01*
X127795000Y-73602500D01*
X127795000Y-73257500D01*
X127806228Y-73201054D01*
X127838202Y-73153202D01*
X127886054Y-73121228D01*
X127942500Y-73110000D01*
X128237500Y-73110000D01*
X128293946Y-73121228D01*
X128293946Y-73121228D01*
G37*
D14*
X128090000Y-73430000D03*
G04 #@! TD*
D11*
G04 #@! TO.C,R10*
G36*
X125258946Y-74776228D02*
G01*
X125306798Y-74808202D01*
X125338772Y-74856054D01*
X125350000Y-74912500D01*
X125350000Y-75207500D01*
X125338772Y-75263946D01*
X125306798Y-75311798D01*
X125258946Y-75343772D01*
X125202500Y-75355000D01*
X124857500Y-75355000D01*
X124801054Y-75343772D01*
X124753202Y-75311798D01*
X124721228Y-75263946D01*
X124710000Y-75207500D01*
X124710000Y-74912500D01*
X124721228Y-74856054D01*
X124753202Y-74808202D01*
X124801054Y-74776228D01*
X124857500Y-74765000D01*
X125202500Y-74765000D01*
X125258946Y-74776228D01*
X125258946Y-74776228D01*
G37*
D14*
X125030000Y-75060000D03*
D11*
G36*
X125258946Y-73806228D02*
G01*
X125306798Y-73838202D01*
X125338772Y-73886054D01*
X125350000Y-73942500D01*
X125350000Y-74237500D01*
X125338772Y-74293946D01*
X125306798Y-74341798D01*
X125258946Y-74373772D01*
X125202500Y-74385000D01*
X124857500Y-74385000D01*
X124801054Y-74373772D01*
X124753202Y-74341798D01*
X124721228Y-74293946D01*
X124710000Y-74237500D01*
X124710000Y-73942500D01*
X124721228Y-73886054D01*
X124753202Y-73838202D01*
X124801054Y-73806228D01*
X124857500Y-73795000D01*
X125202500Y-73795000D01*
X125258946Y-73806228D01*
X125258946Y-73806228D01*
G37*
D14*
X125030000Y-74090000D03*
G04 #@! TD*
D11*
G04 #@! TO.C,R9*
G36*
X125258946Y-76806228D02*
G01*
X125306798Y-76838202D01*
X125338772Y-76886054D01*
X125350000Y-76942500D01*
X125350000Y-77237500D01*
X125338772Y-77293946D01*
X125306798Y-77341798D01*
X125258946Y-77373772D01*
X125202500Y-77385000D01*
X124857500Y-77385000D01*
X124801054Y-77373772D01*
X124753202Y-77341798D01*
X124721228Y-77293946D01*
X124710000Y-77237500D01*
X124710000Y-76942500D01*
X124721228Y-76886054D01*
X124753202Y-76838202D01*
X124801054Y-76806228D01*
X124857500Y-76795000D01*
X125202500Y-76795000D01*
X125258946Y-76806228D01*
X125258946Y-76806228D01*
G37*
D14*
X125030000Y-77090000D03*
D11*
G36*
X125258946Y-75836228D02*
G01*
X125306798Y-75868202D01*
X125338772Y-75916054D01*
X125350000Y-75972500D01*
X125350000Y-76267500D01*
X125338772Y-76323946D01*
X125306798Y-76371798D01*
X125258946Y-76403772D01*
X125202500Y-76415000D01*
X124857500Y-76415000D01*
X124801054Y-76403772D01*
X124753202Y-76371798D01*
X124721228Y-76323946D01*
X124710000Y-76267500D01*
X124710000Y-75972500D01*
X124721228Y-75916054D01*
X124753202Y-75868202D01*
X124801054Y-75836228D01*
X124857500Y-75825000D01*
X125202500Y-75825000D01*
X125258946Y-75836228D01*
X125258946Y-75836228D01*
G37*
D14*
X125030000Y-76120000D03*
G04 #@! TD*
D11*
G04 #@! TO.C,R8*
G36*
X134638946Y-111401228D02*
G01*
X134686798Y-111433202D01*
X134718772Y-111481054D01*
X134730000Y-111537500D01*
X134730000Y-111882500D01*
X134718772Y-111938946D01*
X134686798Y-111986798D01*
X134638946Y-112018772D01*
X134582500Y-112030000D01*
X134287500Y-112030000D01*
X134231054Y-112018772D01*
X134183202Y-111986798D01*
X134151228Y-111938946D01*
X134140000Y-111882500D01*
X134140000Y-111537500D01*
X134151228Y-111481054D01*
X134183202Y-111433202D01*
X134231054Y-111401228D01*
X134287500Y-111390000D01*
X134582500Y-111390000D01*
X134638946Y-111401228D01*
X134638946Y-111401228D01*
G37*
D14*
X134435000Y-111710000D03*
D11*
G36*
X133668946Y-111401228D02*
G01*
X133716798Y-111433202D01*
X133748772Y-111481054D01*
X133760000Y-111537500D01*
X133760000Y-111882500D01*
X133748772Y-111938946D01*
X133716798Y-111986798D01*
X133668946Y-112018772D01*
X133612500Y-112030000D01*
X133317500Y-112030000D01*
X133261054Y-112018772D01*
X133213202Y-111986798D01*
X133181228Y-111938946D01*
X133170000Y-111882500D01*
X133170000Y-111537500D01*
X133181228Y-111481054D01*
X133213202Y-111433202D01*
X133261054Y-111401228D01*
X133317500Y-111390000D01*
X133612500Y-111390000D01*
X133668946Y-111401228D01*
X133668946Y-111401228D01*
G37*
D14*
X133465000Y-111710000D03*
G04 #@! TD*
D11*
G04 #@! TO.C,R7*
G36*
X136643946Y-111401228D02*
G01*
X136691798Y-111433202D01*
X136723772Y-111481054D01*
X136735000Y-111537500D01*
X136735000Y-111882500D01*
X136723772Y-111938946D01*
X136691798Y-111986798D01*
X136643946Y-112018772D01*
X136587500Y-112030000D01*
X136292500Y-112030000D01*
X136236054Y-112018772D01*
X136188202Y-111986798D01*
X136156228Y-111938946D01*
X136145000Y-111882500D01*
X136145000Y-111537500D01*
X136156228Y-111481054D01*
X136188202Y-111433202D01*
X136236054Y-111401228D01*
X136292500Y-111390000D01*
X136587500Y-111390000D01*
X136643946Y-111401228D01*
X136643946Y-111401228D01*
G37*
D14*
X136440000Y-111710000D03*
D11*
G36*
X135673946Y-111401228D02*
G01*
X135721798Y-111433202D01*
X135753772Y-111481054D01*
X135765000Y-111537500D01*
X135765000Y-111882500D01*
X135753772Y-111938946D01*
X135721798Y-111986798D01*
X135673946Y-112018772D01*
X135617500Y-112030000D01*
X135322500Y-112030000D01*
X135266054Y-112018772D01*
X135218202Y-111986798D01*
X135186228Y-111938946D01*
X135175000Y-111882500D01*
X135175000Y-111537500D01*
X135186228Y-111481054D01*
X135218202Y-111433202D01*
X135266054Y-111401228D01*
X135322500Y-111390000D01*
X135617500Y-111390000D01*
X135673946Y-111401228D01*
X135673946Y-111401228D01*
G37*
D14*
X135470000Y-111710000D03*
G04 #@! TD*
D11*
G04 #@! TO.C,R5*
G36*
X117858946Y-118531228D02*
G01*
X117906798Y-118563202D01*
X117938772Y-118611054D01*
X117950000Y-118667500D01*
X117950000Y-118962500D01*
X117938772Y-119018946D01*
X117906798Y-119066798D01*
X117858946Y-119098772D01*
X117802500Y-119110000D01*
X117457500Y-119110000D01*
X117401054Y-119098772D01*
X117353202Y-119066798D01*
X117321228Y-119018946D01*
X117310000Y-118962500D01*
X117310000Y-118667500D01*
X117321228Y-118611054D01*
X117353202Y-118563202D01*
X117401054Y-118531228D01*
X117457500Y-118520000D01*
X117802500Y-118520000D01*
X117858946Y-118531228D01*
X117858946Y-118531228D01*
G37*
D14*
X117630000Y-118815000D03*
D11*
G36*
X117858946Y-117561228D02*
G01*
X117906798Y-117593202D01*
X117938772Y-117641054D01*
X117950000Y-117697500D01*
X117950000Y-117992500D01*
X117938772Y-118048946D01*
X117906798Y-118096798D01*
X117858946Y-118128772D01*
X117802500Y-118140000D01*
X117457500Y-118140000D01*
X117401054Y-118128772D01*
X117353202Y-118096798D01*
X117321228Y-118048946D01*
X117310000Y-117992500D01*
X117310000Y-117697500D01*
X117321228Y-117641054D01*
X117353202Y-117593202D01*
X117401054Y-117561228D01*
X117457500Y-117550000D01*
X117802500Y-117550000D01*
X117858946Y-117561228D01*
X117858946Y-117561228D01*
G37*
D14*
X117630000Y-117845000D03*
G04 #@! TD*
D11*
G04 #@! TO.C,R4*
G36*
X116338946Y-120651228D02*
G01*
X116386798Y-120683202D01*
X116418772Y-120731054D01*
X116430000Y-120787500D01*
X116430000Y-121132500D01*
X116418772Y-121188946D01*
X116386798Y-121236798D01*
X116338946Y-121268772D01*
X116282500Y-121280000D01*
X115987500Y-121280000D01*
X115931054Y-121268772D01*
X115883202Y-121236798D01*
X115851228Y-121188946D01*
X115840000Y-121132500D01*
X115840000Y-120787500D01*
X115851228Y-120731054D01*
X115883202Y-120683202D01*
X115931054Y-120651228D01*
X115987500Y-120640000D01*
X116282500Y-120640000D01*
X116338946Y-120651228D01*
X116338946Y-120651228D01*
G37*
D14*
X116135000Y-120960000D03*
D11*
G36*
X115368946Y-120651228D02*
G01*
X115416798Y-120683202D01*
X115448772Y-120731054D01*
X115460000Y-120787500D01*
X115460000Y-121132500D01*
X115448772Y-121188946D01*
X115416798Y-121236798D01*
X115368946Y-121268772D01*
X115312500Y-121280000D01*
X115017500Y-121280000D01*
X114961054Y-121268772D01*
X114913202Y-121236798D01*
X114881228Y-121188946D01*
X114870000Y-121132500D01*
X114870000Y-120787500D01*
X114881228Y-120731054D01*
X114913202Y-120683202D01*
X114961054Y-120651228D01*
X115017500Y-120640000D01*
X115312500Y-120640000D01*
X115368946Y-120651228D01*
X115368946Y-120651228D01*
G37*
D14*
X115165000Y-120960000D03*
G04 #@! TD*
D11*
G04 #@! TO.C,R3*
G36*
X109956946Y-129533228D02*
G01*
X110004798Y-129565202D01*
X110036772Y-129613054D01*
X110048000Y-129669500D01*
X110048000Y-129964500D01*
X110036772Y-130020946D01*
X110004798Y-130068798D01*
X109956946Y-130100772D01*
X109900500Y-130112000D01*
X109555500Y-130112000D01*
X109499054Y-130100772D01*
X109451202Y-130068798D01*
X109419228Y-130020946D01*
X109408000Y-129964500D01*
X109408000Y-129669500D01*
X109419228Y-129613054D01*
X109451202Y-129565202D01*
X109499054Y-129533228D01*
X109555500Y-129522000D01*
X109900500Y-129522000D01*
X109956946Y-129533228D01*
X109956946Y-129533228D01*
G37*
D14*
X109728000Y-129817000D03*
D11*
G36*
X109956946Y-130503228D02*
G01*
X110004798Y-130535202D01*
X110036772Y-130583054D01*
X110048000Y-130639500D01*
X110048000Y-130934500D01*
X110036772Y-130990946D01*
X110004798Y-131038798D01*
X109956946Y-131070772D01*
X109900500Y-131082000D01*
X109555500Y-131082000D01*
X109499054Y-131070772D01*
X109451202Y-131038798D01*
X109419228Y-130990946D01*
X109408000Y-130934500D01*
X109408000Y-130639500D01*
X109419228Y-130583054D01*
X109451202Y-130535202D01*
X109499054Y-130503228D01*
X109555500Y-130492000D01*
X109900500Y-130492000D01*
X109956946Y-130503228D01*
X109956946Y-130503228D01*
G37*
D14*
X109728000Y-130787000D03*
G04 #@! TD*
D11*
G04 #@! TO.C,R2*
G36*
X109956946Y-136160228D02*
G01*
X110004798Y-136192202D01*
X110036772Y-136240054D01*
X110048000Y-136296500D01*
X110048000Y-136591500D01*
X110036772Y-136647946D01*
X110004798Y-136695798D01*
X109956946Y-136727772D01*
X109900500Y-136739000D01*
X109555500Y-136739000D01*
X109499054Y-136727772D01*
X109451202Y-136695798D01*
X109419228Y-136647946D01*
X109408000Y-136591500D01*
X109408000Y-136296500D01*
X109419228Y-136240054D01*
X109451202Y-136192202D01*
X109499054Y-136160228D01*
X109555500Y-136149000D01*
X109900500Y-136149000D01*
X109956946Y-136160228D01*
X109956946Y-136160228D01*
G37*
D14*
X109728000Y-136444000D03*
D11*
G36*
X109956946Y-137130228D02*
G01*
X110004798Y-137162202D01*
X110036772Y-137210054D01*
X110048000Y-137266500D01*
X110048000Y-137561500D01*
X110036772Y-137617946D01*
X110004798Y-137665798D01*
X109956946Y-137697772D01*
X109900500Y-137709000D01*
X109555500Y-137709000D01*
X109499054Y-137697772D01*
X109451202Y-137665798D01*
X109419228Y-137617946D01*
X109408000Y-137561500D01*
X109408000Y-137266500D01*
X109419228Y-137210054D01*
X109451202Y-137162202D01*
X109499054Y-137130228D01*
X109555500Y-137119000D01*
X109900500Y-137119000D01*
X109956946Y-137130228D01*
X109956946Y-137130228D01*
G37*
D14*
X109728000Y-137414000D03*
G04 #@! TD*
D11*
G04 #@! TO.C,R1*
G36*
X105818946Y-138911228D02*
G01*
X105866798Y-138943202D01*
X105898772Y-138991054D01*
X105910000Y-139047500D01*
X105910000Y-139392500D01*
X105898772Y-139448946D01*
X105866798Y-139496798D01*
X105818946Y-139528772D01*
X105762500Y-139540000D01*
X105467500Y-139540000D01*
X105411054Y-139528772D01*
X105363202Y-139496798D01*
X105331228Y-139448946D01*
X105320000Y-139392500D01*
X105320000Y-139047500D01*
X105331228Y-138991054D01*
X105363202Y-138943202D01*
X105411054Y-138911228D01*
X105467500Y-138900000D01*
X105762500Y-138900000D01*
X105818946Y-138911228D01*
X105818946Y-138911228D01*
G37*
D14*
X105615000Y-139220000D03*
D11*
G36*
X104848946Y-138911228D02*
G01*
X104896798Y-138943202D01*
X104928772Y-138991054D01*
X104940000Y-139047500D01*
X104940000Y-139392500D01*
X104928772Y-139448946D01*
X104896798Y-139496798D01*
X104848946Y-139528772D01*
X104792500Y-139540000D01*
X104497500Y-139540000D01*
X104441054Y-139528772D01*
X104393202Y-139496798D01*
X104361228Y-139448946D01*
X104350000Y-139392500D01*
X104350000Y-139047500D01*
X104361228Y-138991054D01*
X104393202Y-138943202D01*
X104441054Y-138911228D01*
X104497500Y-138900000D01*
X104792500Y-138900000D01*
X104848946Y-138911228D01*
X104848946Y-138911228D01*
G37*
D14*
X104645000Y-139220000D03*
G04 #@! TD*
D10*
G04 #@! TO.C,Q8*
X133650000Y-82370000D03*
X134600000Y-80370000D03*
X132700000Y-80370000D03*
G04 #@! TD*
D29*
G04 #@! TO.C,Q7*
X107348000Y-111732000D03*
X106048000Y-111732000D03*
X106698000Y-113632000D03*
X106698000Y-111732000D03*
X106048000Y-113632000D03*
X107348000Y-113632000D03*
G04 #@! TD*
G04 #@! TO.C,Q6*
X110396000Y-111732000D03*
X109096000Y-111732000D03*
X109746000Y-113632000D03*
X109746000Y-111732000D03*
X109096000Y-113632000D03*
X110396000Y-113632000D03*
G04 #@! TD*
D30*
G04 #@! TO.C,Q5*
X123390000Y-104940000D03*
X125390000Y-105890000D03*
X125390000Y-103990000D03*
G04 #@! TD*
D10*
G04 #@! TO.C,Q4*
X127480000Y-76820000D03*
X128430000Y-74820000D03*
X126530000Y-74820000D03*
G04 #@! TD*
G04 #@! TO.C,Q3*
X134780000Y-115140000D03*
X135730000Y-113140000D03*
X133830000Y-113140000D03*
G04 #@! TD*
G04 #@! TO.C,Q1*
X112268000Y-132826000D03*
X113218000Y-130826000D03*
X111318000Y-130826000D03*
G04 #@! TD*
D11*
G04 #@! TO.C,L1*
G36*
X122120671Y-113074030D02*
G01*
X122201777Y-113128223D01*
X122255970Y-113209329D01*
X122275000Y-113305000D01*
X122275000Y-114055000D01*
X122255970Y-114150671D01*
X122201777Y-114231777D01*
X122120671Y-114285970D01*
X122025000Y-114305000D01*
X119875000Y-114305000D01*
X119779329Y-114285970D01*
X119698223Y-114231777D01*
X119644030Y-114150671D01*
X119625000Y-114055000D01*
X119625000Y-113305000D01*
X119644030Y-113209329D01*
X119698223Y-113128223D01*
X119779329Y-113074030D01*
X119875000Y-113055000D01*
X122025000Y-113055000D01*
X122120671Y-113074030D01*
X122120671Y-113074030D01*
G37*
D31*
X120950000Y-113680000D03*
D11*
G36*
X122120671Y-115874030D02*
G01*
X122201777Y-115928223D01*
X122255970Y-116009329D01*
X122275000Y-116105000D01*
X122275000Y-116855000D01*
X122255970Y-116950671D01*
X122201777Y-117031777D01*
X122120671Y-117085970D01*
X122025000Y-117105000D01*
X119875000Y-117105000D01*
X119779329Y-117085970D01*
X119698223Y-117031777D01*
X119644030Y-116950671D01*
X119625000Y-116855000D01*
X119625000Y-116105000D01*
X119644030Y-116009329D01*
X119698223Y-115928223D01*
X119779329Y-115874030D01*
X119875000Y-115855000D01*
X122025000Y-115855000D01*
X122120671Y-115874030D01*
X122120671Y-115874030D01*
G37*
D31*
X120950000Y-116480000D03*
G04 #@! TD*
D32*
G04 #@! TO.C,J1*
X102960000Y-126100000D03*
X102960000Y-129100000D03*
D33*
X104110000Y-123525000D03*
X104110000Y-131675000D03*
D34*
X106810000Y-124350000D03*
X106810000Y-130850000D03*
D35*
X106980000Y-126300000D03*
X106980000Y-126950000D03*
X106980000Y-127600000D03*
X106980000Y-128250000D03*
X106980000Y-128900000D03*
G04 #@! TD*
D36*
G04 #@! TO.C,D4*
X111376000Y-128778000D03*
X114176000Y-128778000D03*
G04 #@! TD*
D23*
G04 #@! TO.C,D3*
X125760000Y-114900000D03*
X129060000Y-114900000D03*
G04 #@! TD*
D37*
G04 #@! TO.C,D1*
X131280000Y-115330000D03*
X131280000Y-112030000D03*
G04 #@! TD*
D11*
G04 #@! TO.C,C22*
G36*
X127913946Y-78901228D02*
G01*
X127961798Y-78933202D01*
X127993772Y-78981054D01*
X128005000Y-79037500D01*
X128005000Y-79382500D01*
X127993772Y-79438946D01*
X127961798Y-79486798D01*
X127913946Y-79518772D01*
X127857500Y-79530000D01*
X127562500Y-79530000D01*
X127506054Y-79518772D01*
X127458202Y-79486798D01*
X127426228Y-79438946D01*
X127415000Y-79382500D01*
X127415000Y-79037500D01*
X127426228Y-78981054D01*
X127458202Y-78933202D01*
X127506054Y-78901228D01*
X127562500Y-78890000D01*
X127857500Y-78890000D01*
X127913946Y-78901228D01*
X127913946Y-78901228D01*
G37*
D14*
X127710000Y-79210000D03*
D11*
G36*
X128883946Y-78901228D02*
G01*
X128931798Y-78933202D01*
X128963772Y-78981054D01*
X128975000Y-79037500D01*
X128975000Y-79382500D01*
X128963772Y-79438946D01*
X128931798Y-79486798D01*
X128883946Y-79518772D01*
X128827500Y-79530000D01*
X128532500Y-79530000D01*
X128476054Y-79518772D01*
X128428202Y-79486798D01*
X128396228Y-79438946D01*
X128385000Y-79382500D01*
X128385000Y-79037500D01*
X128396228Y-78981054D01*
X128428202Y-78933202D01*
X128476054Y-78901228D01*
X128532500Y-78890000D01*
X128827500Y-78890000D01*
X128883946Y-78901228D01*
X128883946Y-78901228D01*
G37*
D14*
X128680000Y-79210000D03*
G04 #@! TD*
D11*
G04 #@! TO.C,C21*
G36*
X132478946Y-74181228D02*
G01*
X132526798Y-74213202D01*
X132558772Y-74261054D01*
X132570000Y-74317500D01*
X132570000Y-74662500D01*
X132558772Y-74718946D01*
X132526798Y-74766798D01*
X132478946Y-74798772D01*
X132422500Y-74810000D01*
X132127500Y-74810000D01*
X132071054Y-74798772D01*
X132023202Y-74766798D01*
X131991228Y-74718946D01*
X131980000Y-74662500D01*
X131980000Y-74317500D01*
X131991228Y-74261054D01*
X132023202Y-74213202D01*
X132071054Y-74181228D01*
X132127500Y-74170000D01*
X132422500Y-74170000D01*
X132478946Y-74181228D01*
X132478946Y-74181228D01*
G37*
D14*
X132275000Y-74490000D03*
D11*
G36*
X131508946Y-74181228D02*
G01*
X131556798Y-74213202D01*
X131588772Y-74261054D01*
X131600000Y-74317500D01*
X131600000Y-74662500D01*
X131588772Y-74718946D01*
X131556798Y-74766798D01*
X131508946Y-74798772D01*
X131452500Y-74810000D01*
X131157500Y-74810000D01*
X131101054Y-74798772D01*
X131053202Y-74766798D01*
X131021228Y-74718946D01*
X131010000Y-74662500D01*
X131010000Y-74317500D01*
X131021228Y-74261054D01*
X131053202Y-74213202D01*
X131101054Y-74181228D01*
X131157500Y-74170000D01*
X131452500Y-74170000D01*
X131508946Y-74181228D01*
X131508946Y-74181228D01*
G37*
D14*
X131305000Y-74490000D03*
G04 #@! TD*
D11*
G04 #@! TO.C,C20*
G36*
X124198946Y-71716228D02*
G01*
X124246798Y-71748202D01*
X124278772Y-71796054D01*
X124290000Y-71852500D01*
X124290000Y-72147500D01*
X124278772Y-72203946D01*
X124246798Y-72251798D01*
X124198946Y-72283772D01*
X124142500Y-72295000D01*
X123797500Y-72295000D01*
X123741054Y-72283772D01*
X123693202Y-72251798D01*
X123661228Y-72203946D01*
X123650000Y-72147500D01*
X123650000Y-71852500D01*
X123661228Y-71796054D01*
X123693202Y-71748202D01*
X123741054Y-71716228D01*
X123797500Y-71705000D01*
X124142500Y-71705000D01*
X124198946Y-71716228D01*
X124198946Y-71716228D01*
G37*
D14*
X123970000Y-72000000D03*
D11*
G36*
X124198946Y-70746228D02*
G01*
X124246798Y-70778202D01*
X124278772Y-70826054D01*
X124290000Y-70882500D01*
X124290000Y-71177500D01*
X124278772Y-71233946D01*
X124246798Y-71281798D01*
X124198946Y-71313772D01*
X124142500Y-71325000D01*
X123797500Y-71325000D01*
X123741054Y-71313772D01*
X123693202Y-71281798D01*
X123661228Y-71233946D01*
X123650000Y-71177500D01*
X123650000Y-70882500D01*
X123661228Y-70826054D01*
X123693202Y-70778202D01*
X123741054Y-70746228D01*
X123797500Y-70735000D01*
X124142500Y-70735000D01*
X124198946Y-70746228D01*
X124198946Y-70746228D01*
G37*
D14*
X123970000Y-71030000D03*
G04 #@! TD*
D11*
G04 #@! TO.C,C19*
G36*
X125548946Y-71716228D02*
G01*
X125596798Y-71748202D01*
X125628772Y-71796054D01*
X125640000Y-71852500D01*
X125640000Y-72147500D01*
X125628772Y-72203946D01*
X125596798Y-72251798D01*
X125548946Y-72283772D01*
X125492500Y-72295000D01*
X125147500Y-72295000D01*
X125091054Y-72283772D01*
X125043202Y-72251798D01*
X125011228Y-72203946D01*
X125000000Y-72147500D01*
X125000000Y-71852500D01*
X125011228Y-71796054D01*
X125043202Y-71748202D01*
X125091054Y-71716228D01*
X125147500Y-71705000D01*
X125492500Y-71705000D01*
X125548946Y-71716228D01*
X125548946Y-71716228D01*
G37*
D14*
X125320000Y-72000000D03*
D11*
G36*
X125548946Y-70746228D02*
G01*
X125596798Y-70778202D01*
X125628772Y-70826054D01*
X125640000Y-70882500D01*
X125640000Y-71177500D01*
X125628772Y-71233946D01*
X125596798Y-71281798D01*
X125548946Y-71313772D01*
X125492500Y-71325000D01*
X125147500Y-71325000D01*
X125091054Y-71313772D01*
X125043202Y-71281798D01*
X125011228Y-71233946D01*
X125000000Y-71177500D01*
X125000000Y-70882500D01*
X125011228Y-70826054D01*
X125043202Y-70778202D01*
X125091054Y-70746228D01*
X125147500Y-70735000D01*
X125492500Y-70735000D01*
X125548946Y-70746228D01*
X125548946Y-70746228D01*
G37*
D14*
X125320000Y-71030000D03*
G04 #@! TD*
D11*
G04 #@! TO.C,C18*
G36*
X121943946Y-101641228D02*
G01*
X121991798Y-101673202D01*
X122023772Y-101721054D01*
X122035000Y-101777500D01*
X122035000Y-102122500D01*
X122023772Y-102178946D01*
X121991798Y-102226798D01*
X121943946Y-102258772D01*
X121887500Y-102270000D01*
X121592500Y-102270000D01*
X121536054Y-102258772D01*
X121488202Y-102226798D01*
X121456228Y-102178946D01*
X121445000Y-102122500D01*
X121445000Y-101777500D01*
X121456228Y-101721054D01*
X121488202Y-101673202D01*
X121536054Y-101641228D01*
X121592500Y-101630000D01*
X121887500Y-101630000D01*
X121943946Y-101641228D01*
X121943946Y-101641228D01*
G37*
D14*
X121740000Y-101950000D03*
D11*
G36*
X122913946Y-101641228D02*
G01*
X122961798Y-101673202D01*
X122993772Y-101721054D01*
X123005000Y-101777500D01*
X123005000Y-102122500D01*
X122993772Y-102178946D01*
X122961798Y-102226798D01*
X122913946Y-102258772D01*
X122857500Y-102270000D01*
X122562500Y-102270000D01*
X122506054Y-102258772D01*
X122458202Y-102226798D01*
X122426228Y-102178946D01*
X122415000Y-102122500D01*
X122415000Y-101777500D01*
X122426228Y-101721054D01*
X122458202Y-101673202D01*
X122506054Y-101641228D01*
X122562500Y-101630000D01*
X122857500Y-101630000D01*
X122913946Y-101641228D01*
X122913946Y-101641228D01*
G37*
D14*
X122710000Y-101950000D03*
G04 #@! TD*
D11*
G04 #@! TO.C,C17*
G36*
X104178946Y-119221228D02*
G01*
X104226798Y-119253202D01*
X104258772Y-119301054D01*
X104270000Y-119357500D01*
X104270000Y-119702500D01*
X104258772Y-119758946D01*
X104226798Y-119806798D01*
X104178946Y-119838772D01*
X104122500Y-119850000D01*
X103827500Y-119850000D01*
X103771054Y-119838772D01*
X103723202Y-119806798D01*
X103691228Y-119758946D01*
X103680000Y-119702500D01*
X103680000Y-119357500D01*
X103691228Y-119301054D01*
X103723202Y-119253202D01*
X103771054Y-119221228D01*
X103827500Y-119210000D01*
X104122500Y-119210000D01*
X104178946Y-119221228D01*
X104178946Y-119221228D01*
G37*
D14*
X103975000Y-119530000D03*
D11*
G36*
X105148946Y-119221228D02*
G01*
X105196798Y-119253202D01*
X105228772Y-119301054D01*
X105240000Y-119357500D01*
X105240000Y-119702500D01*
X105228772Y-119758946D01*
X105196798Y-119806798D01*
X105148946Y-119838772D01*
X105092500Y-119850000D01*
X104797500Y-119850000D01*
X104741054Y-119838772D01*
X104693202Y-119806798D01*
X104661228Y-119758946D01*
X104650000Y-119702500D01*
X104650000Y-119357500D01*
X104661228Y-119301054D01*
X104693202Y-119253202D01*
X104741054Y-119221228D01*
X104797500Y-119210000D01*
X105092500Y-119210000D01*
X105148946Y-119221228D01*
X105148946Y-119221228D01*
G37*
D14*
X104945000Y-119530000D03*
G04 #@! TD*
D11*
G04 #@! TO.C,C8*
G36*
X138411946Y-137473228D02*
G01*
X138459798Y-137505202D01*
X138491772Y-137553054D01*
X138503000Y-137609500D01*
X138503000Y-137954500D01*
X138491772Y-138010946D01*
X138459798Y-138058798D01*
X138411946Y-138090772D01*
X138355500Y-138102000D01*
X138060500Y-138102000D01*
X138004054Y-138090772D01*
X137956202Y-138058798D01*
X137924228Y-138010946D01*
X137913000Y-137954500D01*
X137913000Y-137609500D01*
X137924228Y-137553054D01*
X137956202Y-137505202D01*
X138004054Y-137473228D01*
X138060500Y-137462000D01*
X138355500Y-137462000D01*
X138411946Y-137473228D01*
X138411946Y-137473228D01*
G37*
D14*
X138208000Y-137782000D03*
D11*
G36*
X139381946Y-137473228D02*
G01*
X139429798Y-137505202D01*
X139461772Y-137553054D01*
X139473000Y-137609500D01*
X139473000Y-137954500D01*
X139461772Y-138010946D01*
X139429798Y-138058798D01*
X139381946Y-138090772D01*
X139325500Y-138102000D01*
X139030500Y-138102000D01*
X138974054Y-138090772D01*
X138926202Y-138058798D01*
X138894228Y-138010946D01*
X138883000Y-137954500D01*
X138883000Y-137609500D01*
X138894228Y-137553054D01*
X138926202Y-137505202D01*
X138974054Y-137473228D01*
X139030500Y-137462000D01*
X139325500Y-137462000D01*
X139381946Y-137473228D01*
X139381946Y-137473228D01*
G37*
D14*
X139178000Y-137782000D03*
G04 #@! TD*
D11*
G04 #@! TO.C,C6*
G36*
X115036946Y-135906228D02*
G01*
X115084798Y-135938202D01*
X115116772Y-135986054D01*
X115128000Y-136042500D01*
X115128000Y-136337500D01*
X115116772Y-136393946D01*
X115084798Y-136441798D01*
X115036946Y-136473772D01*
X114980500Y-136485000D01*
X114635500Y-136485000D01*
X114579054Y-136473772D01*
X114531202Y-136441798D01*
X114499228Y-136393946D01*
X114488000Y-136337500D01*
X114488000Y-136042500D01*
X114499228Y-135986054D01*
X114531202Y-135938202D01*
X114579054Y-135906228D01*
X114635500Y-135895000D01*
X114980500Y-135895000D01*
X115036946Y-135906228D01*
X115036946Y-135906228D01*
G37*
D14*
X114808000Y-136190000D03*
D11*
G36*
X115036946Y-136876228D02*
G01*
X115084798Y-136908202D01*
X115116772Y-136956054D01*
X115128000Y-137012500D01*
X115128000Y-137307500D01*
X115116772Y-137363946D01*
X115084798Y-137411798D01*
X115036946Y-137443772D01*
X114980500Y-137455000D01*
X114635500Y-137455000D01*
X114579054Y-137443772D01*
X114531202Y-137411798D01*
X114499228Y-137363946D01*
X114488000Y-137307500D01*
X114488000Y-137012500D01*
X114499228Y-136956054D01*
X114531202Y-136908202D01*
X114579054Y-136876228D01*
X114635500Y-136865000D01*
X114980500Y-136865000D01*
X115036946Y-136876228D01*
X115036946Y-136876228D01*
G37*
D14*
X114808000Y-137160000D03*
G04 #@! TD*
D11*
G04 #@! TO.C,C5*
G36*
X108178946Y-136414228D02*
G01*
X108226798Y-136446202D01*
X108258772Y-136494054D01*
X108270000Y-136550500D01*
X108270000Y-136845500D01*
X108258772Y-136901946D01*
X108226798Y-136949798D01*
X108178946Y-136981772D01*
X108122500Y-136993000D01*
X107777500Y-136993000D01*
X107721054Y-136981772D01*
X107673202Y-136949798D01*
X107641228Y-136901946D01*
X107630000Y-136845500D01*
X107630000Y-136550500D01*
X107641228Y-136494054D01*
X107673202Y-136446202D01*
X107721054Y-136414228D01*
X107777500Y-136403000D01*
X108122500Y-136403000D01*
X108178946Y-136414228D01*
X108178946Y-136414228D01*
G37*
D14*
X107950000Y-136698000D03*
D11*
G36*
X108178946Y-137384228D02*
G01*
X108226798Y-137416202D01*
X108258772Y-137464054D01*
X108270000Y-137520500D01*
X108270000Y-137815500D01*
X108258772Y-137871946D01*
X108226798Y-137919798D01*
X108178946Y-137951772D01*
X108122500Y-137963000D01*
X107777500Y-137963000D01*
X107721054Y-137951772D01*
X107673202Y-137919798D01*
X107641228Y-137871946D01*
X107630000Y-137815500D01*
X107630000Y-137520500D01*
X107641228Y-137464054D01*
X107673202Y-137416202D01*
X107721054Y-137384228D01*
X107777500Y-137373000D01*
X108122500Y-137373000D01*
X108178946Y-137384228D01*
X108178946Y-137384228D01*
G37*
D14*
X107950000Y-137668000D03*
G04 #@! TD*
D11*
G04 #@! TO.C,C4*
G36*
X105405946Y-133803228D02*
G01*
X105453798Y-133835202D01*
X105485772Y-133883054D01*
X105497000Y-133939500D01*
X105497000Y-134284500D01*
X105485772Y-134340946D01*
X105453798Y-134388798D01*
X105405946Y-134420772D01*
X105349500Y-134432000D01*
X105054500Y-134432000D01*
X104998054Y-134420772D01*
X104950202Y-134388798D01*
X104918228Y-134340946D01*
X104907000Y-134284500D01*
X104907000Y-133939500D01*
X104918228Y-133883054D01*
X104950202Y-133835202D01*
X104998054Y-133803228D01*
X105054500Y-133792000D01*
X105349500Y-133792000D01*
X105405946Y-133803228D01*
X105405946Y-133803228D01*
G37*
D14*
X105202000Y-134112000D03*
D11*
G36*
X106375946Y-133803228D02*
G01*
X106423798Y-133835202D01*
X106455772Y-133883054D01*
X106467000Y-133939500D01*
X106467000Y-134284500D01*
X106455772Y-134340946D01*
X106423798Y-134388798D01*
X106375946Y-134420772D01*
X106319500Y-134432000D01*
X106024500Y-134432000D01*
X105968054Y-134420772D01*
X105920202Y-134388798D01*
X105888228Y-134340946D01*
X105877000Y-134284500D01*
X105877000Y-133939500D01*
X105888228Y-133883054D01*
X105920202Y-133835202D01*
X105968054Y-133803228D01*
X106024500Y-133792000D01*
X106319500Y-133792000D01*
X106375946Y-133803228D01*
X106375946Y-133803228D01*
G37*
D14*
X106172000Y-134112000D03*
G04 #@! TD*
D38*
G04 #@! TO.C,BZ1*
X134042000Y-85850000D03*
X134042000Y-97840000D03*
G04 #@! TD*
D11*
G04 #@! TO.C,BATT1*
G36*
X135915671Y-130233030D02*
G01*
X135996777Y-130287223D01*
X136050970Y-130368329D01*
X136070000Y-130464000D01*
X136070000Y-132964000D01*
X136050970Y-133059671D01*
X135996777Y-133140777D01*
X135915671Y-133194970D01*
X135820000Y-133214000D01*
X134720000Y-133214000D01*
X134624329Y-133194970D01*
X134543223Y-133140777D01*
X134489030Y-133059671D01*
X134470000Y-132964000D01*
X134470000Y-130464000D01*
X134489030Y-130368329D01*
X134543223Y-130287223D01*
X134624329Y-130233030D01*
X134720000Y-130214000D01*
X135820000Y-130214000D01*
X135915671Y-130233030D01*
X135915671Y-130233030D01*
G37*
D39*
X135270000Y-131714000D03*
D11*
G36*
X142715671Y-130233030D02*
G01*
X142796777Y-130287223D01*
X142850970Y-130368329D01*
X142870000Y-130464000D01*
X142870000Y-132964000D01*
X142850970Y-133059671D01*
X142796777Y-133140777D01*
X142715671Y-133194970D01*
X142620000Y-133214000D01*
X141520000Y-133214000D01*
X141424329Y-133194970D01*
X141343223Y-133140777D01*
X141289030Y-133059671D01*
X141270000Y-132964000D01*
X141270000Y-130464000D01*
X141289030Y-130368329D01*
X141343223Y-130287223D01*
X141424329Y-130233030D01*
X141520000Y-130214000D01*
X142620000Y-130214000D01*
X142715671Y-130233030D01*
X142715671Y-130233030D01*
G37*
D39*
X142070000Y-131714000D03*
D11*
G36*
X138015671Y-131233030D02*
G01*
X138096777Y-131287223D01*
X138150970Y-131368329D01*
X138170000Y-131464000D01*
X138170000Y-136464000D01*
X138150970Y-136559671D01*
X138096777Y-136640777D01*
X138015671Y-136694970D01*
X137920000Y-136714000D01*
X137420000Y-136714000D01*
X137324329Y-136694970D01*
X137243223Y-136640777D01*
X137189030Y-136559671D01*
X137170000Y-136464000D01*
X137170000Y-131464000D01*
X137189030Y-131368329D01*
X137243223Y-131287223D01*
X137324329Y-131233030D01*
X137420000Y-131214000D01*
X137920000Y-131214000D01*
X138015671Y-131233030D01*
X138015671Y-131233030D01*
G37*
D40*
X137670000Y-133964000D03*
D11*
G36*
X140015671Y-131233030D02*
G01*
X140096777Y-131287223D01*
X140150970Y-131368329D01*
X140170000Y-131464000D01*
X140170000Y-136464000D01*
X140150970Y-136559671D01*
X140096777Y-136640777D01*
X140015671Y-136694970D01*
X139920000Y-136714000D01*
X139420000Y-136714000D01*
X139324329Y-136694970D01*
X139243223Y-136640777D01*
X139189030Y-136559671D01*
X139170000Y-136464000D01*
X139170000Y-131464000D01*
X139189030Y-131368329D01*
X139243223Y-131287223D01*
X139324329Y-131233030D01*
X139420000Y-131214000D01*
X139920000Y-131214000D01*
X140015671Y-131233030D01*
X140015671Y-131233030D01*
G37*
D40*
X139670000Y-133964000D03*
G04 #@! TD*
D11*
G04 #@! TO.C,J2*
G36*
X192417403Y-150921417D02*
G01*
X192466066Y-150953933D01*
X192498582Y-151002596D01*
X192510000Y-151059999D01*
X192510000Y-151060001D01*
X192498582Y-151117404D01*
X192466066Y-151166067D01*
X192417403Y-151198583D01*
X192360000Y-151210001D01*
X187660000Y-151210001D01*
X187602597Y-151198583D01*
X187553934Y-151166067D01*
X187521418Y-151117404D01*
X187510000Y-151060001D01*
X187510000Y-151059999D01*
X187521418Y-151002596D01*
X187553934Y-150953933D01*
X187602597Y-150921417D01*
X187660000Y-150909999D01*
X192360000Y-150909999D01*
X192417403Y-150921417D01*
X192417403Y-150921417D01*
G37*
D41*
X190010000Y-151060000D03*
D11*
G36*
X192417403Y-151421417D02*
G01*
X192466066Y-151453933D01*
X192498582Y-151502596D01*
X192510000Y-151559999D01*
X192510000Y-151560001D01*
X192498582Y-151617404D01*
X192466066Y-151666067D01*
X192417403Y-151698583D01*
X192360000Y-151710001D01*
X187660000Y-151710001D01*
X187602597Y-151698583D01*
X187553934Y-151666067D01*
X187521418Y-151617404D01*
X187510000Y-151560001D01*
X187510000Y-151559999D01*
X187521418Y-151502596D01*
X187553934Y-151453933D01*
X187602597Y-151421417D01*
X187660000Y-151409999D01*
X192360000Y-151409999D01*
X192417403Y-151421417D01*
X192417403Y-151421417D01*
G37*
D41*
X190010000Y-151560000D03*
D11*
G36*
X192417403Y-151921417D02*
G01*
X192466066Y-151953933D01*
X192498582Y-152002596D01*
X192510000Y-152059999D01*
X192510000Y-152060001D01*
X192498582Y-152117404D01*
X192466066Y-152166067D01*
X192417403Y-152198583D01*
X192360000Y-152210001D01*
X187660000Y-152210001D01*
X187602597Y-152198583D01*
X187553934Y-152166067D01*
X187521418Y-152117404D01*
X187510000Y-152060001D01*
X187510000Y-152059999D01*
X187521418Y-152002596D01*
X187553934Y-151953933D01*
X187602597Y-151921417D01*
X187660000Y-151909999D01*
X192360000Y-151909999D01*
X192417403Y-151921417D01*
X192417403Y-151921417D01*
G37*
D41*
X190010000Y-152060000D03*
D11*
G36*
X192417403Y-152421417D02*
G01*
X192466066Y-152453933D01*
X192498582Y-152502596D01*
X192510000Y-152559999D01*
X192510000Y-152560001D01*
X192498582Y-152617404D01*
X192466066Y-152666067D01*
X192417403Y-152698583D01*
X192360000Y-152710001D01*
X187660000Y-152710001D01*
X187602597Y-152698583D01*
X187553934Y-152666067D01*
X187521418Y-152617404D01*
X187510000Y-152560001D01*
X187510000Y-152559999D01*
X187521418Y-152502596D01*
X187553934Y-152453933D01*
X187602597Y-152421417D01*
X187660000Y-152409999D01*
X192360000Y-152409999D01*
X192417403Y-152421417D01*
X192417403Y-152421417D01*
G37*
D41*
X190010000Y-152560000D03*
D11*
G36*
X192417403Y-152921417D02*
G01*
X192466066Y-152953933D01*
X192498582Y-153002596D01*
X192510000Y-153059999D01*
X192510000Y-153060001D01*
X192498582Y-153117404D01*
X192466066Y-153166067D01*
X192417403Y-153198583D01*
X192360000Y-153210001D01*
X187660000Y-153210001D01*
X187602597Y-153198583D01*
X187553934Y-153166067D01*
X187521418Y-153117404D01*
X187510000Y-153060001D01*
X187510000Y-153059999D01*
X187521418Y-153002596D01*
X187553934Y-152953933D01*
X187602597Y-152921417D01*
X187660000Y-152909999D01*
X192360000Y-152909999D01*
X192417403Y-152921417D01*
X192417403Y-152921417D01*
G37*
D41*
X190010000Y-153060000D03*
D11*
G36*
X192417403Y-153421417D02*
G01*
X192466066Y-153453933D01*
X192498582Y-153502596D01*
X192510000Y-153559999D01*
X192510000Y-153560001D01*
X192498582Y-153617404D01*
X192466066Y-153666067D01*
X192417403Y-153698583D01*
X192360000Y-153710001D01*
X187660000Y-153710001D01*
X187602597Y-153698583D01*
X187553934Y-153666067D01*
X187521418Y-153617404D01*
X187510000Y-153560001D01*
X187510000Y-153559999D01*
X187521418Y-153502596D01*
X187553934Y-153453933D01*
X187602597Y-153421417D01*
X187660000Y-153409999D01*
X192360000Y-153409999D01*
X192417403Y-153421417D01*
X192417403Y-153421417D01*
G37*
D41*
X190010000Y-153560000D03*
D11*
G36*
X192417403Y-153921417D02*
G01*
X192466066Y-153953933D01*
X192498582Y-154002596D01*
X192510000Y-154059999D01*
X192510000Y-154060001D01*
X192498582Y-154117404D01*
X192466066Y-154166067D01*
X192417403Y-154198583D01*
X192360000Y-154210001D01*
X187660000Y-154210001D01*
X187602597Y-154198583D01*
X187553934Y-154166067D01*
X187521418Y-154117404D01*
X187510000Y-154060001D01*
X187510000Y-154059999D01*
X187521418Y-154002596D01*
X187553934Y-153953933D01*
X187602597Y-153921417D01*
X187660000Y-153909999D01*
X192360000Y-153909999D01*
X192417403Y-153921417D01*
X192417403Y-153921417D01*
G37*
D41*
X190010000Y-154060000D03*
D11*
G36*
X192417403Y-154421417D02*
G01*
X192466066Y-154453933D01*
X192498582Y-154502596D01*
X192510000Y-154559999D01*
X192510000Y-154560001D01*
X192498582Y-154617404D01*
X192466066Y-154666067D01*
X192417403Y-154698583D01*
X192360000Y-154710001D01*
X187660000Y-154710001D01*
X187602597Y-154698583D01*
X187553934Y-154666067D01*
X187521418Y-154617404D01*
X187510000Y-154560001D01*
X187510000Y-154559999D01*
X187521418Y-154502596D01*
X187553934Y-154453933D01*
X187602597Y-154421417D01*
X187660000Y-154409999D01*
X192360000Y-154409999D01*
X192417403Y-154421417D01*
X192417403Y-154421417D01*
G37*
D41*
X190010000Y-154560000D03*
D11*
G36*
X192417403Y-154921417D02*
G01*
X192466066Y-154953933D01*
X192498582Y-155002596D01*
X192510000Y-155059999D01*
X192510000Y-155060001D01*
X192498582Y-155117404D01*
X192466066Y-155166067D01*
X192417403Y-155198583D01*
X192360000Y-155210001D01*
X187660000Y-155210001D01*
X187602597Y-155198583D01*
X187553934Y-155166067D01*
X187521418Y-155117404D01*
X187510000Y-155060001D01*
X187510000Y-155059999D01*
X187521418Y-155002596D01*
X187553934Y-154953933D01*
X187602597Y-154921417D01*
X187660000Y-154909999D01*
X192360000Y-154909999D01*
X192417403Y-154921417D01*
X192417403Y-154921417D01*
G37*
D41*
X190010000Y-155060000D03*
D11*
G36*
X192417403Y-155421417D02*
G01*
X192466066Y-155453933D01*
X192498582Y-155502596D01*
X192510000Y-155559999D01*
X192510000Y-155560001D01*
X192498582Y-155617404D01*
X192466066Y-155666067D01*
X192417403Y-155698583D01*
X192360000Y-155710001D01*
X187660000Y-155710001D01*
X187602597Y-155698583D01*
X187553934Y-155666067D01*
X187521418Y-155617404D01*
X187510000Y-155560001D01*
X187510000Y-155559999D01*
X187521418Y-155502596D01*
X187553934Y-155453933D01*
X187602597Y-155421417D01*
X187660000Y-155409999D01*
X192360000Y-155409999D01*
X192417403Y-155421417D01*
X192417403Y-155421417D01*
G37*
D41*
X190010000Y-155560000D03*
D11*
G36*
X192417403Y-155921417D02*
G01*
X192466066Y-155953933D01*
X192498582Y-156002596D01*
X192510000Y-156059999D01*
X192510000Y-156060001D01*
X192498582Y-156117404D01*
X192466066Y-156166067D01*
X192417403Y-156198583D01*
X192360000Y-156210001D01*
X187660000Y-156210001D01*
X187602597Y-156198583D01*
X187553934Y-156166067D01*
X187521418Y-156117404D01*
X187510000Y-156060001D01*
X187510000Y-156059999D01*
X187521418Y-156002596D01*
X187553934Y-155953933D01*
X187602597Y-155921417D01*
X187660000Y-155909999D01*
X192360000Y-155909999D01*
X192417403Y-155921417D01*
X192417403Y-155921417D01*
G37*
D41*
X190010000Y-156060000D03*
D11*
G36*
X192417403Y-156421417D02*
G01*
X192466066Y-156453933D01*
X192498582Y-156502596D01*
X192510000Y-156559999D01*
X192510000Y-156560001D01*
X192498582Y-156617404D01*
X192466066Y-156666067D01*
X192417403Y-156698583D01*
X192360000Y-156710001D01*
X187660000Y-156710001D01*
X187602597Y-156698583D01*
X187553934Y-156666067D01*
X187521418Y-156617404D01*
X187510000Y-156560001D01*
X187510000Y-156559999D01*
X187521418Y-156502596D01*
X187553934Y-156453933D01*
X187602597Y-156421417D01*
X187660000Y-156409999D01*
X192360000Y-156409999D01*
X192417403Y-156421417D01*
X192417403Y-156421417D01*
G37*
D41*
X190010000Y-156560000D03*
D11*
G36*
X192417403Y-156921417D02*
G01*
X192466066Y-156953933D01*
X192498582Y-157002596D01*
X192510000Y-157059999D01*
X192510000Y-157060001D01*
X192498582Y-157117404D01*
X192466066Y-157166067D01*
X192417403Y-157198583D01*
X192360000Y-157210001D01*
X187660000Y-157210001D01*
X187602597Y-157198583D01*
X187553934Y-157166067D01*
X187521418Y-157117404D01*
X187510000Y-157060001D01*
X187510000Y-157059999D01*
X187521418Y-157002596D01*
X187553934Y-156953933D01*
X187602597Y-156921417D01*
X187660000Y-156909999D01*
X192360000Y-156909999D01*
X192417403Y-156921417D01*
X192417403Y-156921417D01*
G37*
D41*
X190010000Y-157060000D03*
D11*
G36*
X192417403Y-157421417D02*
G01*
X192466066Y-157453933D01*
X192498582Y-157502596D01*
X192510000Y-157559999D01*
X192510000Y-157560001D01*
X192498582Y-157617404D01*
X192466066Y-157666067D01*
X192417403Y-157698583D01*
X192360000Y-157710001D01*
X187660000Y-157710001D01*
X187602597Y-157698583D01*
X187553934Y-157666067D01*
X187521418Y-157617404D01*
X187510000Y-157560001D01*
X187510000Y-157559999D01*
X187521418Y-157502596D01*
X187553934Y-157453933D01*
X187602597Y-157421417D01*
X187660000Y-157409999D01*
X192360000Y-157409999D01*
X192417403Y-157421417D01*
X192417403Y-157421417D01*
G37*
D41*
X190010000Y-157560000D03*
G04 #@! TD*
D42*
G04 #@! TO.C,J4*
X177780000Y-136425000D03*
X177780000Y-131375000D03*
X175240000Y-136425000D03*
X175240000Y-131375000D03*
X172700000Y-136425000D03*
X172700000Y-131375000D03*
X170160000Y-136425000D03*
X170160000Y-131375000D03*
X167620000Y-136425000D03*
X167620000Y-131375000D03*
X165080000Y-136425000D03*
X165080000Y-131375000D03*
X162540000Y-136425000D03*
X162540000Y-131375000D03*
X160000000Y-136425000D03*
X160000000Y-131375000D03*
X157460000Y-136425000D03*
X157460000Y-131375000D03*
X154920000Y-136425000D03*
X154920000Y-131375000D03*
X152380000Y-136425000D03*
X152380000Y-131375000D03*
X149840000Y-136425000D03*
X149840000Y-131375000D03*
X147300000Y-136425000D03*
X147300000Y-131375000D03*
G04 #@! TD*
D43*
G04 #@! TO.C,DS1*
X132796000Y-124650000D03*
D44*
X119696000Y-122480000D03*
D43*
X118096000Y-124650000D03*
D44*
X120196000Y-122480000D03*
X120696000Y-122480000D03*
X121196000Y-122480000D03*
X121696000Y-122480000D03*
X122196000Y-122480000D03*
X122696000Y-122480000D03*
X123196000Y-122480000D03*
X123696000Y-122480000D03*
X124196000Y-122480000D03*
X124696000Y-122480000D03*
X125196000Y-122480000D03*
X125696000Y-122480000D03*
X126196000Y-122480000D03*
X126696000Y-122480000D03*
X127196000Y-122480000D03*
X127696000Y-122480000D03*
X128196000Y-122480000D03*
X128696000Y-122480000D03*
X129196000Y-122480000D03*
X129696000Y-122480000D03*
X130196000Y-122480000D03*
X130696000Y-122480000D03*
X131196000Y-122480000D03*
G04 #@! TD*
M02*
