M48
; DRILL file {KiCad 5.99.0-unknown-c3175b4~100~ubuntu16.04.1} date Wed Jan  1 10:40:00 2020
; FORMAT={-:-/ absolute / inch / decimal}
; #@! TF.CreationDate,2020-01-01T10:40:00+05:30
; #@! TF.GenerationSoftware,Kicad,Pcbnew,5.99.0-unknown-c3175b4~100~ubuntu16.04.1
; #@! TF.FileFunction,Plated,1,4,PTH
FMAT,2
INCH
T1C0.0079
T2C0.0118
%
G90
G05
T1
X4.0418Y-3.7189
X4.0528Y-5.2736
X4.0528Y-5.3091
X4.0528Y-5.3446
X4.0528Y-5.3801
X4.0528Y-5.4156
X4.0528Y-5.4511
X4.0528Y-5.4866
X4.0547Y-3.1913
X4.0555Y-3.1354
X4.0646Y-3.5331
X4.0772Y-4.4264
X4.0953Y-3.9795
X4.0961Y-3.9193
X4.1193Y-3.9803
X4.1197Y-3.9209
X4.1378Y-4.637
X4.1705Y-3.7406
X4.1728Y-3.5945
X4.189Y-2.8906
X4.1929Y-2.9894
X4.1929Y-3.2382
X4.1941Y-3.0354
X4.1953Y-2.9457
X4.2031Y-4.5043
X4.2173Y-3.5639
X4.2496Y-3.6026
X4.2606Y-4.4764
X4.2618Y-4.4087
X4.2681Y-4.7453
X4.2717Y-4.4441
X4.3043Y-5.072
X4.3102Y-5.4807
X4.3106Y-3.6026
X4.3142Y-4.0496
X4.3173Y-4.7449
X4.3189Y-5.3035
X4.3268Y-3.6992
X4.3272Y-3.8087
X4.3341Y-5.3276
X4.3341Y-5.4614
X4.3681Y-4.5118
X4.3799Y-4.5917
X4.3807Y-4.6413
X4.3858Y-4.8004
X4.3988Y-4.6102
X4.4004Y-3.7925
X4.4021Y-3.8142
X4.4024Y-3.7697
X4.4031Y-3.7449
X4.4031Y-3.8394
X4.4039Y-3.7008
X4.4188Y-5.1179
X4.4378Y-4.752
X4.4602Y-4.6118
X4.463Y-4.585
X4.5051Y-5.2949
X4.5134Y-5.4354
X4.5236Y-3.902
X4.5453Y-3.9236
X4.5457Y-3.9677
X4.5461Y-4.0528
X4.5803Y-4.135
X4.6118Y-3.578
X4.6402Y-3.561
X4.6535Y-3.6412
X4.6575Y-4.765
X4.6626Y-4.637
X4.7476Y-3.5413
X4.8469Y-4.2031
X4.8495Y-3.3956
X4.8539Y-4.7551
X4.8677Y-2.9874
X4.8679Y-3.6364
X4.8689Y-3.2827
X4.8705Y-2.9386
X4.8709Y-4.35
X4.8776Y-4.75
X4.8795Y-3.0626
X4.8799Y-3.4386
X4.8864Y-3.3893
X4.8913Y-3.7744
X4.8913Y-4.0445
X4.8969Y-3.2831
X4.9075Y-4.9988
X4.9087Y-4.9634
X4.9091Y-4.748
X4.9102Y-3.6407
X4.9154Y-4.3276
X4.9173Y-4.7709
X4.9488Y-4.885
X4.9709Y-4.8677
X5.035Y-4.115
X5.035Y-4.228
X5.0787Y-4.1744
X5.0807Y-4.1256
X5.0969Y-4.2169
X5.098Y-6.0079
X5.1059Y-4.1287
X5.3232Y-4.1559
X5.324Y-4.2035
X5.4268Y-4.1272
X5.4272Y-4.0776
X5.4276Y-4.0252
X5.5075Y-2.7858
X5.5075Y-2.8358
X5.5178Y-3.6772
X5.5319Y-3.6945
X5.5331Y-3.6587
X5.5516Y-4.1559
X5.5575Y-2.7858
X5.5575Y-2.8358
X5.5603Y-4.2295
X5.5697Y-4.2035
X5.6075Y-2.7858
X5.6075Y-2.8358
X5.6225Y-3.6476
X5.6229Y-3.718
X5.626Y-3.7429
X5.6264Y-3.6933
X5.6303Y-4.8012
X5.6315Y-4.9822
X5.6315Y-4.85
X5.6318Y-4.8951
X5.6318Y-5.0262
X5.6319Y-4.9378
X5.6372Y-4.7791
X5.6372Y-4.826
X5.6372Y-4.874
X5.6372Y-4.9165
X5.6372Y-4.9606
X5.6372Y-5.0031
X5.6372Y-5.0472
X5.6575Y-2.7858
X5.6575Y-2.8358
X5.7075Y-2.7858
X5.7075Y-2.8358
X5.7575Y-2.7858
X5.7575Y-2.8358
X5.8075Y-2.7858
X5.8075Y-2.8358
X5.8575Y-2.7858
X5.8575Y-2.8358
X5.9075Y-2.7858
X5.9075Y-2.8358
X5.9244Y-6.0535
X5.9252Y-6.1035
X5.9575Y-2.7858
X5.9575Y-2.8358
X6.0075Y-2.7858
X6.0075Y-2.8358
X6.0575Y-2.7858
X6.0575Y-2.8358
X6.1075Y-2.7858
X6.1075Y-2.8358
X6.1575Y-2.7858
X6.1575Y-2.8358
X6.2075Y-2.7858
X6.2075Y-2.8358
X6.2575Y-2.7858
X6.2575Y-2.8358
X6.3075Y-2.7858
X6.3075Y-2.8358
X6.3575Y-2.7858
X6.3575Y-2.8358
X6.4075Y-2.7858
X6.4075Y-2.8358
X6.4575Y-2.7858
X6.4575Y-2.8358
X6.5075Y-2.7858
X6.5075Y-2.8358
X6.5575Y-2.7858
X6.5575Y-2.8358
X6.5988Y-4.9965
X6.6075Y-2.7858
X6.6075Y-2.8358
X6.6575Y-2.7858
X6.6575Y-2.8358
X6.6988Y-5.0646
X6.7075Y-2.7858
X6.7075Y-2.8358
X6.7575Y-2.7858
X6.7575Y-2.8358
X6.7961Y-5.0642
X6.8075Y-2.7858
X6.8075Y-2.8358
X6.8575Y-2.7858
X6.8575Y-2.8358
X6.8988Y-5.0646
X6.9075Y-2.7858
X6.9075Y-2.8358
X6.9575Y-2.7858
X6.9575Y-2.8358
X7.0075Y-2.7858
X7.0075Y-2.8358
X7.0575Y-2.7858
X7.0575Y-2.8358
X7.1075Y-2.7858
X7.1075Y-2.8358
X7.1303Y-5.3693
X7.1516Y-5.4471
X7.1575Y-2.7858
X7.1575Y-2.8358
X7.1602Y-5.287
X7.2075Y-2.7858
X7.2075Y-2.8358
X7.2575Y-2.7858
X7.2575Y-2.8358
X7.2587Y-6.1059
X7.3075Y-2.7858
X7.3075Y-2.8358
X7.339Y-5.989
X7.3575Y-2.7858
X7.3575Y-2.8358
X7.3654Y-5.9531
X7.4075Y-2.7858
X7.4075Y-2.8358
X7.476Y-2.7858
X7.476Y-2.8358
X7.5024Y-5.5228
X7.5024Y-5.9165
X7.522Y-5.5228
X7.522Y-5.9165
X7.526Y-2.7858
X7.526Y-2.8358
X7.526Y-2.8858
X7.526Y-2.9646
X7.526Y-3.0146
X7.526Y-3.0646
X7.526Y-3.1146
X7.526Y-3.1646
X7.526Y-3.2146
X7.526Y-3.2646
X7.526Y-3.3146
X7.526Y-3.3646
X7.526Y-3.4146
X7.526Y-3.4646
X7.526Y-3.5146
X7.526Y-3.5646
X7.526Y-3.6146
X7.526Y-3.6646
X7.526Y-3.7146
X7.526Y-3.7646
X7.526Y-3.8146
X7.526Y-3.8646
X7.526Y-3.9146
X7.526Y-3.9646
X7.526Y-4.0146
X7.526Y-4.0646
X7.526Y-4.1146
X7.526Y-4.1646
X7.526Y-4.2146
X7.526Y-4.2646
X7.526Y-4.3146
X7.526Y-4.3646
X7.526Y-4.4146
X7.526Y-4.4646
X7.526Y-4.5146
X7.526Y-4.5646
X7.526Y-4.6146
X7.526Y-4.6646
X7.526Y-4.7146
X7.526Y-4.7646
X7.526Y-4.8146
X7.526Y-4.8646
X7.526Y-4.9146
X7.526Y-4.9646
X7.526Y-5.0146
X7.526Y-5.0646
X7.526Y-5.1146
X7.526Y-5.1646
X7.526Y-5.2146
X7.526Y-5.2646
X7.526Y-5.3146
X7.5417Y-5.5228
X7.5417Y-5.9165
X7.5614Y-5.5228
X7.5614Y-5.9165
X7.576Y-2.7858
X7.576Y-2.8358
X7.576Y-2.8858
X7.576Y-2.9646
X7.576Y-3.0146
X7.576Y-3.0646
X7.576Y-3.1146
X7.576Y-3.1646
X7.576Y-3.2146
X7.576Y-3.2646
X7.576Y-3.3146
X7.576Y-3.3646
X7.576Y-3.4146
X7.576Y-3.4646
X7.576Y-3.5146
X7.576Y-3.5646
X7.576Y-3.6146
X7.576Y-3.6646
X7.576Y-3.7146
X7.576Y-3.7646
X7.576Y-3.8146
X7.576Y-3.8646
X7.576Y-3.9146
X7.576Y-3.9646
X7.576Y-4.0146
X7.576Y-4.0646
X7.576Y-4.1146
X7.576Y-4.1646
X7.576Y-4.2146
X7.576Y-4.2646
X7.576Y-4.3146
X7.576Y-4.3646
X7.576Y-4.4146
X7.576Y-4.4646
X7.576Y-4.5146
X7.576Y-4.5646
X7.576Y-4.6146
X7.576Y-4.6646
X7.576Y-4.7146
X7.576Y-4.7646
X7.576Y-4.8146
X7.576Y-4.8646
X7.576Y-4.9146
X7.576Y-4.9646
X7.576Y-5.0146
X7.576Y-5.0646
X7.576Y-5.1146
X7.576Y-5.1646
X7.576Y-5.2146
X7.576Y-5.2646
X7.576Y-5.3146
X7.5811Y-5.5228
X7.5811Y-5.9165
X7.6008Y-5.5228
X7.6008Y-5.9165
X7.6205Y-5.5228
X7.6205Y-5.9165
T2
X4.0646Y-4.4614
X4.0941Y-4.7555
X4.0957Y-5.2744
X4.2016Y-2.7882
X4.2291Y-4.213
X4.2346Y-4.5925
X4.2346Y-4.6425
X4.2429Y-5.2811
X4.2504Y-5.3374
X4.2732Y-5.1303
X4.2846Y-4.5925
X4.2846Y-4.6425
X4.3051Y-3.6634
X4.3854Y-4.9803
X4.4154Y-3.0063
X4.4154Y-3.0563
X4.4154Y-3.1063
X4.4154Y-3.1563
X4.4185Y-5.4378
X4.4654Y-3.0063
X4.4654Y-3.0563
X4.4654Y-3.1063
X4.4654Y-3.1563
X4.5154Y-3.0063
X4.5154Y-3.0563
X4.5154Y-3.1063
X4.5154Y-3.1563
X4.5165Y-4.7055
X4.524Y-3.7067
X4.5354Y-5.3185
X4.5654Y-3.0063
X4.5654Y-3.0563
X4.5654Y-3.1063
X4.5654Y-3.1563
X4.6028Y-4.761
X4.6327Y-4.7071
X4.678Y-3.4039
X4.687Y-4.6382
X4.6906Y-4.3177
X4.7102Y-4.0976
X4.813Y-4.7677
X4.85Y-3.9709
X4.8787Y-2.9059
X4.9126Y-4.4071
X4.935Y-4.6
X4.9358Y-4.2299
X4.9732Y-4.624
X4.9823Y-2.7976
X4.9827Y-2.8362
X5.0165Y-4.7717
X5.0291Y-4.3087
X5.0661Y-3.1689
X5.1185Y-4.5677
X5.1248Y-2.8866
X5.1276Y-2.9193
X5.1339Y-4.1013
X5.1909Y-4.0256
X5.2449Y-4.6339
X5.2764Y-3.9177
X5.3043Y-4.589
X5.3071Y-4.6331
X5.3244Y-3.0646
X5.3622Y-3.2949
X5.3768Y-4.1114
X5.4039Y-4.4571
X5.4157Y-5.4591
X5.4823Y-2.8878
X5.7366Y-5.1217
X5.7402Y-5.3634
X5.7465Y-6.0488
X6.5008Y-5.0748
X6.5494Y-5.3711
X6.7486Y-5.3711
X7.0634Y-5.3878
X7.1598Y-5.239
X7.1598Y-5.4795
T0
M30
