<?xml version="1.0" encoding="UTF-8" standalone="no"?>
<svg
   xmlns:dc="http://purl.org/dc/elements/1.1/"
   xmlns:cc="http://creativecommons.org/ns#"
   xmlns:rdf="http://www.w3.org/1999/02/22-rdf-syntax-ns#"
   xmlns:svg="http://www.w3.org/2000/svg"
   xmlns="http://www.w3.org/2000/svg"
   xmlns:sodipodi="http://sodipodi.sourceforge.net/DTD/sodipodi-0.dtd"
   xmlns:inkscape="http://www.inkscape.org/namespaces/inkscape"
   width="155.67932mm"
   height="40.153851mm"
   viewBox="0 0 155.6793 40.153851"
   version="1.1"
   id="svg944"
   inkscape:version="1.0.1 (1.0.1+r75)"
   sodipodi:docname="logo_full.svg">
  <defs
     id="defs938" />
  <sodipodi:namedview
     id="base"
     pagecolor="#ffffff"
     bordercolor="#666666"
     borderopacity="1.0"
     inkscape:pageopacity="0.0"
     inkscape:pageshadow="2"
     inkscape:zoom="1.979899"
     inkscape:cx="248.64065"
     inkscape:cy="70.456331"
     inkscape:document-units="mm"
     inkscape:current-layer="layer1"
     inkscape:document-rotation="0"
     showgrid="false"
     fit-margin-bottom="2"
     fit-margin-top="2"
     fit-margin-left="2"
     fit-margin-right="2"
     lock-margins="true"
     inkscape:window-width="1920"
     inkscape:window-height="1025"
     inkscape:window-x="0"
     inkscape:window-y="27"
     inkscape:window-maximized="1" />
  <metadata
     id="metadata941">
    <rdf:RDF>
      <cc:Work
         rdf:about="">
        <dc:format>image/svg+xml</dc:format>
        <dc:type
           rdf:resource="http://purl.org/dc/dcmitype/StillImage" />
        <dc:title />
      </cc:Work>
    </rdf:RDF>
  </metadata>
  <g
     inkscape:label="Layer 1"
     inkscape:groupmode="layer"
     id="layer1"
     transform="translate(-41.076438,-45.430081)">
    <path
       inkscape:connector-curvature="0"
       id="path4652"
       d="m 45.247709,50.752787 3.14852,-3.18995 7.95417,0.39062 5.534781,13.150384 z"
       style="fill:#000000;fill-opacity:1;stroke:#000000;stroke-width:0.26012px;stroke-linecap:butt;stroke-linejoin:miter;stroke-opacity:1" />
    <path
       inkscape:connector-curvature="0"
       id="path4654"
       d="m 51.988759,53.933707 -7.10295,8.826884 v 14.97893 l 5.80122,5.44993 h 7.24443 l 4.10331,-21.73283 z"
       style="fill:none;stroke:#000000;stroke-width:0.243605px;stroke-linecap:butt;stroke-linejoin:miter;stroke-opacity:1" />
    <path
       inkscape:connector-curvature="0"
       id="path4656"
       d="m 50.687029,83.189451 -6.41167,-0.0116 2.73952,-3.4244 z"
       style="fill:#000000;fill-opacity:1;stroke:#000000;stroke-width:0.264583px;stroke-linecap:butt;stroke-linejoin:miter;stroke-opacity:1"
       sodipodi:nodetypes="cccc" />
    <path
       inkscape:connector-curvature="0"
       id="path4658"
       d="m 45.247709,50.752787 -1.837788,-1.32169 3.708888,-0.63784 -1.8711,1.95953 v 0"
       style="fill:none;stroke:#000000;stroke-width:0.264583px;stroke-linecap:butt;stroke-linejoin:miter;stroke-opacity:1" />
    <path
       sodipodi:nodetypes="ccccccccc"
       inkscape:connector-curvature="0"
       id="path4660"
       d="m 55.786909,57.585011 -3.67193,6.08679 0.64714,8.17705 -2.35041,3.82606 2.77838,1.626 0.26465,3.02686 4.40104,2.60828 4.051001,-21.51372 z"
       style="fill:#000000;fill-opacity:1;stroke:#000000;stroke-width:0.261983px;stroke-linecap:butt;stroke-linejoin:miter;stroke-opacity:1" />
    <g
       aria-label="Papered.ink"
       id="text22"
       style="font-style:normal;font-variant:normal;font-weight:normal;font-stretch:normal;font-size:36.4805px;line-height:1.25;font-family:'DK Lemon Yellow Sun';-inkscape-font-specification:'DK Lemon Yellow Sun';letter-spacing:0px;word-spacing:0px;fill:#000000;fill-opacity:1;stroke:none;stroke-width:0.912011;stroke-opacity:1">
      <path
         d="m 67.349881,82.307116 c 0,0.656649 0.474246,0.875532 0.984973,0.875532 0.620169,0 0.802571,-0.182403 0.984974,-0.802571 0.03648,-1.167376 0.182402,-6.748893 0.255363,-7.952749 l 0.255364,-2.225311 c 4.304699,-2.517154 6.493529,-5.435594 6.493529,-10.652305 0,-4.37766 -2.298272,-8.317554 -7.004256,-8.317554 -0.510727,0 -1.386259,0.291844 -1.714584,0.72961 -0.07296,4.268218 -0.218883,23.967688 -0.255363,28.199426 z m 2.480674,-26.557804 c 0.109441,-0.291844 0.291844,-0.291844 0.510727,-0.291844 3.210284,0 3.502128,4.268219 3.502128,6.53001 0,2.95492 -0.583688,5.253192 -3.027882,7.186658 -0.07296,0.07296 -0.839051,0.583688 -1.240337,0.583688 v -1.568661 z"
         style="stroke-width:0.912011;fill:#000000;stroke:none;stroke-opacity:1;fill-opacity:1"
         id="path837" />
      <path
         d="m 86.101427,74.974535 0.912013,6.931295 c 0.03648,0.255364 0.401285,0.255364 0.620168,0.255364 h 0.109442 c 0.693129,0 0.839051,-0.291844 1.094415,-0.984974 0,-0.03648 0.03648,-0.03648 0.03648,-0.07296 L 88.655062,78.732027 C 87.670089,70.122629 86.685115,61.549712 84.569246,53.195677 l -0.291844,-0.76609 c -0.218883,-0.364805 -0.72961,-0.547208 -1.130895,-0.547208 -0.912013,0 -1.167376,1.021454 -1.349779,1.714584 0,0 -0.03648,0.07296 -3.830452,26.521323 0,0.364805 0.328324,1.313298 0.802571,1.313298 1.057934,0 1.021454,-1.568662 1.094415,-2.115869 l 0.620168,-4.122297 0.218883,-0.218883 z M 83.36539,55.785793 85.809583,72.822186 81.249521,72.712744 Z"
         style="stroke-width:0.912011;fill:#000000;stroke:none;stroke-opacity:1;fill-opacity:1"
         id="path839" />
      <path
         d="m 92.501475,83.36505 c 0.291844,0.182403 0.364805,0.218883 0.69313,0.218883 0.364805,0 0.912012,-0.109441 1.130895,-0.474246 -0.03648,-1.203857 -0.03648,-6.821854 0,-8.062191 0,-0.583688 0.145922,-3.429167 0.182403,-4.012855 3.611569,-1.678102 6.311127,-6.092243 6.311127,-10.032137 0,-3.64805 -2.736038,-7.004256 -6.53001,-7.004256 -0.437766,0 -1.349779,-0.07296 -1.532181,0.437766 -0.07296,2.91844 -0.255364,16.562147 -0.255364,19.480587 z m 2.18883,-27.433335 c 2.517155,0 3.866933,3.429167 3.866933,5.326153 0,2.91844 -1.240337,5.14375 -3.356206,7.077217 -0.182402,0.182402 -0.510727,0.255363 -0.76609,0.255363 z"
         style="stroke-width:0.912011;fill:#000000;stroke:none;stroke-opacity:1;fill-opacity:1"
         id="path841" />
      <path
         d="m 104.87292,81.759908 c 0,0.69313 8.17164,0.839052 8.09867,-0.401285 -0.10944,-1.678103 -1.89698,-0.839052 -4.34117,-0.839052 -0.32833,0 -1.56867,0 -1.89699,-0.03648 l 0.10944,-9.521411 3.64805,-0.547207 c 1.45922,-0.218883 2.11587,-1.896986 0.40129,-1.896986 h -0.18241 l -3.93989,0.583688 -0.1824,-12.111526 h 4.37766 c 0.58369,0 1.56866,-0.328324 1.56866,-1.057934 0,-0.07296 0,-0.109442 -0.0365,-0.182403 -0.0365,-0.182402 -0.76609,-0.72961 -0.98498,-0.72961 h -5.76391 c -0.65665,0 -1.27682,0.620169 -1.27682,1.276818 z"
         style="stroke-width:0.912011;fill:#000000;stroke:none;stroke-opacity:1;fill-opacity:1"
         id="path843" />
      <path
         d="m 116.65556,82.744882 c 0.25536,0.364805 0.69313,0.510727 1.09441,0.510727 0.91201,0 0.80257,-0.766091 0.80257,-1.45922 0.0365,-3.100843 0.21889,-11.199514 0.25537,-11.527838 0,-0.328324 0.14592,-1.787544 0.21888,-2.115869 h 0.58369 c 2.22531,0 2.59011,2.444193 2.73603,4.231738 0.073,1.240337 0.40129,6.821853 0.43777,8.02571 0.14592,0.510727 0.62017,0.510727 1.02145,0.510727 h 0.0365 c 0.47425,0 1.05794,-0.07296 1.05794,-0.69313 v -0.291844 c 0,-0.218883 -0.21888,-1.896986 -0.21888,-2.115869 -0.18241,-2.517154 0.21888,-7.733866 -1.42274,-9.886215 -0.14593,-0.255363 -0.98498,-1.240337 -1.16738,-1.422739 2.40771,-1.641623 3.10084,-4.742465 3.10084,-7.405542 v -0.401285 c 0,-3.210284 -2.15235,-5.399114 -5.50855,-5.399114 h -0.36481 c -1.45922,0 -2.07939,0 -2.15235,1.678103 -0.21888,8.208112 -0.51072,16.489185 -0.51072,24.697298 z m 2.37123,-17.51064 c 0,-3.246764 0.29184,-5.909841 0.25536,-9.083644 0,-0.620169 0.36481,-0.948493 0.91201,-0.948493 2.07939,0 2.88196,2.18883 2.88196,3.903413 0,1.678103 -0.98497,6.457049 -3.57508,6.457049 -0.21889,0 -0.47425,-0.03648 -0.47425,-0.328325 z"
         style="stroke-width:0.912011;fill:#000000;stroke:none;stroke-opacity:1;fill-opacity:1"
         id="path845" />
      <path
         d="m 129.24076,81.759908 c 0,0.69313 8.17163,0.839052 8.09867,-0.401285 -0.10944,-1.678103 -1.89699,-0.839052 -4.34118,-0.839052 -0.32832,0 -1.56866,0 -1.89698,-0.03648 l 0.10944,-9.521411 3.64805,-0.547207 c 1.45922,-0.218883 2.11587,-1.896986 0.40128,-1.896986 h -0.1824 l -3.93989,0.583688 -0.18241,-12.111526 h 4.37766 c 0.58369,0 1.56866,-0.328324 1.56866,-1.057934 0,-0.07296 0,-0.109442 -0.0365,-0.182403 -0.0365,-0.182402 -0.76609,-0.72961 -0.98497,-0.72961 h -5.76392 c -0.65665,0 -1.27682,0.620169 -1.27682,1.276818 z"
         style="stroke-width:0.912011;fill:#000000;stroke:none;stroke-opacity:1;fill-opacity:1"
         id="path847" />
      <path
         d="m 139.59837,81.723428 c 0,1.349778 0.76609,1.532181 1.93347,1.386259 6.01928,-0.72961 7.6609,-7.442022 7.95275,-14.482758 0.21888,-4.961348 -0.51073,-11.235994 -4.41414,-14.738122 -1.09442,-0.984974 -2.6266,-1.313298 -4.08582,-1.313298 h -0.32833 c -0.76609,0.328324 -1.05793,1.167376 -1.05793,1.969947 v 0.145922 c 0.0365,3.100842 0.0365,17.693042 0,20.830365 z m 2.33475,-26.813167 h 0.25537 c 5.07079,0 5.25319,11.272474 5.25319,14.154434 0,4.012854 -1.24034,11.235993 -5.76392,11.929123 -0.073,-3.721011 0,-9.266047 0,-12.512811 0,-2.006428 0.1824,-11.527838 0.25536,-13.570746 z"
         style="stroke-width:0.912011;fill:#000000;stroke:none;stroke-opacity:1;fill-opacity:1"
         id="path849" />
      <path
         d="m 153.13605,80.884376 c 0,1.021454 0.51073,1.605142 1.42274,1.605142 0.69313,0 1.45922,-0.109441 1.45922,-0.912012 0,-1.021454 -0.65665,-1.787545 -1.64162,-1.787545 -0.43777,0 -1.24034,0.620169 -1.24034,1.094415 z"
         style="stroke-width:0.912011;fill:#000000;stroke:none;stroke-opacity:1;fill-opacity:1"
         id="path851" />
      <path
         d="m 159.69114,82.234155 c 0,1.057934 2.04291,0.912012 2.11587,-0.69313 l 1.09442,-24.952661 c 0,-0.07296 0.0365,-0.547208 0.0365,-0.656649 0,-1.057935 0,-1.532181 -1.05794,-1.532181 -0.76609,0 -0.94849,0.03648 -1.20385,0.76609 z"
         style="stroke-width:0.912011;fill:#000000;stroke:none;stroke-opacity:1;fill-opacity:1"
         id="path853" />
      <path
         d="m 166.60249,81.759908 c 0,0.766091 1.86051,0.875532 1.86051,-0.218883 l 0.25536,-22.399026 c 7.73387,20.684443 8.02571,21.414053 8.39051,22.180143 0.29185,0.620169 1.42274,1.057935 1.67811,0.291844 0,-2.115869 0.3648,-12.220967 0.43776,-14.336836 0.14592,-3.793972 0.69313,-7.587944 0.80257,-11.381916 0.0365,-0.802571 -0.0365,-0.839051 -0.91201,-0.875532 -0.54721,0 -0.94849,0 -0.94849,0.401286 -0.47425,2.042908 -0.32833,4.268218 -0.43777,6.457048 -0.21888,3.575089 -0.51072,12.549292 -0.5472,14.154434 l -7.44203,-20.173716 c -0.76609,-2.115869 -2.77251,-1.240337 -2.69955,0.218883 z"
         style="stroke-width:0.912011;fill:#000000;stroke:none;stroke-opacity:1;fill-opacity:1"
         id="path855" />
      <path
         d="m 184.72418,82.343596 c 0.073,1.45922 1.60514,1.057935 2.00643,0.07296 0,-4.596543 -0.47425,-10.579345 -0.47425,-12.257448 v -0.291843 c 2.48067,3.793971 4.45062,8.609397 6.49353,12.293928 0.29184,0.474246 0.47425,0.474246 0.94849,0.474246 0.94849,0 1.27682,-0.984973 0.91201,-1.641622 l -6.82185,-12.658733 5.90984,-13.643707 c 0.51073,-1.605142 -0.47424,-1.824025 -0.98497,-1.824025 -1.3133,0 -1.34978,1.45922 -1.64162,2.480674 -0.87554,3.064362 -2.69956,6.931295 -4.88839,11.308955 l -0.36481,-12.184487 c -0.0365,-0.948493 -0.3648,-1.386259 -1.09441,-1.386259 -0.58369,0 -1.02145,0.437766 -1.02145,1.057934 z"
         style="stroke-width:0.912011;fill:#000000;stroke:none;stroke-opacity:1;fill-opacity:1"
         id="path857" />
    </g>
  </g>
</svg>
