<svg id="a4b611a1-f26d-48ed-9397-b2b6bce2c247" data-name="Layer 1" xmlns="http://www.w3.org/2000/svg" width="811.34934" height="624.08084" viewBox="0 0 811.34934 624.08084"><path d="M616.1495,570.11987a11.48908,11.48908,0,0,1-8.8618-15.226l-50.423-87.20919,23.83287-7.50038,42.114,87.98251a11.55132,11.55132,0,0,1-6.662,21.953Z" transform="translate(-194.32533 -137.95958)" fill="#ffb8b8"/><path d="M558.64011,481.81657a4.78018,4.78018,0,0,1-3.39927-2.553L541.9362,453.031a4.81473,4.81473,0,0,1,1.35821-5.99083L557.53448,436.087a4.78746,4.78746,0,0,1,6.24873.32452L583.531,455.17589a4.81188,4.81188,0,0,1-.11409,7.0824l-20.68282,18.42228a4.786,4.786,0,0,1-4.094,1.136Z" transform="translate(-194.32533 -137.95958)" fill="#2e3135"/><path d="M1005.67467,364.5052c0-67.16541-54.44832-226.54562-121.61374-226.54562S762.4472,297.33979,762.4472,364.5052a121.61374,121.61374,0,1,0,243.22747,0Z" transform="translate(-194.32533 -137.95958)" fill="#2e3135"/><path d="M884.061,734.37755a1,1,0,0,0,1-1V240.09337a1,1,0,0,0-2,0V733.37755A1,1,0,0,0,884.061,734.37755Z" transform="translate(-194.32533 -137.95958)" fill="#3f3d56"/><path d="M884.061,321.03917a.9968.9968,0,0,0,.70716-.293l48.13452-48.13427a1,1,0,0,0-1.41431-1.41407l-48.13452,48.13428a1,1,0,0,0,.70715,1.707Z" transform="translate(-194.32533 -137.95958)" fill="#3f3d56"/><path d="M884.061,404.36925a1,1,0,0,0,.70716-1.707l-80.61-80.61035a1,1,0,0,0-1.4143,1.41406l80.61,80.61035A.99705.99705,0,0,0,884.061,404.36925Z" transform="translate(-194.32533 -137.95958)" fill="#3f3d56"/><path d="M956.95445,761.57339c-.17386.13428-.35659.25486-.53222.38619H807.32908c-2.92142-11.83653-3.953-23.68571.4107-33.97582,6.21716-14.66282,24.61808-23.81571,39.24692-17.51888a22.3376,22.3376,0,0,1,8.77357,6.94176c5.71689-10.23335,15.9718-17.949,27.80872-17.94055,14.82975.01059,27.15986,12.13812,31.18341,26.14659,6.47972-10.937,19.27818-18.58031,31.78747-15.29233C967.46305,715.81964,974.07183,748.34439,956.95445,761.57339Z" transform="translate(-194.32533 -137.95958)" fill="#f2f2f2"/><path d="M369.22182,530.25056c0-48.26367-39.15192-162.791-87.44825-162.791s-87.44824,114.52731-87.44824,162.791a87.44827,87.44827,0,0,0,174.89649,0Z" transform="translate(-194.32533 -137.95958)" fill="#e6e6e6"/><path d="M281.7736,742.85829a.71881.71881,0,0,0,.71907-.71858V440.8508a.71907.71907,0,0,0-1.43813,0V742.13971A.7188.7188,0,0,0,281.7736,742.85829Z" transform="translate(-194.32533 -137.95958)" fill="#3f3d56"/><path d="M281.7736,499.01677a.717.717,0,0,0,.50849-.21052L316.894,464.218a.71881.71881,0,1,0-1.017-1.01612l-34.61188,34.5883a.71858.71858,0,0,0,.50849,1.22663Z" transform="translate(-194.32533 -137.95958)" fill="#3f3d56"/><path d="M281.7736,558.896a.71858.71858,0,0,0,.50849-1.22664l-57.96386-57.92492a.71881.71881,0,1,0-1.017,1.01611l57.96386,57.92493A.71723.71723,0,0,0,281.7736,558.896Z" transform="translate(-194.32533 -137.95958)" fill="#3f3d56"/><path d="M333.79535,761.68207c-.125.09649-.25641.18314-.3827.27751H226.20491c-2.10069-8.50549-2.84249-17.02006.29532-24.41432,4.47055-10.5364,17.702-17.11347,28.2211-12.5887a16.06033,16.06033,0,0,1,6.30878,4.9882c4.11082-7.35347,11.48477-12.89776,19.99629-12.89171,10.66356.00761,19.52972,8.72221,22.42291,18.78841,4.65935-7.85913,13.86228-13.35143,22.85728-10.98876C341.35172,728.80438,346.10387,752.176,333.79535,761.68207Z" transform="translate(-194.32533 -137.95958)" fill="#f2f2f2"/><path d="M375.82513,761.95958h381a1,1,0,0,0,0-2h-381a1,1,0,1,0,0,2Z" transform="translate(-194.32533 -137.95958)" fill="#3f3d56"/><path d="M556.17743,488.1216a4.78021,4.78021,0,0,1-3.32755-2.64584l-12.57581-26.58964a4.81474,4.81474,0,0,1,1.523-5.95107L556.3339,442.379a4.78749,4.78749,0,0,1,6.2374.4968l19.2226,19.302a4.81189,4.81189,0,0,1-.30945,7.07655L560.30123,487.099a4.786,4.786,0,0,1-4.1238,1.02261Z" transform="translate(-194.32533 -137.95958)" fill="#2e3135"/><polygon points="282.179 602.252 294.831 605.694 314.129 558.533 295.457 553.453 282.179 602.252" fill="#ffb8b8"/><path d="M471.96444,740.98921h41.20773a0,0,0,0,1,0,0v15.92117a0,0,0,0,1,0,0H486.8513a14.88686,14.88686,0,0,1-14.88686-14.88686v-1.03431A0,0,0,0,1,471.96444,740.98921Z" transform="translate(576.90565 1462.98578) rotate(-164.77933)" fill="#2f2e41"/><polygon points="390.336 611.906 403.447 611.905 409.685 561.332 390.333 561.333 390.336 611.906" fill="#ffb8b8"/><path d="M581.85169,746.11831h41.20773a0,0,0,0,1,0,0v15.92117a0,0,0,0,1,0,0H596.73855a14.88686,14.88686,0,0,1-14.88686-14.88686v-1.03431A0,0,0,0,1,581.85169,746.11831Z" transform="translate(1010.6202 1370.17071) rotate(179.99738)" fill="#2f2e41"/><circle cx="564.90961" cy="389.68711" r="26.26746" transform="translate(-304.41753 375.62855) rotate(-45)" fill="#ffb8b8"/><path d="M580.69575,709.64591,566.01394,602.28567a3.74337,3.74337,0,0,0-7.08033-1.11857l-49.9688,103.64006a4.83854,4.83854,0,0,1-5.802,2.49405l-19.25581-6.162a4.79651,4.79651,0,0,1-3.164-5.89987c23.42275-82.69648,43.64672-144.2217,66.21384-175.69189.088-.1222.17938-.23813.277-.352l5.00456-5.8393a4.80484,4.80484,0,0,1,3.65413-1.68046h36.84552a4.79,4.79,0,0,1,4.46877,3.02566l.95956,2.399a5.00351,5.00351,0,0,1,.195.59009c12.04415,45.84234,15.1672,106.72525,9.82817,191.60036a4.82663,4.82663,0,0,1-4.808,4.516H585.464A4.83106,4.83106,0,0,1,580.69575,709.64591Z" transform="translate(-194.32533 -137.95958)" fill="#2f2e41"/><path d="M545.17585,517.36773h0c-5.30848-8.49524-30.63754-52.3814-7.9015-82.10429a3.80789,3.80789,0,0,0,.76295-1.80892l.90132-6.91192a4.80525,4.80525,0,0,1,5.61606-4.11706c7.90332,1.43815,22.78958,5.96045,33.6914,20.083a4.79516,4.79516,0,0,1,.95094,2.33739l.60158,4.81369a3.7,3.7,0,0,0,2.152,2.93375c6.95316,3.15726,22.51306,15.46042,16.83956,61.38527a4.797,4.797,0,0,1-4.62935,4.22882l-44.75589,1.41309c-.05066.001-.10079.00209-.15118.00209A4.82162,4.82162,0,0,1,545.17585,517.36773Z" transform="translate(-194.32533 -137.95958)" fill="#2e3135"/><path d="M527.02478,587.75319a11.48905,11.48905,0,0,1,2.28877-17.46779l13.374-99.84518,23.44909,8.62565L545.71269,574.446a11.55132,11.55132,0,0,1-18.68791,13.30717Z" transform="translate(-194.32533 -137.95958)" fill="#ffb8b8"/><path d="M535.45771,482.71183a4.78022,4.78022,0,0,1-1.13084-4.09808l5.49732-28.89532A4.81475,4.81475,0,0,1,544.56,445.806l17.96523.03085a4.78746,4.78746,0,0,1,4.74818,4.07513l4.16649,26.92058a4.81188,4.81188,0,0,1-4.418,5.53669l-27.62927,1.94491a4.786,4.786,0,0,1-3.935-1.60237Z" transform="translate(-194.32533 -137.95958)" fill="#2e3135"/><path d="M536.00865,373.35077a108.9316,108.9316,0,0,0,4.30468-18.14537c.28713-3.58653-.63165-7.44559-3.24355-9.92018-4.88806-4.6311-13.19292-2.42535-18.30473,1.95753-7.38773,6.33426-11.07227,16.06871-12.46475,25.7s-.7798,19.42538-1.115,29.15107-1.72617,19.72594-6.6845,28.09949-14.15946,14.80106-23.86479,14.08838a16.79545,16.79545,0,0,1-10.51373-4.4556,12.19079,12.19079,0,0,1-3.66134-10.586c-4.9605,8.8824-2.44591,20.92092,4.9531,27.90363s18.7801,8.95664,28.50715,5.97536,17.73274-10.45674,22.51463-19.43657,6.5342-19.35318,6.28026-29.52368c-.195-7.81015-1.52262-15.68424-.20282-23.38454s6.139-15.51891,13.73829-17.33222Z" transform="translate(-194.32533 -137.95958)" fill="#2f2e41"/><path d="M560.56619,414.10672a13.45731,13.45731,0,0,1,5.93493-19.4866c4.76257-2.10788,10.27161-1.30149,15.3828-2.302,9.158-1.7926,16.697-10.15748,17.24111-19.47335s-6.17836-18.6266-15.26152-20.76614c-3.62328-.85346-7.40086-.65265-11.11761-.4469-3.57014.19765-7.14275.39549-10.69511.80261-7.02873.80553-14.13876,2.50762-19.98854,6.48656s-10.2671,10.56805-10.19138,17.64238c.08641,8.07422,3.89434,24.1472,9.1901,30.24273,5.10943,5.88105,9,8,17.10963,8.4009Z" transform="translate(-194.32533 -137.95958)" fill="#2f2e41"/><path d="M659.33789,511H647V498.66211a1.5,1.5,0,0,0-3,0V511H631.66211a1.5,1.5,0,0,0,0,3H644v12.33789a1.5,1.5,0,0,0,3,0V514h12.33789a1.5,1.5,0,0,0,0-3Z" transform="translate(-194.32533 -137.95958)" fill="#2e3135"/><path d="M624.33789,320H612V307.66211a1.5,1.5,0,0,0-3,0V320H596.66211a1.5,1.5,0,0,0,0,3H609v12.33789a1.5,1.5,0,0,0,3,0V323h12.33789a1.5,1.5,0,0,0,0-3Z" transform="translate(-194.32533 -137.95958)" fill="#2e3135"/><path d="M464.33789,376H452V363.66211a1.5,1.5,0,0,0-3,0V376H436.66211a1.5,1.5,0,0,0,0,3H449v12.33789a1.5,1.5,0,0,0,3,0V379h12.33789a1.5,1.5,0,0,0,0-3Z" transform="translate(-194.32533 -137.95958)" fill="#2e3135"/></svg>