G04 #@! TF.GenerationSoftware,KiCad,Pcbnew,5.99.0-unknown-711fc99~101~ubuntu18.04.1*
G04 #@! TF.CreationDate,2020-06-08T21:21:56+05:30*
G04 #@! TF.ProjectId,paperd.ink_front_pcb,70617065-7264-42e6-996e-6b5f66726f6e,rev?*
G04 #@! TF.SameCoordinates,Original*
G04 #@! TF.FileFunction,AssemblyDrawing,Bot*
%FSLAX46Y46*%
G04 Gerber Fmt 4.6, Leading zero omitted, Abs format (unit mm)*
G04 Created by KiCad (PCBNEW 5.99.0-unknown-711fc99~101~ubuntu18.04.1) date 2020-06-08 21:21:56*
%MOMM*%
%LPD*%
G01*
G04 APERTURE LIST*
%ADD10C,0.150000*%
G04 APERTURE END LIST*
D10*
X147548095Y-141087142D02*
X147595714Y-141134761D01*
X147738571Y-141182380D01*
X147833809Y-141182380D01*
X147976666Y-141134761D01*
X148071904Y-141039523D01*
X148119523Y-140944285D01*
X148167142Y-140753809D01*
X148167142Y-140610952D01*
X148119523Y-140420476D01*
X148071904Y-140325238D01*
X147976666Y-140230000D01*
X147833809Y-140182380D01*
X147738571Y-140182380D01*
X147595714Y-140230000D01*
X147548095Y-140277619D01*
X146976666Y-141182380D02*
X147071904Y-141134761D01*
X147119523Y-141087142D01*
X147167142Y-140991904D01*
X147167142Y-140706190D01*
X147119523Y-140610952D01*
X147071904Y-140563333D01*
X146976666Y-140515714D01*
X146833809Y-140515714D01*
X146738571Y-140563333D01*
X146690952Y-140610952D01*
X146643333Y-140706190D01*
X146643333Y-140991904D01*
X146690952Y-141087142D01*
X146738571Y-141134761D01*
X146833809Y-141182380D01*
X146976666Y-141182380D01*
X146214761Y-140515714D02*
X146214761Y-141182380D01*
X146214761Y-140610952D02*
X146167142Y-140563333D01*
X146071904Y-140515714D01*
X145929047Y-140515714D01*
X145833809Y-140563333D01*
X145786190Y-140658571D01*
X145786190Y-141182380D01*
X145310000Y-140515714D02*
X145310000Y-141182380D01*
X145310000Y-140610952D02*
X145262380Y-140563333D01*
X145167142Y-140515714D01*
X145024285Y-140515714D01*
X144929047Y-140563333D01*
X144881428Y-140658571D01*
X144881428Y-141182380D01*
X144643333Y-141277619D02*
X143881428Y-141277619D01*
X143452857Y-140182380D02*
X143357619Y-140182380D01*
X143262380Y-140230000D01*
X143214761Y-140277619D01*
X143167142Y-140372857D01*
X143119523Y-140563333D01*
X143119523Y-140801428D01*
X143167142Y-140991904D01*
X143214761Y-141087142D01*
X143262380Y-141134761D01*
X143357619Y-141182380D01*
X143452857Y-141182380D01*
X143548095Y-141134761D01*
X143595714Y-141087142D01*
X143643333Y-140991904D01*
X143690952Y-140801428D01*
X143690952Y-140563333D01*
X143643333Y-140372857D01*
X143595714Y-140277619D01*
X143548095Y-140230000D01*
X143452857Y-140182380D01*
X142167142Y-141182380D02*
X142738571Y-141182380D01*
X142452857Y-141182380D02*
X142452857Y-140182380D01*
X142548095Y-140325238D01*
X142643333Y-140420476D01*
X142738571Y-140468095D01*
X141833809Y-141182380D02*
X141310000Y-140515714D01*
X141833809Y-140515714D02*
X141310000Y-141182380D01*
X140405238Y-141182380D02*
X140976666Y-141182380D01*
X140690952Y-141182380D02*
X140690952Y-140182380D01*
X140786190Y-140325238D01*
X140881428Y-140420476D01*
X140976666Y-140468095D01*
X139548095Y-140515714D02*
X139548095Y-141182380D01*
X139786190Y-140134761D02*
X140024285Y-140849047D01*
X139405238Y-140849047D01*
M02*
