G04 #@! TF.GenerationSoftware,KiCad,Pcbnew,5.99.0-unknown-711fc99~101~ubuntu18.04.1*
G04 #@! TF.CreationDate,2020-06-08T21:21:56+05:30*
G04 #@! TF.ProjectId,paperd.ink_front_pcb,70617065-7264-42e6-996e-6b5f66726f6e,rev?*
G04 #@! TF.SameCoordinates,Original*
G04 #@! TF.FileFunction,Paste,Bot*
G04 #@! TF.FilePolarity,Positive*
%FSLAX46Y46*%
G04 Gerber Fmt 4.6, Leading zero omitted, Abs format (unit mm)*
G04 Created by KiCad (PCBNEW 5.99.0-unknown-711fc99~101~ubuntu18.04.1) date 2020-06-08 21:21:56*
%MOMM*%
%LPD*%
G01*
G04 APERTURE LIST*
G04 APERTURE END LIST*
G36*
G01*
X141260000Y-136860000D02*
X141260000Y-136860000D01*
G75*
G02*
X141410000Y-136710000I150000J0D01*
G01*
X146110000Y-136710000D01*
G75*
G02*
X146260000Y-136860000I0J-150000D01*
G01*
X146260000Y-136860000D01*
G75*
G02*
X146110000Y-137010000I-150000J0D01*
G01*
X141410000Y-137010000D01*
G75*
G02*
X141260000Y-136860000I0J150000D01*
G01*
G37*
G36*
G01*
X141260000Y-137360000D02*
X141260000Y-137360000D01*
G75*
G02*
X141410000Y-137210000I150000J0D01*
G01*
X146110000Y-137210000D01*
G75*
G02*
X146260000Y-137360000I0J-150000D01*
G01*
X146260000Y-137360000D01*
G75*
G02*
X146110000Y-137510000I-150000J0D01*
G01*
X141410000Y-137510000D01*
G75*
G02*
X141260000Y-137360000I0J150000D01*
G01*
G37*
G36*
G01*
X141260000Y-137860000D02*
X141260000Y-137860000D01*
G75*
G02*
X141410000Y-137710000I150000J0D01*
G01*
X146110000Y-137710000D01*
G75*
G02*
X146260000Y-137860000I0J-150000D01*
G01*
X146260000Y-137860000D01*
G75*
G02*
X146110000Y-138010000I-150000J0D01*
G01*
X141410000Y-138010000D01*
G75*
G02*
X141260000Y-137860000I0J150000D01*
G01*
G37*
G36*
G01*
X141260000Y-138360000D02*
X141260000Y-138360000D01*
G75*
G02*
X141410000Y-138210000I150000J0D01*
G01*
X146110000Y-138210000D01*
G75*
G02*
X146260000Y-138360000I0J-150000D01*
G01*
X146260000Y-138360000D01*
G75*
G02*
X146110000Y-138510000I-150000J0D01*
G01*
X141410000Y-138510000D01*
G75*
G02*
X141260000Y-138360000I0J150000D01*
G01*
G37*
G36*
G01*
X141260000Y-138860000D02*
X141260000Y-138860000D01*
G75*
G02*
X141410000Y-138710000I150000J0D01*
G01*
X146110000Y-138710000D01*
G75*
G02*
X146260000Y-138860000I0J-150000D01*
G01*
X146260000Y-138860000D01*
G75*
G02*
X146110000Y-139010000I-150000J0D01*
G01*
X141410000Y-139010000D01*
G75*
G02*
X141260000Y-138860000I0J150000D01*
G01*
G37*
G36*
G01*
X141260000Y-139360000D02*
X141260000Y-139360000D01*
G75*
G02*
X141410000Y-139210000I150000J0D01*
G01*
X146110000Y-139210000D01*
G75*
G02*
X146260000Y-139360000I0J-150000D01*
G01*
X146260000Y-139360000D01*
G75*
G02*
X146110000Y-139510000I-150000J0D01*
G01*
X141410000Y-139510000D01*
G75*
G02*
X141260000Y-139360000I0J150000D01*
G01*
G37*
G36*
G01*
X141260000Y-139860000D02*
X141260000Y-139860000D01*
G75*
G02*
X141410000Y-139710000I150000J0D01*
G01*
X146110000Y-139710000D01*
G75*
G02*
X146260000Y-139860000I0J-150000D01*
G01*
X146260000Y-139860000D01*
G75*
G02*
X146110000Y-140010000I-150000J0D01*
G01*
X141410000Y-140010000D01*
G75*
G02*
X141260000Y-139860000I0J150000D01*
G01*
G37*
G36*
G01*
X141260000Y-140360000D02*
X141260000Y-140360000D01*
G75*
G02*
X141410000Y-140210000I150000J0D01*
G01*
X146110000Y-140210000D01*
G75*
G02*
X146260000Y-140360000I0J-150000D01*
G01*
X146260000Y-140360000D01*
G75*
G02*
X146110000Y-140510000I-150000J0D01*
G01*
X141410000Y-140510000D01*
G75*
G02*
X141260000Y-140360000I0J150000D01*
G01*
G37*
G36*
G01*
X141260000Y-140860000D02*
X141260000Y-140860000D01*
G75*
G02*
X141410000Y-140710000I150000J0D01*
G01*
X146110000Y-140710000D01*
G75*
G02*
X146260000Y-140860000I0J-150000D01*
G01*
X146260000Y-140860000D01*
G75*
G02*
X146110000Y-141010000I-150000J0D01*
G01*
X141410000Y-141010000D01*
G75*
G02*
X141260000Y-140860000I0J150000D01*
G01*
G37*
G36*
G01*
X141260000Y-141360000D02*
X141260000Y-141360000D01*
G75*
G02*
X141410000Y-141210000I150000J0D01*
G01*
X146110000Y-141210000D01*
G75*
G02*
X146260000Y-141360000I0J-150000D01*
G01*
X146260000Y-141360000D01*
G75*
G02*
X146110000Y-141510000I-150000J0D01*
G01*
X141410000Y-141510000D01*
G75*
G02*
X141260000Y-141360000I0J150000D01*
G01*
G37*
G36*
G01*
X141260000Y-141860000D02*
X141260000Y-141860000D01*
G75*
G02*
X141410000Y-141710000I150000J0D01*
G01*
X146110000Y-141710000D01*
G75*
G02*
X146260000Y-141860000I0J-150000D01*
G01*
X146260000Y-141860000D01*
G75*
G02*
X146110000Y-142010000I-150000J0D01*
G01*
X141410000Y-142010000D01*
G75*
G02*
X141260000Y-141860000I0J150000D01*
G01*
G37*
G36*
G01*
X141260000Y-142360000D02*
X141260000Y-142360000D01*
G75*
G02*
X141410000Y-142210000I150000J0D01*
G01*
X146110000Y-142210000D01*
G75*
G02*
X146260000Y-142360000I0J-150000D01*
G01*
X146260000Y-142360000D01*
G75*
G02*
X146110000Y-142510000I-150000J0D01*
G01*
X141410000Y-142510000D01*
G75*
G02*
X141260000Y-142360000I0J150000D01*
G01*
G37*
G36*
G01*
X141260000Y-142860000D02*
X141260000Y-142860000D01*
G75*
G02*
X141410000Y-142710000I150000J0D01*
G01*
X146110000Y-142710000D01*
G75*
G02*
X146260000Y-142860000I0J-150000D01*
G01*
X146260000Y-142860000D01*
G75*
G02*
X146110000Y-143010000I-150000J0D01*
G01*
X141410000Y-143010000D01*
G75*
G02*
X141260000Y-142860000I0J150000D01*
G01*
G37*
G36*
G01*
X141260000Y-143360000D02*
X141260000Y-143360000D01*
G75*
G02*
X141410000Y-143210000I150000J0D01*
G01*
X146110000Y-143210000D01*
G75*
G02*
X146260000Y-143360000I0J-150000D01*
G01*
X146260000Y-143360000D01*
G75*
G02*
X146110000Y-143510000I-150000J0D01*
G01*
X141410000Y-143510000D01*
G75*
G02*
X141260000Y-143360000I0J150000D01*
G01*
G37*
M02*
