G04 #@! TF.GenerationSoftware,KiCad,Pcbnew,5.99.0-unknown-711fc99~101~ubuntu18.04.1*
G04 #@! TF.CreationDate,2020-06-08T21:21:56+05:30*
G04 #@! TF.ProjectId,paperd.ink_front_pcb,70617065-7264-42e6-996e-6b5f66726f6e,rev?*
G04 #@! TF.SameCoordinates,Original*
G04 #@! TF.FileFunction,Soldermask,Bot*
G04 #@! TF.FilePolarity,Negative*
%FSLAX46Y46*%
G04 Gerber Fmt 4.6, Leading zero omitted, Abs format (unit mm)*
G04 Created by KiCad (PCBNEW 5.99.0-unknown-711fc99~101~ubuntu18.04.1) date 2020-06-08 21:21:56*
%MOMM*%
%LPD*%
G01*
G04 APERTURE LIST*
G04 APERTURE END LIST*
G36*
G01*
X141209000Y-136860000D02*
X141209000Y-136860000D01*
G75*
G02*
X141410000Y-136659000I201000J0D01*
G01*
X146110000Y-136659000D01*
G75*
G02*
X146311000Y-136860000I0J-201000D01*
G01*
X146311000Y-136860000D01*
G75*
G02*
X146110000Y-137061000I-201000J0D01*
G01*
X141410000Y-137061000D01*
G75*
G02*
X141209000Y-136860000I0J201000D01*
G01*
G37*
G36*
G01*
X141209000Y-137360000D02*
X141209000Y-137360000D01*
G75*
G02*
X141410000Y-137159000I201000J0D01*
G01*
X146110000Y-137159000D01*
G75*
G02*
X146311000Y-137360000I0J-201000D01*
G01*
X146311000Y-137360000D01*
G75*
G02*
X146110000Y-137561000I-201000J0D01*
G01*
X141410000Y-137561000D01*
G75*
G02*
X141209000Y-137360000I0J201000D01*
G01*
G37*
G36*
G01*
X141209000Y-137860000D02*
X141209000Y-137860000D01*
G75*
G02*
X141410000Y-137659000I201000J0D01*
G01*
X146110000Y-137659000D01*
G75*
G02*
X146311000Y-137860000I0J-201000D01*
G01*
X146311000Y-137860000D01*
G75*
G02*
X146110000Y-138061000I-201000J0D01*
G01*
X141410000Y-138061000D01*
G75*
G02*
X141209000Y-137860000I0J201000D01*
G01*
G37*
G36*
G01*
X141209000Y-138360000D02*
X141209000Y-138360000D01*
G75*
G02*
X141410000Y-138159000I201000J0D01*
G01*
X146110000Y-138159000D01*
G75*
G02*
X146311000Y-138360000I0J-201000D01*
G01*
X146311000Y-138360000D01*
G75*
G02*
X146110000Y-138561000I-201000J0D01*
G01*
X141410000Y-138561000D01*
G75*
G02*
X141209000Y-138360000I0J201000D01*
G01*
G37*
G36*
G01*
X141209000Y-138860000D02*
X141209000Y-138860000D01*
G75*
G02*
X141410000Y-138659000I201000J0D01*
G01*
X146110000Y-138659000D01*
G75*
G02*
X146311000Y-138860000I0J-201000D01*
G01*
X146311000Y-138860000D01*
G75*
G02*
X146110000Y-139061000I-201000J0D01*
G01*
X141410000Y-139061000D01*
G75*
G02*
X141209000Y-138860000I0J201000D01*
G01*
G37*
G36*
G01*
X141209000Y-139360000D02*
X141209000Y-139360000D01*
G75*
G02*
X141410000Y-139159000I201000J0D01*
G01*
X146110000Y-139159000D01*
G75*
G02*
X146311000Y-139360000I0J-201000D01*
G01*
X146311000Y-139360000D01*
G75*
G02*
X146110000Y-139561000I-201000J0D01*
G01*
X141410000Y-139561000D01*
G75*
G02*
X141209000Y-139360000I0J201000D01*
G01*
G37*
G36*
G01*
X141209000Y-139860000D02*
X141209000Y-139860000D01*
G75*
G02*
X141410000Y-139659000I201000J0D01*
G01*
X146110000Y-139659000D01*
G75*
G02*
X146311000Y-139860000I0J-201000D01*
G01*
X146311000Y-139860000D01*
G75*
G02*
X146110000Y-140061000I-201000J0D01*
G01*
X141410000Y-140061000D01*
G75*
G02*
X141209000Y-139860000I0J201000D01*
G01*
G37*
G36*
G01*
X141209000Y-140360000D02*
X141209000Y-140360000D01*
G75*
G02*
X141410000Y-140159000I201000J0D01*
G01*
X146110000Y-140159000D01*
G75*
G02*
X146311000Y-140360000I0J-201000D01*
G01*
X146311000Y-140360000D01*
G75*
G02*
X146110000Y-140561000I-201000J0D01*
G01*
X141410000Y-140561000D01*
G75*
G02*
X141209000Y-140360000I0J201000D01*
G01*
G37*
G36*
G01*
X141209000Y-140860000D02*
X141209000Y-140860000D01*
G75*
G02*
X141410000Y-140659000I201000J0D01*
G01*
X146110000Y-140659000D01*
G75*
G02*
X146311000Y-140860000I0J-201000D01*
G01*
X146311000Y-140860000D01*
G75*
G02*
X146110000Y-141061000I-201000J0D01*
G01*
X141410000Y-141061000D01*
G75*
G02*
X141209000Y-140860000I0J201000D01*
G01*
G37*
G36*
G01*
X141209000Y-141360000D02*
X141209000Y-141360000D01*
G75*
G02*
X141410000Y-141159000I201000J0D01*
G01*
X146110000Y-141159000D01*
G75*
G02*
X146311000Y-141360000I0J-201000D01*
G01*
X146311000Y-141360000D01*
G75*
G02*
X146110000Y-141561000I-201000J0D01*
G01*
X141410000Y-141561000D01*
G75*
G02*
X141209000Y-141360000I0J201000D01*
G01*
G37*
G36*
G01*
X141209000Y-141860000D02*
X141209000Y-141860000D01*
G75*
G02*
X141410000Y-141659000I201000J0D01*
G01*
X146110000Y-141659000D01*
G75*
G02*
X146311000Y-141860000I0J-201000D01*
G01*
X146311000Y-141860000D01*
G75*
G02*
X146110000Y-142061000I-201000J0D01*
G01*
X141410000Y-142061000D01*
G75*
G02*
X141209000Y-141860000I0J201000D01*
G01*
G37*
G36*
G01*
X141209000Y-142360000D02*
X141209000Y-142360000D01*
G75*
G02*
X141410000Y-142159000I201000J0D01*
G01*
X146110000Y-142159000D01*
G75*
G02*
X146311000Y-142360000I0J-201000D01*
G01*
X146311000Y-142360000D01*
G75*
G02*
X146110000Y-142561000I-201000J0D01*
G01*
X141410000Y-142561000D01*
G75*
G02*
X141209000Y-142360000I0J201000D01*
G01*
G37*
G36*
G01*
X141209000Y-142860000D02*
X141209000Y-142860000D01*
G75*
G02*
X141410000Y-142659000I201000J0D01*
G01*
X146110000Y-142659000D01*
G75*
G02*
X146311000Y-142860000I0J-201000D01*
G01*
X146311000Y-142860000D01*
G75*
G02*
X146110000Y-143061000I-201000J0D01*
G01*
X141410000Y-143061000D01*
G75*
G02*
X141209000Y-142860000I0J201000D01*
G01*
G37*
G36*
G01*
X141209000Y-143360000D02*
X141209000Y-143360000D01*
G75*
G02*
X141410000Y-143159000I201000J0D01*
G01*
X146110000Y-143159000D01*
G75*
G02*
X146311000Y-143360000I0J-201000D01*
G01*
X146311000Y-143360000D01*
G75*
G02*
X146110000Y-143561000I-201000J0D01*
G01*
X141410000Y-143561000D01*
G75*
G02*
X141209000Y-143360000I0J201000D01*
G01*
G37*
G36*
X141281425Y-143008779D02*
G01*
X141333860Y-143043816D01*
X141410199Y-143059001D01*
X146109801Y-143059001D01*
X146186140Y-143043816D01*
X146229971Y-143014529D01*
X146231967Y-143014398D01*
X146233078Y-143016061D01*
X146232720Y-143017339D01*
X146199088Y-143065370D01*
X146193543Y-143128759D01*
X146220475Y-143186515D01*
X146228751Y-143193461D01*
X146228997Y-143193707D01*
X146241218Y-143208271D01*
X146241565Y-143210241D01*
X146240033Y-143211527D01*
X146238575Y-143211220D01*
X146186140Y-143176184D01*
X146109801Y-143160999D01*
X141410199Y-143160999D01*
X141333860Y-143176184D01*
X141290030Y-143205471D01*
X141288034Y-143205602D01*
X141286923Y-143203939D01*
X141287281Y-143202661D01*
X141320912Y-143154632D01*
X141326458Y-143091243D01*
X141299528Y-143033486D01*
X141291251Y-143026542D01*
X141291005Y-143026296D01*
X141278782Y-143011728D01*
X141278435Y-143009758D01*
X141279967Y-143008472D01*
X141281425Y-143008779D01*
G37*
G36*
X141281425Y-142508779D02*
G01*
X141333860Y-142543816D01*
X141410199Y-142559001D01*
X146109801Y-142559001D01*
X146186140Y-142543816D01*
X146229971Y-142514529D01*
X146231967Y-142514398D01*
X146233078Y-142516061D01*
X146232720Y-142517339D01*
X146199088Y-142565370D01*
X146193543Y-142628759D01*
X146220475Y-142686515D01*
X146228751Y-142693461D01*
X146228997Y-142693707D01*
X146241218Y-142708271D01*
X146241565Y-142710241D01*
X146240033Y-142711527D01*
X146238575Y-142711220D01*
X146186140Y-142676184D01*
X146109801Y-142660999D01*
X141410199Y-142660999D01*
X141333860Y-142676184D01*
X141290030Y-142705471D01*
X141288034Y-142705602D01*
X141286923Y-142703939D01*
X141287281Y-142702661D01*
X141320912Y-142654632D01*
X141326458Y-142591243D01*
X141299528Y-142533486D01*
X141291251Y-142526542D01*
X141291005Y-142526296D01*
X141278782Y-142511728D01*
X141278435Y-142509758D01*
X141279967Y-142508472D01*
X141281425Y-142508779D01*
G37*
G36*
X141281425Y-142008779D02*
G01*
X141333860Y-142043816D01*
X141410199Y-142059001D01*
X146109801Y-142059001D01*
X146186140Y-142043816D01*
X146229971Y-142014529D01*
X146231967Y-142014398D01*
X146233078Y-142016061D01*
X146232720Y-142017339D01*
X146199088Y-142065370D01*
X146193543Y-142128759D01*
X146220475Y-142186515D01*
X146228751Y-142193461D01*
X146228997Y-142193707D01*
X146241218Y-142208271D01*
X146241565Y-142210241D01*
X146240033Y-142211527D01*
X146238575Y-142211220D01*
X146186140Y-142176184D01*
X146109801Y-142160999D01*
X141410199Y-142160999D01*
X141333860Y-142176184D01*
X141290030Y-142205471D01*
X141288034Y-142205602D01*
X141286923Y-142203939D01*
X141287281Y-142202661D01*
X141320912Y-142154632D01*
X141326458Y-142091243D01*
X141299528Y-142033486D01*
X141291251Y-142026542D01*
X141291005Y-142026296D01*
X141278782Y-142011728D01*
X141278435Y-142009758D01*
X141279967Y-142008472D01*
X141281425Y-142008779D01*
G37*
G36*
X141281425Y-141508779D02*
G01*
X141333860Y-141543816D01*
X141410199Y-141559001D01*
X146109801Y-141559001D01*
X146186140Y-141543816D01*
X146229971Y-141514529D01*
X146231967Y-141514398D01*
X146233078Y-141516061D01*
X146232720Y-141517339D01*
X146199088Y-141565370D01*
X146193543Y-141628759D01*
X146220475Y-141686515D01*
X146228751Y-141693461D01*
X146228997Y-141693707D01*
X146241218Y-141708271D01*
X146241565Y-141710241D01*
X146240033Y-141711527D01*
X146238575Y-141711220D01*
X146186140Y-141676184D01*
X146109801Y-141660999D01*
X141410199Y-141660999D01*
X141333860Y-141676184D01*
X141290030Y-141705471D01*
X141288034Y-141705602D01*
X141286923Y-141703939D01*
X141287281Y-141702661D01*
X141320912Y-141654632D01*
X141326458Y-141591243D01*
X141299528Y-141533486D01*
X141291251Y-141526542D01*
X141291005Y-141526296D01*
X141278782Y-141511728D01*
X141278435Y-141509758D01*
X141279967Y-141508472D01*
X141281425Y-141508779D01*
G37*
G36*
X141281425Y-141008779D02*
G01*
X141333860Y-141043816D01*
X141410199Y-141059001D01*
X146109801Y-141059001D01*
X146186140Y-141043816D01*
X146229971Y-141014529D01*
X146231967Y-141014398D01*
X146233078Y-141016061D01*
X146232720Y-141017339D01*
X146199088Y-141065370D01*
X146193543Y-141128759D01*
X146220475Y-141186515D01*
X146228751Y-141193461D01*
X146228997Y-141193707D01*
X146241218Y-141208271D01*
X146241565Y-141210241D01*
X146240033Y-141211527D01*
X146238575Y-141211220D01*
X146186140Y-141176184D01*
X146109801Y-141160999D01*
X141410199Y-141160999D01*
X141333860Y-141176184D01*
X141290030Y-141205471D01*
X141288034Y-141205602D01*
X141286923Y-141203939D01*
X141287281Y-141202661D01*
X141320912Y-141154632D01*
X141326458Y-141091243D01*
X141299528Y-141033486D01*
X141291251Y-141026542D01*
X141291005Y-141026296D01*
X141278782Y-141011728D01*
X141278435Y-141009758D01*
X141279967Y-141008472D01*
X141281425Y-141008779D01*
G37*
G36*
X141281425Y-140508779D02*
G01*
X141333860Y-140543816D01*
X141410199Y-140559001D01*
X146109801Y-140559001D01*
X146186140Y-140543816D01*
X146229971Y-140514529D01*
X146231967Y-140514398D01*
X146233078Y-140516061D01*
X146232720Y-140517339D01*
X146199088Y-140565370D01*
X146193543Y-140628759D01*
X146220475Y-140686515D01*
X146228751Y-140693461D01*
X146228997Y-140693707D01*
X146241218Y-140708271D01*
X146241565Y-140710241D01*
X146240033Y-140711527D01*
X146238575Y-140711220D01*
X146186140Y-140676184D01*
X146109801Y-140660999D01*
X141410199Y-140660999D01*
X141333860Y-140676184D01*
X141290030Y-140705471D01*
X141288034Y-140705602D01*
X141286923Y-140703939D01*
X141287281Y-140702661D01*
X141320912Y-140654632D01*
X141326458Y-140591243D01*
X141299528Y-140533486D01*
X141291251Y-140526542D01*
X141291005Y-140526296D01*
X141278782Y-140511728D01*
X141278435Y-140509758D01*
X141279967Y-140508472D01*
X141281425Y-140508779D01*
G37*
G36*
X141281425Y-140008779D02*
G01*
X141333860Y-140043816D01*
X141410199Y-140059001D01*
X146109801Y-140059001D01*
X146186140Y-140043816D01*
X146229971Y-140014529D01*
X146231967Y-140014398D01*
X146233078Y-140016061D01*
X146232720Y-140017339D01*
X146199088Y-140065370D01*
X146193543Y-140128759D01*
X146220475Y-140186515D01*
X146228751Y-140193461D01*
X146228997Y-140193707D01*
X146241218Y-140208271D01*
X146241565Y-140210241D01*
X146240033Y-140211527D01*
X146238575Y-140211220D01*
X146186140Y-140176184D01*
X146109801Y-140160999D01*
X141410199Y-140160999D01*
X141333860Y-140176184D01*
X141290030Y-140205471D01*
X141288034Y-140205602D01*
X141286923Y-140203939D01*
X141287281Y-140202661D01*
X141320912Y-140154632D01*
X141326458Y-140091243D01*
X141299528Y-140033486D01*
X141291251Y-140026542D01*
X141291005Y-140026296D01*
X141278782Y-140011728D01*
X141278435Y-140009758D01*
X141279967Y-140008472D01*
X141281425Y-140008779D01*
G37*
G36*
X141281425Y-139508779D02*
G01*
X141333860Y-139543816D01*
X141410199Y-139559001D01*
X146109801Y-139559001D01*
X146186140Y-139543816D01*
X146229971Y-139514529D01*
X146231967Y-139514398D01*
X146233078Y-139516061D01*
X146232720Y-139517339D01*
X146199088Y-139565370D01*
X146193543Y-139628759D01*
X146220475Y-139686515D01*
X146228751Y-139693461D01*
X146228997Y-139693707D01*
X146241218Y-139708271D01*
X146241565Y-139710241D01*
X146240033Y-139711527D01*
X146238575Y-139711220D01*
X146186140Y-139676184D01*
X146109801Y-139660999D01*
X141410199Y-139660999D01*
X141333860Y-139676184D01*
X141290030Y-139705471D01*
X141288034Y-139705602D01*
X141286923Y-139703939D01*
X141287281Y-139702661D01*
X141320912Y-139654632D01*
X141326458Y-139591243D01*
X141299528Y-139533486D01*
X141291251Y-139526542D01*
X141291005Y-139526296D01*
X141278782Y-139511728D01*
X141278435Y-139509758D01*
X141279967Y-139508472D01*
X141281425Y-139508779D01*
G37*
G36*
X141281425Y-139008779D02*
G01*
X141333860Y-139043816D01*
X141410199Y-139059001D01*
X146109801Y-139059001D01*
X146186140Y-139043816D01*
X146229971Y-139014529D01*
X146231967Y-139014398D01*
X146233078Y-139016061D01*
X146232720Y-139017339D01*
X146199088Y-139065370D01*
X146193543Y-139128759D01*
X146220475Y-139186515D01*
X146228751Y-139193461D01*
X146228997Y-139193707D01*
X146241218Y-139208271D01*
X146241565Y-139210241D01*
X146240033Y-139211527D01*
X146238575Y-139211220D01*
X146186140Y-139176184D01*
X146109801Y-139160999D01*
X141410199Y-139160999D01*
X141333860Y-139176184D01*
X141290030Y-139205471D01*
X141288034Y-139205602D01*
X141286923Y-139203939D01*
X141287281Y-139202661D01*
X141320912Y-139154632D01*
X141326458Y-139091243D01*
X141299528Y-139033486D01*
X141291251Y-139026542D01*
X141291005Y-139026296D01*
X141278782Y-139011728D01*
X141278435Y-139009758D01*
X141279967Y-139008472D01*
X141281425Y-139008779D01*
G37*
G36*
X141281425Y-138508779D02*
G01*
X141333860Y-138543816D01*
X141410199Y-138559001D01*
X146109801Y-138559001D01*
X146186140Y-138543816D01*
X146229971Y-138514529D01*
X146231967Y-138514398D01*
X146233078Y-138516061D01*
X146232720Y-138517339D01*
X146199088Y-138565370D01*
X146193543Y-138628759D01*
X146220475Y-138686515D01*
X146228751Y-138693461D01*
X146228997Y-138693707D01*
X146241218Y-138708271D01*
X146241565Y-138710241D01*
X146240033Y-138711527D01*
X146238575Y-138711220D01*
X146186140Y-138676184D01*
X146109801Y-138660999D01*
X141410199Y-138660999D01*
X141333860Y-138676184D01*
X141290030Y-138705471D01*
X141288034Y-138705602D01*
X141286923Y-138703939D01*
X141287281Y-138702661D01*
X141320912Y-138654632D01*
X141326458Y-138591243D01*
X141299528Y-138533486D01*
X141291251Y-138526542D01*
X141291005Y-138526296D01*
X141278782Y-138511728D01*
X141278435Y-138509758D01*
X141279967Y-138508472D01*
X141281425Y-138508779D01*
G37*
G36*
X141281425Y-138008779D02*
G01*
X141333860Y-138043816D01*
X141410199Y-138059001D01*
X146109801Y-138059001D01*
X146186140Y-138043816D01*
X146229971Y-138014529D01*
X146231967Y-138014398D01*
X146233078Y-138016061D01*
X146232720Y-138017339D01*
X146199088Y-138065370D01*
X146193543Y-138128759D01*
X146220475Y-138186515D01*
X146228751Y-138193461D01*
X146228997Y-138193707D01*
X146241218Y-138208271D01*
X146241565Y-138210241D01*
X146240033Y-138211527D01*
X146238575Y-138211220D01*
X146186140Y-138176184D01*
X146109801Y-138160999D01*
X141410199Y-138160999D01*
X141333860Y-138176184D01*
X141290030Y-138205471D01*
X141288034Y-138205602D01*
X141286923Y-138203939D01*
X141287281Y-138202661D01*
X141320912Y-138154632D01*
X141326458Y-138091243D01*
X141299528Y-138033486D01*
X141291251Y-138026542D01*
X141291005Y-138026296D01*
X141278782Y-138011728D01*
X141278435Y-138009758D01*
X141279967Y-138008472D01*
X141281425Y-138008779D01*
G37*
G36*
X141281425Y-137508779D02*
G01*
X141333860Y-137543816D01*
X141410199Y-137559001D01*
X146109801Y-137559001D01*
X146186140Y-137543816D01*
X146229971Y-137514529D01*
X146231967Y-137514398D01*
X146233078Y-137516061D01*
X146232720Y-137517339D01*
X146199088Y-137565370D01*
X146193543Y-137628759D01*
X146220475Y-137686515D01*
X146228751Y-137693461D01*
X146228997Y-137693707D01*
X146241218Y-137708271D01*
X146241565Y-137710241D01*
X146240033Y-137711527D01*
X146238575Y-137711220D01*
X146186140Y-137676184D01*
X146109801Y-137660999D01*
X141410199Y-137660999D01*
X141333860Y-137676184D01*
X141290030Y-137705471D01*
X141288034Y-137705602D01*
X141286923Y-137703939D01*
X141287281Y-137702661D01*
X141320912Y-137654632D01*
X141326458Y-137591243D01*
X141299528Y-137533486D01*
X141291251Y-137526542D01*
X141291005Y-137526296D01*
X141278782Y-137511728D01*
X141278435Y-137509758D01*
X141279967Y-137508472D01*
X141281425Y-137508779D01*
G37*
G36*
X141281425Y-137008779D02*
G01*
X141333860Y-137043816D01*
X141410199Y-137059001D01*
X146109801Y-137059001D01*
X146186140Y-137043816D01*
X146229971Y-137014529D01*
X146231967Y-137014398D01*
X146233078Y-137016061D01*
X146232720Y-137017339D01*
X146199088Y-137065370D01*
X146193543Y-137128759D01*
X146220475Y-137186515D01*
X146228751Y-137193461D01*
X146228997Y-137193707D01*
X146241218Y-137208271D01*
X146241565Y-137210241D01*
X146240033Y-137211527D01*
X146238575Y-137211220D01*
X146186140Y-137176184D01*
X146109801Y-137160999D01*
X141410199Y-137160999D01*
X141333860Y-137176184D01*
X141290030Y-137205471D01*
X141288034Y-137205602D01*
X141286923Y-137203939D01*
X141287281Y-137202661D01*
X141320912Y-137154632D01*
X141326458Y-137091243D01*
X141299528Y-137033486D01*
X141291251Y-137026542D01*
X141291005Y-137026296D01*
X141278782Y-137011728D01*
X141278435Y-137009758D01*
X141279967Y-137008472D01*
X141281425Y-137008779D01*
G37*
M02*
