G04 #@! TF.GenerationSoftware,KiCad,Pcbnew,5.99.0-unknown-711fc99~101~ubuntu18.04.1*
G04 #@! TF.CreationDate,2020-06-08T21:21:56+05:30*
G04 #@! TF.ProjectId,paperd.ink_front_pcb,70617065-7264-42e6-996e-6b5f66726f6e,rev?*
G04 #@! TF.SameCoordinates,Original*
G04 #@! TF.FileFunction,Soldermask,Top*
G04 #@! TF.FilePolarity,Negative*
%FSLAX46Y46*%
G04 Gerber Fmt 4.6, Leading zero omitted, Abs format (unit mm)*
G04 Created by KiCad (PCBNEW 5.99.0-unknown-711fc99~101~ubuntu18.04.1) date 2020-06-08 21:21:56*
%MOMM*%
%LPD*%
G01*
G04 APERTURE LIST*
G04 APERTURE END LIST*
G36*
G01*
X100391000Y-141044001D02*
X100391000Y-140343999D01*
G75*
G02*
X100441999Y-140293000I50999J0D01*
G01*
X101242001Y-140293000D01*
G75*
G02*
X101293000Y-140343999I0J-50999D01*
G01*
X101293000Y-141044001D01*
G75*
G02*
X101242001Y-141095000I-50999J0D01*
G01*
X100441999Y-141095000D01*
G75*
G02*
X100391000Y-141044001I0J50999D01*
G01*
G37*
G36*
G01*
X102993000Y-140343999D02*
X102993000Y-141044001D01*
G75*
G02*
X102942001Y-141095000I-50999J0D01*
G01*
X102141999Y-141095000D01*
G75*
G02*
X102091000Y-141044001I0J50999D01*
G01*
X102091000Y-140343999D01*
G75*
G02*
X102141999Y-140293000I50999J0D01*
G01*
X102942001Y-140293000D01*
G75*
G02*
X102993000Y-140343999I0J-50999D01*
G01*
G37*
G36*
G01*
X102091000Y-139944001D02*
X102091000Y-139243999D01*
G75*
G02*
X102141999Y-139193000I50999J0D01*
G01*
X102942001Y-139193000D01*
G75*
G02*
X102993000Y-139243999I0J-50999D01*
G01*
X102993000Y-139944001D01*
G75*
G02*
X102942001Y-139995000I-50999J0D01*
G01*
X102141999Y-139995000D01*
G75*
G02*
X102091000Y-139944001I0J50999D01*
G01*
G37*
G36*
G01*
X100391000Y-139944001D02*
X100391000Y-139243999D01*
G75*
G02*
X100441999Y-139193000I50999J0D01*
G01*
X101242001Y-139193000D01*
G75*
G02*
X101293000Y-139243999I0J-50999D01*
G01*
X101293000Y-139944001D01*
G75*
G02*
X101242001Y-139995000I-50999J0D01*
G01*
X100441999Y-139995000D01*
G75*
G02*
X100391000Y-139944001I0J50999D01*
G01*
G37*
G36*
G01*
X118759000Y-140080000D02*
X118759000Y-140080000D01*
G75*
G02*
X121310000Y-137529000I2551000J0D01*
G01*
X136310000Y-137529000D01*
G75*
G02*
X138861000Y-140080000I0J-2551000D01*
G01*
X138861000Y-140080000D01*
G75*
G02*
X136310000Y-142631000I-2551000J0D01*
G01*
X121310000Y-142631000D01*
G75*
G02*
X118759000Y-140080000I0J2551000D01*
G01*
G37*
G36*
G01*
X64659000Y-140080000D02*
X64659000Y-140080000D01*
G75*
G02*
X67210000Y-137529000I2551000J0D01*
G01*
X82210000Y-137529000D01*
G75*
G02*
X84761000Y-140080000I0J-2551000D01*
G01*
X84761000Y-140080000D01*
G75*
G02*
X82210000Y-142631000I-2551000J0D01*
G01*
X67210000Y-142631000D01*
G75*
G02*
X64659000Y-140080000I0J2551000D01*
G01*
G37*
M02*
