G04 #@! TF.GenerationSoftware,KiCad,Pcbnew,5.99.0-unknown-711fc99~101~ubuntu18.04.1*
G04 #@! TF.CreationDate,2020-06-08T21:21:56+05:30*
G04 #@! TF.ProjectId,paperd.ink_front_pcb,70617065-7264-42e6-996e-6b5f66726f6e,rev?*
G04 #@! TF.SameCoordinates,Original*
G04 #@! TF.FileFunction,Copper,L4,Bot*
G04 #@! TF.FilePolarity,Positive*
%FSLAX46Y46*%
G04 Gerber Fmt 4.6, Leading zero omitted, Abs format (unit mm)*
G04 Created by KiCad (PCBNEW 5.99.0-unknown-711fc99~101~ubuntu18.04.1) date 2020-06-08 21:21:56*
%MOMM*%
%LPD*%
G01*
G04 APERTURE LIST*
G04 #@! TA.AperFunction,ViaPad*
%ADD10C,0.500000*%
G04 #@! TD*
G04 #@! TA.AperFunction,ViaPad*
%ADD11C,0.450000*%
G04 #@! TD*
G04 #@! TA.AperFunction,Conductor*
%ADD12C,0.101600*%
G04 #@! TD*
G04 #@! TA.AperFunction,Conductor*
%ADD13C,0.254000*%
G04 #@! TD*
G04 APERTURE END LIST*
G04 #@! TA.AperFunction,SMDPad,CuDef*
G36*
G01*
X141260000Y-136860000D02*
X141260000Y-136860000D01*
G75*
G02*
X141410000Y-136710000I150000J0D01*
G01*
X146110000Y-136710000D01*
G75*
G02*
X146260000Y-136860000I0J-150000D01*
G01*
X146260000Y-136860000D01*
G75*
G02*
X146110000Y-137010000I-150000J0D01*
G01*
X141410000Y-137010000D01*
G75*
G02*
X141260000Y-136860000I0J150000D01*
G01*
G37*
G04 #@! TD.AperFunction*
G04 #@! TA.AperFunction,SMDPad,CuDef*
G36*
G01*
X141260000Y-137360000D02*
X141260000Y-137360000D01*
G75*
G02*
X141410000Y-137210000I150000J0D01*
G01*
X146110000Y-137210000D01*
G75*
G02*
X146260000Y-137360000I0J-150000D01*
G01*
X146260000Y-137360000D01*
G75*
G02*
X146110000Y-137510000I-150000J0D01*
G01*
X141410000Y-137510000D01*
G75*
G02*
X141260000Y-137360000I0J150000D01*
G01*
G37*
G04 #@! TD.AperFunction*
G04 #@! TA.AperFunction,SMDPad,CuDef*
G36*
G01*
X141260000Y-137860000D02*
X141260000Y-137860000D01*
G75*
G02*
X141410000Y-137710000I150000J0D01*
G01*
X146110000Y-137710000D01*
G75*
G02*
X146260000Y-137860000I0J-150000D01*
G01*
X146260000Y-137860000D01*
G75*
G02*
X146110000Y-138010000I-150000J0D01*
G01*
X141410000Y-138010000D01*
G75*
G02*
X141260000Y-137860000I0J150000D01*
G01*
G37*
G04 #@! TD.AperFunction*
G04 #@! TA.AperFunction,SMDPad,CuDef*
G36*
G01*
X141260000Y-138360000D02*
X141260000Y-138360000D01*
G75*
G02*
X141410000Y-138210000I150000J0D01*
G01*
X146110000Y-138210000D01*
G75*
G02*
X146260000Y-138360000I0J-150000D01*
G01*
X146260000Y-138360000D01*
G75*
G02*
X146110000Y-138510000I-150000J0D01*
G01*
X141410000Y-138510000D01*
G75*
G02*
X141260000Y-138360000I0J150000D01*
G01*
G37*
G04 #@! TD.AperFunction*
G04 #@! TA.AperFunction,SMDPad,CuDef*
G36*
G01*
X141260000Y-138860000D02*
X141260000Y-138860000D01*
G75*
G02*
X141410000Y-138710000I150000J0D01*
G01*
X146110000Y-138710000D01*
G75*
G02*
X146260000Y-138860000I0J-150000D01*
G01*
X146260000Y-138860000D01*
G75*
G02*
X146110000Y-139010000I-150000J0D01*
G01*
X141410000Y-139010000D01*
G75*
G02*
X141260000Y-138860000I0J150000D01*
G01*
G37*
G04 #@! TD.AperFunction*
G04 #@! TA.AperFunction,SMDPad,CuDef*
G36*
G01*
X141260000Y-139360000D02*
X141260000Y-139360000D01*
G75*
G02*
X141410000Y-139210000I150000J0D01*
G01*
X146110000Y-139210000D01*
G75*
G02*
X146260000Y-139360000I0J-150000D01*
G01*
X146260000Y-139360000D01*
G75*
G02*
X146110000Y-139510000I-150000J0D01*
G01*
X141410000Y-139510000D01*
G75*
G02*
X141260000Y-139360000I0J150000D01*
G01*
G37*
G04 #@! TD.AperFunction*
G04 #@! TA.AperFunction,SMDPad,CuDef*
G36*
G01*
X141260000Y-139860000D02*
X141260000Y-139860000D01*
G75*
G02*
X141410000Y-139710000I150000J0D01*
G01*
X146110000Y-139710000D01*
G75*
G02*
X146260000Y-139860000I0J-150000D01*
G01*
X146260000Y-139860000D01*
G75*
G02*
X146110000Y-140010000I-150000J0D01*
G01*
X141410000Y-140010000D01*
G75*
G02*
X141260000Y-139860000I0J150000D01*
G01*
G37*
G04 #@! TD.AperFunction*
G04 #@! TA.AperFunction,SMDPad,CuDef*
G36*
G01*
X141260000Y-140360000D02*
X141260000Y-140360000D01*
G75*
G02*
X141410000Y-140210000I150000J0D01*
G01*
X146110000Y-140210000D01*
G75*
G02*
X146260000Y-140360000I0J-150000D01*
G01*
X146260000Y-140360000D01*
G75*
G02*
X146110000Y-140510000I-150000J0D01*
G01*
X141410000Y-140510000D01*
G75*
G02*
X141260000Y-140360000I0J150000D01*
G01*
G37*
G04 #@! TD.AperFunction*
G04 #@! TA.AperFunction,SMDPad,CuDef*
G36*
G01*
X141260000Y-140860000D02*
X141260000Y-140860000D01*
G75*
G02*
X141410000Y-140710000I150000J0D01*
G01*
X146110000Y-140710000D01*
G75*
G02*
X146260000Y-140860000I0J-150000D01*
G01*
X146260000Y-140860000D01*
G75*
G02*
X146110000Y-141010000I-150000J0D01*
G01*
X141410000Y-141010000D01*
G75*
G02*
X141260000Y-140860000I0J150000D01*
G01*
G37*
G04 #@! TD.AperFunction*
G04 #@! TA.AperFunction,SMDPad,CuDef*
G36*
G01*
X141260000Y-141360000D02*
X141260000Y-141360000D01*
G75*
G02*
X141410000Y-141210000I150000J0D01*
G01*
X146110000Y-141210000D01*
G75*
G02*
X146260000Y-141360000I0J-150000D01*
G01*
X146260000Y-141360000D01*
G75*
G02*
X146110000Y-141510000I-150000J0D01*
G01*
X141410000Y-141510000D01*
G75*
G02*
X141260000Y-141360000I0J150000D01*
G01*
G37*
G04 #@! TD.AperFunction*
G04 #@! TA.AperFunction,SMDPad,CuDef*
G36*
G01*
X141260000Y-141860000D02*
X141260000Y-141860000D01*
G75*
G02*
X141410000Y-141710000I150000J0D01*
G01*
X146110000Y-141710000D01*
G75*
G02*
X146260000Y-141860000I0J-150000D01*
G01*
X146260000Y-141860000D01*
G75*
G02*
X146110000Y-142010000I-150000J0D01*
G01*
X141410000Y-142010000D01*
G75*
G02*
X141260000Y-141860000I0J150000D01*
G01*
G37*
G04 #@! TD.AperFunction*
G04 #@! TA.AperFunction,SMDPad,CuDef*
G36*
G01*
X141260000Y-142360000D02*
X141260000Y-142360000D01*
G75*
G02*
X141410000Y-142210000I150000J0D01*
G01*
X146110000Y-142210000D01*
G75*
G02*
X146260000Y-142360000I0J-150000D01*
G01*
X146260000Y-142360000D01*
G75*
G02*
X146110000Y-142510000I-150000J0D01*
G01*
X141410000Y-142510000D01*
G75*
G02*
X141260000Y-142360000I0J150000D01*
G01*
G37*
G04 #@! TD.AperFunction*
G04 #@! TA.AperFunction,SMDPad,CuDef*
G36*
G01*
X141260000Y-142860000D02*
X141260000Y-142860000D01*
G75*
G02*
X141410000Y-142710000I150000J0D01*
G01*
X146110000Y-142710000D01*
G75*
G02*
X146260000Y-142860000I0J-150000D01*
G01*
X146260000Y-142860000D01*
G75*
G02*
X146110000Y-143010000I-150000J0D01*
G01*
X141410000Y-143010000D01*
G75*
G02*
X141260000Y-142860000I0J150000D01*
G01*
G37*
G04 #@! TD.AperFunction*
G04 #@! TA.AperFunction,SMDPad,CuDef*
G36*
G01*
X141260000Y-143360000D02*
X141260000Y-143360000D01*
G75*
G02*
X141410000Y-143210000I150000J0D01*
G01*
X146110000Y-143210000D01*
G75*
G02*
X146260000Y-143360000I0J-150000D01*
G01*
X146260000Y-143360000D01*
G75*
G02*
X146110000Y-143510000I-150000J0D01*
G01*
X141410000Y-143510000D01*
G75*
G02*
X141260000Y-143360000I0J150000D01*
G01*
G37*
G04 #@! TD.AperFunction*
D10*
X99710000Y-139440000D03*
D11*
X140830000Y-137010000D03*
X138120000Y-140890000D03*
X83240000Y-138400000D03*
X140160000Y-137920000D03*
X104230000Y-139560000D03*
X104250000Y-140830000D03*
D12*
X136570000Y-136920000D02*
X84720000Y-136920000D01*
X84720000Y-136920000D02*
X83240000Y-138400000D01*
D13*
X100870000Y-141960000D02*
X100870000Y-140600000D01*
X143730000Y-143390000D02*
X102300000Y-143390000D01*
X102300000Y-143390000D02*
X100870000Y-141960000D01*
X100870000Y-140600000D02*
X99710000Y-139440000D01*
X143760000Y-143360000D02*
X143730000Y-143390000D01*
X143760000Y-143360000D02*
X143760000Y-142860000D01*
D12*
X143760000Y-136860000D02*
X143720000Y-136900000D01*
X143720000Y-136900000D02*
X140940000Y-136900000D01*
X140940000Y-136900000D02*
X140830000Y-137010000D01*
X143760000Y-137360000D02*
X143760000Y-136860000D01*
X138120000Y-140890000D02*
X138438198Y-140890000D01*
X138438198Y-140890000D02*
X138468198Y-140860000D01*
X138468198Y-140860000D02*
X140790000Y-140860000D01*
X143760000Y-141360000D02*
X143760000Y-140860000D01*
X143760000Y-140860000D02*
X140790000Y-140860000D01*
X143760000Y-139360000D02*
X143760000Y-138860000D01*
X143760000Y-138860000D02*
X143720000Y-138900000D01*
X143720000Y-138900000D02*
X140040000Y-138900000D01*
X140040000Y-138900000D02*
X138060000Y-136920000D01*
X138060000Y-136920000D02*
X136570000Y-136920000D01*
X143760000Y-137860000D02*
X140220000Y-137860000D01*
X140220000Y-137860000D02*
X140160000Y-137920000D01*
X143760000Y-137860000D02*
X143820000Y-137920000D01*
X143760000Y-137860000D02*
X143760000Y-138420000D01*
X106520000Y-137270000D02*
X104230000Y-139560000D01*
X137860000Y-137270000D02*
X106520000Y-137270000D01*
X140448390Y-139860000D02*
X140448390Y-139858390D01*
X140448390Y-139858390D02*
X137860000Y-137270000D01*
X143760000Y-139860000D02*
X140448390Y-139860000D01*
X143760000Y-140360000D02*
X143760000Y-139860000D01*
X139469410Y-143110590D02*
X106530590Y-143110590D01*
X106530590Y-143110590D02*
X104250000Y-140830000D01*
X141240711Y-142139289D02*
X140440711Y-142139289D01*
X140440711Y-142139289D02*
X139469410Y-143110590D01*
X143760000Y-142360000D02*
X143539289Y-142139289D01*
X143539289Y-142139289D02*
X141240711Y-142139289D01*
X143760000Y-142360000D02*
X143760000Y-141860000D01*
M02*
